<svg xmlns="http://www.w3.org/2000/svg" viewBox="0 0 41.61 38.88"><defs><style>.cls-1{fill:#2c2355;}.cls-2{fill:#2c2255;}.cls-3{fill:#f69420;}.cls-4{fill:#302659;}.cls-5{fill:#3d2f75;}.cls-6{fill:#352966;}.cls-7{fill:#433480;}</style></defs><title>eclipse</title><g id="Layer_2" data-name="Layer 2"><g id="Layer_1-2" data-name="Layer 1"><path class="cls-1" d="M40.86,14H5.08a18.21,18.21,0,0,1,5.17-8.24A18,18,0,0,1,23,.8,17.87,17.87,0,0,1,35.54,5.67,18.25,18.25,0,0,1,40.86,14Z"/><path class="cls-2" d="M34.49,24.84h6.37a18.53,18.53,0,0,1-5.8,8.76,17.86,17.86,0,0,1-12.39,4.47,17.84,17.84,0,0,1-12.06-4.69,18.29,18.29,0,0,1-5.52-8.53h6.38c.28.5.53,1,.84,1.51A9.48,9.48,0,0,0,14,28.43c.2.19.4.4.61.59A12.53,12.53,0,0,0,22,32.11a12.86,12.86,0,0,0,3.86-.28,12.16,12.16,0,0,0,4.56-2.06c.55-.4,1-.89,1.57-1.34.19-.19.4-.36.57-.56A13.75,13.75,0,0,0,34.49,24.84Z"/><path class="cls-3" d="M19.89,0A19.87,19.87,0,0,0,3.3,17.69,18.85,18.85,0,0,0,7.5,31.55,19.92,19.92,0,0,0,20,38.87,19.44,19.44,0,1,1,19.89,0Z"/><path class="cls-4" d="M4.34,18.35l.24-2.18H41.37l.24,2.18Z"/><path class="cls-5" d="M34.49,24.84a13.75,13.75,0,0,1-2,3c-.17.2-.38.37-.57.56,0-.28-.21-.21-.36-.21H14.24c-.15,0-.23.05-.22.21a9.48,9.48,0,0,1-1.71-2.08c-.31-.48-.56-1-.84-1.51h23Z"/><path class="cls-6" d="M10.32,20.51H35.63c0,.29-.05.58-.09.87-.06.44-.15.87-.22,1.31H10.63l0-.28C10.5,21.78,10.41,21.14,10.32,20.51Z"/><path class="cls-2" d="M35.32,22.69c.07-.44.16-.87.22-1.31,0-.29.06-.58.09-.87h6l-.23,2.15c-.05,0-.06,0-.08,0Z"/><path class="cls-2" d="M10.32,20.51c.09.63.18,1.27.28,1.9l0,.28H4.58l-.24-2.17.21,0h5.77Z"/><path class="cls-7" d="M14,28.43c0-.16.07-.22.22-.21H31.58c.15,0,.36-.07.36.21-.53.45-1,.94-1.57,1.34a12.16,12.16,0,0,1-4.56,2.06,12.86,12.86,0,0,1-3.86.28A12.53,12.53,0,0,1,14.63,29C14.42,28.83,14.22,28.62,14,28.43Z"/></g></g></svg>