<svg xmlns="http://www.w3.org/2000/svg" viewBox="0 0 38.46 38.49"><defs><style>.cls-1{fill:#1f7145;}.cls-2{fill:#154d30;}.cls-3{fill:#185937;}.cls-4{fill:#f5f5f5;}.cls-5{fill:#f3f4f3;}.cls-6{fill:#1a5f3b;}.cls-7{fill:#075a2e;}.cls-8{fill:#13693d;}.cls-9{fill:#eafef7;}.cls-10{fill:#084e29;}.cls-11{fill:#f3faf8;}.cls-12{fill:#096136;}.cls-13{fill:#779f8a;}.cls-14{fill:#fdfefd;}.cls-15{fill:#83ae97;}.cls-16{fill:#12482b;}.cls-17{fill:#c6dfcd;}.cls-18{fill:#154229;}.cls-19{fill:#d1d1d1;}.cls-20{fill:#207146;}.cls-21{fill:#1c613c;}.cls-22{fill:#1d613d;}.cls-23{fill:#1d7044;}.cls-24{fill:#eae0e4;}.cls-25{fill:#759986;}.cls-26{fill:#91b0a5;}.cls-27{fill:#195f3a;}.cls-28{fill:#e4dfe1;}.cls-29{fill:#235138;}</style></defs><title>excel</title><g id="Layer_2" data-name="Layer 2"><g id="Layer_1-2" data-name="Layer 1"><path class="cls-1" d="M13.54,37.58a16,16,0,0,1-4.53-2A18.81,18.81,0,0,1,.07,20.7a19.22,19.22,0,0,1,37.47-7.34c0,.12.06.24.09.35a2.66,2.66,0,0,1-.38-.28c-1.4-1.4-2.8-2.81-4.21-4.21A3.28,3.28,0,0,0,32.66,9l-.15-.16,0-.07-.08-.1,0,0,0,0v.07h-.06l-6,0-2,0-.17,0L24,8.55h-.16a1.19,1.19,0,0,0-.14-.3c-.69-.69-1.38-1.38-2.09-2a.87.87,0,0,0-.34-.14V5.89l.1,0-.11,0h-.09s0,0,0,0l-.2,0-.65.09A1,1,0,0,0,20,5.73c-.71.11-1.43.23-2.14.36-.1,0-.18.12-.27.19l-.23,0-.41,0h-.24c-.48.06-1,.09-1.43.16-.81.12-1.61.25-2.4.4-.4.08-.78.2-1.17.31l-.24,0c-.06,0-.12-.06-.17,0L9.2,7.58c-.67.12-1.35.21-2,.34a5.82,5.82,0,0,0-.83.29v0L6,8.3l-.16,0-.56.15a1.86,1.86,0,0,0-.08.41q0,9.94,0,19.9a2.07,2.07,0,0,0,.08.42l.16.11a.61.61,0,0,0,.09.2L7.94,31.9c1.64,1.64,3.3,3.27,4.94,4.9C13.12,37,13.32,37.32,13.54,37.58Z"/><path class="cls-2" d="M13.54,37.58c-.22-.26-.42-.54-.66-.78-1.64-1.63-3.3-3.26-4.94-4.9L5.57,29.51a.61.61,0,0,1-.09-.2l.48,0h.16l.32.06.16,0,.89.25.65.08h.24l.16.07.24,0,.17.06.24,0c.29.26.64.17,1,.15h.31l.24.07.16,0c.09.06.16.18.26.19.73.13,1.45.27,2.19.36.55.06,1.11.06,1.67.08h.15c0,.05.1.14.15.15l2.75.4c.06,0,.12-.05.17-.08h.16l1.38.24h.07c.16.08.27.46.49.06h.16l.49.47c.13-.18.37-.35.38-.54,0-.63-.05-1.27-.06-1.9s0-.61.58-.61H32a2,2,0,0,0,.44-.14.1.1,0,0,1,.07,0l0-.64c0-.5,0-1,0-1.49,0-2.92,0-5.84,0-8.76l.15-.72c.07,0,.15,0,.19,0l1.37,1.39c1,1,2,2,2.95,3,.31.3.66.56,1,.83a14.82,14.82,0,0,1-1.24,4.28A19,19,0,0,1,21.53,38.32,18.27,18.27,0,0,1,14,37.74,3.57,3.57,0,0,1,13.54,37.58Z"/><path class="cls-3" d="M38.15,22.5c-.33-.27-.68-.53-1-.83-1-1-2-2-2.95-3L32.84,17.3s-.12,0-.19,0L32.57,17V10.59a2.26,2.26,0,0,0-.07-.43V9.43L32.66,9a3.28,3.28,0,0,1,.38.27c1.41,1.4,2.81,2.81,4.21,4.21a2.66,2.66,0,0,0,.38.28,18.07,18.07,0,0,1,.78,6.77C38.37,21.15,38.24,21.83,38.15,22.5Z"/><path class="cls-4" d="M18.38,31.29h-.16l-3.07-.47H15a2.79,2.79,0,0,0-.47-.14l-3.33-.51c-.21-.51-.73-.26-1.08-.4-.19-.08-.47.07-.7.12H9.28a2.75,2.75,0,0,0-.62-.24,4.11,4.11,0,0,0-.86,0H7.67a1,1,0,0,0-1.07-.2l-.16,0-.32-.06H6L5.37,29c0-.12,0-.24,0-.36v-20l.06-.09.48-.23L6,8.3l.33-.07v0h.23l.26,0,.15,0c.14.13.26.17.33-.06l.16,0A2.39,2.39,0,0,0,8.91,7.9s0-.07,0-.11l.67-.13,1.85-.39.24,0a2.16,2.16,0,0,0,.36,0c1-.16,1.93-.33,2.9-.51l1.74-.36h.24l.41,0,.23,0,2.74-.47L21,5.72l.2,0s0,0,0,0v4.43s0,0,0,.08l-.05,2.56v4.51l0,2.6v7s0,0,0,0a.14.14,0,0,0,0,.06l0,1.78a.06.06,0,0,0,0,.07v2.66h-.82l-.49-.06h-.07Zm-7.44-12-2,3.85h1.92a.3.3,0,0,0,.23-.16c.28-.61.54-1.23.8-1.84l.54-1.2C13,21,13.5,22,14.07,23.1a.38.38,0,0,0,.27.18c.71,0,1.41,0,2.13,0l-.08-.14c-.85-1.39-1.69-2.78-2.54-4.16a.54.54,0,0,1,0-.62c.55-1,1.07-2,1.6-3.07l.83-1.62c-.76.08-1.45.13-2.14.22a.43.43,0,0,0-.27.24c-.39.87-.77,1.74-1.14,2.62-.11.26-.2.53-.29.77-.51-1.06-1-2.1-1.51-3.14a.34.34,0,0,0-.28-.13l-1.68.18-.25,0c.77,1.34,1.51,2.65,2.27,3.94a.65.65,0,0,1,0,.77Z"/><path class="cls-5" d="M24.35,8.7l2,0,6,0,.08.09c0,2.69,0,5.39,0,8.08l-1.09-1c-.21-.19-.44-.37-.66-.56L30.55,14,29.67,14l-.48,0a3.82,3.82,0,0,0-.31-.47c-.15-.19-.33-.36-.5-.54l1.63,0c.18,0,.37-.05.56-.07V10.31H26.2l-.1.42L24.93,9.49c-.2-.22-.39-.46-.59-.69Z"/><path class="cls-6" d="M21.29,6.05a.87.87,0,0,1,.34.14c.71.67,1.4,1.36,2.09,2.05a1.19,1.19,0,0,1,.14.3l.15.07a.13.13,0,0,1,0,.06l-2.1,0-.06-.08-.09.08h-.4Z"/><path class="cls-7" d="M5.34,8.64v20c0,.12,0,.24,0,.36l0,.17a2.07,2.07,0,0,1-.08-.42q0-9.95,0-19.9a1.86,1.86,0,0,1,.08-.41.07.07,0,0,1,0,.06Z"/><path class="cls-8" d="M7.49,8.05l-.16,0L7,8.13l-.15,0-.26,0H6.36a5.82,5.82,0,0,1,.83-.29c.66-.13,1.34-.22,2-.34l2.08-.36c.05,0,.11,0,.17,0L9.6,7.66l-.67.13Z"/><path class="cls-8" d="M16.69,6.38,15,6.74c-1,.18-1.93.35-2.9.51a2.16,2.16,0,0,1-.36,0c.39-.11.77-.23,1.17-.31.79-.15,1.59-.28,2.4-.4C15.73,6.47,16.21,6.44,16.69,6.38Z"/><path class="cls-9" d="M32.4,16.87c0-2.69,0-5.39,0-8.08V8.7h0v0l.09.05,0,.07V17h-.09Z"/><path class="cls-8" d="M20.31,5.81l-2.74.47c.09-.07.17-.17.27-.19.71-.13,1.43-.25,2.14-.36A1,1,0,0,1,20.31,5.81Z"/><path class="cls-10" d="M21.29,6.05l.08,2.6-.18,0V5.8h.09v.24Z"/><path class="cls-11" d="M5.32,29.2l0-.17.59.32-.48,0Z"/><path class="cls-11" d="M5.34,8.53a.07.07,0,0,0,0-.06l.56-.15-.48.23S5.37,8.53,5.34,8.53Z"/><path class="cls-2" d="M32.5,9.43V8.79l.15.16Z"/><path class="cls-8" d="M17.34,6.32l-.41,0Z"/><path class="cls-11" d="M6.37,8.23,6,8.3Z"/><path class="cls-12" d="M24,8.67a.13.13,0,0,0,0-.06.13.13,0,0,0,0-.06l.16.12v0Z"/><path class="cls-13" d="M21.16,5.76l-.2,0Z"/><path class="cls-10" d="M24,8.55a.13.13,0,0,1,0,.06l-.15-.07Z"/><path class="cls-14" d="M24.35,8.7v.1h-.15V8.67Z"/><path class="cls-6" d="M21.29,5.89V5.81l.11,0Z"/><path class="cls-14" d="M32.41,8.7v.09l-.08-.09Z"/><path class="cls-15" d="M32.48,8.72l-.09-.05V8.62h0Z"/><path class="cls-12" d="M32.39,8.62l0,0,0,0Z"/><path class="cls-16" d="M20.48,31.61h.66V29l.06-.07H32.41v0A2,2,0,0,1,32,29H21.87c-.59,0-.6,0-.58.61s.08,1.27.06,1.9c0,.19-.25.36-.38.54Z"/><path class="cls-17" d="M32.41,17h.07l0,1c0,2.92,0,5.84,0,8.76,0,.5,0,1,0,1.49l0,.64a.1.1,0,0,0-.07,0V17Z"/><path class="cls-16" d="M11.2,30.15l3.33.51a2.79,2.79,0,0,1,.47.14c-.56,0-1.12,0-1.67-.08-.74-.09-1.46-.23-2.19-.36-.1,0-.17-.13-.26-.19Z"/><path class="cls-16" d="M15.15,30.81l3.07.47s-.11.09-.17.08L15.3,31C15.25,31,15.2,30.86,15.15,30.81Z"/><path class="cls-11" d="M11.2,30.15l-.32,0-.16,0-.24-.07h-.31l-.75-.21c.23-.05.51-.2.7-.12C10.47,29.89,11,29.64,11.2,30.15Z"/><path class="cls-11" d="M7.8,29.63a4.11,4.11,0,0,1,.86,0,2.75,2.75,0,0,1,.62.24l-.09.05-.24,0-.17-.06-.24,0-.16-.07H8.14Z"/><path class="cls-11" d="M6.6,29.44a1,1,0,0,1,1.07.2l-.18.05Z"/><path class="cls-16" d="M18.38,31.29l1.38.24Z"/><path class="cls-18" d="M32.5,18l0-1h.09l.08.24Z"/><path class="cls-16" d="M9.19,29.93l.09-.05h.14l.75.21C9.83,30.1,9.48,30.19,9.19,29.93Z"/><path class="cls-16" d="M19.83,31.54l.49.06C20.1,32,20,31.62,19.83,31.54Z"/><path class="cls-16" d="M7.49,29.69l.18-.05H7.8l.34.14Z"/><path class="cls-11" d="M6.12,29.36l.32.06Z"/><path class="cls-18" d="M32.48,28.87l0-.64Z"/><path class="cls-16" d="M10.48,30.08l.24.07Z"/><path class="cls-16" d="M8.38,29.76l.16.07Z"/><path class="cls-16" d="M8.78,29.85l.17.06Z"/><path class="cls-2" d="M32.57,17H32.5V10.16a2.26,2.26,0,0,1,.07.43Z"/><path class="cls-19" d="M32.41,17V28.86H21.13l0-1.78.21.06,0,.06,0-.06h.41l.06.08.09-.08h2.83l.08-.05h.17s.12-.08.12-.12c0-.73,0-1.46-.05-2.19,0-.42-.06-.45-.47-.29l-3.55,0V23.6s0,0,.06,0a1,1,0,0,0,.29.09H24.7a1.14,1.14,0,0,0,.3-.09l.05-.08h0c0-.83,0-1.66.05-2.49h0L24.75,21H21.13V20h3.62l.34-.07s.09-.07.09-.1c0-.5,0-1,0-1.51,0-.3,0-.59-.07-.89h0L25,17.35a1.14,1.14,0,0,0-.3-.09H21.57a1.08,1.08,0,0,0-.29.09l-.13,0v-.8l.13,0H25c0-.07.11-.15.11-.23,0-.78,0-1.56,0-2.33,0,0-.08-.06-.12-.08l-3.92,0V12.87h.06l3.55,0,.34-.07s.09-.06.09-.1c0-.5,0-1,0-1.5,0-.3,0-.6-.07-.9h-.24l0-.06.05-.08H21.47a.64.64,0,0,0-.18.06H21.2V8.78h3.14c.2.23.39.47.59.69l1.17,1.24h0v2.17h2.25v0c.17.18.35.35.5.54a3.82,3.82,0,0,1,.31.47H26.13v2.6l.08,0v0h3.55l.72,0,.09-.08,0-1.22a.07.07,0,0,0,.06,0c.22.19.45.37.66.56l1.09,1ZM30.62,24.6s0,0-.05,0a1.31,1.31,0,0,0-.34-.09H26.12v2.6c.12.21.25.22.4,0h3.8l0,.05.05-.05.23-.14c0-.61.07-1.21.09-1.82,0-.1-.06-.19-.09-.29V24.6Zm-.07-7.24a1,1,0,0,0-.28-.1H26.49a1,1,0,0,0-.29.09c0,.23-.07.46-.08.7,0,.64,0,1.29,0,1.95h4.24a.86.86,0,0,0,.21-.07h.05s.11-.08.11-.12c0-.69,0-1.38,0-2.07a1.39,1.39,0,0,0-.1-.31Zm.07,3.69s0,0-.05,0c-.22,0-.43-.07-.65-.07h-3.8V23.2a3.1,3.1,0,0,0,.08.42.75.75,0,0,0,.25.09h3.82a.82.82,0,0,0,.28-.11l.06-.06c0-.06.1-.12.1-.19q0-1.11,0-2.22S30.66,21.08,30.62,21.05Z"/><path class="cls-20" d="M8.94,14.44l1.68-.18a.34.34,0,0,1,.28.13c.51,1,1,2.08,1.51,3.14.09-.24.18-.51.29-.77.37-.88.75-1.75,1.14-2.62a.43.43,0,0,1,.27-.24c.69-.09,1.38-.14,2.14-.22l-.83,1.62c-.53,1-1.05,2.06-1.6,3.07a.54.54,0,0,0,0,.62c.85,1.38,1.69,2.77,2.54,4.16l.08.14c-.72,0-1.42,0-2.13,0a.38.38,0,0,1-.27-.18C13.5,22,13,21,12.41,19.94l-.54,1.2-.18.07,0,0,0,0c-.24.54-.48,1.09-.73,1.62a.25.25,0,0,1-.18.14H9.27c0-.12.05-.17.07-.22.49-1,1-2,1.47-3a2,2,0,0,0,.13-.49l.05-.12c.23-.08.45-.21.33-.49a8.85,8.85,0,0,0-.46-.78c-.43-.74-.85-1.48-1.27-2.22C9.37,15.28,9.16,14.86,8.94,14.44Z"/><path class="cls-21" d="M24.75,20H21.13l0-2.6.13,0H25l.05.08c0,.13-.05.26-.06.39,0,.59,0,1.18,0,1.77C25,19.73,24.83,19.86,24.75,20Z"/><path class="cls-21" d="M25.05,23.54l-.05.08H21.2s0,0-.06,0V21h3.62c.08.15.22.29.23.44C25,22.13,25,22.83,25.05,23.54Z"/><path class="cls-22" d="M25,16.6H21.28l-.13,0V14l3.92,0V14a1.34,1.34,0,0,0-.07.18c0,.69-.06,1.37-.07,2.06,0,.09.08.17.13.25A.15.15,0,0,1,25,16.6Z"/><path class="cls-6" d="M21.13,24.53l3.55,0v0c.1.07.28.15.29.22,0,.76,0,1.51-.05,2.27H21.14Z"/><path class="cls-23" d="M10.94,19.3a2,2,0,0,1-.13.49c-.48,1-1,2-1.47,3,0,0,0,.1-.07.22h1.5a.25.25,0,0,0,.18-.14c.25-.53.49-1.08.73-1.62h0l.18-.07c-.26.61-.52,1.23-.8,1.84a.3.3,0,0,1-.23.16H8.92Z"/><path class="cls-23" d="M8.94,14.44c.22.42.43.84.65,1.25.42.74.84,1.48,1.27,2.22a8.85,8.85,0,0,1,.46.78c.12.28-.1.41-.33.49a.65.65,0,0,0,0-.77c-.76-1.29-1.5-2.6-2.27-3.94Z"/><path class="cls-10" d="M21.2,12.87h-.06l.05-2.56.27,0,3.13,0a1.21,1.21,0,0,1-.36.1H22.91c-.52,0-1,0-1.55.06,0,.51-.05,1-.08,1.54C21.26,12.3,21.23,12.59,21.2,12.87Z"/><path class="cls-10" d="M21.14,27h3.77v.09l-.08.05H21.44a0,0,0,0,0-.07,0l-.21-.06a.14.14,0,0,1,0-.06S21.14,27,21.14,27Z"/><path class="cls-24" d="M24.19,8.79h-3v-.1l.18,0h.55l2.1,0,.16,0Z"/><path class="cls-11" d="M7.49,8.05l1.44-.26s0,.11,0,.11A2.39,2.39,0,0,1,7.49,8.05Z"/><path class="cls-11" d="M7,8.13l.33-.06C7.26,8.3,7.14,8.26,7,8.13Z"/><path class="cls-11" d="M6.59,8.2l.26,0Z"/><path class="cls-25" d="M21.46,10.28l-.27,0s0-.05,0-.08h.09Z"/><path class="cls-2" d="M21.13,28.88h.07l-.06.07A.06.06,0,0,1,21.13,28.88Z"/><path class="cls-26" d="M5.34,8.53s0,0,.06,0l-.06.09Z"/><path class="cls-27" d="M26.13,16.53v-2.6h3.06l.48,0a7,7,0,0,0,.5.71c.08.1.25.11.37.16v.33a6.82,6.82,0,0,0-.07.9c0,.3-.09.39-.39.39-1,0-2.06,0-3.1,0a1.36,1.36,0,0,0-.38.11l-.41,0v0Z"/><path class="cls-23" d="M30.57,12.83c-.19,0-.38.07-.56.07l-1.63,0v0c-.39-.39-.77-.77-1.17-1.15l-1.08-1h0l.1-.42c.06,0,.12.12.18.12,1.27,0,2.55,0,3.82,0,.25,0,.28.13.28.33,0,.57,0,1.15,0,1.73A1.81,1.81,0,0,0,30.57,12.83Z"/><path class="cls-23" d="M30.54,14.84c-.12-.05-.29-.06-.37-.16a7,7,0,0,1-.5-.71l.88.07Z"/><path class="cls-12" d="M30.57,12.83a1.81,1.81,0,0,1-.09-.37c0-.58,0-1.16,0-1.73,0-.2,0-.33-.28-.33-1.27,0-2.55,0-3.82,0-.06,0-.12-.08-.18-.12h4.37Z"/><path class="cls-13" d="M30.54,14.84V14l.1,1.28a.07.07,0,0,1-.06,0l0-.16Z"/><path class="cls-10" d="M21.92,8.65h-.15l.09-.08Z"/><path class="cls-27" d="M26.12,27.12v-2.6h4.11a1.31,1.31,0,0,1,.34.09,1.58,1.58,0,0,0-.09.36c0,.55,0,1.1,0,1.65,0,.33-.1.41-.41.4H26.6a1.47,1.47,0,0,0-.4.1Z"/><path class="cls-27" d="M30.57,19.93a.86.86,0,0,1-.21.07H26.12c0-.66,0-1.31,0-1.95,0-.24.05-.47.08-.7l.08,0v.12l0,0,0,0a1.28,1.28,0,0,0,.27.05l3.61-.05c.26,0,.32.1.32.33,0,.56,0,1.13,0,1.69A2,2,0,0,0,30.57,19.93Z"/><path class="cls-27" d="M26.2,23.62a3.1,3.1,0,0,1-.08-.42V21h3.8c.22,0,.43.05.65.07a1.66,1.66,0,0,0-.09.37c0,.54,0,1.07,0,1.61,0,.34-.06.47-.44.46-1,0-2,0-3.05,0h-.71l0,0,0,0v.12Z"/><path class="cls-27" d="M21.2,12.87c0-.28.06-.57.08-.86,0-.51,0-1,.08-1.54.52,0,1-.05,1.55-.06h1.32a1.21,1.21,0,0,0,.36-.1l.28-.05,0,.06.15.17c0,.64,0,1.28,0,1.91a1.5,1.5,0,0,1-.23.5Z"/><path class="cls-27" d="M26.13,10.72l1.08,1c.4.38.78.76,1.17,1.15H26.13Z"/><path class="cls-10" d="M26.28,23.59v-.12H27c1,0,2,0,3.05,0,.38,0,.46-.12.44-.46,0-.54,0-1.07,0-1.61a1.66,1.66,0,0,1,.09-.37s0,0,.05,0v2.49l-.06.06Z"/><path class="cls-10" d="M26.28,17.5v-.12l4.27,0,.06.06c0,.84,0,1.67,0,2.5h-.05a2,2,0,0,1-.09-.41c0-.56,0-1.13,0-1.69,0-.23-.06-.34-.32-.33l-3.61.05a1.28,1.28,0,0,1-.27-.05Z"/><path class="cls-10" d="M26.2,27.12a1.47,1.47,0,0,1,.4-.1h3.47c.31,0,.43-.07.41-.4,0-.55,0-1.1,0-1.65a1.58,1.58,0,0,1,.09-.36s0,0,.05,0V27l-.23.14a0,0,0,0,0-.07,0h-3.8Z"/><path class="cls-10" d="M30.55,15.17l0,.16,0,1.22-.26,0-.55,0H27.1l-.49,0a1.36,1.36,0,0,1,.38-.11c1,0,2.07,0,3.1,0,.3,0,.4-.09.39-.39A6.82,6.82,0,0,1,30.55,15.17Z"/><path class="cls-24" d="M24.87,10.25l-.28.05-3.13,0-.17,0a.64.64,0,0,1,.18-.06h3.45Z"/><path class="cls-24" d="M26.28,23.59h4.27a.82.82,0,0,1-.28.11H26.45a.75.75,0,0,1-.25-.09Z"/><path class="cls-24" d="M30.55,17.36l-4.27,0-.08,0a1,1,0,0,1,.29-.09h3.78A1,1,0,0,1,30.55,17.36Z"/><path class="cls-24" d="M21.2,23.62H25a1.14,1.14,0,0,1-.3.09H21.49A1,1,0,0,1,21.2,23.62Z"/><path class="cls-28" d="M25,17.35H21.28a1.08,1.08,0,0,1,.29-.09H24.7A1.14,1.14,0,0,1,25,17.35Z"/><path class="cls-17" d="M24.68,24.5c.41-.16.46-.13.47.29,0,.73,0,1.46.05,2.19,0,0-.08.08-.12.12V24.53h-.41Z"/><path class="cls-29" d="M24.67,24.53h.41V27.1h-.17V27c0-.76.05-1.51.05-2.27C25,24.68,24.77,24.6,24.67,24.53Z"/><path class="cls-28" d="M30.62,19.92c0-.83,0-1.66,0-2.5a1.39,1.39,0,0,1,.1.31c0,.69,0,1.38,0,2.07C30.73,19.84,30.66,19.88,30.62,19.92Z"/><path class="cls-28" d="M30.61,23.54V21.05s.12.05.12.08q0,1.11,0,2.22C30.71,23.42,30.64,23.48,30.61,23.54Z"/><path class="cls-29" d="M24.75,12.89a1.5,1.5,0,0,0,.23-.5c0-.63,0-1.27,0-1.91v-.17h.09v2.5Z"/><path class="cls-29" d="M24.75,20c.08-.13.22-.26.23-.4,0-.59,0-1.18,0-1.77,0-.13,0-.26.06-.39h0v2.5Z"/><path class="cls-29" d="M25.05,23.54c0-.71,0-1.41-.07-2.12,0-.15-.15-.29-.23-.44l.34.07v2.5Z"/><path class="cls-17" d="M25,16.6a.15.15,0,0,0,0-.07V14s.12,0,.12.08c0,.77,0,1.55,0,2.33C25.15,16.45,25.08,16.53,25,16.6Z"/><path class="cls-17" d="M25.09,19.92v-2.5c0,.3.06.59.07.89,0,.5,0,1,0,1.51C25.18,19.85,25.12,19.89,25.09,19.92Z"/><path class="cls-17" d="M25.09,12.82v-2.5c0,.3.06.6.07.9,0,.5,0,1,0,1.5C25.18,12.76,25.12,12.79,25.09,12.82Z"/><path class="cls-17" d="M25.08,23.55v-2.5h0C25.11,21.89,25.09,22.72,25.08,23.55Z"/><path class="cls-28" d="M30.62,27V24.91c0,.1.1.19.09.29C30.69,25.81,30.65,26.41,30.62,27Z"/><path class="cls-28" d="M26.61,16.57l.49,0h-.9Z"/><path class="cls-28" d="M26.2,27.12l.32,0c-.15.18-.28.17-.4,0Z"/><path class="cls-28" d="M29.75,16.6l.55,0,.17.05Z"/><path class="cls-28" d="M24.5,16.6h0Z"/><path class="cls-28" d="M21.85,27.16H22l-.09.08Z"/><path class="cls-28" d="M24.67,27.16h0Z"/><path class="cls-10" d="M25,10.31v.17l-.15-.17Z"/><path class="cls-13" d="M30.47,16.63l-.17-.05.26,0Z"/><path class="cls-28" d="M21.28,16.61h0Z"/><path class="cls-28" d="M30.62,24.76v0Z"/><path class="cls-28" d="M21.37,27.16a0,0,0,0,1,.07,0l0,.06Z"/><path class="cls-28" d="M30.32,27.16a0,0,0,0,1,.07,0l-.05.05Z"/><path class="cls-13" d="M26.13,16.53l.08,0Z"/><path class="cls-23" d="M11.68,21.21l0,0,0,0Z"/><path class="cls-29" d="M25.06,14v2.49c-.05-.08-.13-.16-.13-.25,0-.69,0-1.37.07-2.06A1.34,1.34,0,0,1,25.06,14Z"/><path class="cls-10" d="M26.28,17.5l0,0,0,0Z"/><path class="cls-10" d="M26.28,23.47l0,0,0,0Z"/></g></g></svg>