<svg xmlns="http://www.w3.org/2000/svg" viewBox="0 0 43.1 39.18"><defs><style>.cls-1{fill:#090909;}.cls-2{fill:#33578a;}.cls-3{fill:#375a8d;}.cls-4{fill:#202020;}.cls-5{fill:#244b82;}.cls-6{fill:#2d2d2d;}.cls-7{fill:#2a2a2a;}.cls-8{fill:#272727;}.cls-9{fill:#282828;}.cls-10{fill:#313131;}.cls-11{fill:#151515;}.cls-12{fill:#262626;}.cls-13{fill:#0a3372;}.cls-14{fill:#fbfbfc;}.cls-15{fill:#254c82;}.cls-16{fill:#274d83;}.cls-17{fill:#254b82;}.cls-18{fill:#274d82;}.cls-19{fill:#f9fafb;}.cls-20{fill:#fcfcfc;}</style></defs><title>postgresql</title><g id="Layer_2" data-name="Layer 2"><g id="Layer_1-2" data-name="Layer 1"><path class="cls-1" d="M29.43,18.09c.88-.09,1.75-.16,2.63-.28a1.08,1.08,0,0,1,1.3,1.62A4.07,4.07,0,0,1,30,22c-.88.12-1.76.12-2.68.17-.18,1.34-.38,2.79-.57,4.25a4.66,4.66,0,0,1-1.24,3,4.82,4.82,0,0,1-1.42.92,6.2,6.2,0,0,1-3.46.5,3.4,3.4,0,0,1-2.93-3.21c-.14-1.58-.25-3.16-.38-4.79a4,4,0,0,1-2.75.39,4.39,4.39,0,0,1-2.61-.94,8.59,8.59,0,0,1-1.43.7,1.8,1.8,0,0,1-1.69-.52,9.18,9.18,0,0,1-2.31-3.57,43.76,43.76,0,0,1-2.63-9A9.9,9.9,0,0,1,4.3,3.91,5.4,5.4,0,0,1,8.72.58a14.08,14.08,0,0,1,6.15.58.94.94,0,0,0,.62,0A8.4,8.4,0,0,1,21,.59a1.38,1.38,0,0,0,.64,0,11.52,11.52,0,0,1,7.25,0A8,8,0,0,1,32.8,3.46a4.08,4.08,0,0,1,.55,2.59,18.81,18.81,0,0,1-1,5.31,29.67,29.67,0,0,1-2.84,6.32,1.73,1.73,0,0,0-.1.24Zm-1.13.31c.23-.36.42-.66.6-1a27.07,27.07,0,0,0,3.42-8.82,14,14,0,0,0,.2-3A3.48,3.48,0,0,0,32,3.93a6.38,6.38,0,0,0-2.5-2.1,10.44,10.44,0,0,0-6.7-.68,9.14,9.14,0,0,1-1.43.31c-.61,0-1.22-.17-1.83-.2a5.61,5.61,0,0,0-3.38.65c-.27.16-.5.38-.93.24a12.56,12.56,0,0,0-6.46-.67,4.76,4.76,0,0,0-3,1.76A7.44,7.44,0,0,0,4.48,7.81a16.2,16.2,0,0,0,.35,2.85,37.57,37.57,0,0,0,2,7.3A9.61,9.61,0,0,0,9,21.65a1.84,1.84,0,0,0,2.6.05,12.61,12.61,0,0,0,.87-.92l1.92-2.18,1.69.47a2.34,2.34,0,0,1-1.85,1.18,4.77,4.77,0,0,0-.65.17.67.67,0,0,0-.32.14c-.23.23-.59.47-.61.74a1,1,0,0,0,.49.78,4.08,4.08,0,0,0,3.2.42A12,12,0,0,0,18,21.79c.11,1.72.18,3.54.36,5.34a3.24,3.24,0,0,0,1.11,2.28,3.47,3.47,0,0,0,3.1.61,3.68,3.68,0,0,0,3.24-2.77c.15-.63.25-1.27.34-1.91.17-1.22.3-2.44.48-3.66,0-.14.24-.37.34-.35a7.59,7.59,0,0,0,2.73-.13,4.57,4.57,0,0,0,2.76-1.64.88.88,0,0,0,.12-.76,1,1,0,0,0-.71-.39,12.88,12.88,0,0,0-1.74.2A3.26,3.26,0,0,1,28.3,18.4Z"/><path class="cls-2" d="M36.74,37.31l1,.83-.41.44c-.53-1-1.29-.68-2.12-.54a3.27,3.27,0,0,1-3.87-1.83,3.47,3.47,0,0,1,4.78-4.6,3.11,3.11,0,0,1,1.72,3.17A3.35,3.35,0,0,1,36.74,37.31Zm.48-2.63v-.22a2.66,2.66,0,0,0-1.71-2.61,3,3,0,0,0-3.38.91,3.55,3.55,0,0,0-.49,2.42,2.47,2.47,0,0,0,1.54,2.23,3,3,0,0,0,2.92-.21A2.76,2.76,0,0,0,37.22,34.68Z"/><path class="cls-3" d="M30.58,33.18H30a1.33,1.33,0,0,0-.9-1.32,3.23,3.23,0,0,0-2.29.07,1.06,1.06,0,0,0-.56,1.22.89.89,0,0,0,.68.85c.81.21,1.63.39,2.44.59a1.64,1.64,0,0,1,1.32,2.34,1.52,1.52,0,0,1-1.1,1,4.39,4.39,0,0,1-3.13-.16,1.76,1.76,0,0,1-1-1.87H26c.29,1.44,1.23,2,2.83,1.73,1-.19,1.4-.6,1.33-1.51a.92.92,0,0,0-.72-.92c-.83-.2-1.66-.38-2.49-.6-1-.27-1.37-.72-1.33-1.67a1.51,1.51,0,0,1,1.46-1.56,7.65,7.65,0,0,1,2.19.08A1.54,1.54,0,0,1,30.58,33.18Z"/><path class="cls-4" d="M0,37.48v-5.1l0,0a.14.14,0,0,0,0-.06c.05,0,.09-.08.14-.08.89,0,1.78,0,2.67,0a1.36,1.36,0,0,1,1.26,1.69c-.3,1.16-.59,1.38-1.81,1.39H.45v2.18l0,0,0,.06H0l0,0Zm.47-2.55c.68,0,1.34,0,2,0,.91-.05,1.3-.51,1.09-1.56a.78.78,0,0,0-.74-.71c-.78,0-1.55-.08-2.35-.11Z"/><path class="cls-5" d="M38.39,31.48l.53-.11v.49c0,1.72,0,3.45,0,5.17a2.49,2.49,0,0,0,.09.46h4l.1.42H38.45l-.07-.08V31.56s0,0,0,0A.14.14,0,0,0,38.39,31.48Z"/><path class="cls-6" d="M24.55,35.92H21.39a1.31,1.31,0,0,0,.9,1.46,1.46,1.46,0,0,0,1.76-.59c.07-.15.26-.23.49-.41a1.37,1.37,0,0,1-1.09,1.3,2,2,0,0,1-2.16-.61,2.25,2.25,0,0,1-.15-2.22,2,2,0,0,1,2.26-.8,1.64,1.64,0,0,1,1.24,1.7Zm-3.18-.29h2.9c-.21-.93-.7-1.36-1.52-1.35S21.53,34.68,21.37,35.63Z"/><path class="cls-7" d="M11.82,35.1c-.22,0-.4.06-.46-.26a.58.58,0,0,0-.36-.4,5.24,5.24,0,0,0-1.48,0c-.17,0-.36.4-.38.62s.27.38.46.43a14.46,14.46,0,0,0,1.46.28c.87.15,1.24.82.74,1.47a1.53,1.53,0,0,1-1,.48,4.33,4.33,0,0,1-1.34-.07c-.61-.11-.81-.37-.88-1l.37,0s.07.06.07.08c.1.56.21.68,1,.78a2.91,2.91,0,0,0,1.05-.12.57.57,0,0,0,.43-.69.62.62,0,0,0-.6-.52c-.5-.08-1-.15-1.5-.26s-.79-.39-.73-1a1,1,0,0,1,1-.83,11,11,0,0,1,1.15,0A1,1,0,0,1,11.82,35.1Z"/><path class="cls-8" d="M6.26,37.75a1.7,1.7,0,0,1-1.9-1.84A1.71,1.71,0,0,1,6.19,34c1.4,0,1.93.65,2,1.85A1.7,1.7,0,0,1,6.26,37.75ZM4.78,35.83a1.39,1.39,0,0,0,1.4,1.62A1.4,1.4,0,0,0,7.73,36c0-1.07-.45-1.66-1.4-1.7A1.39,1.39,0,0,0,4.78,35.83Z"/><path class="cls-9" d="M17.82,34.11c.09.08.26.15.26.22,0,1.18,0,2.35,0,3.53,0,.82-.75,1.32-1.78,1.32a5,5,0,0,1-.93-.13,1,1,0,0,1-.8-1L15,38a.88.88,0,0,0,.88.82c.71,0,1.43.09,1.79-.73l0,0a.2.2,0,0,0,0-.07l0-.45.11-.07-.11-.12-.12-.45-.19-.08a2,2,0,0,0,.09-2l.08-.15.14-.37Z"/><path class="cls-10" d="M17.54,34.67l-.08.15a1.64,1.64,0,0,0-1.9-.39,1.3,1.3,0,0,0-.78,1.42c0,.77.32,1.2.9,1.34a1.69,1.69,0,0,0,1.69-.34l.19.08c-.4.8-2,.85-2.73.22a2.17,2.17,0,0,1,0-2.72C15.54,33.81,17.08,33.78,17.54,34.67Z"/><path class="cls-11" d="M13.5,34.39v3h.88c-.18.15-.27.29-.38.3-.72.09-1-.16-1-.89V34.42a2.5,2.5,0,0,1-.4,0,.7.7,0,0,1-.21-.14.7.7,0,0,1,.21-.14,2,2,0,0,1,.35,0V33l.4,0v.65c0,.69.07.74.76.57l.07.1a.82.82,0,0,1-.28.14A2,2,0,0,1,13.5,34.39Z"/><path class="cls-12" d="M19.55,34.75l-.41,2.87h-.28V34.13h.38c0,.19,0,.38.05.57h0l.07-.05Z"/><path class="cls-10" d="M19.55,34.75l-.15-.09c.21-.7.8-.63,1.38-.69l0,.26Z"/><path class="cls-10" d="M17.82,34.11l-.14.19Z"/><path d="M24.55,35.92l.09-.17Z"/><path class="cls-10" d="M17.68,37.38l.11.12-.11.07Z"/><path class="cls-13" d="M38.39,31.48a.14.14,0,0,1,0,.06s0,0,0,0S38.37,31.51,38.39,31.48Z"/><path d="M0,32.3a.14.14,0,0,1,0,.06l0,0A.06.06,0,0,1,0,32.3Z"/><path d="M0,37.48l0,.05,0,0A.06.06,0,0,1,0,37.48Z"/><path d="M.44,37.56l0-.06,0,0A.08.08,0,0,1,.44,37.56Z"/><path class="cls-13" d="M39.09,37.49H39A.08.08,0,0,1,39.09,37.49Z"/><path class="cls-13" d="M43,37.5h-.09A.08.08,0,0,1,43,37.5Z"/><path class="cls-13" d="M38.38,37.84l.07.08Z"/><path class="cls-10" d="M17.65,38a.2.2,0,0,1,0,.07l0,0Z"/><path class="cls-14" d="M28.3,18.4a3.26,3.26,0,0,0,1.86.21,12.88,12.88,0,0,1,1.74-.2,1,1,0,0,1,.71.39.88.88,0,0,1-.12.76,4.57,4.57,0,0,1-2.76,1.64,7.59,7.59,0,0,1-2.73.13c-.1,0-.32.21-.34.35-.18,1.22-.31,2.44-.48,3.66-.09.64-.19,1.28-.34,1.91A3.68,3.68,0,0,1,22.6,30a3.47,3.47,0,0,1-3.1-.61,3.24,3.24,0,0,1-1.11-2.28c-.18-1.8-.25-3.62-.36-5.34a12,12,0,0,1-1.65.71,4.08,4.08,0,0,1-3.2-.42,1,1,0,0,1-.49-.78c0-.27.38-.51.61-.74a.67.67,0,0,1,.32-.14,4.77,4.77,0,0,1,.65-.17,2.34,2.34,0,0,0,1.85-1.18l-1.69-.47-1.92,2.18a12.61,12.61,0,0,1-.87.92A1.84,1.84,0,0,1,9,21.65,9.61,9.61,0,0,1,6.83,18a37.57,37.57,0,0,1-2-7.3,16.2,16.2,0,0,1-.35-2.85A7.44,7.44,0,0,1,5.71,3.24,4.76,4.76,0,0,1,8.76,1.48a12.56,12.56,0,0,1,6.46.67c.43.14.66-.08.93-.24a5.61,5.61,0,0,1,3.38-.65c.61,0,1.22.2,1.83.2a9.14,9.14,0,0,0,1.43-.31,10.44,10.44,0,0,1,6.7.68A6.38,6.38,0,0,1,32,3.93a3.48,3.48,0,0,1,.53,1.73,14,14,0,0,1-.2,3,27.07,27.07,0,0,1-3.42,8.82C28.72,17.74,28.53,18,28.3,18.4ZM13.22,12.92c-.05.66-.12,1.32-.12,2a3.4,3.4,0,0,0,2.68,3.17.47.47,0,0,0,.61-.35c.23-.65.49-1.29.75-1.93A6.17,6.17,0,0,0,17.72,13c-.06-.9-.16-1.8-.29-2.69a1.29,1.29,0,0,0-1.06-1.21,2.38,2.38,0,0,0-1,0c-.61.18-1.2.44-1.8.68a.5.5,0,0,0-.32.72ZM19,22v2.46a.08.08,0,0,0,0,.08c.06.83.06,1.67.2,2.48a2.39,2.39,0,0,0,2.22,2.25,3.87,3.87,0,0,0,.9-.09c1.59-.33,2.45-.89,2.75-2.5.13-.68.24-1.36.32-2.05.18-1.39.37-2.79.49-4.19.08-1,.19-1.85,1.24-2.17-.43-.72-.86-1.41-1.24-2.12a16.11,16.11,0,0,1-2.13-5.1,2.27,2.27,0,0,1,1.67-2.83,5.2,5.2,0,0,1,1.25-.12c.65,0,.69-.07.42-.67a9.44,9.44,0,0,0-3.55-4.13,8,8,0,0,0-3.8-1.19c-.56,0-1.14.17-1.71.14a3,3,0,0,0-1.9.66c-2,1.36-2.59,3.46-2.87,5.7,0,.31.1.29.35.21a16.7,16.7,0,0,1,2.07-.57,2.1,2.1,0,0,1,2.47,1.57,9.31,9.31,0,0,1-.29,6.41c-.25.55-.44,1.12-.66,1.68-.09.23,0,.32.23.37A1.78,1.78,0,0,1,19,20.16ZM14.69,3c-.38-.16-.7-.31-1-.42a9.94,9.94,0,0,0-3.52-.29,7.87,7.87,0,0,0-1.38.12A4.09,4.09,0,0,0,5.63,5.56a8.76,8.76,0,0,0-.15,3.91,36.77,36.77,0,0,0,2.43,8.79,13.47,13.47,0,0,0,1.48,2.47,1.07,1.07,0,0,0,1.86.1c.85-.92,1.66-1.87,2.48-2.8,0,0,0-.05,0-.06a2.39,2.39,0,0,0-.23-.22A4.37,4.37,0,0,1,12.2,14.4c0-1.07.16-2.14.15-3.21a18.09,18.09,0,0,1,.24-3.82A9.13,9.13,0,0,1,14.69,3Zm13.1,14,.13.12a2,2,0,0,0,.28-.3c.47-.88,1-1.75,1.38-2.66a20.65,20.65,0,0,0,2.08-7.61,3,3,0,0,0-.39-2A6.38,6.38,0,0,0,28,2.21a12.76,12.76,0,0,0-1.75-.28,12.7,12.7,0,0,0-1.5-.15,5.44,5.44,0,0,0-.77.14c-.3,0-.6,0-1,.07l.29.16A10.19,10.19,0,0,1,28,7.32a3.9,3.9,0,0,1,.31,2.29,12.89,12.89,0,0,0-.14,3.51A6.33,6.33,0,0,1,27.79,17Zm-.31-7.85A2.57,2.57,0,0,0,26.7,9c-1.47,0-2.26.4-2.07,2,0,.12,0,.24.06.36a22.93,22.93,0,0,0,2.38,5.29,5.15,5.15,0,0,0,.35-2.36c-.08-1.07-.13-2.13-.13-3.2A16.64,16.64,0,0,1,27.48,9.18ZM13.84,21.3v.13c.34.1.69.2,1,.27a3.27,3.27,0,0,0,3.06-1.23c.35-.52.13-1.15-.45-1.19a.84.84,0,0,0-.6.27c-.45.46-.78,1.05-1.44,1.27S14.38,21.14,13.84,21.3Zm17.59-2-.31.06c-.4.07-.79.17-1.2.21-.2,0-.44-.12-.61-.06-.52.2-.92-.11-1.32-.31a.67.67,0,0,0-.88.12,1.81,1.81,0,0,0-.26.94c0,.07.37.21.57.22a7.1,7.1,0,0,0,1.22,0A4.26,4.26,0,0,0,31.43,19.28Z"/><path class="cls-15" d="M19,24.48V20.16a1.78,1.78,0,0,0-1.55-1.86c-.24-.05-.32-.14-.23-.37.22-.56.41-1.13.66-1.68a9.31,9.31,0,0,0,.29-6.41A2.1,2.1,0,0,0,15.7,8.27a16.7,16.7,0,0,0-2.07.57c-.25.08-.39.1-.35-.21.28-2.24.86-4.34,2.87-5.7a3,3,0,0,1,1.9-.66c.57,0,1.15-.18,1.71-.14a8,8,0,0,1,3.8,1.19,9.44,9.44,0,0,1,3.55,4.13c.27.6.23.65-.42.67a5.2,5.2,0,0,0-1.25.12,2.27,2.27,0,0,0-1.67,2.83,16.11,16.11,0,0,0,2.13,5.1c.38.71.81,1.4,1.24,2.12-1.05.32-1.16,1.21-1.24,2.17-.12,1.4-.31,2.8-.49,4.19-.08.69-.19,1.37-.32,2.05-.3,1.61-1.16,2.17-2.75,2.5a3.87,3.87,0,0,1-.9.09A2.39,2.39,0,0,1,19.22,27c-.14-.81-.14-1.65-.2-2.48l0,0Z"/><path class="cls-15" d="M14.69,3a9.13,9.13,0,0,0-2.1,4.38,18.09,18.09,0,0,0-.24,3.82c0,1.07-.12,2.14-.15,3.21a4.37,4.37,0,0,0,1.28,3.35,2.39,2.39,0,0,1,.23.22s0,0,0,.06c-.82.93-1.63,1.88-2.48,2.8a1.07,1.07,0,0,1-1.86-.1,13.47,13.47,0,0,1-1.48-2.47A36.77,36.77,0,0,1,5.48,9.47a8.76,8.76,0,0,1,.15-3.91A4.09,4.09,0,0,1,8.74,2.4a7.87,7.87,0,0,1,1.38-.12,9.94,9.94,0,0,1,3.52.29C14,2.68,14.31,2.83,14.69,3Z"/><path class="cls-15" d="M27.79,17a6.33,6.33,0,0,0,.37-3.91,12.89,12.89,0,0,1,.14-3.51A3.9,3.9,0,0,0,28,7.32,10.19,10.19,0,0,0,23.2,2.15L22.91,2c.43,0,.73,0,1-.07a5.44,5.44,0,0,1,.77-.14,12.7,12.7,0,0,1,1.5.15A12.76,12.76,0,0,1,28,2.21a6.38,6.38,0,0,1,3.31,2.32,3,3,0,0,1,.39,2.05,20.65,20.65,0,0,1-2.08,7.61c-.41.91-.91,1.78-1.38,2.66a2,2,0,0,1-.28.3Z"/><path class="cls-15" d="M13.22,10.58a.5.5,0,0,1,.32-.72c.6-.24,1.19-.5,1.8-.68a2.38,2.38,0,0,1,1,0,1.29,1.29,0,0,1,1.06,1.21c.13.89.23,1.79.29,2.69a6.17,6.17,0,0,1-.58,2.76c-.26.64-.52,1.28-.75,1.93a.47.47,0,0,1-.61.35,3.4,3.4,0,0,1-2.68-3.17c0-.67.07-1.33.12-2,0-.09.14-.18.14-.26,0-.61,0-1.21,0-1.82C13.36,10.75,13.27,10.66,13.22,10.58Zm2.74-1c-.13.07-.4.13-.48.28a.61.61,0,0,0,.15.56.88.88,0,0,0,1,.11A.7.7,0,0,0,17,10c0-.11-.24-.27-.39-.35A3,3,0,0,0,16,9.55Z"/><path class="cls-16" d="M27.48,9.18A16.64,16.64,0,0,0,27.29,11c0,1.07.05,2.13.13,3.2a5.15,5.15,0,0,1-.35,2.36,22.93,22.93,0,0,1-2.38-5.29c0-.12,0-.24-.06-.36-.19-1.58.6-2,2.07-2A2.57,2.57,0,0,1,27.48,9.18Zm-1.26.12c-.57.08-1.06.33-.94.5s.46.46.64.42.49-.35.74-.55Z"/><path class="cls-17" d="M13.84,21.3c.54-.16,1.08-.31,1.61-.48s1-.81,1.44-1.27a.84.84,0,0,1,.6-.27c.58,0,.8.67.45,1.19a3.27,3.27,0,0,1-3.06,1.23c-.35-.07-.7-.17-1-.27Z"/><path class="cls-18" d="M31.43,19.28a4.26,4.26,0,0,1-2.79,1.19,7.1,7.1,0,0,1-1.22,0c-.2,0-.57-.15-.57-.22a1.81,1.81,0,0,1,.26-.94.67.67,0,0,1,.88-.12c.4.2.8.51,1.32.31.17-.06.41.09.61.06.41,0,.8-.14,1.2-.21Z"/><path class="cls-13" d="M13.22,10.58c0,.08.14.17.14.26,0,.61,0,1.21,0,1.82,0,.08-.09.17-.14.26Z"/><path class="cls-13" d="M19,22v0Z"/><path class="cls-13" d="M19,24.48l0,.06,0,0A.08.08,0,0,1,19,24.48Z"/><path class="cls-19" d="M16,9.55a3,3,0,0,1,.62.14c.15.08.4.24.39.35a.7.7,0,0,1-.34.46.88.88,0,0,1-1-.11.61.61,0,0,1-.15-.56C15.56,9.68,15.83,9.62,16,9.55Z"/><path class="cls-20" d="M26.22,9.3l.44.37c-.25.2-.47.49-.74.55s-.5-.21-.64-.42S25.65,9.38,26.22,9.3Z"/></g></g></svg>