<svg xmlns="http://www.w3.org/2000/svg" viewBox="0 0 38.99 38.97"><defs><style>.cls-1{fill:#292a2a;}.cls-2{fill:#06d5f3;}.cls-3{fill:#272c2d;}.cls-4{fill:#282b2c;}.cls-5{fill:#272b2c;}.cls-6{fill:#243234;}.cls-7{fill:#253234;}.cls-8{fill:#253031;}.cls-9{fill:#243133;}.cls-10{fill:#243134;}.cls-11{fill:#262d2e;}.cls-12{fill:#03d7f6;}</style></defs><title>react-icon</title><g id="Layer_2" data-name="Layer 2"><g id="Layer_1-2" data-name="Layer 1"><path class="cls-1" d="M0,19.43A19.5,19.5,0,1,1,19.45,39,19.48,19.48,0,0,1,0,19.43Zm19.64,8.15.24.22a9,9,0,0,0,3.44,2.13c1.47.42,2.63.18,3.24-1.48a5.9,5.9,0,0,0,.34-1.9c0-1-.15-2.06-.25-3.11a11.65,11.65,0,0,0,3.48-1.76c1.84-1.51,1.8-3.14-.11-4.55a11.37,11.37,0,0,0-3.53-1.63c0-.22.07-.43.09-.63.08-.91.22-1.81.22-2.72a5,5,0,0,0-.3-1.71c-.58-1.63-1.78-2-3.42-1.4A8.67,8.67,0,0,0,20,11c-.35.34-.56.36-.94,0a7.94,7.94,0,0,0-3.89-2.15,2.16,2.16,0,0,0-2.69,1.56,7.79,7.79,0,0,0-.31,2.25,27.56,27.56,0,0,0,.32,2.78l-.32.11a10.06,10.06,0,0,0-3.26,1.58A3.28,3.28,0,0,0,7.6,18.91a2.56,2.56,0,0,0,1.13,2.7A8.67,8.67,0,0,0,12,23.33c.58.17.53.43.43.87a8.65,8.65,0,0,0-.11,3.72c.29,1.33,1.07,2.47,2.86,2.12a5.22,5.22,0,0,0,1.6-.54C17.73,28.92,18.66,28.24,19.64,27.58Z"/><path class="cls-2" d="M19.64,27.58c-1,.66-1.91,1.34-2.89,1.92a5.22,5.22,0,0,1-1.6.54c-1.79.35-2.57-.79-2.86-2.12a8.65,8.65,0,0,1,.11-3.72c.1-.44.15-.7-.43-.87a8.67,8.67,0,0,1-3.24-1.72,2.56,2.56,0,0,1-1.13-2.7,3.28,3.28,0,0,1,1.31-1.75,10.06,10.06,0,0,1,3.26-1.58l.32-.11a27.56,27.56,0,0,1-.32-2.78,7.79,7.79,0,0,1,.31-2.25,2.16,2.16,0,0,1,2.69-1.56A7.94,7.94,0,0,1,19.06,11c.38.35.59.33.94,0a8.67,8.67,0,0,1,3.08-2c1.64-.58,2.84-.23,3.42,1.4a5,5,0,0,1,.3,1.71c0,.91-.14,1.81-.22,2.72,0,.2-.06.41-.09.63A11.37,11.37,0,0,1,30,17.13c1.91,1.41,1.95,3,.11,4.55a11.65,11.65,0,0,1-3.48,1.76c.1,1,.24,2.08.25,3.11a5.9,5.9,0,0,1-.34,1.9c-.61,1.66-1.77,1.9-3.24,1.48a9,9,0,0,1-3.44-2.13Zm-.12-4.2c.57,0,1.15-.08,1.74-.08a.75.75,0,0,0,.74-.42c.58-1.06,1.2-2.11,1.77-3.18a.75.75,0,0,0,0-.62C23.16,18,22.53,17,21.88,15.92a.68.68,0,0,0-.46-.28c-1.25,0-2.5,0-3.75,0a.66.66,0,0,0-.47.27c-.64,1.06-1.27,2.14-1.87,3.23a.67.67,0,0,0,0,.57c.61,1.11,1.24,2.2,1.88,3.29a.73.73,0,0,0,.46.27C18.27,23.34,18.88,23.35,19.52,23.38Zm-6.73-6.92a9.12,9.12,0,0,0-3.54,1.75,1.44,1.44,0,0,0-.06,2.44,8.15,8.15,0,0,0,3.58,1.88c.38-1,.75-1.87,1.09-2.8a.75.75,0,0,0,0-.49C13.53,18.33,13.17,17.43,12.79,16.46Zm5.95-4.26A7.63,7.63,0,0,0,15.41,10c-1.2-.31-1.71-.16-2.05,1a7.69,7.69,0,0,0,.2,4.17l3.11-.43a.37.37,0,0,0,.19-.14Zm.06,14.67c-.66-.84-1.28-1.63-1.91-2.4a.69.69,0,0,0-.41-.2c-.88-.14-1.77-.26-2.65-.37-.11,0-.33.1-.35.19a8.54,8.54,0,0,0-.2,3.66c.22,1.06.75,1.48,1.72,1.32A7.68,7.68,0,0,0,18.8,26.87Zm1.45-14.72a17,17,0,0,1,1.19,1.46,2.26,2.26,0,0,0,2.08,1.28,12.58,12.58,0,0,1,2,.31c.08-.38.16-.71.21-1a7.2,7.2,0,0,0-.15-3.42,1.17,1.17,0,0,0-1.47-.87A8.2,8.2,0,0,0,20.25,12.15Zm6.06,10.34c.42-.16.85-.29,1.26-.47a5.88,5.88,0,0,0,2.56-1.75,1.14,1.14,0,0,0,0-1.63,7.56,7.56,0,0,0-3.88-2.17c-.38,1-.75,1.86-1.09,2.77a.7.7,0,0,0,0,.45C25.52,20.59,25.9,21.48,26.31,22.49Zm-5.92,4.28A7.77,7.77,0,0,0,23.79,29c.93.18,1.45,0,1.73-.73a7.75,7.75,0,0,0,.05-4.5l-3,.4a.68.68,0,0,0-.37.2C21.62,25.19,21,26,20.39,26.77ZM14.54,20.7l-.77,2.12,2.22.36Zm3.55,3.69,1.45,1.71L21,24.39Zm6.36-3.71-1.39,2.48,2.18-.39Zm.74-4.48L23,15.79l1.42,2.44Zm-10.6,2.06L16,15.81l-2.16.39Zm6.3-3.66c-.44-.55-.81-1-1.2-1.46a.36.36,0,0,0-.32-.06c-.42.48-.82,1-1.27,1.52Z"/><path class="cls-3" d="M19.52,23.38c-.64,0-1.25,0-1.87-.1a.73.73,0,0,1-.46-.27c-.64-1.09-1.27-2.18-1.88-3.29a.67.67,0,0,1,0-.57c.6-1.09,1.23-2.17,1.87-3.23a.66.66,0,0,1,.47-.27c1.25,0,2.5,0,3.75,0a.68.68,0,0,1,.46.28c.65,1,1.28,2.1,1.89,3.16a.75.75,0,0,1,0,.62c-.57,1.07-1.19,2.12-1.77,3.18a.75.75,0,0,1-.74.42C20.67,23.3,20.09,23.35,19.52,23.38Zm0-6.06a2.1,2.1,0,0,0-2.15,2.09,2.15,2.15,0,1,0,4.29,0A2.12,2.12,0,0,0,19.51,17.32Z"/><path class="cls-4" d="M12.79,16.46c.38,1,.74,1.87,1.08,2.78a.75.75,0,0,1,0,.49c-.34.93-.71,1.84-1.09,2.8a8.15,8.15,0,0,1-3.58-1.88,1.44,1.44,0,0,1,.06-2.44A9.12,9.12,0,0,1,12.79,16.46Z"/><path class="cls-4" d="M18.74,12.2l-1.88,2.43a.37.37,0,0,1-.19.14l-3.11.43a7.69,7.69,0,0,1-.2-4.17c.34-1.19.85-1.34,2.05-1A7.63,7.63,0,0,1,18.74,12.2Z"/><path class="cls-5" d="M18.8,26.87a7.68,7.68,0,0,1-3.8,2.2c-1,.16-1.5-.26-1.72-1.32a8.54,8.54,0,0,1,.2-3.66c0-.09.24-.2.35-.19.88.11,1.77.23,2.65.37a.69.69,0,0,1,.41.2C17.52,25.24,18.14,26,18.8,26.87Z"/><path class="cls-5" d="M20.25,12.15a8.2,8.2,0,0,1,3.83-2.28,1.17,1.17,0,0,1,1.47.87,7.2,7.2,0,0,1,.15,3.42c-.05.33-.13.66-.21,1a12.58,12.58,0,0,0-2-.31,2.26,2.26,0,0,1-2.08-1.28A17,17,0,0,0,20.25,12.15Z"/><path class="cls-4" d="M26.31,22.49c-.41-1-.79-1.9-1.14-2.8a.7.7,0,0,1,0-.45c.34-.91.71-1.81,1.09-2.77a7.56,7.56,0,0,1,3.88,2.17,1.14,1.14,0,0,1,0,1.63A5.88,5.88,0,0,1,27.57,22C27.16,22.2,26.73,22.33,26.31,22.49Z"/><path class="cls-5" d="M20.39,26.77c.62-.79,1.23-1.58,1.85-2.36a.68.68,0,0,1,.37-.2l3-.4a7.75,7.75,0,0,1-.05,4.5c-.28.71-.8.91-1.73.73A7.77,7.77,0,0,1,20.39,26.77Z"/><path class="cls-6" d="M14.54,20.7,16,23.18l-2.22-.36Z"/><path class="cls-7" d="M18.09,24.39H21L19.54,26.1Z"/><path class="cls-8" d="M24.45,20.68l.79,2.09-2.18.39Z"/><path class="cls-9" d="M25.19,16.2l-.77,2L23,15.79Z"/><path class="cls-10" d="M14.59,18.26l-.76-2.06L16,15.81Z"/><path class="cls-11" d="M20.89,14.6H18.1c.45-.55.85-1,1.27-1.52a.36.36,0,0,1,.32.06C20.08,13.59,20.45,14.05,20.89,14.6Z"/><path class="cls-12" d="M19.51,17.32a2.12,2.12,0,0,1,2.14,2.11,2.15,2.15,0,1,1-4.29,0A2.1,2.1,0,0,1,19.51,17.32Z"/></g></g></svg>