<svg xmlns="http://www.w3.org/2000/svg" viewBox="0 0 396.45 396.64"><defs><style>.cls-1{fill:#fff;}</style></defs><title>tuxton</title><g id="Layer_2" data-name="Layer 2"><g id="Layer_1-2" data-name="Layer 1"><path d="M198.35,0c110.48,1,198.34,88.76,198.1,198.8-.24,110.46-88.7,197.94-198.35,197.84C87.52,396.53-.22,308,0,198.05S88.22.87,198.35,0ZM394.72,198.65C394.83,90.31,306.77,2,198.46,1.92S1.83,89.89,1.73,198.19,89.68,394.8,198,394.92,394.62,307,394.72,198.65Z"/><path class="cls-1" d="M394.72,198.65C394.62,307,306.33,395,198,394.92S1.62,306.53,1.73,198.19,90.13,1.8,198.46,1.92,394.83,90.31,394.72,198.65ZM292.64,101.21c-3.19,1.77-5.7,3-8,4.48q-39.71,25.5-79.33,51.11c-2.3,1.49-3.88,1.67-6.44,0Q158.68,130.7,118.25,105c-2.06-1.32-4.36-2.27-7.53-3.89v12.35q0,49.72,0,99.46c0,5.61,1.53,6.5,6.44,3.83.73-.39,1.4-.88,2.11-1.31q39.66-23.57,79.28-47.2c2.55-1.53,4.31-1.68,6.95-.09Q246.15,192.5,287,216.57c4.89,2.9,6.65,1.87,6.65-3.66q0-53,0-106A40.83,40.83,0,0,0,292.64,101.21ZM89.33,228.27h-64v20.47c6.6-17,10.92-20.45,23.58-18.27v62.14l-9.1.74.14,1H74.5l.1-1.23L66,292.74v-62.5c6.12-1.06,12.17-.59,15.94,3.9,3.35,4,4.86,9.54,7.38,14.82Zm231.41,64.37c0-9.09-.27-17.91.11-26.69.2-4.58,3.15-8,7.39-9.82,4.65-2,9.14.46,9.31,5.46.35,10.28.1,20.59.1,30.8l-5.87,1.2.23.7h26.53l0-1-6.84-.63c0-9.63.06-18.93,0-28.23-.05-6.36-3-10.28-9.18-11.84-8.32-2.12-15.4.56-21.92,6.93V252l-21.7,1.38.09,1.14,6.56.71v37.39l-6.67.72.18,1h27.45l.06-1.07ZM124.43,255.22c0,8.54.52,17-.26,25.39-.31,3.37-2.92,7.09-5.54,9.49-1.77,1.62-5.6,2-8.11,1.41-1.37-.34-2.67-4-2.72-6.13-.27-11.3-.13-22.61-.13-33.39l-21.8,1.43,0,1.17,6.31.56c.31.5.47.63.47.77,0,8.32,0,16.64.15,25,.15,10.51,4.92,15.06,15.3,15.07,6.65,0,11.68-3.31,16.61-8.3v6.65h20.8l0-1.05-6.79-.63V251.8c-3.7.39-7.13.9-10.58,1.08s-7,0-10.46,0l0,1.62Zm146.71,40.69c7.28-.57,15.61-3.53,20-12.91,3.78-8.07,2.6-15.81-2.85-22.77-8.1-10.37-27.77-11.23-37.67-1.71-5.65,5.44-8.2,12-6.19,19.81C247.31,289.56,256.19,295.92,271.14,295.91Zm-100.65-1.46.11-.88a17.89,17.89,0,0,0-2.47-.63c-4.83-.56-5.59-1.85-3-5.91,1.77-2.77,4-5.28,6.18-8.18l10,13.75-6.93.65.12,1.22h29c-1.87-1.4-4.6-1.48-5.69-2.86-5.91-7.51-11.42-15.34-17.14-23.15,6-5.21,8.82-13.7,17.81-14.93H180.08l6.18,3.85-6.37,9.88-8.67-11.81,4.91-1.21-.21-.77H148.09c3.31,1.35,6,1.6,7.11,3.06,5.13,6.65,9.83,13.63,14.81,20.68-6.41,6.44-10.53,15.16-20.53,17.24Zm43.24-39.26c0,10.27.13,20.24-.06,30.2-.09,4.69,2.24,7.54,6.06,9.39,5.47,2.65,13.29.85,17.21-3.81a9.6,9.6,0,0,0,1.11-2.59l-1.15-.81a16,16,0,0,1-2.35,3.12c-2.85,2.33-6.54,1.24-6.64-2.31-.31-11.08-.11-22.17-.11-33.21l9.59-.6v-1.39l-10.05-.52v-19.6c-2.69,10.86-8,18.67-19.42,21.49Zm135-23.43a10.24,10.24,0,0,0-10.29-9.84,10.37,10.37,0,0,0-9.71,10,10.18,10.18,0,0,0,10.07,10A10,10,0,0,0,348.73,231.76Zm2,.11a9.71,9.71,0,0,0,9.94,10,10.49,10.49,0,0,0,10.06-9.65c.18-5.26-4.61-10.24-9.94-10.34A9.77,9.77,0,0,0,350.73,231.87Z"/><path d="M292.64,101.21a40.83,40.83,0,0,1,.95,5.74q.07,53,0,106c0,5.53-1.76,6.56-6.65,3.66q-40.78-24.12-81.45-48.46c-2.64-1.59-4.4-1.44-6.95.09Q159,191.93,119.28,215.4c-.71.43-1.38.92-2.11,1.31-4.91,2.67-6.44,1.78-6.44-3.83q0-49.74,0-99.46V101.07c3.17,1.62,5.47,2.57,7.53,3.89q40.37,25.83,80.6,51.85c2.56,1.66,4.14,1.48,6.44,0q39.61-25.62,79.33-51.11C286.94,104.2,289.45,103,292.64,101.21Z"/><path d="M89.33,228.27V249c-2.52-5.28-4-10.83-7.38-14.82-3.77-4.49-9.82-5-15.94-3.9v62.5l8.59.43-.1,1.23H40l-.14-1,9.1-.74V230.47c-12.66-2.18-17,1.28-23.58,18.27V228.27Z"/><path d="M320.74,292.64l5.83.62-.06,1.07H299.06l-.18-1,6.67-.72V255.26l-6.56-.71-.09-1.14L320.6,252v7.45c6.52-6.37,13.6-9.05,21.92-6.93,6.14,1.56,9.13,5.48,9.18,11.84.09,9.3,0,18.6,0,28.23l6.84.63,0,1H332l-.23-.7,5.87-1.2c0-10.21.25-20.52-.1-30.8-.17-5-4.66-7.44-9.31-5.46-4.24,1.81-7.19,5.24-7.39,9.82C320.47,274.73,320.74,283.55,320.74,292.64Z"/><path d="M124.43,255.22l-6.76-.68,0-1.62c3.48,0,7,.14,10.46,0s6.88-.69,10.58-1.08v40.82l6.79.63,0,1.05h-20.8v-6.65c-4.93,5-10,8.3-16.61,8.3-10.38,0-15.15-4.56-15.3-15.07-.12-8.32-.1-16.64-.15-25,0-.14-.16-.27-.47-.77l-6.31-.56,0-1.17,21.8-1.43c0,10.78-.14,22.09.13,33.39,0,2.17,1.35,5.79,2.72,6.13,2.51.63,6.34.21,8.11-1.41,2.62-2.4,5.23-6.12,5.54-9.49C125,272.25,124.43,263.76,124.43,255.22Z"/><path d="M271.14,295.91c-14.95,0-23.83-6.35-26.7-17.58-2-7.84.54-14.37,6.19-19.81,9.9-9.52,29.57-8.66,37.67,1.71,5.45,7,6.63,14.7,2.85,22.77C286.75,292.38,278.42,295.34,271.14,295.91Zm5.58-22c0-4.33.25-8.67-.07-13-.3-4-2.52-6.71-6.91-7s-8.59.72-8.88,5.65a234.06,234.06,0,0,0-.09,28.28c.32,5.12,3.62,6.7,9.47,6,4.36-.49,6.29-3.38,6.45-7.47S276.73,278.1,276.72,273.94Z"/><path d="M170.49,294.45h-21c10-2.08,14.12-10.8,20.53-17.24-5-7-9.68-14-14.81-20.68-1.12-1.46-3.8-1.71-7.11-3.06h27.83l.21.77-4.91,1.21,8.67,11.81,6.37-9.88-6.18-3.85h18.37c-9,1.23-11.78,9.72-17.81,14.93,5.72,7.81,11.23,15.64,17.14,23.15,1.09,1.38,3.82,1.46,5.69,2.86h-29l-.12-1.22,6.93-.65-10-13.75c-2.22,2.9-4.41,5.41-6.18,8.18-2.59,4.06-1.83,5.35,3,5.91a17.89,17.89,0,0,1,2.47.63Z"/><path d="M213.73,255.19l-5.8-.64c11.42-2.82,16.73-10.63,19.42-21.49v19.6l10.05.52v1.39l-9.59.6c0,11-.2,22.13.11,33.21.1,3.55,3.79,4.64,6.64,2.31a16,16,0,0,0,2.35-3.12l1.15.81a9.6,9.6,0,0,1-1.11,2.59c-3.92,4.66-11.74,6.46-17.21,3.81-3.82-1.85-6.15-4.7-6.06-9.39C213.86,275.43,213.73,265.46,213.73,255.19Z"/><path d="M348.73,231.76a10,10,0,0,1-9.93,10.15,10.18,10.18,0,0,1-10.07-10,10.37,10.37,0,0,1,9.71-10A10.24,10.24,0,0,1,348.73,231.76Zm-4.18,5.8c3.19-3.42,3.14-7.15.52-10.72a8.09,8.09,0,0,0-11.45-1.27,8.3,8.3,0,0,0-1.26,11.48c3.05,3.79,7.61,4,12.18.55Z"/><path d="M350.73,231.87a9.77,9.77,0,0,1,10.06-10c5.33.1,10.12,5.08,9.94,10.34a10.49,10.49,0,0,1-10.06,9.65A9.71,9.71,0,0,1,350.73,231.87Zm10,8c4.83,0,8-3.25,8-8a7.68,7.68,0,0,0-8.12-8c-4.85,0-8,3.21-8,8.07S355.81,240,360.71,239.91Z"/><path class="cls-1" d="M276.72,273.94c0,4.16.14,8.32,0,12.47s-2.09,7-6.45,7.47c-5.85.66-9.15-.92-9.47-6a234.06,234.06,0,0,1,.09-28.28c.29-4.93,4.47-6,8.88-5.65s6.61,3,6.91,7C277,265.27,276.72,269.61,276.72,273.94Z"/><path class="cls-1" d="M344.54,237.6c-4.57,3.45-9.13,3.24-12.18-.55a8.3,8.3,0,0,1,1.26-11.48,8.09,8.09,0,0,1,11.45,1.27c2.62,3.57,2.67,7.3-.52,10.73-2.28-1.68-4.91-3-2.38-6.67,1.48-2.15.26-3.76-2.34-4-1.6-.11-3.21,0-4.95,0v9.83l.53.06c.38-1.28.75-2.56,1.16-3.94Z"/><path class="cls-1" d="M360.71,239.91c-4.9.05-8.08-3.06-8.09-7.92s3.14-8.05,8-8.07a7.68,7.68,0,0,1,8.12,8C368.74,236.66,365.54,239.87,360.71,239.91Zm3.9-10.87.54-1.29c-2.25-.29-4.87-1.39-6.63-.6-1.46.66-2.72,3.64-2.56,5.45s2,4.36,3.55,4.79,3.89-1.22,6.47-2.19c-3.44-.21-5.89.11-7.81-.75-.68-.3-.61-4.84.11-5.15C360.08,228.51,362.46,229,364.61,229Z"/><path d="M344.54,237.6l-8-4.72c-.41,1.38-.78,2.66-1.16,3.94l-.53-.06v-9.83c1.74,0,3.35-.09,4.95,0,2.6.19,3.82,1.8,2.34,4-2.53,3.65.1,5,2.38,6.67Z"/><path d="M364.61,229c-2.15,0-4.53-.53-6.33.26-.72.31-.79,4.85-.11,5.15,1.92.86,4.37.54,7.81.75-2.58,1-4.82,2.65-6.47,2.19s-3.38-3-3.55-4.79,1.1-4.79,2.56-5.45c1.76-.79,4.38.31,6.63.6Z"/></g></g></svg>