<svg xmlns="http://www.w3.org/2000/svg" viewBox="0 0 38.09 38.09"><defs><style>.cls-1{fill:#68217a;}.cls-2{fill:#fdfdfd;}.cls-3{fill:#68227a;}.cls-4{fill:#69237b;}</style></defs><title>visualstudio</title><g id="Layer_2" data-name="Layer 2"><g id="Layer_1-2" data-name="Layer 1"><path class="cls-1" d="M19,38.09a19,19,0,1,1,19.08-19A19.05,19.05,0,0,1,19,38.09ZM16.15,17.53c-.17-.12-.3-.2-.42-.3L12.3,14.66c-1.32-1-1.32-1-2.88-.38a.5.5,0,0,0-.27.35q0,4.5,0,9a.53.53,0,0,0,.2.38c.55.39,1.12.75,1.7,1.13l5.1-3.83c.15.18.26.32.38.44q3.42,3.45,6.83,6.91a.5.5,0,0,0,.68.14c1.23-.54,2.48-1.06,3.72-1.56a.6.6,0,0,0,.44-.66q0-6.6,0-13.19c0-.54.16-1.2-.09-1.58s-.93-.47-1.42-.68l-3-1.25Z"/><path class="cls-2" d="M16.15,17.53,23.7,9.88l3,1.25c.49.21,1.17.31,1.42.68s.09,1,.09,1.58q0,6.6,0,13.19a.6.6,0,0,1-.44.66c-1.24.5-2.49,1-3.72,1.56a.5.5,0,0,1-.68-.14Q20,25.2,16.53,21.75c-.12-.12-.23-.26-.38-.44l-5.1,3.83c-.58-.38-1.15-.74-1.7-1.13a.53.53,0,0,1-.2-.38q0-4.5,0-9a.5.5,0,0,1,.27-.35c1.56-.62,1.56-.62,2.88.38l3.43,2.57C15.85,17.33,16,17.41,16.15,17.53Zm7.55-1.89-5,3.79,5,3.78ZM11.07,16.9V22l3.14-2.53Z"/><path class="cls-3" d="M23.7,15.64v7.57l-5-3.78Z"/><path class="cls-4" d="M11.07,16.9l3.14,2.53L11.07,22Z"/></g></g></svg>