<svg xmlns="http://www.w3.org/2000/svg" viewBox="0 0 40.35 40.37"><defs><style>.cls-1{fill:#cbdaf7;}.cls-2{fill:#d5e1f9;}.cls-3{fill:#fbfcfc;}.cls-4{fill:#459af5;}.cls-5{fill:#488cf9;}.cls-6{fill:#78b2f2;}.cls-7{fill:#9060f1;}.cls-8{fill:#45a2f1;}.cls-9{fill:#41a9f2;}.cls-10{fill:#6741eb;}.cls-11{fill:#6e55ec;}.cls-12{fill:#6578e7;}.cls-13{fill:#734aed;}.cls-14{fill:#668ee8;}.cls-15{fill:#3db9ed;}.cls-16{fill:#a071f2;}.cls-17{fill:#34d1e7;}.cls-18{fill:#32dae5;}.cls-19{fill:#4b7fe3;}.cls-20{fill:#8c6bef;}.cls-21{fill:#7e53ee;}.cls-22{fill:#4693f7;}.cls-23{fill:#f3fafb;}.cls-24{fill:#3fb0ef;}.cls-25{fill:#39c1eb;}.cls-26{fill:#38c7ea;}.cls-27{fill:#5bddeb;}.cls-28{fill:#36cde9;}</style></defs><title>api</title><g id="Layer_2" data-name="Layer 2"><g id="Layer_1-2" data-name="Layer 1"><path class="cls-1" d="M2.37,29.59c-.54-1.34-1.16-2.64-1.6-4A17.47,17.47,0,0,1,0,19.27,20.14,20.14,0,0,1,1.75,12,17.94,17.94,0,0,1,4.57,7.42,25.76,25.76,0,0,1,7.69,4.36,19.25,19.25,0,0,1,15.31.6,19.79,19.79,0,0,1,21.2,0a17.55,17.55,0,0,1,4.59.8,12.13,12.13,0,0,0,1,4.65,31.24,31.24,0,0,0,1.59,3c0,.08.17.11.25.16v.07a2.13,2.13,0,0,0-.49.45A1,1,0,0,1,27,9.68a2.1,2.1,0,0,0-1.68.49,9,9,0,0,0-.68.7H10A3.09,3.09,0,0,0,9,11.07c-1.07.4-1.33,1.52-1.07,2.86h6.44l9.84,0a.13.13,0,0,1,0,.06H8.25c-.26,0-.54,0-.45.38v5.41c0,.4-.06.79-.07,1.19,0,.21,0,.42.06.63v.18L7.25,22a.41.41,0,0,1-.11-.07c-.59-.83-.59-.83-1.47-.31l-.12.06c-.63.36-.64.42-.2,1a1.6,1.6,0,0,1-.12.49c-.05.07-.25.08-.38.07a.86.86,0,0,1-.31-.17.41.41,0,0,0-.69.17c-.15.31-.36.59-.49.91,0,.14.05.35.07.52a1.18,1.18,0,0,1,.25.19c.11.13.28.27.29.42s-.18.41-.44.45-.54,0-.65.15,0,.46-.06.7a2.14,2.14,0,0,0,0,.62c0,.16.23.28.35.41l.13,0c.26,0,.58-.11.67.32s-.28.35-.43.52a2.53,2.53,0,0,0-.26.52v.1Z"/><path class="cls-1" d="M39.53,14.58c.24,1.26.53,2.51.71,3.78a14.14,14.14,0,0,1,.09,2.6,20.35,20.35,0,0,1-1.71,7.4,20.8,20.8,0,0,1-2.94,4.73A19.8,19.8,0,0,1,30,37.78a20,20,0,0,1-4.92,1.95c-.55.14-1.12.23-1.67.34-.09-1.11-.15-2.22-.29-3.32a5.49,5.49,0,0,0-.43-1.6,25.22,25.22,0,0,0-1.44-2.72,20.82,20.82,0,0,0-1.52-1.88c-.27-.33-.56-.65-.84-1H30.44a3.32,3.32,0,0,0,.68-.15,1.48,1.48,0,0,0,1.2-1.09l.17-.27a1.4,1.4,0,0,0,.08-.34c0-1.28,0-2.56,0-3.84v-6l0-2.7c.7,0,1.41-.05,2.11,0a2.71,2.71,0,0,0,2.48-1,1.59,1.59,0,0,0,.4.18C38.22,14.46,38.88,14.51,39.53,14.58Z"/><path class="cls-2" d="M18.92,29.58c.28.32.57.64.84,1a20.82,20.82,0,0,1,1.52,1.88,25.22,25.22,0,0,1,1.44,2.72,5.49,5.49,0,0,1,.43,1.6c.14,1.1.2,2.21.29,3.32a17.12,17.12,0,0,1-4.4.26,21,21,0,0,1-7-1.69A20.18,20.18,0,0,1,5.53,34a17.9,17.9,0,0,1-3.16-4.45l.92-.46c.16.27.32.53.48.81.26.46.41.52.85.24s.61-.17.8.21a1.87,1.87,0,0,0-.27.55.68.68,0,0,0,.15.57,4.81,4.81,0,0,0,1,.58.56.56,0,0,0,.46-.1c.13-.1.18-.31.31-.43a.5.5,0,0,1,.37-.13c.11,0,.19.19.25.31s0,.18,0,.27c0,.38.14.6.57.57.26,0,.54,0,.81,0,.6,0,.6,0,.61-.6,0-.4.27-.69.54-.55a1,1,0,0,1,.35.44c.17.33.37.4.68.18a7.4,7.4,0,0,1,.86-.5c.31-.16.37-.38.17-.66s-.32-.57,0-.86h.31l.38.24c.35.21.56.1.63-.31l.24-.38h5.08Z"/><path class="cls-2" d="M39.53,14.58c-.65-.07-1.31-.12-2-.2a1.59,1.59,0,0,1-.4-.18l.2-.45a1.86,1.86,0,0,0,0-1.63,2.11,2.11,0,0,0-2.18-1.52c-.4,0-.62-.09-.72-.46l-.09-.09h0l-.53-.91A5.38,5.38,0,0,0,32.7,8.2a3.89,3.89,0,0,0-4,.4c-.08,0-.2-.08-.25-.16a31.24,31.24,0,0,1-1.59-3,12.13,12.13,0,0,1-1-4.65c1.29.51,2.63.94,3.87,1.56a18.35,18.35,0,0,1,5.15,3.9,19.82,19.82,0,0,1,4.26,6.83C39.24,13.6,39.38,14.09,39.53,14.58Z"/><path class="cls-3" d="M24.16,14l-9.84,0H7.88c-.26-1.34,0-2.46,1.07-2.86A3.09,3.09,0,0,1,10,10.88H24.63l0,.09-.06.09-.13.26a.83.83,0,0,0-.2.22,2.63,2.63,0,0,0,0,2.41ZM10.7,13a.54.54,0,0,0,.52-.54.55.55,0,0,0-.57-.56.51.51,0,0,0-.51.56C10.15,12.77,10.34,13,10.7,13Zm4.49,0a.53.53,0,0,0,.55-.53.55.55,0,0,0-.56-.56.55.55,0,0,0,0,1.09ZM13,13a.5.5,0,0,0,.53-.52.54.54,0,0,0-.56-.56.5.5,0,0,0-.52.55C12.4,12.76,12.58,13,13,13Z"/><path class="cls-4" d="M7.8,19.81V14.4c0,.48.06,1,.08,1.44s0,.81,0,1.22.15.41.42.4l3.24-.17a.81.81,0,0,1,.22,0c.59.06,1.18.37,1.77,0a.72.72,0,0,1,.36,0c.41,0,.82.06,1.23.09l.94.08a1.57,1.57,0,0,0,.53,0,6.22,6.22,0,0,1,2.54-.09,3.87,3.87,0,0,0,1,.14,2.67,2.67,0,0,1,1.68-.07,5.56,5.56,0,0,0,2,0c.77,0,1.54-.11,2.31-.1s1.26.35,1.91,0c.1-.06.26,0,.4,0,.39,0,.79.07,1.18.08.16,0,.33-.08.48-.07.79,0,1.57.11,2.36.17v.45a5.81,5.81,0,0,0,0,.59c0,.3-.08.42-.4.41s-.56.09-.84.11a.75.75,0,0,1-.45-.05.92.92,0,0,0-1,0,.59.59,0,0,1-.66,0,1.16,1.16,0,0,0-.59-.07c-.3,0-.61.06-.91.08A4.63,4.63,0,0,1,27,19c-.4,0-1,.09-1.17-.12-.42-.5-.83-.32-1.28-.25-.53.49-.53.49-1,.14l-.31.15c-.94-.49-1.94-.21-2.92-.29l0,.47a2,2,0,0,0-.47-.1c-.42,0-.84.06-1.27.08A.18.18,0,0,1,18.4,19c0-.35-.3-.26-.52-.25s-.76-.22-1.07.16c0,0-.1-.13-.11-.13-.51.25-1.1-.28-1.59.17,0,.05-.24,0-.36-.07a1,1,0,0,0-.93,0,.75.75,0,0,1-.85,0c-.11-.08-.34,0-.51,0a4.12,4.12,0,0,1-1.35.05,2.94,2.94,0,0,0-1.35,0A1.37,1.37,0,0,1,9,18.83a.73.73,0,0,0-1.13.65A1.32,1.32,0,0,1,7.8,19.81Z"/><path class="cls-5" d="M7.88,15.84c0-.48,0-1-.08-1.44S8,14,8.25,14H24.17l.08,0a2.89,2.89,0,0,0,.46.74,2.75,2.75,0,0,0,2.16.79c-.1.06-.2.17-.3.17a3.09,3.09,0,0,1-1,0,7.69,7.69,0,0,0-1.26,0,21.8,21.8,0,0,1-2.68-.05,5.54,5.54,0,0,0-1.21.07h-.92c-.39,0-.78.21-1.17-.07-.11-.08-.33,0-.49,0-.58.05-1.16.14-1.74.15-.42,0-.85-.16-1.27-.16-.92,0-1.84.05-2.76.09-.21,0-.46.13-.62.05-.69-.34-1.38,0-2.07,0C8.88,15.84,8.38,15.85,7.88,15.84Z"/><path class="cls-6" d="M12.28,30c-.3.29-.18.57,0,.86s.14.5-.17.66a7.4,7.4,0,0,0-.86.5c-.31.22-.51.15-.68-.18a1,1,0,0,0-.35-.44c-.27-.14-.54.15-.54.55,0,.6,0,.6-.61.6-.27,0-.55,0-.81,0-.43,0-.57-.19-.57-.57,0-.09,0-.2,0-.27s-.14-.28-.25-.31a.5.5,0,0,0-.37.13c-.13.12-.18.33-.31.43a.56.56,0,0,1-.46.1,4.81,4.81,0,0,1-1-.58.68.68,0,0,1-.15-.57,1.87,1.87,0,0,1,.27-.55C5.23,30,5,30,4.62,30.18s-.59.22-.85-.24c-.16-.28-.32-.54-.48-.81V29l1.72-1h.07A3.38,3.38,0,0,0,6.57,30a3.93,3.93,0,0,0,4.48-.08Z"/><path class="cls-7" d="M24.25,14l-.08,0a.13.13,0,0,0,0-.06h.38l-.29-1.44H25l2.9-.08c.27,0,.53.07.8.07,1.1,0,2.21-.05,3.31,0,.21,0,.27,0,.26-.22h.18c.9.49,1.8,1,2.71,1.46a4.67,4.67,0,0,0,.51.23l0,.13H32.75a4.53,4.53,0,0,1-.52,0c-.35,0-.7-.05-1-.07s-.73,0-1.09,0-.62,0-.93,0l-.52,0-1.28,0a2.54,2.54,0,0,1-.73,0,1.37,1.37,0,0,0-1.49.49C24.91,14.23,24.69,13.9,24.25,14Z"/><path class="cls-8" d="M7.8,19.81a1.32,1.32,0,0,0,.08-.33A.73.73,0,0,1,9,18.83a1.37,1.37,0,0,0,.75.09,2.94,2.94,0,0,1,1.35,0,4.12,4.12,0,0,0,1.35-.05c.17,0,.4-.1.51,0a.75.75,0,0,0,.85,0,1,1,0,0,1,.93,0c.12,0,.31.12.36.07.49-.45,1.08.08,1.59-.17,0,0,.07.09.11.13-.22.6-.45,1.19-.67,1.78-.13-.11-.25-.3-.4-.31a17.34,17.34,0,0,0-1.77-.1c-.29,0-.59.07-.89.07-.87,0-1.75-.05-2.62-.07a1.38,1.38,0,0,0-.39.09c-.1,0-.23.06-.3,0a1.58,1.58,0,0,0-1.39,0L8,20.19a1.81,1.81,0,0,0-.13.34c0,.37-.07.73-.1,1.1,0-.21-.06-.42-.06-.63C7.74,20.6,7.78,20.21,7.8,19.81Z"/><path class="cls-9" d="M7.79,21.63c0-.37,0-.73.1-1.1A1.81,1.81,0,0,1,8,20.19l.36.21a1.58,1.58,0,0,1,1.39,0c.07,0,.2,0,.3,0a1.38,1.38,0,0,1,.39-.09c.87,0,1.75.06,2.62.07.3,0,.6-.08.89-.07a17.34,17.34,0,0,1,1.77.1c.15,0,.27.2.4.31l-.45,1.17a.83.83,0,0,0-1.21-.09c-.16-.05-.32-.09-.47-.15-.84-.32-1.7,0-2.56-.06a28.23,28.23,0,0,0-3,0c-.05,0-.1.05-.15.07l-.46.16h0Z"/><path class="cls-10" d="M24.59,11l0-.09a9,9,0,0,1,.68-.7A2.1,2.1,0,0,1,27,9.68a1,1,0,0,0,1.19-.56,2.13,2.13,0,0,1,.49-.45l.46.66.63.63.82.91a1,1,0,0,1-.29.08c-1.28,0-2.57,0-3.85,0a2.87,2.87,0,0,1-.31,0,2.26,2.26,0,0,0-.45,0L24.6,11A.17.17,0,0,0,24.59,11Z"/><path class="cls-11" d="M29.13,9.33l-.46-.66V8.6a3.89,3.89,0,0,1,4-.4,5.38,5.38,0,0,1,1.16.94l-2.06.09c-.69,0-1.39,0-2.08,0A3.21,3.21,0,0,0,29.13,9.33Z"/><path class="cls-12" d="M3.18,27.65c-.12-.13-.3-.25-.35-.41a2.14,2.14,0,0,1,0-.62c0-.24-.06-.54.06-.7s.42-.11.65-.15.45-.2.44-.45-.18-.29-.29-.42a1.18,1.18,0,0,0-.25-.19.32.32,0,0,0,.14,0c.25-.12.69.18.78-.33l.27.14a1.12,1.12,0,0,0,.38.12,1.63,1.63,0,0,0,.42-.11,4.29,4.29,0,0,0-.61,2.71c0,.05,0,.14-.08.15-.41.05-.81.08-1.22.14A1.51,1.51,0,0,0,3.18,27.65Z"/><path class="cls-11" d="M5.42,24.52a1.63,1.63,0,0,1-.42.11,1.12,1.12,0,0,1-.38-.12l-.27-.14c-.09.51-.53.21-.78.33a.32.32,0,0,1-.14,0c0-.17-.12-.38-.07-.52.13-.32.34-.6.49-.91a.41.41,0,0,1,.69-.17.86.86,0,0,0,.31.17c.13,0,.33,0,.38-.07a1.6,1.6,0,0,0,.12-.49l.54.09,0,.06.62.28v-.58l.58.31A.67.67,0,0,0,7.25,22l.53-.18h0v1.08h0a3.8,3.8,0,0,0-2.25,1.45l-.08.1A.11.11,0,0,1,5.42,24.52Z"/><path class="cls-13" d="M7.25,22a.67.67,0,0,1-.19.89l-.58-.31v.58l-.62-.28,0-.06-.54-.09c-.44-.63-.43-.69.2-1l.12-.06c.88-.52.88-.52,1.47.31A.41.41,0,0,0,7.25,22Z"/><path class="cls-14" d="M3.18,27.65a1.51,1.51,0,0,1,.33-.13c.41-.06.81-.09,1.22-.14,0,0,.06-.1.08-.15l.2.82L3.29,29a2.53,2.53,0,0,1,.26-.52c.15-.17.51-.13.43-.52s-.41-.28-.67-.32Z"/><path class="cls-15" d="M32.56,23.88c0,1.28,0,2.56,0,3.84a1.4,1.4,0,0,1-.08.34c0-.24,0-.49,0-.74V24.15a5.52,5.52,0,0,1-.94.27,11,11,0,0,0-2.43.1c-.05,0-.12,0-.18,0l-1-.15c-.79-.1-1.57.13-2.36,0a.47.47,0,0,0-.26,0c-.51.19-1-.12-1.57.07-.33.12-.76-.11-1.12,0A1.59,1.59,0,0,1,21,24.17c-.2.28-.39.49-.71.21a.42.42,0,0,0-.35,0c-.61.2-.63.2-.91-.34l-.49.43c-.35-.49-.37-.49-.62-.06l-.37-.23-.09.23c-3.2,0-6.35,0-9.55,0V27H7.8l0-4.07h0c.14-.06.38-.19.42-.15.28.32.64.16,1,.2a9.25,9.25,0,0,0,1.58.09c.59,0,1.17-.26,1.76,0,.12.06.29,0,.44,0,.4,0,.87-.22,1.17-.07s.52.17.75-.08l.36.21-.2.59a3.16,3.16,0,0,1,.35,0c.39.06.64-.06.7-.48,0-.1.08-.19.1-.3s.21-.33.46-.32c.45,0,.9,0,1.35,0a.51.51,0,0,1,.6.44c.23.76.25.75,1.08.6-.14-.43-.29-.85-.43-1.28l.35-.17a1.13,1.13,0,0,1,.6,1.14s.05.07.08.11c.13.31.43.36.87.15.28.26.21-.13.31-.19s.21-.3.32-.47l-.47-.09,0-.15c.31,0,.62.06.93.12s.87.24,1.26,0c.15.06.36.21.43.16.35-.25.43,0,.53.24l.07.57.78-.12.09-.54h.18l.07.25.1-.08-.17-.17c.13-.48.57-.32.78-.23.89.38,1.78,0,2.68.08,1.11.1,2.27-.12,3.41,0ZM15.08,24,15,24s0,.06,0,.08,0,0,.07,0Z"/><path class="cls-16" d="M25.15,14.49A1.37,1.37,0,0,1,26.64,14a2.54,2.54,0,0,0,.73,0l1.28,0,.52,0c.31,0,.62,0,.93,0s.72,0,1.09,0,.69.06,1,.07a4.53,4.53,0,0,0,.52,0h2.92l0-.13a4.67,4.67,0,0,1-.51-.23c-.91-.48-1.81-1-2.71-1.46l2.61-.17c.18,0,.36,0,.54,0l1.74,0a1.86,1.86,0,0,1,0,1.63l-.2.45a2.71,2.71,0,0,1-2.48,1c-.7-.05-1.41,0-2.11,0-1.78,0-3.55,0-5.33,0A3.13,3.13,0,0,1,25.15,14.49Z"/><path class="cls-17" d="M32.48,27.32c0,.25,0,.5,0,.74l-.17.27c-.12,0-.25-.13-.35-.11-.42.1-.84.25-1.26.36-.12,0-.26,0-.39,0l-1.22,0c-.2,0-.4,0-.61,0H27.36a1.74,1.74,0,0,1-.65,0,1.44,1.44,0,0,0-1.17,0c-.15.07-.39.14-.49.07a1.54,1.54,0,0,0-1.29-.1,2.45,2.45,0,0,1-.66.05c-.21,0-.43-.15-.64-.12a3.74,3.74,0,0,1-1.79,0c-.14,0-.32.08-.48.09s-.49,0-.74,0c-.46,0-.91,0-1.37,0-.06,0-.11.21-.16.32l-.36-.18,0-.51-.41.15-1.89-.82-.09-.08h0c.07-.06.13-.14.21-.16.33-.05.66-.09,1-.11.17,0,.43,0,.49.06.28.38.57.23.91.14a1.94,1.94,0,0,1,1-.07,1.1,1.1,0,0,0,.89,0c.26-.1.63-.27.8-.16a1.66,1.66,0,0,0,1.38,0,.74.74,0,0,1,.61.06c.27.25.47.19.76.06s.65-.22.78-.1a1,1,0,0,0,1,.14,1.39,1.39,0,0,1,1.24,0c.13.08.37,0,.55,0s.68-.28.88-.17a1.69,1.69,0,0,0,1.34,0c.2,0,.5-.07.62,0a.6.6,0,0,0,.8.08c.22-.11.62-.23.74-.12C31.6,27.57,32,27.4,32.48,27.32Z"/><path class="cls-18" d="M17.92,28.86c0-.11.1-.31.16-.32.46,0,.91,0,1.37,0,.25,0,.49,0,.74,0s.34-.13.48-.09a3.74,3.74,0,0,0,1.79,0c.21,0,.43.11.64.12a2.45,2.45,0,0,0,.66-.05,1.54,1.54,0,0,1,1.29.1c.1.07.34,0,.49-.07a1.44,1.44,0,0,1,1.17,0,1.74,1.74,0,0,0,.65,0h1.13c.21,0,.41,0,.61,0l1.22,0c.13,0,.27.07.39,0,.42-.11.84-.26,1.26-.36.1,0,.23.07.35.11a1.48,1.48,0,0,1-1.2,1.09H18.47Z"/><path class="cls-8" d="M32.56,23.88l-.08-1V21.63c0-.38,0-.75,0-1.13s-.08-.38-.3-.31a2.35,2.35,0,0,1-1.12-.05c-.62-.08-1.28.06-1.94,0s-1.27.33-1.92,0c-.07,0-.2,0-.3.05-.47,0-.95.44-1.47-.13v3l-.09.54v-5h-.83c.45-.07.86-.25,1.28.25.19.21.77.1,1.17.12a4.63,4.63,0,0,0,.65,0c.3,0,.61-.07.91-.08a1.16,1.16,0,0,1,.59.07.59.59,0,0,0,.66,0,.92.92,0,0,1,1,0,.75.75,0,0,0,.45.05c.28,0,.56-.11.84-.11s.43-.11.4-.41a5.81,5.81,0,0,1,0-.59h.08Z"/><path class="cls-19" d="M32.56,17.92h-.08v-.45c0-.5,0-1,0-1.48s-.12-.43-.44-.43c-1.22,0-2.43,0-3.64,0H26.87a2.75,2.75,0,0,1-2.16-.79,2.89,2.89,0,0,1-.46-.74c.44-.14.66.19.9.45a3.13,3.13,0,0,0,2.1.73c1.78,0,3.55,0,5.33,0C32.57,16.12,32.57,17,32.56,17.92Z"/><path class="cls-6" d="M18.47,29.4H31.12a3.32,3.32,0,0,1-.68.15H18.75a5.16,5.16,0,0,0-.52-.09H14.05a2.54,2.54,0,0,1,.47-.07Z"/><path class="cls-14" d="M12.28,30l-1.23-.15.31-.27.15,0h2.33L13.6,30l-1,.07Z"/><path class="cls-1" d="M14.05,29.48h4.18a5.16,5.16,0,0,1,.52.09H13.92a.17.17,0,0,0,0-.07Z"/><path class="cls-6" d="M12.59,30l1-.07c-.07.41-.28.52-.63.31Z"/><path class="cls-8" d="M13.91,29.5a.17.17,0,0,1,0,.07H11.51a2.07,2.07,0,0,1,.42-.08c.64,0,1.28,0,1.92,0h.06Z"/><path class="cls-20" d="M37.37,12.12l-1.74,0c-.18,0-.36,0-.54,0l-2.61.17H32.3l-.82-.63-.9-.72L29.76,10c.4,0,.8.09,1.19.09h3.43l.09.09c.1.37.32.47.72.46A2.11,2.11,0,0,1,37.37,12.12Z"/><path class="cls-21" d="M34.39,10.05H31c-.39,0-.79-.06-1.19-.09l-.63-.63a3.21,3.21,0,0,1,.59-.11c.69,0,1.39,0,2.08,0l2.06-.09Z"/><path class="cls-21" d="M34.47,10.14l-.09-.09Z"/><path class="cls-13" d="M30.58,10.87l.9.72a1.46,1.46,0,0,1-.46.21,3.76,3.76,0,0,1-.58,0H24.32l.08-.46.13-.26.07,0,1.08-.12a2.26,2.26,0,0,1,.45,0,2.87,2.87,0,0,0,.31,0c1.28,0,2.57,0,3.85,0A1,1,0,0,0,30.58,10.87Z"/><path class="cls-14" d="M10.7,13c-.36,0-.55-.21-.56-.54a.51.51,0,0,1,.51-.56.55.55,0,0,1,.57.56A.54.54,0,0,1,10.7,13Z"/><path class="cls-14" d="M15.19,13a.55.55,0,0,1,0-1.09.55.55,0,0,1,.56.56A.53.53,0,0,1,15.19,13Z"/><path class="cls-14" d="M13,13c-.37,0-.55-.2-.55-.53a.5.5,0,0,1,.52-.55.54.54,0,0,1,.56.56A.5.5,0,0,1,13,13Z"/><path class="cls-2" d="M24.4,11.31c0,.15,0,.31-.08.46s-.05.48-.07.73l.29,1.44h-.37a2.63,2.63,0,0,1,0-2.41A.83.83,0,0,1,24.4,11.31Z"/><path class="cls-1" d="M24.6,11l-.07,0,.06-.09A.17.17,0,0,1,24.6,11Z"/><path class="cls-22" d="M28.41,15.57c1.21,0,2.42,0,3.64,0,.32,0,.46.08.44.43s0,1,0,1.48c-.79-.06-1.57-.13-2.36-.17-.15,0-.32.08-.48.07-.39,0-.79-.06-1.18-.08-.14,0-.3-.05-.4,0-.65.35-1.27,0-1.91,0s-1.54.07-2.31.1a5.56,5.56,0,0,1-2,0,2.67,2.67,0,0,0-1.68.07,3.87,3.87,0,0,1-1-.14,6.22,6.22,0,0,0-2.54.09,1.57,1.57,0,0,1-.53,0l-.94-.08c-.41,0-.82-.07-1.23-.09a.72.72,0,0,0-.36,0c-.59.37-1.18.06-1.77,0a.81.81,0,0,0-.22,0l-3.24.17c-.27,0-.43-.1-.42-.4s0-.81,0-1.22c.5,0,1,0,1.49,0,.69,0,1.38-.32,2.07,0,.16.08.41-.05.62-.05.92,0,1.84-.09,2.76-.09.42,0,.85.16,1.27.16.58,0,1.16-.1,1.74-.15.16,0,.38-.08.49,0,.39.28.78.07,1.17.07h.92a5.54,5.54,0,0,1,1.21-.07,21.8,21.8,0,0,0,2.68.05,7.69,7.69,0,0,1,1.26,0,3.09,3.09,0,0,0,1,0c.1,0,.2-.11.3-.17h.64C27.72,16,28.13,16,28.41,15.57Z"/><path class="cls-23" d="M19.25,22.36l.43,1.28c-.83.15-.85.16-1.08-.6a.51.51,0,0,0-.6-.44c-.45,0-.9,0-1.35,0-.25,0-.41.07-.46.32s-.09.2-.1.3c-.06.42-.31.54-.7.48a3.16,3.16,0,0,0-.35,0c.07-.21.14-.4.2-.59l.45-1.23.45-1.17c.22-.59.45-1.18.67-1.78.31-.38.71-.12,1.07-.16.27.72.55,1.44.82,2.17ZM16.54,22H18.2l-.78-2.21h-.1Z"/><path class="cls-23" d="M21.15,23.58c-.44.22-.74.17-.87-.14V19.1l0-.47c1,.08,2-.2,2.92.29a1.82,1.82,0,0,1,.45,1.95c-.19.2-.34.49-.57.57a5.51,5.51,0,0,1-1.51.27c-.38,0-.5.12-.47.49S21.15,23.12,21.15,23.58Zm0-3.4c0,1,.11,1,1.06.88a.88.88,0,0,0,0-1.75C21.22,19.14,21.11,19.23,21.11,20.18Z"/><path class="cls-8" d="M20.28,19.1v1.35l-.12.22-1.11-.17.19.65-.54-.23c-.27-.73-.55-1.45-.82-2.17.22,0,.47-.1.52.25a.18.18,0,0,0,.14.08c.43,0,.85-.07,1.27-.08A2,2,0,0,1,20.28,19.1Z"/><path class="cls-8" d="M23.69,20.87a1.82,1.82,0,0,0-.45-1.95l.31-.15c.43.35.43.35,1-.14h0l0,1.37v.53l-.15.61Z"/><path class="cls-1" d="M7.78,22.89c0,1.36,0,2.71,0,4.07,0,.33,0,.67,0,1L7.64,27c-.74.22-1.46.42-2.18.66-.15,0-.25.24-.38.36H5c-.07-.28-.13-.55-.2-.82a4.29,4.29,0,0,1,.61-2.71.11.11,0,0,0,0-.08l.08-.1A3.8,3.8,0,0,1,7.78,22.89Z"/><path class="cls-2" d="M5.08,28.05c.13-.12.23-.31.38-.36.72-.24,1.44-.44,2.18-.66.05.35.1.64.15.93a1.86,1.86,0,0,0,1.54,1.45l1.11.08.92.11-.31.27A3.93,3.93,0,0,1,6.57,30,3.38,3.38,0,0,1,5.08,28.05Z"/><path class="cls-21" d="M24.25,12.5c0-.25.05-.49.07-.73h6.12a3.76,3.76,0,0,0,.58,0,1.46,1.46,0,0,0,.46-.21l.82.63c0,.2,0,.22-.26.22-1.1,0-2.21,0-3.31,0-.27,0-.53-.07-.8-.07l-2.9.08Z"/><path class="cls-24" d="M15.69,21.86l-.45,1.23-.36-.21c-.23.25-.4.26-.75.08S13.36,23,13,23c-.15,0-.32.08-.44,0-.59-.28-1.17,0-1.76,0a9.25,9.25,0,0,1-1.58-.09c-.32,0-.68.12-1-.2,0,0-.28.09-.42.15V21.81l.46-.16c.05,0,.1-.07.15-.07a28.23,28.23,0,0,1,3,0c.86.08,1.72-.26,2.56.06.15.06.31.1.47.15A.83.83,0,0,1,15.69,21.86Z"/><path class="cls-12" d="M5.53,24.34l-.08.1Z"/><path class="cls-25" d="M7.89,25.43v-1c3.2-.09,6.35,0,9.55,0l.09-.23.37.23c.25-.43.27-.43.62.06L19,24c.28.54.3.54.91.34a.42.42,0,0,1,.35,0c.32.28.51.07.71-.21a1.59,1.59,0,0,0,1.61.25c.36-.08.79.15,1.12,0,.54-.19,1.06.12,1.57-.07a.47.47,0,0,1,.26,0c.79.13,1.57-.1,2.36,0l1,.15c.06,0,.13,0,.18,0a11,11,0,0,1,2.43-.1,5.52,5.52,0,0,0,.94-.27v1.37a4.41,4.41,0,0,1-.72.08c-.37,0-.73-.16-1.1-.16-.53,0-1.06.21-1.58-.09,0,0-.12,0-.17,0-.42.15-.83.42-1.24,0,0,0-.09,0-.13,0a4.23,4.23,0,0,1-2.09.1,1.5,1.5,0,0,0-.61.1c-.16,0-.35.11-.48.05a3.15,3.15,0,0,0-1.72-.08.71.71,0,0,1-.44,0c-.34-.21-.63-.07-.94,0s-.41.12-.51,0c-.46-.39-.91-.06-1.36-.05h-.68c-.35,0-.7,0-1.05,0-.19,0-.42.13-.57.07a2.83,2.83,0,0,0-1.63-.08.81.81,0,0,1-.49,0,1,1,0,0,0-.94,0c-.15.06-.41.12-.5,0-.46-.38-.91-.07-1.36-.05H9.57c-.33,0-.72-.13-1,0A.49.49,0,0,1,7.89,25.43Z"/><path class="cls-26" d="M7.89,25.43a.49.49,0,0,0,.72.08c.24-.14.63,0,1,0h2.6c.45,0,.9-.33,1.36.05.09.08.35,0,.5,0a1,1,0,0,1,.94,0,.81.81,0,0,0,.49,0,2.83,2.83,0,0,1,1.63.08c.15.06.38-.06.57-.07.35,0,.7,0,1.05,0h.68c.45,0,.9-.34,1.36.05.1.08.35,0,.51,0s.6-.25.94,0a.71.71,0,0,0,.44,0,3.15,3.15,0,0,1,1.72.08c.13.06.32,0,.48-.05a1.5,1.5,0,0,1,.61-.1,4.23,4.23,0,0,0,2.09-.1s.11,0,.13,0c.41.44.82.17,1.24,0,.05,0,.13-.05.17,0,.52.3,1.05.08,1.58.09.37,0,.73.13,1.1.16a4.41,4.41,0,0,0,.72-.08v.72c-.48.09-.95.2-1.43.26a2.76,2.76,0,0,1-.63-.07,1.77,1.77,0,0,0-.51,0,5.68,5.68,0,0,1-.88.17c-.86,0-1.72-.16-2.58-.13a5.47,5.47,0,0,1-1.85,0,.54.54,0,0,0-.22,0c-.48.07-1,.26-1.42-.08a.22.22,0,0,0-.14,0,2.46,2.46,0,0,1-1.69.08.82.82,0,0,0-.27,0,2.58,2.58,0,0,1-1.58,0c-.1-.05-.26,0-.39,0-.32,0-.64.05-1,.05s-.76,0-1.14,0-.65.15-.92-.17c-.06-.06-.27,0-.4,0-.49.14-1,.44-1.48,0-.15-.11-.46,0-.69,0s-.23.09-.3.06c-.66-.36-1.26.16-1.89.12,0,0,0,.08,0,.12h-.18c-.15-.12-.28-.32-.44-.34a6.3,6.3,0,0,0-1,0c-.53,0-1.05,0-1.57,0Z"/><path class="cls-27" d="M10.87,26.69h.18a11.3,11.3,0,0,1,3.55.6l.52.13h0l.09.08,1.89.82.46.36.36.18.55.54H14.52a2.54,2.54,0,0,0-.47.07l-.14,0h-.06a1.66,1.66,0,0,0-.37-.09H9.33A1.86,1.86,0,0,1,7.79,28c0-.33,0-.67,0-1h.08Z"/><path class="cls-28" d="M15.12,27.42l-.52-.13a11.3,11.3,0,0,0-3.55-.6s0-.12,0-.12c.63,0,1.23-.48,1.89-.12.07,0,.2-.05.3-.06s.54-.12.69,0c.53.4,1,.1,1.48,0,.13,0,.34-.07.4,0,.27.32.59.18.92.17s.76,0,1.14,0,.65,0,1-.05c.13,0,.29-.09.39,0a2.58,2.58,0,0,0,1.58,0,.82.82,0,0,1,.27,0,2.46,2.46,0,0,0,1.69-.08.22.22,0,0,1,.14,0c.46.34.94.15,1.42.08a.54.54,0,0,1,.22,0,5.47,5.47,0,0,0,1.85,0c.86,0,1.72.11,2.58.13a5.68,5.68,0,0,0,.88-.17,1.77,1.77,0,0,1,.51,0,2.76,2.76,0,0,0,.63.07c.48-.06.95-.17,1.43-.26v1.08c-.45.08-.88.25-1.3-.15-.12-.11-.52,0-.74.12a.6.6,0,0,1-.8-.08c-.12-.11-.42-.08-.62,0a1.69,1.69,0,0,1-1.34,0c-.2-.11-.58.11-.88.17s-.42.12-.55,0a1.39,1.39,0,0,0-1.24,0,1,1,0,0,1-1-.14c-.13-.12-.54,0-.78.1s-.49.19-.76-.06a.74.74,0,0,0-.61-.06,1.66,1.66,0,0,1-1.38,0c-.17-.11-.54.06-.8.16a1.1,1.1,0,0,1-.89,0,1.94,1.94,0,0,0-1,.07c-.34.09-.63.24-.91-.14-.06-.09-.32-.07-.49-.06-.33,0-.66.06-1,.11C15.25,27.28,15.19,27.36,15.12,27.42Z"/><path class="cls-24" d="M32.48,21.63v1.26c-1.14-.09-2.3.13-3.41,0-.9-.09-1.79.3-2.68-.08-.21-.09-.65-.25-.78.23h-.18V21.45c.5,0,1,0,1.52,0,.79,0,1.59-.08,2.38-.07.4,0,.8.18,1.19.14A4.64,4.64,0,0,1,32.48,21.63Z"/><path class="cls-24" d="M23.69,20.87l.65.28.15-.61v2.62c-.1-.25-.18-.49-.53-.24-.07,0-.28-.1-.43-.16-.39.29-.83.13-1.26,0s-.62-.08-.93-.12l0,.15.47.09c-.11.17-.18.38-.32.47s0,.45-.31.19c0-.47,0-.93,0-1.39s.09-.47.47-.49a5.51,5.51,0,0,0,1.51-.27C23.35,21.36,23.5,21.07,23.69,20.87Z"/><path class="cls-23" d="M24.49,23.16V20l0-1.37h.82v5l-.78.12Z"/><path class="cls-9" d="M18.7,20.92l.54.23-.19-.65,1.11.17.12-.22v3s-.08-.08-.08-.11a1.13,1.13,0,0,0-.6-1.14l-.35.17C19.06,21.88,18.88,21.4,18.7,20.92Z"/><path class="cls-28" d="M10.87,26.69l-3,.27v-.63c.52,0,1,0,1.57,0a6.3,6.3,0,0,1,1,0C10.59,26.37,10.72,26.57,10.87,26.69Z"/><path class="cls-24" d="M25.61,23.07l.17.17-.1.08-.07-.25Z"/><path class="cls-25" d="M15.08,24l0,.08s-.07,0-.07,0S15,24,15,24Z"/><path class="cls-18" d="M17.56,28.68l-.46-.36.41-.15Z"/><path class="cls-28" d="M15.21,27.5l-.09-.08Z"/><path class="cls-9" d="M32.48,21.63a4.64,4.64,0,0,0-2-.12c-.39,0-.79-.14-1.19-.14-.79,0-1.59.05-2.38.07-.51,0-1,0-1.52,0V20c.52.57,1,.13,1.47.13.1,0,.23-.09.3-.05.65.35,1.29-.05,1.92,0s1.32-.07,1.94,0a2.35,2.35,0,0,0,1.12.05c.22-.07.31.08.3.31S32.48,21.25,32.48,21.63Z"/><path class="cls-5" d="M28.41,15.57c-.28.39-.69.39-.9,0Z"/><path class="cls-6" d="M9.33,29.41h4.15a1.66,1.66,0,0,1,.37.09c-.64,0-1.28,0-1.92,0a2.07,2.07,0,0,0-.42.08l-.15,0-.92-.11Z"/><path class="cls-9" d="M16.54,22l.78-2.2h.1L18.2,22Z"/><path class="cls-8" d="M21.11,20.18c0-.95.11-1,1.06-.87a.88.88,0,0,1,0,1.75C21.22,21.22,21.11,21.14,21.11,20.18Z"/><path class="cls-24" d="M24.49,20v0Z"/></g></g></svg>