<svg xmlns="http://www.w3.org/2000/svg" viewBox="0 0 300 300"><defs><style>.cls-1{fill:#050303;}.cls-2{fill:#080305;}.cls-3{fill:#959595;}.cls-4{fill:#a90002;}.cls-5{fill:#a50002;}.cls-6{fill:#ae0003;}.cls-7{fill:#060002;}.cls-8{fill:#af0002;}.cls-9{fill:#ae0002;}.cls-10{fill:#b40002;}.cls-11{fill:#b90002;}.cls-12{fill:#bd0004;}.cls-13{fill:#bb0003;}.cls-14{fill:#8b0001;}.cls-15{fill:#ba0002;}.cls-16{fill:#bd0002;}.cls-17{fill:#b30003;}.cls-18{fill:#a80001;}.cls-19{fill:#a60002;}.cls-20{fill:#a30000;}.cls-21{fill:#a00002;}.cls-22{fill:#9e0000;}.cls-23{fill:#9d0003;}.cls-24{fill:#9a0001;}.cls-25{fill:#970003;}.cls-26{fill:#920001;}.cls-27{fill:#8d0001;}.cls-28{fill:#850001;}.cls-29{fill:#040003;}</style></defs><title>avatar</title><g id="Layer_2" data-name="Layer 2"><g id="Layer_1-2" data-name="Layer 1"><path class="cls-1" d="M0,155V145l.8-3.65,0-6.49A150,150,0,0,1,134.87.76l5.6.09L145,0h10l4.53.85,5.61-.08a150,150,0,0,1,134.09,134.1l-.12,4.89c.3,2.75.59,5.49.89,8.24v4l-.89,8.24.12,4.89a150,150,0,0,1-134.1,134.1h-5.69L152,300h-4l-7.44-.77h-5.69A150,150,0,0,1,.77,165.14l.11-4.89Zm17.49-49.19C10.37,126,8,146.73,11.56,168a125.06,125.06,0,0,0,11.09,40.2c24.39,53.23,81,88,143.1,80.91,28.85-3.29,54.47-14.19,75.94-33.52,38.2-34.38,53.93-77.39,46.32-128.4a128.91,128.91,0,0,0-30.74-66.61l-3.2-3.74c-16.39-18.6-36.19-32-60-39.38L189,15.9l-21-4.37a118.22,118.22,0,0,0-46.9,2l-16.18,4.29-17,7.14-3.37,1.75L78.91,29.8,62.78,40.89,44.9,58l-1.53,1.75L40.6,63.32,32.91,73.84l-12,23Z"/><path class="cls-2" d="M300,148c-.3-2.75-.59-5.49-.89-8.24a2.31,2.31,0,0,0,.89.24Z"/><path class="cls-2" d="M299.11,160.24,300,152v8A2.31,2.31,0,0,0,299.11,160.24Z"/><path class="cls-3" d="M0,135l.33-.37.44.23,0,6.5L0,142Z"/><path class="cls-2" d="M140.56,299.23,148,300h-7A1.8,1.8,0,0,1,140.56,299.23Z"/><path class="cls-2" d="M152,300l7.44-.77a1.91,1.91,0,0,1-.44.77Z"/><path class="cls-3" d="M134.87.76A.67.67,0,0,1,135,0h6a3.38,3.38,0,0,0-.53.85Z"/><path class="cls-3" d="M165,0a.71.71,0,0,1,.14.77l-5.62.08A3.24,3.24,0,0,0,159,0Z"/><path class="cls-3" d="M159,300a1.91,1.91,0,0,0,.44-.77h5.69a.69.69,0,0,1-.13.77Z"/><path class="cls-3" d="M140.56,299.23a1.8,1.8,0,0,0,.44.77h-6a.69.69,0,0,1-.13-.77Z"/><path class="cls-3" d="M300,140a2.31,2.31,0,0,1-.89-.24l.12-4.89.44-.24.33.37Z"/><path class="cls-2" d="M0,155c.29,1.75.59,3.5.88,5.25A2.23,2.23,0,0,0,0,160Z"/><path class="cls-3" d="M0,160a2.23,2.23,0,0,1,.88.25c0,1.63-.08,3.26-.11,4.89l-.44.23L0,165Z"/><path class="cls-3" d="M299.11,160.24A2.31,2.31,0,0,1,300,160v5l-.33.37-.44-.24Z"/><path class="cls-2" d="M140.47.85A3.38,3.38,0,0,1,141,0h4Z"/><path class="cls-2" d="M159,0a3.24,3.24,0,0,1,.52.85L155,0Z"/><path class="cls-2" d="M0,142l.8-.64C.53,142.57.27,143.78,0,145Z"/><path class="cls-4" d="M62.78,40.89,78.91,29.8c.94,2.38,2.15,4.11,5,2.22,2.37-1.57,3-3.29.57-5.36l3.37-1.75c2.78,3.15,6.05,4.25,9.94,2.17,2-1.08,3.95-2.3,5.9-3.49,2.44-1.51,2.71-3.49,1.19-5.82l16.18-4.29c-.39,4.18,2.45,4.5,5.45,4.51,11.26,0,22.52,0,33.77,0,4.45,0,7.33-1.71,7.68-6.48l21,4.37c.94,1.62,1.87,3.25,2.8,4.87l2.3-3.33c23.78,7.36,43.58,20.78,60,39.38l.9,4.82,2.3-1.08A128.91,128.91,0,0,1,288,127.17c7.61,51-8.12,94-46.32,128.4-21.47,19.33-47.09,30.23-75.94,33.52C103.69,296.16,47,261.41,22.65,208.18A124.79,124.79,0,0,1,11.57,168c3.33-.09,4.56-1.77,4.48-5.11-.17-7.81-.39-15.64.06-23.42.35-6,1.75-12,2.54-18,.55-4.25,1-8.52,1.15-12.8,0-.91-1.5-1.88-2.31-2.83l3.39-9c4.35,3.11,5.74-.34,7.09-3.35,1.87-4.2,3.09-8.75,5.41-12.66,1.69-2.85,1.4-4.75-.47-7L40.6,63.33c1.72,2.75,3.45,1.51,4.54-.35.32-.54-1.13-2.12-1.77-3.23L44.9,58c2.69-.49,5.93-.21,7.94-1.65a46.84,46.84,0,0,0,9.5-9.47C63.37,45.56,62.69,42.92,62.78,40.89ZM277,182c.16-1.64,0-3.41.55-4.9A62.49,62.49,0,0,0,282,150.46c-.33-5.24-.85-10.48-1.68-15.65-1.21-7.56-2.32-15.19-4.33-22.56-1.61-5.91-4.59-11.44-6.76-17.21-3.59-9.53-7.74-18.69-15.34-25.85-1.06-1-1.64-2.48-2.59-3.6-2.53-3-5-6-7.77-8.81-1.84-1.89-4.41-3.13-6-5.18-2.12-2.76-4.37-3.28-7.7-2.85-3.6.46-7.65.73-9.81-3.5l7.82-.3.31-1L221,41.53c-2.7-8.63-10.63-12.31-17.63-14.11A110.93,110.93,0,0,0,164,24.7c-15.15,1.6-30.53.95-45.82,1.32-1.63,0-4.12-.25-4.74.64-2.8,4-7.32,3.23-10.94,4.82A129.18,129.18,0,0,0,82.88,41.83c-6.1,4.08-11.49,9.24-17.12,14-5.31,4.5-10.94,8.73-15.64,13.81-3.42,3.7-5.29,8.78-8.31,12.92-5.11,7-9.24,14.34-11.12,22.86-.67,3-.8,6.13-4.24,7.92-1.26.66-2.06,3.08-2.24,4.79-1.2,11.15-2.4,22.3-3.13,33.49-.45,7,.26,14-.14,21-1.24,21.48,8,39,20.54,55.27,3.9,5.1,8.73,9.5,12.48,14.7,5.77,8,14.29,12.65,22,18.11,6.74,4.78,14.79,7.72,22.3,11.4,14.16,6.94,29.37,9.8,44.91,10.84,13.33.89,26.54.21,38.86-5.93a19.73,19.73,0,0,0,4.58-.39c3.08-1,6.06-3.38,9.06-3.34,8.82.09,14.62-6.22,21.82-9.44,3.49-1.56,6.09-5,9.19-7.52,3.56-2.85,8.92-4.85,10.45-8.49,2.34-5.58,6.2-7.68,10.73-10.77a44.66,44.66,0,0,0,14.06-16c5-9.8,11.13-19.3,13.13-30.47C275.54,187.71,276.33,184.87,277,182Z"/><path class="cls-5" d="M17.49,105.81c.81,1,2.34,1.92,2.31,2.83-.14,4.28-.6,8.55-1.15,12.8-.79,6-2.19,12-2.54,18-.45,7.78-.23,15.61-.06,23.42.08,3.34-1.15,5-4.48,5.11C8,146.73,10.37,126,17.49,105.81Z"/><path class="cls-5" d="M168,11.53c-.35,4.77-3.23,6.5-7.68,6.48-11.25,0-22.51,0-33.77,0-3,0-5.84-.33-5.45-4.51A118.22,118.22,0,0,1,168,11.53Z"/><path class="cls-5" d="M32.91,73.84c1.87,2.22,2.16,4.12.47,7-2.32,3.91-3.54,8.46-5.41,12.66-1.35,3-2.74,6.46-7.09,3.35Z"/><path class="cls-5" d="M62.78,40.89c-.09,2,.59,4.67-.44,6a46.84,46.84,0,0,1-9.5,9.47c-2,1.44-5.25,1.16-7.94,1.65Z"/><path class="cls-5" d="M104.88,17.77c1.52,2.33,1.25,4.31-1.19,5.82-2,1.19-3.89,2.41-5.9,3.49-3.89,2.08-7.16,1-9.94-2.17Z"/><path class="cls-5" d="M84.48,26.66c2.46,2.07,1.8,3.79-.57,5.36-2.85,1.89-4.06.16-5-2.22Z"/><path class="cls-5" d="M194.1,17.44l-2.3,3.33c-.93-1.62-1.86-3.25-2.8-4.87Z"/><path class="cls-5" d="M43.37,59.75c.64,1.11,2.09,2.69,1.77,3.23-1.09,1.86-2.82,3.1-4.54.35C41.52,62.13,42.45,60.94,43.37,59.75Z"/><path class="cls-5" d="M257.27,60.56,255,61.64l-.9-4.82Z"/><path class="cls-6" d="M182,277c-12.32,6.14-25.53,6.82-38.86,5.93-15.54-1-30.75-3.9-44.91-10.84-7.51-3.68-15.56-6.62-22.3-11.4-7.68-5.46-16.2-10.1-22-18.11-3.75-5.2-8.58-9.6-12.48-14.7C29,211.6,19.7,194.09,20.94,172.61c.4-7-.31-14,.14-21,.73-11.19,1.93-22.34,3.13-33.49.18-1.71,1-4.13,2.24-4.79,3.44-1.79,3.57-4.93,4.24-7.92,1.88-8.52,6-15.88,11.12-22.86,3-4.14,4.89-9.22,8.31-12.92,4.7-5.08,10.33-9.31,15.64-13.81,5.63-4.77,11-9.93,17.12-14a129.18,129.18,0,0,1,19.61-10.35c3.62-1.59,8.14-.85,10.94-4.82.62-.89,3.11-.6,4.74-.64,15.29-.37,30.67.28,45.82-1.32a110.93,110.93,0,0,1,39.39,2.72c7,1.8,14.93,5.48,17.63,14.1l-15.94-1.24c-.32-3.28,1.07-7.61-4.14-8.19s-10.72-.81-16.08-1.08c-7.95-.39-15.92-1.11-23.85-.9-10.55.27-21.1,1.1-31.61,2.08-5.21.49-10.73.94-15.43,3C100.22,41.19,86.81,48,73.3,54.54c-.52.25-.78,1-1.17,1.54C68.78,60.53,65.48,65,62.06,69.42c-5.78,7.42-12,14.51-17.35,22.22-6.7,9.68-9.26,21.07-11.54,32.44C32,130,30.34,136,30.17,141.92a239.43,239.43,0,0,0,.95,28.34c.79,8.85,2.38,17.64,3.89,26.42.94,5.42,4.56,10.39,2.24,16.39-.33.87,1.62,2.84,2.79,4,4,4,8.2,7.92,12.27,11.91.3.29.21.94.4,1.38,1,2.27,1.57,4.83,3,6.74,6.12,8,15.58,11.63,23.33,17.53,2.08,1.57,5.2,2.1,6.73,4,5.77,7.17,14.87,8.09,22.36,10.63,10.56,3.57,22.38,3.6,33.72,4.62a145.4,145.4,0,0,0,19.47,0c3.22-.15,6.4-1.17,9.58-1.89,4-.9,7.85-1.34,11.07,2Z"/><path class="cls-7" d="M205.07,40.28,221,41.52,228.12,44l-.3,1-7.82.3-11.18,4.42-1.51,1.88-2.23,1.18L214.73,67v9.9l-2,4.88-2.89,4.08L206,89.08l-6.11,2.69-3.89.45c-8.15.06-14.13-3.87-18.81-10.2-.89-2-1.77-4.07-2.65-6.1,0-.94,0-1.88,0-2.82q.66-4,1.31-8l1.41-2.87q2.66-4,5.29-7.95l8-8,8.48-4.4Z"/><path class="cls-8" d="M208.82,49.67,220,45.25c2.16,4.23,6.21,4,9.81,3.5,3.33-.43,5.58.09,7.7,2.85,1.57,2,4.14,3.29,6,5.18,2.73,2.8,5.24,5.82,7.77,8.81,1,1.12,1.53,2.61,2.59,3.6,7.6,7.16,11.75,16.32,15.34,25.85,2.17,5.77,5.15,11.3,6.76,17.21,2,7.37,3.12,15,4.33,22.56.83,5.17,1.35,10.41,1.68,15.65a62.49,62.49,0,0,1-4.41,26.64c-.57,1.49-.39,3.26-.55,4.9-2.54,3.94-5.07,7.87-7.67,11.89L266,190c1-5,1.9-10,3.06-14.94.79-3.34,2.93-6.64,2.77-9.88-.69-14.29,2-28.64-2.51-42.94-3.38-10.64-5.38-21.54-12.22-30.85-3-4.14-4-9.88-7.24-13.77a273.29,273.29,0,0,0-21.11-22.09C227,53.83,223.62,53.76,221,53,216.93,51.86,212.87,50.78,208.82,49.67Z"/><path class="cls-9" d="M266,190l3.33,3.89c2.6-4,5.13-7.95,7.67-11.89-.67,2.87-1.46,5.71-2,8.61-2,11.17-8.11,20.67-13.13,30.47a44.66,44.66,0,0,1-14.06,16c-4.53,3.09-8.39,5.19-10.73,10.77-1.53,3.64-6.89,5.64-10.45,8.49-3.1,2.48-5.7,6-9.19,7.52-7.2,3.22-13,9.53-21.82,9.44-3,0-6,2.33-9.06,3.34A19.73,19.73,0,0,1,182,277v-3l9.55-2.5L189,267c2.38-1.21,4.81-2.35,7.14-3.66,3.88-2.16,7.71-4.42,11.54-6.66,9.58-5.63,20.22-10,25.37-21,.68-1.49,2.6-2.47,4.07-3.49,1.84-1.28,4.3-2,5.64-3.6a106.38,106.38,0,0,0,10.08-13.87C257.53,206.65,261.64,198.25,266,190Z"/><path class="cls-5" d="M227.82,45l.3-1Z"/><path class="cls-8" d="M189,267l2.55,4.5L182,274c-3.22-3.32-7.08-2.88-11.07-2-3.18.72-6.36,1.74-9.58,1.89a145.4,145.4,0,0,1-19.47,0c-11.34-1-23.16-1-33.72-4.62-7.49-2.54-16.59-3.46-22.36-10.63-1.53-1.9-4.65-2.43-6.73-4-7.75-5.9-17.21-9.56-23.33-17.53-1.46-1.91-2.06-4.47-3-6.74-.19-.44-.1-1.09-.4-1.38-4.07-4-8.24-7.88-12.27-11.91-1.17-1.18-3.12-3.15-2.79-4,2.32-6-1.3-11-2.24-16.39-1.51-8.78-3.1-17.57-3.89-26.42a239.43,239.43,0,0,1-.95-28.34c.17-6,1.82-11.92,3-17.84,2.28-11.37,4.84-22.76,11.54-32.44,5.35-7.71,11.57-14.8,17.35-22.22,3.42-4.4,6.72-8.89,10.07-13.34.39-.52.65-1.29,1.17-1.54C86.81,48,100.22,41.19,114,35.18c4.7-2,10.22-2.5,15.43-3,10.51-1,21.06-1.81,31.61-2.08,7.93-.21,15.9.51,23.85.9,5.36.27,10.74.48,16.08,1.08s3.82,4.91,4.14,8.19L199,41.82c-.48-1.16-.65-3-1.49-3.37-4.34-2-8.76-4.88-13.31-5.21-13.4-1-26.88-1-40.34-1.16-2.23,0-4.49,1-6.73,1.48C135.08,34,133,35,131,34.92c-6.38-.07-12.77-.63-17.15,5.52a4.26,4.26,0,0,1-2.18,1.16c-13.13,4.07-25.79,9.58-35.14,19.73-6.75,7.34-17.25,10.75-21.28,20.76-.28.69-1.35,1-1.78,1.69a47.11,47.11,0,0,0-4.37,7.45c-2,5-2.77,10.72-5.58,15.18-5,8-7.87,16.27-7.55,25.7,0,1.44,0,3.24-.81,4.3C31.83,140.93,31.78,146,32,151.2c.26,5.79.27,11.63,1.07,17.36,1.35,9.77,3,19.51,5,29.18.48,2.4,2.69,4.4,3.78,6.74,2.39,5.14,4.54,10.39,6.86,15.57a4.44,4.44,0,0,0,1.39,1.41c5.24,4.19,7.12,12,14.78,13.7.63.14,1.06,1.63,1.41,2.55C69.1,245,75.68,248.55,82,251.12a57.19,57.19,0,0,1,14.2,8.58c.78.61,1.42,1.59,2.29,1.87,7.65,2.52,15.29,5.09,23,7.27a49.62,49.62,0,0,0,12.11,2.06c10.66.29,21.32.21,32,0,2.15,0,4.27-1.24,6.4-1.91Z"/><path class="cls-10" d="M172,269c-2.13.67-4.25,1.87-6.4,1.91-10.66.2-21.32.28-32,0a49.62,49.62,0,0,1-12.11-2.06c-7.74-2.18-15.38-4.75-23-7.27-.87-.28-1.51-1.26-2.29-1.87A57.19,57.19,0,0,0,82,251.12c-6.31-2.57-12.89-6.1-15.67-13.41-.35-.92-.78-2.41-1.41-2.55-7.66-1.68-9.54-9.51-14.78-13.7a4.44,4.44,0,0,1-1.39-1.41c-2.32-5.18-4.47-10.43-6.86-15.57-1.09-2.34-3.3-4.34-3.78-6.74-2-9.67-3.66-19.41-5-29.18-.8-5.73-.81-11.57-1.07-17.36-.24-5.18-.19-10.27,3.13-14.79.79-1.06.86-2.86.81-4.3-.32-9.43,2.51-17.71,7.55-25.7,2.81-4.46,3.56-10.17,5.58-15.18a47.11,47.11,0,0,1,4.37-7.45c.43-.67,1.5-1,1.78-1.69,4-10,14.53-13.42,21.28-20.76,9.35-10.15,22-15.66,35.14-19.73a4.26,4.26,0,0,0,2.18-1.16c4.38-6.15,10.77-5.59,17.15-5.52,2,0,4.09-.88,6.13-1.36,2.24-.52,4.5-1.51,6.73-1.48,13.46.18,26.94.18,40.34,1.16,4.55.33,9,3.19,13.31,5.21.84.39,1,2.21,1.49,3.37l-8.48,4.4c-2.35-.74-4.67-2-7-2.13-14.78-.51-29.58-.88-44.37-1a30.18,30.18,0,0,0-10.67,1.76c-11.71,4.4-23.39,8.92-34.79,14-5,2.26-9.65,5.75-14,9.26A53.62,53.62,0,0,0,71,77.62c-5.85,7.77-12.78,15.13-16.75,23.8-4.74,10.37-8.46,21.77-9.73,33.05-1.63,14.55-.43,29.44-.34,44.18,0,2.79.55,5.58.84,8.38.55,5.26.83,10.54,5,14.65,1.36,1.33,2,3.39,3.06,5.06,2.91,4.56,5.29,9.64,8.94,13.51,5.51,5.85,11.9,10.86,17.95,16.2a73.05,73.05,0,0,0,6.11,5.05c9.34,6.58,19.29,12.1,30.19,15.51,6.85,2.14,14,4.55,21,4.72a192,192,0,0,0,35.64-2.08c8.12-1.32,15.79-5.5,23.57-8.62,4.43-1.78,8.5-4.67,13-5.86,7.08-1.86,11.7-6.13,15.69-11.91a37.46,37.46,0,0,1,8.16-8.13c4.72-3.64,10-6.64,8.95-14a3.62,3.62,0,0,1,1.24-2.39c6.23-6.26,9.48-14.24,12.46-22.25,5.89-15.83,7-32.39,5.87-49.05a66.7,66.7,0,0,0-3.93-19.14,163.93,163.93,0,0,0-12.59-26.16,87,87,0,0,0-15.71-19.51c-3.68-3.32-9.85-3.88-14.9-5.68l-9.65-14.25,2.24-1.18c3.59,2.31,7.08,4.78,10.79,6.85,3.39,1.89,7.13,3.15,10.52,5,2.94,1.64,6.32,3.23,8.28,5.78,6.11,8,11.66,16.39,17.36,24.69,2.28,3.31,5.32,6.06,5,10.9-.18,3.29.38,7.86,2.49,9.77,5.14,4.66,5,11,5.84,16.43,2.54,17,2.25,33.95-5.16,50.06-1.09,2.36-1.38,5.1-2.56,7.41-3.74,7.36-7.69,14.6-11.61,21.86-4.18,7.73-8.45,15.32-17.32,18.83-1.27.5-1.86,2.58-2.88,3.83-2.79,3.41-5,7.78-8.58,10-10.07,6.18-20.6,11.63-31.14,17a38.87,38.87,0,0,1-12.13,3.89C172.63,264.32,171.74,265.88,172,269Z"/><path class="cls-11" d="M214.73,67c5.05,1.8,11.22,2.36,14.9,5.68a87,87,0,0,1,15.71,19.51,163.93,163.93,0,0,1,12.59,26.16,66.7,66.7,0,0,1,3.93,19.14c1.09,16.66,0,33.22-5.87,49.05-3,8-6.23,16-12.46,22.25a3.62,3.62,0,0,0-1.24,2.39c1.07,7.33-4.23,10.33-8.95,14a37.46,37.46,0,0,0-8.16,8.13c-4,5.78-8.61,10.05-15.69,11.91-4.54,1.19-8.61,4.08-13,5.86-7.78,3.12-15.45,7.3-23.57,8.62a192,192,0,0,1-35.64,2.08c-7-.17-14.13-2.58-21-4.72-10.9-3.41-20.85-8.93-30.19-15.51A73.05,73.05,0,0,1,80,236.45c-6-5.34-12.44-10.35-17.95-16.2-3.65-3.87-6-8.95-8.94-13.51C52,205.07,51.37,203,50,201.68c-4.18-4.11-4.46-9.39-5-14.65-.29-2.8-.82-5.59-.84-8.38-.09-14.74-1.29-29.63.34-44.18,1.27-11.28,5-22.68,9.73-33,4-8.67,10.9-16,16.75-23.8a53.62,53.62,0,0,1,8.68-9.48c4.33-3.51,8.94-7,14-9.26,11.4-5.11,23.08-9.63,34.79-14a30.18,30.18,0,0,1,10.67-1.76c14.79.12,29.59.49,44.37,1,2.37.09,4.69,1.39,7,2.13l-8,8c-5.42-1.75-10.87-5-16.25-4.93-12.95.23-25.88-1.88-39,2.18A97.39,97.39,0,0,0,103.49,62c-6.12,3.88-11.78,8.6-18.2,11.85A40.17,40.17,0,0,0,69.38,88.4a179.87,179.87,0,0,0-11.06,19.3c-2.63,5.46-5.44,11.29-6.06,17.18-1.21,11.34-1,22.84-1.2,34.28-.05,4.28.61,8.56.94,12.84.25,6.81.47,13.61.79,20.42a2.33,2.33,0,0,0,1,1.65c4.19,2.27,5.45,5.86,5.37,10.42,0,1.68,1.18,3.39,1.87,5.07,2.39,5.72,7.55,8.26,12.28,11.68,6.52,4.72,11.92,10.81,19.45,14.41,5.9,2.81,11.24,6.81,16.76,10.4,2.43,1.58,5.07,5.28,6.94,4.88,6.43-1.37,11.63,2.21,17.33,2.76,8.68.83,17.58-.05,26.33-.82,5-.44,9.95-2.06,14.9-3.27.42-.1.64-1,.95-1.6,16.83-3.14,31.47-9.88,41-25l5-5c6.58-5.53,13.77-9.82,18.24-18.22,7.61-14.31,10.37-29.55,11.47-45.09.67-9.32,2.28-19.08-2.48-28.33-2.44-4.75-2.74-10.56-4.92-15.49-2.65-6-6.28-11.5-9.46-17.23-4.26-7.71-8.67-15.21-18.76-16.15a4.83,4.83,0,0,1-1.36-.61Z"/><path class="cls-9" d="M177.2,82c4.68,6.33,10.66,10.26,18.81,10.2,4,6.75,7.83,13.61,12,20.23,6.67,10.49,12.74,21.12,12,34.2-.11,1.82-.44,3.81.1,5.46,2.61,7.85,1.28,15.2-2.11,22.46-2.45,5.24-3.51,11.67-7.23,15.66-9.67,10.38-18.33,22.42-33.17,26.49-5.71,1.57-11.29,4.34-17.05,4.74-7.17.5-14.48-.86-21.72-1.48a13.92,13.92,0,0,1-4.34-.82c-6-2.62-12.18-5-17.86-8.25s-11.84-6.5-16.08-11.28c-6.85-7.72-13.53-15.89-17.22-25.88C83,172.69,81.8,171.91,81,171q-1-14.83-2-29.66c-.78-11.24,4-20.81,9-30.34l3-4,1-2,4-4,3-3,12-10c7.66-3,15.1-6.88,23-8.78a59.85,59.85,0,0,1,30,.58C168.31,81,172.81,81.3,177.2,82ZM101,191c1,1.45,1.64,3.44,3,4.26,10.59,6.37,21.32,12.52,32,18.74,10.37.6,20.79,2,31.1,1.43,5-.3,10.28-3.74,14.48-7,7.54-5.84,14.45-12.53,21.43-19.07a22.76,22.76,0,0,0,4.45-6.39c2-3.91,2.77-8.71,5.54-11.83s3.11-6.36,2.95-10c-.27-6.12-.57-12.23-1-18.34-.15-2.28-.64-4.54-1-6.81-1.21-2.13-2.5-4.21-3.62-6.39-2.86-5.57-5.47-11.28-8.57-16.71-.95-1.67-3.17-2.62-4.81-3.9h0c-2.42-3.19-4.29-7.14-7.38-9.44-10.55-7.84-22-14.06-35.61-14.48-6.89-.21-13.8,0-20.7,0a4.17,4.17,0,0,0-.95.25c-8.52,2.17-16.08,7-22.9,11.74C104,101,97.11,105.41,95.18,113.35c-.39,1.6-2.2,2.83-3.29,4.28-1,1.29-2.52,2.55-2.74,4-1,6.49-5.49,12.43-3.17,19.45a3,3,0,0,1,0,1.49c-2.27,10.2-1.45,20.22,3.32,29.45,3.27,6.32,7.76,12,11.71,18Z"/><path class="cls-12" d="M52,172c-.33-4.28-1-8.56-.94-12.84.15-11.44,0-22.94,1.2-34.28.62-5.89,3.43-11.72,6.06-17.18A179.87,179.87,0,0,1,69.38,88.4,40.17,40.17,0,0,1,85.29,73.87c6.42-3.25,12.08-8,18.2-11.85a97.39,97.39,0,0,1,23.82-10.53c13.1-4.06,26-2,39-2.18,5.38-.1,10.83,3.18,16.25,4.93q-2.64,4-5.29,7.95a87.67,87.67,0,0,0-39.77-3.26C113,62.47,92.63,73.71,77.72,93.2,57,120.34,52.4,150.55,64.1,182.94,69,196.35,77,207.67,87.21,217.38A91.64,91.64,0,0,0,117,236c-.33,2.33-.67,4.65-1,7-2.58-.45-5.64-.16-7.65-1.48-10.08-6.58-20.22-13.16-29.63-20.63-4.53-3.6-7.71-9-11.14-13.87-6.16-8.72-12-17.68-14.21-28.38C52.91,176.43,52.46,174.21,52,172Z"/><path class="cls-13" d="M206,89.08l3.83-3.24a27.36,27.36,0,0,1,2.68,2.21c20.43,21.7,29,47.29,24.24,76.8-3.41,21.13-13.55,39-30.07,52.54-19.74,16.14-42.46,23.4-68.24,19.68C109.13,232.84,87.34,217.88,73,192c1.59.53,4.12.61,4.61,1.66,1.8,3.82,4.68,4.68,8.4,4.34,5.06,4.89,9.66,10.39,15.29,14.51,6.3,4.6,13.17,8.91,20.44,11.58,7.47,2.74,15.71,3.46,23.65,4.84,5.17.9,10.41,2,15.62,1.95,13.67-.07,25.6-5.82,35.63-14.36,9.55-8.14,19.1-16.34,25.24-28.17,4.13-8,7.16-15.79,8-24.47.3-3.21-1.18-6.58-1.84-9.88l-1-13v-5c-1.18-9.18-4.91-17.43-9.67-25.2C213,103.81,207.91,97.3,206,89.08Z"/><path class="cls-14" d="M73,192c14.35,25.88,36.14,40.84,65.46,45.07,25.78,3.72,48.5-3.54,68.24-19.68,16.52-13.51,26.66-31.41,30.07-52.54,4.77-29.51-3.81-55.1-24.24-76.8a27.36,27.36,0,0,0-2.68-2.21l2.89-4.08c2.45,2.93,4.88,5.86,7.34,8.78,18.65,22.23,25.26,47.76,20.45,76.22-2.83,16.77-10.5,31.35-21.47,44.26L203,225.94c-1.91,1-3.9,1.87-5.74,3-12.95,8-27.15,11.93-42.22,13.08l-7,0-31-6a91.84,91.84,0,0,1-29.79-18.65C77,207.67,69,196.35,64.1,182.94,52.4,150.55,57,120.34,77.72,93.2,92.63,73.71,113,62.47,137.48,58.93a87.67,87.67,0,0,1,39.77,3.26l-1.41,2.87a22.52,22.52,0,0,1-4-.29,89.41,89.41,0,0,0-33.45-1.92,85.29,85.29,0,0,0-48.55,23C69.71,104.72,61,128.51,62.08,156q1.44,7,2.87,14Z"/><path class="cls-15" d="M62.08,156c-1.08-27.49,7.63-51.28,27.8-70.19a85.29,85.29,0,0,1,48.55-23,89.41,89.41,0,0,1,33.45,1.92,22.52,22.52,0,0,0,4,.29q-.65,4-1.31,8c-9.53-.71-19.43-.06-28.47-2.54-7.71-2.12-13.32,2.51-20.1,2.82-4.93.24-10.13,3-14.44,5.81C105.31,83.23,99.81,88.34,94,93l-3,3-4,7-1,1c-.47.15-1.12.14-1.38.46-6.6,7.84-12.32,16.05-11.7,27.05.06,1-.83,2.09-1.11,3.17-.64,2.47-1.62,4.95-1.66,7.44a75.1,75.1,0,0,0,.91,12.35c1,6.3,1.57,12.82,3.72,18.74C77.86,181.71,82.2,189.76,86,198c-3.72.34-6.6-.52-8.4-4.34-.49-1-3-1.13-4.61-1.66l-8-22c5.27-2.41,2.77-7.09,2.64-10.73C67.54,158.12,64,157.09,62.08,156Z"/><path class="cls-16" d="M219.05,211c11-12.91,18.64-27.49,21.47-44.26,4.81-28.46-1.8-54-20.45-76.22-2.46-2.92-4.89-5.85-7.34-8.78l2-4.88a4.83,4.83,0,0,0,1.36.61c10.09.94,14.5,8.44,18.76,16.15,3.18,5.73,6.81,11.26,9.46,17.23,2.18,4.93,2.48,10.74,4.92,15.49,4.76,9.25,3.15,19,2.48,28.33-1.1,15.54-3.86,30.78-11.47,45.09-4.47,8.4-11.66,12.69-18.24,18.22l2.41-6.16Z"/><path class="cls-17" d="M172,269c-.26-3.12.63-4.68,4.27-5.18a38.87,38.87,0,0,0,12.13-3.89c10.54-5.35,21.07-10.8,31.14-17,3.56-2.18,5.79-6.55,8.58-10,1-1.25,1.61-3.33,2.88-3.83,8.87-3.51,13.14-11.1,17.32-18.83,3.92-7.26,7.87-14.5,11.61-21.86,1.18-2.31,1.47-5.05,2.56-7.41,7.41-16.11,7.7-33.1,5.16-50.06-.8-5.41-.7-11.77-5.84-16.43-2.11-1.91-2.67-6.48-2.49-9.77.27-4.84-2.77-7.59-5-10.9-5.7-8.3-11.25-16.7-17.36-24.69-2-2.55-5.34-4.14-8.28-5.78-3.39-1.88-7.13-3.14-10.52-5-3.71-2.07-7.2-4.54-10.79-6.85.49-.63,1-1.25,1.5-1.88,4.05,1.11,8.11,2.19,12.15,3.34,2.65.75,6,.82,7.78,2.52a273.29,273.29,0,0,1,21.11,22.09c3.25,3.89,4.21,9.63,7.24,13.77,6.84,9.31,8.84,20.21,12.22,30.85,4.54,14.3,1.82,28.65,2.51,42.94.16,3.24-2,6.54-2.77,9.88C267.9,180,267,185,266,190c-4.36,8.25-8.47,16.65-13.16,24.7a106.38,106.38,0,0,1-10.08,13.87c-1.34,1.63-3.8,2.32-5.64,3.6-1.47,1-3.39,2-4.07,3.49-5.15,11.07-15.79,15.39-25.37,21-3.83,2.24-7.66,4.5-11.54,6.66-2.33,1.31-4.76,2.45-7.14,3.66Z"/><path class="cls-10" d="M91,96l3-3a52.49,52.49,0,0,0,5.89-2.58c4.66-2.72,8.94-6.3,13.88-8.32,6.81-2.78,14-5.4,21.17-6.35,9.22-1.21,18.66-.81,28-.84,3.87,0,7.74.65,11.61,1,.88,2,1.76,4.07,2.65,6.1-4.39-.72-8.89-1-13.15-2.22a59.85,59.85,0,0,0-30-.58C126.1,81.12,118.66,85,111,88c-5.29,1.79-10.19,4-12,10l-3,3-4,4-1,2-3,4c-5,9.53-9.78,19.1-9,30.34q1,14.82,2,29.66c1,3.67,1.65,7.49,3.09,11,1.68,4.07,3.53,8.29,6.27,11.65a109.32,109.32,0,0,0,13.42,13.54c11.35,9.75,24.42,15.55,39.63,15.83,3.32.07,6.93-.63,9.89.46a25.66,25.66,0,0,0,18.47-.36c6.9-2.6,13.5-6,20.23-9.1-.29.76-.35,1.87-.89,2.23-9.35,6.11-19.3,11.17-30.61,11.58-7.52.27-15.17-.74-22.64-1.94-6.3-1-13.2-1.88-18.48-5.05-10-6-20.26-11.75-28-21.47a83.21,83.21,0,0,1-16.84-38.14,77.7,77.7,0,0,1,4.65-42.45c2-5,4.54-9.84,6.84-14.76l1-1Z"/><path class="cls-17" d="M192,214c-6.73,3.07-13.33,6.5-20.23,9.1a25.66,25.66,0,0,1-18.47.36c-3-1.09-6.57-.39-9.89-.46-15.21-.28-28.28-6.08-39.63-15.83a109.32,109.32,0,0,1-13.42-13.54c-2.74-3.36-4.59-7.58-6.27-11.65-1.44-3.49-2.09-7.31-3.09-11,.8.91,2,1.69,2.34,2.75,3.69,10,10.37,18.16,17.22,25.88,4.24,4.78,10.39,8.05,16.08,11.28s11.85,5.63,17.86,8.25a13.92,13.92,0,0,0,4.34.82c7.24.62,14.55,2,21.72,1.48,5.76-.4,11.34-3.17,17.05-4.74,14.84-4.07,23.5-16.11,33.17-26.49,3.72-4,4.78-10.42,7.23-15.66,3.39-7.26,4.72-14.61,2.11-22.46-.54-1.65-.21-3.64-.1-5.46.77-13.08-5.3-23.71-12-34.2-4.21-6.62-8-13.48-12-20.23l3.89-.45c3,4.52,6.09,9,8.86,13.58,3.56,5.94,7.3,11.82,10.12,18.11,5.9,13.13,4.81,27.46,6,41.36.3,3.65-1.18,7.45-1.85,11.18v1l-8,14-1,2-21,21Z"/><path class="cls-10" d="M223,176c.67-3.73,2.15-7.53,1.85-11.18-1.16-13.9-.07-28.23-6-41.36-2.82-6.29-6.56-12.17-10.12-18.11-2.77-4.63-5.89-9.06-8.86-13.58L206,89.08c1.9,8.22,7,14.73,11.32,21.72,4.76,7.77,8.49,16,9.67,25.2v5l1,13a15.39,15.39,0,0,0-.27,3.55C228.83,164.41,226.71,170.4,223,176Z"/><path class="cls-11" d="M174.55,75.92c-3.87-.36-7.74-1-11.61-1-9.34,0-18.78-.37-28,.84-7.22,1-14.36,3.57-21.17,6.35-4.94,2-9.22,5.6-13.88,8.32A52.49,52.49,0,0,1,94,93c5.81-4.66,11.31-9.77,17.52-13.82,4.31-2.81,9.51-5.57,14.44-5.81,6.78-.31,12.39-4.94,20.1-2.82,9,2.48,18.94,1.83,28.47,2.54C174.54,74,174.54,75,174.55,75.92Z"/><path class="cls-13" d="M52,172c.46,2.21.91,4.43,1.37,6.64,2.25,10.7,8.05,19.66,14.21,28.38,3.43,4.85,6.61,10.27,11.14,13.87,9.41,7.47,19.55,14.05,29.63,20.63,2,1.32,5.07,1,7.65,1.48,1.17,1,2.18,2.39,3.53,2.87A70.85,70.85,0,0,0,148,250h13l15-2c-.31.55-.53,1.5-.95,1.6-5,1.21-9.88,2.83-14.9,3.27-8.75.77-17.65,1.65-26.33.82-5.7-.55-10.9-4.13-17.33-2.76-1.87.4-4.51-3.3-6.94-4.88-5.52-3.59-10.86-7.59-16.76-10.4-7.53-3.6-12.93-9.69-19.45-14.41-4.73-3.42-9.89-6-12.28-11.68-.69-1.68-1.9-3.39-1.87-5.07.08-4.56-1.18-8.15-5.37-10.42a2.33,2.33,0,0,1-1-1.65C52.47,185.61,52.25,178.81,52,172Z"/><path class="cls-16" d="M176,248l-15,2c-.77-1-1.48-2.79-2.31-2.84-3.56-.25-3.82-2.45-3.69-5.12,15.07-1.16,29.27-5.1,42.22-13.09,1.84-1.14,3.83-2,5.74-3,3.2,3.85,6,3.32,9.11-.35,1.11-1.31,3.26-1.75,4.93-2.59C207.47,238.12,192.83,244.86,176,248Z"/><path class="cls-12" d="M217,223c-1.67.84-3.82,1.28-4.93,2.59-3.09,3.67-5.91,4.2-9.11.35L219.05,211l5.36.82L222,218Z"/><path class="cls-18" d="M101,190c-4-6-8.44-11.67-11.71-18-4.77-9.23-5.59-19.25-3.32-29.45a3,3,0,0,0,0-1.49c-2.32-7,2.2-13,3.17-19.45.22-1.44,1.75-2.7,2.74-4,1.09-1.45,2.9-2.68,3.29-4.28,1.93-7.94,8.79-12.39,14.28-16.23,6.82-4.77,14.38-9.57,22.9-11.74a4.17,4.17,0,0,1,.95-.25c6.9,0,13.81-.26,20.7,0,13.62.42,25.06,6.64,35.61,14.48,3.09,2.3,5,6.25,7.38,9.44-2.12-1.66-4.13-3.49-6.39-4.93-2.42-1.55-5.06-2.73-7.61-4.07-7.9-3.13-15.85-6.12-23.67-9.43-5.65-2.4-10.81-3.62-16.92-.49-4.54,2.31-10.07,2.69-15.17,3.89C108.87,98.3,99.36,111.68,93.13,128c-1.84,4.83-.88,11-3.35,15.26-3.38,5.9-1.18,10.43.62,15.54,2.26,6.37,4.41,12.79,6.6,19.18l3,4v2C100.33,186,100.67,188,101,190Z"/><path class="cls-19" d="M183,100c2.55,1.34,5.19,2.52,7.61,4.07,2.26,1.44,4.27,3.27,6.39,4.93h0a8.9,8.9,0,0,0,.56,1.86c3.39,6.25,6.64,12.6,10.34,18.66,1.51,2.48,4,4.34,6.1,6.48.33,2.27.82,4.53,1,6.81.41,6.11.71,12.22,1,18.34.16,3.64-.07,6.76-2.95,10s-3.57,7.92-5.54,11.83a22.76,22.76,0,0,1-4.45,6.39c-7,6.54-13.89,13.23-21.43,19.07-4.2,3.25-9.5,6.69-14.48,7-10.31.61-20.73-.83-31.1-1.43l-5-7c10.84,1,21.67,2.15,32.52,2.94,5.7.41,10.56-1.9,14.86-5.71,1.94-1.71,4.46-2.76,6.73-4.1,2.64-1.57,6.08-2.54,7.81-4.81,5.06-6.68,10-13.58,13.87-21,2.23-4.31,3.08-9.79,3-14.73-.11-8.71.25-18-2.58-26-4.29-12.1-11.14-23.29-22.19-31A11.45,11.45,0,0,1,183,100Z"/><path class="cls-19" d="M101,190c-.33-2-.67-4-1-6,.32.08.81.05.93.25,4.47,7.39,11.94,11.29,18.66,16,3.36,2.39,6.93,4.48,10.41,6.71-2.76-.86-5.82-1.24-8.24-2.68-7.05-4.21-13.86-8.85-20.76-13.32Z"/><path class="cls-18" d="M101,191c6.9,4.47,13.71,9.11,20.76,13.32,2.42,1.44,5.48,1.82,8.24,2.68h1l5,7c-10.68-6.22-21.41-12.37-32-18.74C102.64,194.44,102,192.45,101,191Z"/><path class="cls-18" d="M214,136c-2.06-2.14-4.59-4-6.1-6.48-3.7-6.06-7-12.41-10.34-18.66A8.9,8.9,0,0,1,197,109c1.64,1.28,3.86,2.23,4.81,3.9,3.1,5.43,5.71,11.14,8.57,16.71C211.5,131.79,212.79,133.87,214,136Z"/><path class="cls-17" d="M99,98c1.81-6,6.71-8.21,12-10Z"/><path class="cls-17" d="M92,105l4-4Z"/><path class="cls-17" d="M88,111l3-4Z"/><path class="cls-16" d="M148,250a70.85,70.85,0,0,1-28.47-4.13c-1.35-.48-2.36-1.89-3.53-2.87.33-2.33.67-4.65,1-7l31,6Z"/><path class="cls-11" d="M223,176c3.71-5.6,5.83-11.59,4.73-18.45A15.39,15.39,0,0,1,228,154c.66,3.3,2.14,6.67,1.84,9.88-.81,8.68-3.84,16.51-8,24.47-6.14,11.83-15.69,20-25.24,28.17-10,8.54-22,14.29-35.63,14.36-5.21,0-10.45-1-15.62-1.95-7.94-1.38-16.18-2.1-23.65-4.84-7.27-2.67-14.14-7-20.44-11.58C95.66,208.39,91.06,202.89,86,198c-3.8-8.24-8.14-16.29-11.22-24.79-2.15-5.92-2.75-12.44-3.72-18.74a75.1,75.1,0,0,1-.91-12.35c0-2.49,1-5,1.66-7.44.28-1.08,1.17-2.14,1.11-3.17-.62-11,5.1-19.21,11.7-27,.26-.32.91-.31,1.38-.46-2.3,4.92-4.83,9.74-6.84,14.76a77.7,77.7,0,0,0-4.65,42.45,83.21,83.21,0,0,0,16.84,38.14c7.77,9.72,18,15.43,28,21.47,5.28,3.17,12.18,4,18.48,5.05,7.47,1.2,15.12,2.21,22.64,1.94,11.31-.41,21.26-5.47,30.61-11.58.54-.36.6-1.47.89-2.23h1c9.46-4.54,16.94-11.06,21-21l1-2c5.32-3.15,6.22-8.83,8-14Z"/><path class="cls-11" d="M227,141v0Z"/><path class="cls-12" d="M148,250v-7.95l7,0c-.13,2.68.13,4.88,3.69,5.13.83.05,1.54,1.85,2.31,2.84Z"/><path class="cls-12" d="M62.08,156c1.93,1.09,5.46,2.12,5.51,3.28.13,3.64,2.63,8.32-2.64,10.73Q63.51,163,62.08,156Z"/><path class="cls-11" d="M91,96l-4,7Z"/><path class="cls-10" d="M214,193c-4.06,9.94-11.54,16.46-21,21Z"/><path class="cls-10" d="M223,177c-1.78,5.17-2.68,10.85-8,14Z"/><path class="cls-20" d="M131,207h-1c-3.48-2.23-7-4.32-10.41-6.71-6.72-4.75-14.19-8.65-18.66-16-.12-.2-.61-.17-.93-.25v-2l-3-4c-2.19-6.39-4.34-12.81-6.6-19.18-1.8-5.11-4-9.64-.62-15.54,2.47-4.3,1.51-10.43,3.35-15.26C99.36,111.68,108.87,98.3,127.24,94c5.1-1.2,10.63-1.58,15.17-3.89,6.11-3.13,11.27-1.91,16.92.49,7.82,3.31,15.77,6.3,23.67,9.43a11.45,11.45,0,0,0,2,2.58c11.05,7.73,17.9,18.92,22.19,31,2.83,8,2.47,17.28,2.58,26,.06,4.94-.79,10.42-3,14.73-3.84,7.42-8.81,14.32-13.87,21-1.73,2.27-5.17,3.24-7.81,4.81-2.27,1.34-4.79,2.39-6.73,4.1-4.3,3.81-9.16,6.12-14.86,5.71C152.67,209.15,141.84,208,131,207Zm-29-33c-.27,5.28,1.87,9.24,6.26,12.21a17.69,17.69,0,0,1,4.55,4.54c3.69,5.36,9.12,8,14.92,10.25,1.82.69,3.49,1.79,5.31,2.5,2.39.93,4.82,2.21,7.31,2.4,7.93.59,15.89.79,23.84,1a7.94,7.94,0,0,0,4.31-.79c7.91-5.11,16.17-9.85,23.33-15.87,4.1-3.45,6.52-9,9.38-13.77,2.18-3.65,5.53-7.61,5.47-11.38a184,184,0,0,0-3.11-30.43C201.22,122,192.18,113.3,183.16,105c-2.16-2-6.06-2.06-9.16-3-4.07-1.88-8-4.18-12.25-5.55-8-2.6-16.22-6.18-24.4-.18a5.45,5.45,0,0,1-1.4.43c-6.11,2.07-12.86,3.13-18.2,6.47a45.61,45.61,0,0,0-19.1,24.68c-1.77,5.26-4.37,10.66-4.38,16C94.25,154.37,95.76,164.9,102,174Z"/><path class="cls-19" d="M97,178l3,4Z"/><path class="cls-21" d="M174,102c3.1,1,7,1,9.16,3,9,8.28,18.06,17,20.41,29.67a184,184,0,0,1,3.11,30.43c.06,3.77-3.29,7.73-5.47,11.38-2.86,4.78-5.28,10.32-9.38,13.77-7.16,6-15.42,10.76-23.33,15.87a7.94,7.94,0,0,1-4.31.79c-7.95-.24-15.91-.44-23.84-1-2.49-.19-4.92-1.47-7.31-2.4-1.82-.71-3.49-1.81-5.31-2.5-5.8-2.23-11.23-4.89-14.92-10.25a17.69,17.69,0,0,0-4.55-4.54c-4.39-3-6.53-6.93-6.26-12.21l2,1c10.93,16.88,24.92,28.67,46.44,28a37.42,37.42,0,0,1,6,0c14.13,1.86,23.64-7,33.49-14.7,2.69-2.1,4.39-5.72,6-8.91,2.9-5.71,7.27-11.52,7.63-17.49a83.58,83.58,0,0,0-3.18-27.44C196.52,121,187.51,110.8,175,104Z"/><path class="cls-22" d="M174,102l1,2h-3a5.72,5.72,0,0,1-2-.19c-12.55-6.12-25.17-7.61-38.46-1.94-9,3.84-18,7.52-23.1,16.36-4,7-7,14.65-10.3,22.06-.43,1-.11,2.3,0,3.46.26,3.29.17,6.68,1,9.85,1.35,5.54,3.24,10.94,4.91,16.4v5l-2-1c-6.24-9.1-7.75-19.63-7.73-30.16,0-5.33,2.61-10.73,4.38-16a45.61,45.61,0,0,1,19.1-24.68c5.34-3.34,12.09-4.4,18.2-6.47a5.45,5.45,0,0,0,1.4-.43c8.18-6,16.37-2.42,24.4.18C166,97.82,169.93,100.12,174,102Z"/><path class="cls-23" d="M172,104h3c12.51,6.8,21.52,17,25.38,30.5a83.58,83.58,0,0,1,3.18,27.44c-.36,6-4.73,11.78-7.63,17.49-1.62,3.19-3.32,6.81-6,8.91-9.85,7.68-19.36,16.56-33.49,14.7a37.42,37.42,0,0,0-6,0c-21.52.66-35.51-11.13-46.44-28v-5l2,1c2,5.86,6.83,9.38,10.8,13.74,8.6,9.43,18.65,14.41,31.52,13.29,1.81-.16,4-.55,5.44.21,5.45,2.83,10.13.79,15.15-1.27,12.83-5.26,22.45-13.57,27.09-27,1.64-3.51,4.5-7,4.65-10.54.29-6.64-1-13.34-1.66-20a11.46,11.46,0,0,0-.55-3.39,68.22,68.22,0,0,0-19.05-25.44C176.84,108.51,174.46,106.21,172,104Z"/><path class="cls-24" d="M172,104c2.46,2.21,4.84,4.51,7.39,6.62a68.22,68.22,0,0,1,19.05,25.44,11.46,11.46,0,0,1,.55,3.39c.66,6.67,1.95,13.37,1.66,20-.15,3.57-3,7-4.65,10.54.56-2.37,1.17-4.72,1.67-7.1a12,12,0,0,0,.42-3.59c-.22-2.27-.87-4.5-1.06-6.78-.78-9-.73-18.37-6.38-26-5.47-7.41-11.34-14.41-20.07-18.67-6.72-3.27-13.49-4.06-20.69-3.89-4.26.1-8.81-1.31-12.71-.22-5.73,1.6-11.15,4.56-16.42,7.44-12.13,6.62-16,18.36-17.63,30.88-1.25,9.73.06,19.48,2.87,28.95l-2-1c-1.67-5.46-3.56-10.86-4.91-16.4-.78-3.17-.69-6.56-1-9.85-.08-1.16-.4-2.49,0-3.46,3.3-7.41,6.28-15,10.3-22.06,5-8.84,14.12-12.52,23.1-16.36,13.29-5.67,25.91-4.18,38.46,1.94A5.72,5.72,0,0,0,172,104Z"/><path class="cls-25" d="M106,171c-2.81-9.47-4.12-19.22-2.87-28.95,1.61-12.52,5.5-24.26,17.63-30.88,5.27-2.88,10.69-5.84,16.42-7.44,3.9-1.09,8.45.32,12.71.22,7.2-.17,14,.62,20.69,3.89,8.73,4.26,14.6,11.26,20.07,18.67,5.65,7.65,5.6,17,6.38,26,.19,2.28.84,4.51,1.06,6.78a12,12,0,0,1-.42,3.59c-.5,2.38-1.11,4.73-1.67,7.1-4.64,13.4-14.26,21.71-27.09,27-5,2.06-9.7,4.1-15.15,1.27-1.46-.76-3.63-.37-5.44-.21-12.87,1.12-22.92-3.86-31.52-13.29C112.83,180.38,108,176.86,106,171Zm41.26-65c-5.28,1.1-11.23,1-15.69,3.56-7.57,4.3-15.76,8.56-19.18,17.69-1.64,4.36-4.43,8.5-5.09,13-.73,5,.13,10.23.79,15.3.47,3.68,1,7.74,2.79,10.81,8,13.25,17.89,24.73,34.58,26,6.88.53,13.67,3.37,20.95.77s11.64-8.1,16.53-13c3.95-4,8.08-9.08,9.22-14.31,2.39-10.89,1.2-22.09-2.64-32.73-3.07-8.52-10.43-13.56-16.84-19.1C165.61,107.91,156.77,106.12,147.26,106Z"/><path class="cls-26" d="M147.26,106c9.51.08,18.35,1.87,25.42,8,6.41,5.54,13.77,10.58,16.84,19.1,3.84,10.64,5,21.84,2.64,32.73-1.14,5.23-5.27,10.33-9.22,14.31-4.89,4.92-9.39,10.47-16.53,13s-14.07-.24-20.95-.77c-16.69-1.31-26.6-12.79-34.58-26-1.84-3.07-2.32-7.13-2.79-10.81-.66-5.07-1.52-10.34-.79-15.3.66-4.48,3.45-8.62,5.09-13,3.42-9.13,11.61-13.39,19.18-17.69C136,107.06,142,107.14,147.26,106Zm42.06,49.14c-.45-3.44-1.07-6.86-1.33-10.31C186.8,129,170.72,111.48,153.89,112c-3.41.09-6.83,0-10.24,0-13.5.18-25.35,8.36-29.69,21.1-1.41,4.12-1.5,8.69-2.17,13.06-1.11,7.21-.37,14.23,3.18,20.63,6.36,11.48,15.58,19.39,29,21,7.84.91,15.88,4.2,23.58-.54a56,56,0,0,0,6.54-5C182.51,175.15,189.64,167.32,189.32,155.18Z"/><path class="cls-27" d="M189.32,155.18c.32,12.14-6.81,20-15.2,27.08a56,56,0,0,1-6.54,5c-7.7,4.74-15.74,1.45-23.58.54-13.45-1.58-22.67-9.49-29-21-3.55-6.4-4.29-13.42-3.18-20.63.67-4.37.76-8.94,2.17-13.06,4.34-12.74,16.19-20.92,29.69-21.1,3.41,0,6.83,0,10.24,0,16.83-.47,32.91,17.06,34.1,32.92C188.25,148.32,188.87,151.74,189.32,155.18Zm-34.72,28c7.5.91,12.89-3.3,18-7.45a27.78,27.78,0,0,0,10.27-18.82c.91-8.21-2.87-15.64-5.13-23.28a6.09,6.09,0,0,0-1.9-2.28c-2.93-2.66-5.88-5.3-8.88-7.89-11.28-9.76-20.31-11-33.09-4-13.06,7.22-21.55,23.14-17.65,35.54,1.46,4.67,5.6,8.45,8.06,12.9C131,180.1,143.27,180.64,154.6,183.19Z"/><path class="cls-28" d="M154.6,183.19C143.27,180.64,131,180.1,124.28,168c-2.46-4.45-6.6-8.23-8.06-12.9-3.9-12.4,4.59-28.32,17.65-35.54,12.78-7.06,21.81-5.81,33.09,4,3,2.59,5.95,5.23,8.88,7.89a6.09,6.09,0,0,1,1.9,2.28c2.26,7.64,6,15.07,5.13,23.28a27.78,27.78,0,0,1-10.27,18.82C167.49,179.89,162.1,184.1,154.6,183.19ZM150.15,125A25,25,0,1,0,175,150.15,24.84,24.84,0,0,0,150.15,125Z"/><path class="cls-29" d="M150.15,125A25,25,0,1,1,125,149.85,24.85,24.85,0,0,1,150.15,125Z"/></g></g></svg>