<svg xmlns="http://www.w3.org/2000/svg" viewBox="0 0 40.36 45.38"><defs><style>.cls-1{fill:#6599d1;}.cls-2{fill:#00599c;}.cls-3{fill:#fefefe;}.cls-4{fill:#004482;}.cls-5{fill:#659ad1;}.cls-6{fill:#fdfdfd;}.cls-7{fill:#fdfdfe;}</style></defs><title>cpp</title><g id="Layer_2" data-name="Layer 2"><g id="Layer_1-2" data-name="Layer 1"><path class="cls-1" d="M19.71,0h.91a.32.32,0,0,0,.09,0,3.55,3.55,0,0,1,1.4.49L37.26,9.26c.54.32,1.08.62,1.6,1a2.84,2.84,0,0,1,1,1.14,1.88,1.88,0,0,1-.18.12l-6.84,3.95-1,.55A11.6,11.6,0,0,0,30,13.47a13.25,13.25,0,0,0-12-4,12.86,12.86,0,0,0-7.14,3.62,13.43,13.43,0,0,0-3.65,13,13.88,13.88,0,0,0,1.38,3.39l-.18.08L.71,34A1.42,1.42,0,0,1,.53,34S.48,34,.47,34A3.4,3.4,0,0,1,0,32.28C0,25.9,0,19.52,0,13.13A3.48,3.48,0,0,1,1.82,10Q10.06,5.22,18.33.48a5.7,5.7,0,0,1,.92-.37A3.43,3.43,0,0,1,19.71,0Z"/><path class="cls-2" d="M40.36,32.62c-.12.39-.24.78-.37,1.16a1.4,1.4,0,0,1-.16.29l-1.57-.91-2.49-1.43L32.85,30l-1-.58-.13-.1-5.55-3.21L26,26.09l-2.32-1.35-2.52-1.45-.95-.56.15-.11,4.4-2.54c.42-.24.83-.49,1.24-.74l.14-.06,3.26-1.89L31.83,16l1-.55,6.84-3.95a1.88,1.88,0,0,0,.18-.12,3.29,3.29,0,0,1,.26.49c.11.29.18.6.27.9ZM33.63,22h-1.5V20.48H30.64V22H29.17v1.49h1.48V25h1.49v-1.5h1.49Zm5.61,1.5V22h-1.5V20.48H36.25V22H34.76v1.5h1.5v1.48h1.49V23.45Z"/><path class="cls-3" d="M31.83,16,29.4,17.39l-3.26,1.89-.14.06a.08.08,0,0,0,0,0A6.64,6.64,0,0,0,20.81,16a6.28,6.28,0,0,0-4,.87,6.63,6.63,0,0,0-3.35,5.34,5.67,5.67,0,0,0,.23,2.27,5.85,5.85,0,0,0,.67,1.57c0,.05.05.11.08.16a6.67,6.67,0,0,0,6.89,3.09A6.58,6.58,0,0,0,26,26.09l.15.06,5.55,3.21.13.1-.12.19A13.47,13.47,0,0,1,18.07,36a13.29,13.29,0,0,1-7.72-4.11,13.11,13.11,0,0,1-3.19-5.81,13.43,13.43,0,0,1,3.65-13A12.86,12.86,0,0,1,18,9.45a13.25,13.25,0,0,1,12,4A11.6,11.6,0,0,1,31.83,16Z"/><path class="cls-4" d="M8.54,29.46a13.75,13.75,0,0,0,1.81,2.42A13.29,13.29,0,0,0,18.07,36a13.47,13.47,0,0,0,13.64-6.34l.12-.19,1,.58,2.92,1.69,2.49,1.43,1.57.91a3.43,3.43,0,0,1-1.31,1.36q-3,1.7-5.92,3.41L22.06,44.93a3,3,0,0,1-1.66.44,3.8,3.8,0,0,1-1.5-.17,5.22,5.22,0,0,1-.54-.24L1.81,35.4A3.46,3.46,0,0,1,.57,34.15a.49.49,0,0,1,0-.11A1.42,1.42,0,0,0,.71,34l7.65-4.42Z"/><path class="cls-5" d="M14.37,26.07a5.85,5.85,0,0,1-.67-1.57,5.67,5.67,0,0,1-.23-2.27,6.63,6.63,0,0,1,3.35-5.34,6.28,6.28,0,0,1,4-.87A6.64,6.64,0,0,1,26,19.3a.08.08,0,0,1,0,0c-.41.25-.82.5-1.24.74l-4.4,2.54-.15.11-.16.07L16,25.15Z"/><path class="cls-4" d="M14.37,26.07l1.6-.92,4.08-2.35.16-.07.95.56,2.52,1.45L26,26.09a6.58,6.58,0,0,1-4.66,3.23,6.67,6.67,0,0,1-6.89-3.09C14.42,26.18,14.4,26.12,14.37,26.07Z"/><path class="cls-6" d="M33.63,22v1.5H32.14V25H30.65V23.46H29.17V22h1.47V20.48h1.49V22Z"/><path class="cls-7" d="M39.24,23.45H37.75v1.49H36.26V23.46h-1.5V22h1.49V20.48h1.49V22h1.5Z"/></g></g></svg>