<svg xmlns="http://www.w3.org/2000/svg" viewBox="0 0 36.93 43.29"><defs><style>.cls-1{fill:#006bbf;}.cls-2{fill:#fbfcfc;}.cls-3{fill:#c2cedc;}.cls-4{fill:#070707;}.cls-5{fill:#080808;}.cls-6{fill:#3f437e;}.cls-7{fill:#40437e;}.cls-8{fill:#be70e4;}</style></defs><title>css-flat</title><g id="Layer_2" data-name="Layer 2"><g id="Layer_1-2" data-name="Layer 1"><path class="cls-1" d="M0,43.29V0H36.93V43.29ZM2.72,1.9,2.49,2c-.29.56-.82,1.12-.82,1.67q-.07,18.21,0,36.42c0,1.38.45,1.84,1.85,1.84H32.6c1.37,0,1.81-.47,1.81-1.87q0-15.13,0-30.26a4.45,4.45,0,0,0-.26-1c-.8-.81-1.56-1.66-2.39-2.44-1.6-1.49-3.23-2.95-4.85-4.43-.38,0-.76-.06-1.14-.06q-11,0-21.91,0C3.47,1.83,3.09,1.88,2.72,1.9Z"/><path class="cls-2" d="M34.14,8.76a4.45,4.45,0,0,1,.26,1q0,15.13,0,30.26c0,1.4-.44,1.87-1.81,1.87H3.49c-1.4,0-1.85-.46-1.85-1.84q0-18.21,0-36.42c0-.55.53-1.11.82-1.67l.23-.09c.37,0,.75-.07,1.13-.07q11,0,21.91,0c.38,0,.76,0,1.14.06V8.76ZM19.82,30.48a2.92,2.92,0,0,0-4.4-1A2,2,0,0,0,16,32.85c.56.22,1.18.29,1.73.54.3.13.49.48.73.74-.29.24-.57.65-.89.7a1.56,1.56,0,0,1-1.25-.32c-.63-.85-1.23-.58-1.92-.25.44,2,3.46,2.28,4.82,1.24a2,2,0,0,0-.49-3.56c-.6-.24-1.26-.3-1.85-.55-.25-.11-.38-.49-.57-.74.26-.18.56-.55.78-.51a12.77,12.77,0,0,1,1.87.65Zm6.1,0a2.92,2.92,0,0,0-4.43-1A1.94,1.94,0,0,0,22,32.83c.59.25,1.26.32,1.84.58.28.13.45.5.68.77-.28.22-.54.62-.83.64a1.79,1.79,0,0,1-1.35-.35c-.62-.82-1.19-.51-1.86-.21a3.07,3.07,0,0,0,4.1,1.61,2.12,2.12,0,0,0,1.55-2,1.9,1.9,0,0,0-1.57-2,8.6,8.6,0,0,1-1.52-.45c-.28-.13-.44-.51-.65-.78a3.26,3.26,0,0,1,.91-.5,1,1,0,0,1,.83.22C24.75,31.13,25.32,30.72,25.92,30.45Zm-13.3,3a8.22,8.22,0,0,1-.45.85,1.14,1.14,0,0,1-2-.13,3.9,3.9,0,0,1,.1-3.52,1.06,1.06,0,0,1,1.92.13,5.7,5.7,0,0,1,.26.92L14,31.5c-.31-1.72-1-2.45-2.28-2.59-1.61-.17-2.9.41-3.25,1.86a7.56,7.56,0,0,0,0,3.54,2.77,2.77,0,0,0,3.23,1.74A2.52,2.52,0,0,0,14,33.55ZM22.8,20.93c2.13.1,2.53-.28,2.54-2a4,4,0,0,1,0-1.25,4.23,4.23,0,0,1,.73-1.05c.12-.15.39-.28.38-.4s-.17-.55-.32-.58c-.83-.15-.84-.74-.82-1.38s0-1.06,0-1.59a1.49,1.49,0,0,0-1.87-1.47c-.17,0-.44.23-.44.35s.16.62.26.62c1.1,0,.88.79.92,1.45.06.82.16,1.64.26,2.57-.08.77-.2,1.71-.25,2.65,0,.6,0,1.14-.83,1.21C23.2,20.07,23.06,20.52,22.8,20.93Zm-10.25,0c-.29-.4-.46-.85-.65-.86-.82-.06-.85-.58-.89-1.19,0-.95-.16-1.9-.2-2.4.09-1.31.09-2.23.24-3.12a3,3,0,0,1,.65-1.11,11.53,11.53,0,0,1,.9-.94c-2.21-.19-2.63.19-2.66,1.91,0,.68.15,1.73-.2,2-1.13.76-1.39,1.13,0,1.87.31.16.19,1.21.2,1.84C10,20.75,10.28,21.06,12.55,20.91ZM15,18.7a5.85,5.85,0,0,0-1.23.46.8.8,0,0,0,0,.71,4.69,4.69,0,0,0,1.19.25Zm3.22,0a5.32,5.32,0,0,0-1.26.52c-.1.07,0,.7.17.76a3,3,0,0,0,1.09,0Zm3.17,1.5V18.8a4.57,4.57,0,0,0-1.2.3c-.11,0-.13.64,0,.71A5.48,5.48,0,0,0,21.4,20.2Z"/><path class="cls-3" d="M34.14,8.76H26.9V1.89c1.62,1.48,3.25,2.94,4.85,4.43C32.58,7.1,33.34,8,34.14,8.76Z"/><path class="cls-4" d="M19.82,30.48l-.88.31a12.77,12.77,0,0,0-1.87-.65c-.22,0-.52.33-.78.51.19.25.32.63.57.74.59.25,1.25.31,1.85.55a2,2,0,0,1,.49,3.56c-1.36,1-4.38.74-4.82-1.24.69-.33,1.29-.6,1.92.25a1.56,1.56,0,0,0,1.25.32c.32,0,.6-.46.89-.7-.24-.26-.43-.61-.73-.74-.55-.25-1.17-.32-1.73-.54a2,2,0,0,1-.56-3.39A2.92,2.92,0,0,1,19.82,30.48Z"/><path class="cls-5" d="M25.92,30.45c-.6.27-1.17.68-1.76-.1a1,1,0,0,0-.83-.22,3.26,3.26,0,0,0-.91.5c.21.27.37.65.65.78a8.6,8.6,0,0,0,1.52.45,1.9,1.9,0,0,1,1.57,2,2.12,2.12,0,0,1-1.55,2,3.07,3.07,0,0,1-4.1-1.61c.67-.3,1.24-.61,1.86.21a1.79,1.79,0,0,0,1.35.35c.29,0,.55-.42.83-.64-.23-.27-.4-.64-.68-.77-.58-.26-1.25-.33-1.84-.58a1.94,1.94,0,0,1-.54-3.34A2.92,2.92,0,0,1,25.92,30.45Z"/><path class="cls-5" d="M12.62,33.46l1.34.09a2.52,2.52,0,0,1-2.23,2.5A2.77,2.77,0,0,1,8.5,34.31a7.56,7.56,0,0,1,0-3.54c.35-1.45,1.64-2,3.25-1.86,1.29.14,2,.87,2.28,2.59l-1.54.21a5.7,5.7,0,0,0-.26-.92,1.06,1.06,0,0,0-1.92-.13,3.9,3.9,0,0,0-.1,3.52,1.14,1.14,0,0,0,2,.13A8.22,8.22,0,0,0,12.62,33.46Z"/><path class="cls-6" d="M22.8,20.93c.26-.41.4-.86.58-.88.84-.07.79-.61.83-1.21.05-.94.17-1.88.25-2.65-.1-.93-.2-1.75-.26-2.57,0-.66.18-1.44-.92-1.45-.1,0-.27-.4-.26-.62s.27-.32.44-.35a1.49,1.49,0,0,1,1.87,1.47c0,.53,0,1.06,0,1.59s0,1.23.82,1.38c.15,0,.3.37.32.58s-.26.25-.38.4a4.23,4.23,0,0,0-.73,1.05,4,4,0,0,0,0,1.25C25.33,20.65,24.93,21,22.8,20.93Z"/><path class="cls-7" d="M12.55,20.91c-2.27.15-2.59-.16-2.61-2,0-.63.11-1.68-.2-1.84-1.39-.74-1.13-1.11,0-1.87.35-.23.19-1.28.2-2,0-1.72.45-2.1,2.66-1.91a11.53,11.53,0,0,0-.9.94,3,3,0,0,0-.65,1.11c-.15.89-.15,1.81-.24,3.12,0,.5.15,1.45.2,2.4,0,.61.07,1.13.89,1.19C12.09,20.06,12.26,20.51,12.55,20.91Z"/><path class="cls-8" d="M15,18.7v1.42a4.69,4.69,0,0,1-1.19-.25.8.8,0,0,1,0-.71A5.85,5.85,0,0,1,15,18.7Z"/><path class="cls-8" d="M18.23,18.7V20a3,3,0,0,1-1.09,0c-.15-.06-.27-.69-.17-.76A5.32,5.32,0,0,1,18.23,18.7Z"/><path class="cls-8" d="M21.4,20.2a5.48,5.48,0,0,1-1.22-.39c-.11-.07-.09-.66,0-.71a4.57,4.57,0,0,1,1.2-.3Z"/></g></g></svg>