<svg xmlns="http://www.w3.org/2000/svg" viewBox="0 0 40.45 40.44"><defs><style>.cls-1{fill:#f1f0f1;}.cls-2{fill:#5e4e88;}.cls-3{fill:#453963;}.cls-4{fill:#904d8c;}.cls-5{fill:#904c8c;}</style></defs><title>haskell</title><g id="Layer_2" data-name="Layer 2"><g id="Layer_1-2" data-name="Layer 1"><path class="cls-1" d="M17.92,0h4.62c.07,0,.12.12.19.13a17.7,17.7,0,0,1,3.66.79,19.9,19.9,0,0,1,5.07,2.43,17.69,17.69,0,0,1,3.73,3.23,29.93,29.93,0,0,1,2,2.52,17.35,17.35,0,0,1,2,3.86c.21.55.35,1.13.52,1.7H24.54c0,.05,0,.08,0,.09,1,1.44,1.95,2.87,2.91,4.3a.48.48,0,0,0,.46.23H39.69l.36,0V16.53s.11.08.12.12a19.17,19.17,0,0,1,.26,2.12,24.61,24.61,0,0,1-.24,4.85,20.83,20.83,0,0,1-1.54,5,20.56,20.56,0,0,1-3,4.75,20.91,20.91,0,0,1-3.18,3,19.76,19.76,0,0,1-4.2,2.44,19.19,19.19,0,0,1-6.57,1.6,21.31,21.31,0,0,1-4.85-.23,21.15,21.15,0,0,1-5.27-1.67,20.33,20.33,0,0,1-3.83-2.36,20,20,0,0,1-3.65-3.71,19.76,19.76,0,0,1-2.44-4.2A19.19,19.19,0,0,1,0,21.66a21.31,21.31,0,0,1,.23-4.85,21.51,21.51,0,0,1,2.22-6.38c.08-.14.2-.27.3-.41,0,.07.07.14.11.2l6.77,10a.41.41,0,0,1,0,.56c-2.15,3.15-4.29,6.32-6.44,9.47a.37.37,0,0,0,0,.52,1,1,0,0,1,.14.22A19.35,19.35,0,0,0,6,34.29a.91.91,0,0,0,1.29-.12l4.32-6.39,4.79-7.06a.34.34,0,0,0,0-.45q-1.77-2.58-3.52-5.18L7.26,6.79a.52.52,0,0,0-.5-.28c-.44,0-.89,0-1.33,0a.42.42,0,0,1,.08-.18A14.66,14.66,0,0,1,6.63,5.22,25.86,25.86,0,0,1,9.14,3.28a25.8,25.8,0,0,1,3.11-1.67,17.77,17.77,0,0,1,5-1.42A5.12,5.12,0,0,0,17.92,0ZM9.78,6.52a1.92,1.92,0,0,0,.15.29c1,1.42,1.92,2.85,2.89,4.27L19,20.25a.41.41,0,0,1,0,.52l-3.79,5.58Q12.6,30.25,10,34.16c-.06.09-.11.19-.18.32,2.1,0,4.13,0,6.17,0a.79.79,0,0,0,.74-.4q2.81-4.17,5.62-8.32c.23-.34.25-.34.48,0,1.9,2.81,3.8,5.61,5.69,8.43a.61.61,0,0,0,.56.3c1.52,0,3-.05,4.55,0a1.43,1.43,0,0,0,1.27-.7s0-.06,0-.07l-3.14-4.65Q28.83,24.85,26,20.63t-5.54-8.15L16.68,6.91a.8.8,0,0,0-.76-.4c-1.92,0-3.84,0-5.76,0ZM29.33,21.74a.22.22,0,0,0,0,.09c1,1.46,1.95,2.91,2.94,4.35a.48.48,0,0,0,.36.16h6.18a.33.33,0,0,0,.38-.3c.09-.38.22-.75.28-1.13.19-1.05.36-2.1.54-3.18Z"/><path class="cls-2" d="M9.78,6.52h.38c1.92,0,3.84,0,5.76,0a.8.8,0,0,1,.76.4l3.75,5.57q2.78,4.06,5.54,8.15t5.72,8.45l3.14,4.65s0,0,0,.07a1.43,1.43,0,0,1-1.27.7c-1.51-.06-3,0-4.55,0a.61.61,0,0,1-.56-.3c-1.89-2.82-3.79-5.62-5.69-8.43-.23-.33-.25-.33-.48,0q-2.81,4.15-5.62,8.32a.79.79,0,0,1-.74.4c-2,0-4.07,0-6.17,0,.07-.13.12-.23.18-.32q2.64-3.91,5.29-7.81L19,20.77a.41.41,0,0,0,0-.52l-6.22-9.17c-1-1.42-1.93-2.85-2.89-4.27A1.92,1.92,0,0,1,9.78,6.52Z"/><path class="cls-3" d="M2.79,10A18.89,18.89,0,0,1,5.25,6.65a.79.79,0,0,1,.18-.14c.44,0,.89,0,1.33,0a.52.52,0,0,1,.5.28l5.61,8.3q1.76,2.6,3.52,5.18a.34.34,0,0,1,0,.45L11.6,27.78,7.28,34.17A.91.91,0,0,1,6,34.29,19.35,19.35,0,0,1,3.39,31a1,1,0,0,0-.14-.22.37.37,0,0,1,0-.52c2.15-3.15,4.29-6.32,6.44-9.47a.41.41,0,0,0,0-.56l-6.77-10C2.86,10.16,2.83,10.09,2.79,10Z"/><path class="cls-4" d="M39.65,14.66l.4,1.87v2.72l-.36,0H27.92a.48.48,0,0,1-.46-.23c-1-1.43-1.94-2.86-2.91-4.3,0,0,0,0,0-.09Z"/><path class="cls-5" d="M29.33,21.74H40c-.18,1.08-.35,2.13-.54,3.18-.06.38-.19.75-.28,1.13a.33.33,0,0,1-.38.3H32.66a.48.48,0,0,1-.36-.16c-1-1.44-2-2.89-2.94-4.35A.22.22,0,0,1,29.33,21.74Z"/></g></g></svg>