<svg xmlns="http://www.w3.org/2000/svg" viewBox="0 0 36.54 43.1"><defs><style>.cls-1{fill:#fe694c;}.cls-2{fill:#fdfdfd;}.cls-3{fill:#d2d3da;}.cls-4{fill:#050505;}.cls-5{fill:#bd6de4;}.cls-6{fill:#40447f;}.cls-7{fill:#080808;}</style></defs><title>html-flat</title><g id="Layer_2" data-name="Layer 2"><g id="Layer_1-2" data-name="Layer 1"><path class="cls-1" d="M0,43.1V0H36.54V43.1ZM27.12,1.57c-.34,0-.68-.05-1-.05H4c-1.71,0-2,.34-2,2V39.31c0,1.72.34,2.06,2,2.06H32.53c1.72,0,2.06-.33,2.06-2V9.7a10.25,10.25,0,0,0-.15-1.21Z"/><path class="cls-2" d="M34.44,8.49a10.25,10.25,0,0,1,.15,1.21V39.34c0,1.7-.34,2-2.06,2H4c-1.69,0-2-.34-2-2.06V3.56c0-1.7.34-2,2.05-2H26.1c.34,0,.68,0,1,.05V8.49ZM25.11,35.92V28.75H23l-1.31,4.52-1.31-4.51H18.35v7.12h1.37V31.79l.17,0,1.24,4.15h1.18l1.27-4.18.22,0v4.14ZM16.56,23.25,21.92,9.46,20,8.77,14.66,22.58ZM5.66,28.73v7.16H7.22V33h2.5v2.88h1.52V28.74H9.67v2.65H7.17V28.73ZM9.22,16l4.11,4.5,1.31-1.21-3-3.28,3-3.32-1.29-1.21Zm15.67,0-3,3.32,1.29,1.21L27.36,16l-4.15-4.53-1.3,1.21ZM14.06,30v5.86h1.57v-5.8L17.44,30V28.77H12.21V30ZM30.93,35.9V34.58H27.82V28.75H26.31V35.9Z"/><path class="cls-3" d="M34.44,8.49H27.12V1.57Z"/><path class="cls-4" d="M25.11,35.92H23.8V31.78l-.22,0-1.27,4.18H21.13l-1.24-4.15-.17,0v4.09H18.35V28.76h2.06l1.31,4.51L23,28.75h2.08Z"/><path class="cls-5" d="M16.56,23.25l-1.9-.67L20,8.77l1.9.69Z"/><path class="cls-4" d="M5.66,28.73H7.17v2.66h2.5V28.74h1.57v7.15H9.72V33H7.22v2.88H5.66Z"/><path class="cls-6" d="M9.22,16l4.14-4.52,1.29,1.21-3,3.32,3,3.28-1.31,1.21Z"/><path class="cls-6" d="M24.89,16l-3-3.32,1.3-1.21L27.36,16l-4.14,4.53-1.29-1.21Z"/><path class="cls-4" d="M14.06,30H12.21V28.77h5.23V30l-1.81.09v5.8H14.06Z"/><path class="cls-7" d="M30.93,35.9H26.31V28.75h1.51v5.83h3.11Z"/></g></g></svg>