<svg xmlns="http://www.w3.org/2000/svg" viewBox="0 0 42 42"><defs><style>.cls-1{fill:#efda4e;}.cls-2{fill:#333331;}.cls-3{fill:#31312f;}.cls-4{fill:#bdb47e;}.cls-5{fill:#fdef59;}.cls-6{fill:#fdec68;}.cls-7{fill:#393825;}.cls-8{fill:#372e00;}</style></defs><title>javascript</title><g id="Layer_2" data-name="Layer 2"><g id="Layer_1-2" data-name="Layer 1"><path class="cls-1" d="M0,42V0H42V42ZM20.46,31.6l-.3.33c-.86.8-1.84.47-2.79-1-.63.37-1.28.71-1.88,1.12a.65.65,0,0,0-.05.65,7.8,7.8,0,0,0,1.74,1.66,5.34,5.34,0,0,0,4.06.12,2.45,2.45,0,0,0,1.51-1.18,8.87,8.87,0,0,0,.76-3.16c.11-2.61,0-5.24,0-7.86,0-.33,0-.67-.05-1H21L20.6,21a6.32,6.32,0,0,0-.22,1.2c0,2.55,0,5.09,0,7.64,0,.59.1,1.17.15,1.76Zm14,.95a3.81,3.81,0,0,0,0-3.36A3.31,3.31,0,0,0,32.17,27a18,18,0,0,1-2.82-1.39,1.81,1.81,0,0,1-.64-1.3.94.94,0,0,1,1.09-1,5.18,5.18,0,0,1,1.37.51c.32.14.73.53.91.44a19,19,0,0,0,2.05-1.42,13.28,13.28,0,0,0-2.54-1.74,6.89,6.89,0,0,0-2.32-.05,3.6,3.6,0,0,0-3.3,4.2c.61,2.46,2.65,3.31,4.69,4.05A1.88,1.88,0,0,1,32,30.81a1.1,1.1,0,0,1-.85,1.42c-.9.28-2.61.06-3.11-.82s-1.3-.47-1.71-.15-1.57.6-.74,1.35,1.21,1.58,2.42,2C30.57,35.35,32.73,34.87,34.43,32.55ZM23.91,21.39l-.09,0V30.9h.09Z"/><path class="cls-2" d="M34.43,32.55c-1.7,2.32-3.86,2.8-6.46,2-1.21-.37-1.66-1.29-2.42-2s.4-1.09.74-1.35,1.13-.87,1.71.15,2.21,1.1,3.11.82A1.1,1.1,0,0,0,32,30.81a1.88,1.88,0,0,0-1.3-1.44c-2-.74-4.08-1.59-4.69-4.05a3.6,3.6,0,0,1,3.3-4.2,6.89,6.89,0,0,1,2.32.05,13.28,13.28,0,0,1,2.54,1.74,19,19,0,0,1-2.05,1.42c-.18.09-.59-.3-.91-.44a5.18,5.18,0,0,0-1.37-.51.94.94,0,0,0-1.09,1,1.81,1.81,0,0,0,.64,1.3A18,18,0,0,0,32.17,27a3.31,3.31,0,0,1,2.27,2.15Z"/><path class="cls-3" d="M21,21.22H23.5c0,.37.05.71.05,1,0,2.62.07,5.25,0,7.86a8.87,8.87,0,0,1-.76,3.16,2.45,2.45,0,0,1-1.51,1.18,5.34,5.34,0,0,1-4.06-.12,7.8,7.8,0,0,1-1.74-1.66.65.65,0,0,1,.05-.65c.6-.41,1.25-.75,1.88-1.12.95,1.49,1.93,1.82,2.79,1l.3-.33h.07c0-.08.07-.15.1-.22l.16-.1a4.92,4.92,0,0,0,.2-1c0-3,0-5.92,0-8.88A1.1,1.1,0,0,1,21,21.22Z"/><path class="cls-4" d="M21,21.22a1.1,1.1,0,0,0,0,.18,5.72,5.72,0,0,0-.19,1.07c0,2.94,0,5.87,0,8.81l-.16.1L20.6,21Z"/><path class="cls-5" d="M20.6,21l0,10.38c0,.07-.07.14-.1.22-.05-.59-.15-1.17-.15-1.76,0-2.55,0-5.09,0-7.64A6.32,6.32,0,0,1,20.6,21Z"/><path class="cls-6" d="M23.91,21.39V30.9h-.09V21.35Z"/><path class="cls-7" d="M34.43,32.55V29.19A3.81,3.81,0,0,1,34.43,32.55Z"/><path class="cls-5" d="M20.46,31.6l-.3.33Z"/><path class="cls-8" d="M20.79,31.28c0-2.94,0-5.87,0-8.81A5.72,5.72,0,0,1,21,21.4c0,3,0,5.92,0,8.88A4.92,4.92,0,0,1,20.79,31.28Z"/></g></g></svg>