<svg xmlns="http://www.w3.org/2000/svg" viewBox="0 0 40.15 39.99"><defs><style>.cls-1{fill:#fdfdfd;}.cls-2{fill:#c7393b;}.cls-3{fill:#c93c3d;}.cls-4{fill:#c73b3c;}.cls-5{fill:#c63b3c;}.cls-6{fill:#467db7;}.cls-7{fill:#c3393a;}.cls-8{fill:#c7393a;}.cls-9{fill:#3b78b9;}.cls-10{fill:#3e7ab8;}.cls-11{fill:#3d79b9;}.cls-12{fill:#3c79b6;}.cls-13{fill:#467cb4;}.cls-14{fill:#4e87bf;}.cls-15{fill:#4c77a3;}.cls-16{fill:#5279a2;}.cls-17{fill:#7491af;}.cls-18{fill:#5d88b6;}.cls-19{fill:#f9f2f2;}.cls-20{fill:#faf3f2;}</style></defs><title>java</title><g id="Layer_2" data-name="Layer 2"><g id="Layer_1-2" data-name="Layer 1"><path class="cls-1" d="M40.15,40H0V0H40.15ZM16.71,26.57l.05,0,.07,0,6.13.1,2.48-.28a5.85,5.85,0,0,0,3.49-1.35l-5,1.07-8,.14h-.81v.11l.22,0,1.35.18Zm4.85-9.07a5.55,5.55,0,0,0,3.33-.95L21.17,17H15.53l-1.08-.39,1-.62A2.9,2.9,0,0,0,12.8,17.1l1.88.4A23.33,23.33,0,0,0,21.56,17.5Zm5.17,7.06c.49-.25,1-.48,1.45-.77.05,0-.06-.35-.1-.54-.29.93-1.17.77-1.71,1.1a2.48,2.48,0,0,0-.39,0,41.18,41.18,0,0,1-9.41.44,27,27,0,0,1-3.32-.46,4.28,4.28,0,0,1-.92-.42l1.14-.66L13.38,23a14.42,14.42,0,0,0-1.71.6c-.31.15-.51.52-.76.79l.94.58A.68.68,0,0,0,12,25a37.72,37.72,0,0,0,10.5.41C23.92,25.26,25.32,24.85,26.73,24.56Zm-9.8,8.14a3.27,3.27,0,0,0-.44,0,10.27,10.27,0,0,0-1.95.46,1.65,1.65,0,0,0-.81,2,1.4,1.4,0,0,0,1.61,1,8.56,8.56,0,0,0,1.64-.4l1.21.45c0-1.61,0-3,0-4.36a1.44,1.44,0,0,0-1.45-1.54,10.5,10.5,0,0,0-2.15.2c-.56.08-.68.39-.38.86C16.72,31,17.15,31.22,16.93,32.7Zm12,3.62c0-1.65,0-3.08,0-4.5a1.49,1.49,0,0,0-1.4-1.44,4.39,4.39,0,0,0-2.82.47l.25.65c2.35-.7,3.14,0,2.65,1.2-1.18.14-2.53,0-3.08,1.43a1.45,1.45,0,0,0,.41,1.77,2.32,2.32,0,0,0,2.69-.07Zm-10-5.85c.56,1.82,1.08,3.57,1.65,5.32a.7.7,0,0,0,.54.37c.4,0,1.05-.09,1.13-.32.67-1.72,1.22-3.5,1.84-5.37H22.7l-1.06,4.24a24.38,24.38,0,0,1-1.16-3.24C20.15,30.39,20.16,30.39,18.88,30.47Zm.48-15.74.23-.16L18.9,13.5c-1.16-1.79-1-3,.52-4.49.27-.25.57-.46.82-.72A17.64,17.64,0,0,0,22.42,6a7.18,7.18,0,0,0,.83-2.37c.07-.29-.17-.66-.26-1l-.23,0a4.63,4.63,0,0,1-1.9,3.75c-.46.39-.94.74-1.39,1.14-.71.63-1.44,1.27-2.09,2a2,2,0,0,0-.46,2A8,8,0,0,0,19.36,14.73ZM11.57,28.44v6c0,1.16.18,2.39-1.16,3.08,1,.59,1.35.58,1.85-.25a3.72,3.72,0,0,0,.53-1.74c.07-1.72,0-3.43,0-5.15,0-.64,0-1.28,0-1.94Zm9.93-12.8c.25,0,.45,0,.57-.08a2,2,0,0,0,.59-2.69c-.21-.35-.48-.68-.69-1a1.7,1.7,0,0,1,.18-2.34,8.71,8.71,0,0,1,1.1-1c.37-.3.77-.56,1.15-.84l-.08-.18a2.49,2.49,0,0,0-.68.14,14.36,14.36,0,0,0-1.83,1c-2,1.41-2.18,3-.66,4.91A1.74,1.74,0,0,1,21.5,15.64Zm2.35,6.77,0-.37a15,15,0,0,0-2-.28c-1.47,0-2.95.09-4.43.07a4.62,4.62,0,0,1-1.29-.53c-.11.13-.54.42-.51.63a1.19,1.19,0,0,0,.73.69A10.82,10.82,0,0,0,23.85,22.41Zm-8.09-3.59,0-.34-.84.78c.28.24.53.61.85.69a14.26,14.26,0,0,0,2.52.42,17.83,17.83,0,0,0,6.1-.7,2,2,0,0,0-1.81-.53c-1.86.15-3.74.18-5.6.18C16.55,19.33,16.15,19,15.76,18.82Zm10.89-3.33.54.18A1.44,1.44,0,0,1,28,17.9a7.38,7.38,0,0,1-1.2,1.3,5.68,5.68,0,0,1-.74.55,3.79,3.79,0,0,0,3-1.73,1.63,1.63,0,0,0-.12-2A2,2,0,0,0,26.65,15.49Z"/><path class="cls-2" d="M16.93,32.7c.22-1.48-.21-1.68-2.74-1.25-.3-.47-.18-.78.38-.86a10.5,10.5,0,0,1,2.15-.2,1.44,1.44,0,0,1,1.45,1.54c0,1.37,0,2.75,0,4.36L17,35.84a8.56,8.56,0,0,1-1.64.4,1.4,1.4,0,0,1-1.61-1,1.65,1.65,0,0,1,.81-2,10.27,10.27,0,0,1,1.95-.46A3.27,3.27,0,0,1,16.93,32.7Zm.07.8c-.8,0-1.61-.16-2,.62-.14.25,0,.94.16,1a2,2,0,0,0,1.35,0C17.34,34.9,17,34.14,17,33.5Z"/><path class="cls-3" d="M28.88,36.32l-1.31-.49a2.32,2.32,0,0,1-2.69.07,1.45,1.45,0,0,1-.41-1.77c.55-1.46,1.9-1.29,3.08-1.43.49-1.19-.3-1.9-2.65-1.2l-.25-.65a4.39,4.39,0,0,1,2.82-.47,1.49,1.49,0,0,1,1.4,1.44C28.92,33.24,28.88,34.67,28.88,36.32ZM27.59,33.5c-1.43-.07-2,.25-2,1a.82.82,0,0,0,1,.87C27.59,35.29,27.84,34.84,27.59,33.5Z"/><path class="cls-4" d="M18.88,30.47c1.28-.08,1.27-.08,1.6,1a24.38,24.38,0,0,0,1.16,3.24l1.06-4.24H24c-.62,1.87-1.17,3.65-1.84,5.37-.08.23-.73.29-1.13.32a.7.7,0,0,1-.54-.37C20,34,19.44,32.29,18.88,30.47Z"/><path class="cls-5" d="M19.36,14.73a8,8,0,0,1-2.44-3.21,2,2,0,0,1,.46-2c.65-.69,1.38-1.33,2.09-2,.45-.4.93-.75,1.39-1.14a4.63,4.63,0,0,0,1.9-3.75l.23,0c.09.33.33.7.26,1A7.18,7.18,0,0,1,22.42,6a17.64,17.64,0,0,1-2.18,2.32c-.25.26-.55.47-.82.72-1.54,1.5-1.68,2.7-.52,4.49l.69,1.07Z"/><path class="cls-6" d="M26.73,24.56c-1.41.29-2.81.7-4.23.86A37.72,37.72,0,0,1,12,25a.68.68,0,0,1-.15,0l-.94-.58c.25-.27.45-.64.76-.79a14.42,14.42,0,0,1,1.71-.6l.09.25-1.14.66a4.28,4.28,0,0,0,.92.42,27,27,0,0,0,3.32.46A41.18,41.18,0,0,0,26,24.37a2.48,2.48,0,0,1,.39,0Z"/><path class="cls-7" d="M11.57,28.44h1.25c0,.66,0,1.3,0,1.94,0,1.72,0,3.43,0,5.15a3.72,3.72,0,0,1-.53,1.74c-.5.83-.87.84-1.85.25,1.34-.69,1.15-1.92,1.16-3.08Z"/><path class="cls-8" d="M21.5,15.64a1.74,1.74,0,0,0-.35-2.07c-1.52-1.88-1.3-3.5.66-4.91a14.36,14.36,0,0,1,1.83-1,2.49,2.49,0,0,1,.68-.14l.08.18c-.38.28-.78.54-1.15.84a8.71,8.71,0,0,0-1.1,1A1.7,1.7,0,0,0,22,11.84c.21.35.48.68.69,1a2,2,0,0,1-.59,2.69C22,15.64,21.75,15.61,21.5,15.64Z"/><path class="cls-9" d="M23.85,22.41a10.82,10.82,0,0,1-7.44.21,1.19,1.19,0,0,1-.73-.69c0-.21.4-.5.51-.63a4.62,4.62,0,0,0,1.29.53c1.48,0,3-.08,4.43-.07a15,15,0,0,1,2,.28Z"/><path class="cls-10" d="M15.76,18.82c.39.18.79.51,1.19.5,1.86,0,3.74,0,5.6-.18a2,2,0,0,1,1.81.53,17.83,17.83,0,0,1-6.1.7A14.26,14.26,0,0,1,15.74,20c-.32-.08-.57-.45-.85-.69l.84-.78Z"/><path class="cls-11" d="M14.68,17.5l-1.88-.4A2.9,2.9,0,0,1,15.44,16l-1,.62,1.08.39,0,.17h5.68s0-.11,0-.17l3.72-.45a5.55,5.55,0,0,1-3.33.95Z"/><path class="cls-12" d="M26.65,15.49a2,2,0,0,1,2.28.51,1.63,1.63,0,0,1,.12,2,3.79,3.79,0,0,1-3,1.73,5.68,5.68,0,0,0,.74-.55A7.38,7.38,0,0,0,28,17.9a1.44,1.44,0,0,0-.84-2.23Z"/><path class="cls-13" d="M23.91,26.12l5-1.07a5.85,5.85,0,0,1-3.49,1.35Z"/><path class="cls-14" d="M23.91,26.12l1.53.28L23,26.68a1,1,0,0,0-.28-.12l-5.48-.14a1.37,1.37,0,0,0-.5.15l-1.35-.18.58-.13Z"/><path class="cls-15" d="M16.7,26.57a1.37,1.37,0,0,1,.5-.15l5.48.14a1,1,0,0,1,.28.12l-6.13-.1a.17.17,0,0,0-.12,0Z"/><path class="cls-16" d="M14.68,17.5h6.88A23.33,23.33,0,0,1,14.68,17.5Z"/><path class="cls-17" d="M21.17,17c0,.06,0,.17,0,.17H15.48l0-.17Z"/><path class="cls-18" d="M26.73,24.56l-.36-.21c.54-.33,1.42-.17,1.71-1.1,0,.19.15.51.1.54C27.71,24.08,27.22,24.31,26.73,24.56Z"/><path class="cls-15" d="M15.93,26.26l-.58.13-.22,0v-.11Z"/><path class="cls-14" d="M16.71,26.57a.17.17,0,0,1,.12,0l-.07,0Z"/><path class="cls-19" d="M17,33.5c0,.64.34,1.4-.53,1.68a2,2,0,0,1-1.35,0c-.17-.07-.3-.76-.16-1C15.39,33.34,16.2,33.47,17,33.5Z"/><path class="cls-20" d="M27.59,33.5c.25,1.34,0,1.79-1,1.9a.82.82,0,0,1-1-.87C25.56,33.75,26.16,33.43,27.59,33.5Z"/></g></g></svg>