<svg xmlns="http://www.w3.org/2000/svg" viewBox="0 0 38.78 45.43"><defs><style>.cls-1{fill:#f27727;}.cls-2{fill:#9e9e9e;}.cls-3{fill:#767677;}.cls-4{fill:#4f4f4f;}.cls-5{fill:#505050;}.cls-6{fill:#616262;}</style></defs><title>jupyter</title><g id="Layer_2" data-name="Layer 2"><g id="Layer_1-2" data-name="Layer 1"><path class="cls-1" d="M36.34,27.9c-.16.39-.28.8-.46,1.17a17.92,17.92,0,0,1-11.21,9.76,17.55,17.55,0,0,1-6.83.71A18.12,18.12,0,0,1,2.56,28.13a.56.56,0,0,1,0-.23l.28.29A16.83,16.83,0,0,0,8,31.83a24.83,24.83,0,0,0,7,2.09,29.51,29.51,0,0,0,6.37.27A26.29,26.29,0,0,0,30.48,32a17.61,17.61,0,0,0,5.23-3.47l.63-.64Z"/><path class="cls-1" d="M2.49,15.53a18.08,18.08,0,0,1,33.85,0l-.1-.08a17,17,0,0,0-6-4.12,25.37,25.37,0,0,0-6.62-1.85,28.88,28.88,0,0,0-4.83-.29A26.92,26.92,0,0,0,8.43,11.36a17,17,0,0,0-5.84,4.08A.48.48,0,0,1,2.49,15.53Z"/><path class="cls-2" d="M9.39,42A3.45,3.45,0,1,1,6,38.52,3.39,3.39,0,0,1,9.39,42Z"/><path class="cls-3" d="M32.72,0a2.71,2.71,0,0,1,2.71,2.72A2.74,2.74,0,1,1,32.72,0Z"/><path class="cls-4" d="M11.73,18.84h.92l0,1,.08-.08a2.33,2.33,0,0,1,2.39-1,2.29,2.29,0,0,1,1.88,1.5A3.79,3.79,0,0,1,17,23.38a2.58,2.58,0,0,1-3,1.4,2.2,2.2,0,0,1-1.16-.84v3.22H11.73Zm1,3a7.43,7.43,0,0,0,.09,1A1.64,1.64,0,0,0,14.23,24a1.61,1.61,0,0,0,1.7-.82,2.93,2.93,0,0,0,0-2.76,1.52,1.52,0,0,0-.73-.71,1.73,1.73,0,0,0-2.35,1.17A6.19,6.19,0,0,0,12.77,21.81Z"/><path class="cls-5" d="M34.3,22H30.1a1.83,1.83,0,0,0,.59,1.49A1.81,1.81,0,0,0,32,24a4.5,4.5,0,0,0,1.76-.3l.2.85a13.51,13.51,0,0,1-1.35.28,3.3,3.3,0,0,1-2.3-.38A2.71,2.71,0,0,1,29,22a4.55,4.55,0,0,1,.28-1.59,2.7,2.7,0,0,1,3.28-1.61,2.24,2.24,0,0,1,1.56,1.81A11.89,11.89,0,0,1,34.3,22Zm-4.19-.85h3.16a1.49,1.49,0,0,0-.57-1.41,1.39,1.39,0,0,0-1.58-.15A1.73,1.73,0,0,0,30.11,21.15Z"/><path class="cls-5" d="M23.67,18.82c-.06.14-.1.26-.15.37-.74,1.87-1.47,3.74-2.23,5.6a5,5,0,0,1-1.31,2,3.16,3.16,0,0,1-1.3.67l-.28-.9.29-.12a3.12,3.12,0,0,0,1.61-1.7.87.87,0,0,0,0-.5c-.42-1.07-.86-2.14-1.29-3.2-.27-.65-.53-1.3-.79-1.95,0-.08-.06-.15-.09-.25.36,0,.71,0,1.06,0,.06,0,.16.1.18.17.54,1.46,1.07,2.93,1.59,4.39l0,.1c.19-.58.37-1.15.56-1.71.31-.91.62-1.81.92-2.72a.29.29,0,0,1,.34-.23C23.06,18.83,23.35,18.82,23.67,18.82Z"/><path class="cls-4" d="M4.68,18.83H5.76v.25c0,1,0,2.05,0,3.08a3.55,3.55,0,0,0,.09.72,1.25,1.25,0,0,0,1.9.9,1.43,1.43,0,0,0,.86-1.35c0-1.13,0-2.25,0-3.38V18.8H9.69v5.92H8.76l-.07-.91L8.56,24A2.27,2.27,0,0,1,6,24.76a1.88,1.88,0,0,1-1.27-1.52,3.66,3.66,0,0,1-.09-.81C4.67,21.24,4.68,20.05,4.68,18.83Z"/><path class="cls-6" d="M5.18,6.28a2,2,0,1,1-2-2A2,2,0,0,1,5.18,6.28Z"/><path class="cls-5" d="M25.49,17.38l1.06-.26v1.7h1.54v.81H26.57a.44.44,0,0,0,0,.1c0,1.09,0,2.17,0,3.26a2.33,2.33,0,0,0,0,.38.7.7,0,0,0,.75.59c.2,0,.41,0,.63,0,0,.23,0,.46.05.68a.18.18,0,0,1-.11.13,2.48,2.48,0,0,1-1.32.07,1.62,1.62,0,0,1-1.13-1.73V19.63h-.9v-.82h.92Z"/><path class="cls-5" d="M1.59,18.79H2.67V19c0,1.81,0,3.63,0,5.45A3.34,3.34,0,0,1,2.32,26a2.38,2.38,0,0,1-2.2,1.23L0,26.43l.3,0a1.38,1.38,0,0,0,1.24-1.52c0-.63,0-1.27.05-1.9V18.79Z"/><path class="cls-4" d="M36.93,24.7h-1V18.83h.95v1.11a1.92,1.92,0,0,1,2-1.27v1l-.42,0A1.48,1.48,0,0,0,37,20.89a5.29,5.29,0,0,0-.08.79c0,.92,0,1.84,0,2.76Z"/><polygon class="cls-1" points="2.47 15.55 2.48 15.55 2.48 15.56 2.47 15.55"/><path class="cls-1" d="M36.34,27.91v0l0,0h0Z"/></g></g></svg>