<svg xmlns="http://www.w3.org/2000/svg" viewBox="0 0 290.68 290.69"><defs><style>.cls-1{fill:#3e3d3f;}.cls-2{fill:#f4f4f4;}.cls-3{fill:#343334;}.cls-4{fill:#424243;}.cls-5{fill:#3c3b3c;}.cls-6{fill:#3d3c3e;}.cls-7{fill:#383738;}.cls-8{fill:#39383a;}.cls-9{fill:#3c3b3d;}.cls-10{fill:#3a393b;}.cls-11{fill:#3f3f40;}.cls-12{fill:#f7f7f7;}.cls-13{fill:#eeefef;}.cls-14{fill:#ebecec;}.cls-15{fill:#f1f2f2;}.cls-16{fill:#eaeaeb;}.cls-17{fill:#464648;}.cls-18{fill:#e6e7e8;}.cls-19{fill:#e5e6e7;}.cls-20{fill:#4a4a4c;}.cls-21{fill:#d2d4d5;}.cls-22{fill:#dadcdd;}.cls-23{fill:#373637;}.cls-24{fill:#323031;}.cls-25{fill:#4d4d4f;}.cls-26{fill:#505052;}.cls-27{fill:#5a5b5d;}.cls-28{fill:#757779;}.cls-29{fill:#545456;}</style></defs><title>MSAC_Seal</title><g id="Layer_2" data-name="Layer 2"><g id="Layer_1-2" data-name="Layer 1"><path class="cls-1" d="M0,145.34C-.24,65.47,64.8.08,144.55,0,226-.08,290.45,64.24,290.68,145.72c.23,79.95-64.82,144.9-145.19,145C64.88,290.76.24,226.18,0,145.34Zm3.31-.13c-.07,78.43,63.4,142.12,141.75,142.22S287.37,224,287.43,145.77C287.5,67.19,224.19,3.47,145.89,3.32A142,142,0,0,0,3.31,145.21Z"/><path class="cls-2" d="M3.31,145.21A142,142,0,0,1,145.89,3.32c78.3.15,141.61,63.87,141.54,142.45-.06,78.24-63.9,141.77-142.37,141.66S3.24,223.64,3.31,145.21Zm245.2-55.88c-2.76,4.68,1.1,7.25,3.29,10.34,1.19,4,2.38,8,3.58,12.14,3.26-1.35,3.26-1.35,2-8.12L262.3,102l2.61,6.23,3.44-1.58c-.79-2.22-1.44-4-2.21-6.2l4.39-1.49,2.49,6.18c4.15-1.38,4-3.22-.69-11.43l-18.92,5.84c-.16-2.21-.31-4.42-.49-6.89l15.8-8-2.35-3.75c-2,1-3.63,1.9-5.29,2.61-3.9,1.68-7.83,3.28-11.76,4.92l-2.9-5.69,15.4-9.88c-.88-1.3-1.63-2.43-2.48-3.71L240.49,81.18c1.48,2.3,2.34,4.17,3.7,5.55C245.32,87.9,247.05,88.49,248.51,89.33ZM60.46,64.4A24.3,24.3,0,0,1,56,63.82c-4.91-1.55-9.72-3.44-14.66-4.84-1.43-.41-3.2.36-5.41.68,4.68,8,8.68,14.92,12.69,21.8l1.56-.13V73c1.89-1.79,3.15-6.49,8.35-3.81.21.1,1.83-2.51,2.79-3.86l4.41-2.28L57.17,52.62l.69-.75c6.32.39,12.43,4.18,19.92,2L62,35.68l-3.18,3.1L68,49.43c-7.32.53-13.59-4.34-21.08-1.94ZM192.12,264.68c-4.19-2.68-8.33-5.42-12.6-8-1-.58-2.37-.43-3.57-.61-.1,1.17-.57,2.46-.23,3.49,1.73,5.17,3.88,10.21,5.45,15.43,1.13,3.75,2.8,3.22,5.27,1.46-1.52-4.39-3-8.63-4.78-13.84,3.9,2.54,6.65,4.76,9.75,6.24,2.83,1.34,4.9,5.93,9.39,2.86-2.62-7.19-5.15-14.12-7.63-20.95-3,.48-4.67,1.06-3.17,4.23a84.22,84.22,0,0,1,3.12,8.89ZM35.83,144.91c-.64,60,48.16,109.28,108.71,109.9,60.25.61,109.5-47.73,110.27-108.25s-48-110.24-108.88-110.74C85.64,35.32,36.48,84,35.83,144.91Zm-2.91-26c-7.79,0-14.43-.08-21.06.08-1,0-2,1.09-3.07,1.68.64.86,1.1,2,1.94,2.51,3.53,2,7.18,3.83,11.6,6.15-5,1.15-9,2-13,3.09a4,4,0,0,0-2.21,2.06c-.17.37.8,1.74,1.49,2,6.71,2.18,13.46,4.22,21.22,6.62-1.06-8.44-8.8-5.14-12.16-8.74l13.61-2.9-.08-1.26L20,124C23.64,120.82,30.17,126.92,32.92,118.86ZM240.83,75.54c6.35-.1,12.25-5.93,12.29-12.15a11.24,11.24,0,0,0-10.88-10.88c-6.55,0-12.63,6-12.55,12.45C229.75,70.65,235,75.62,240.83,75.54ZM122,34.74c-2.67-8.83-4.82-15.9-6.87-22.67-4-.14-4.39,1.52-3.35,4.41,1.14,3.15,1.92,6.43,3.14,10.67-3.75-2.75-6.4-5-9.39-6.78-2.75-1.59-4.66-6.06-9.16-3.42,2.15,7.33,4.22,14.4,6.4,21.81l4.2-1.53c-1.32-4.63-2.55-9-3.91-13.75C109.7,26.78,113.82,33,122,34.74Zm25.08,248.79c6.17,0,11-5.09,11.17-11.58s-5-12.05-11.27-12.05c-6.14,0-11.07,5.16-11.1,11.63C135.88,278.41,140.67,283.54,147.11,283.53ZM163.26,8.12c-1.7,8.47-3.16,15.71-4.65,23.17l4.24,1c1-4.7,1.93-9.14,2.94-14,4.6,5.46,4.81,13.38,11.54,18.3,1.54-7.7,3-14.16,4-20.68.17-1.12-1.55-2.53-2.39-3.8l-1.31.87c-.88,4.28-1.77,8.56-2.75,13.35C170.28,20.74,169.94,13,163.26,8.12Zm48.42,23.64a11,11,0,0,0-10.61-11c-6.23-.14-11.81,5.65-11.88,12.33A10.91,10.91,0,0,0,200.06,44.3C206.36,44.26,211.72,38.47,211.68,31.76ZM146.44,8.17c-6.24,0-11,5.07-11.06,11.67,0,6.87,4.84,11.92,11.39,11.79,6.28-.12,10.82-5.14,10.75-11.89S152.78,8.15,146.44,8.17Zm129.9,120,1.58,0c4.15-4.64,4.54-9.59,1.12-13.88s-10.55-5.37-15.93-2.22c-4.73,2.78-6.64,7.85-4.83,12.82,1.9,5.21,6.61,7.21,13.94,5.72l-2-9-1.66-.42-2,5.2c-5.14-1.19-7.06-5.48-3.19-8.53a14.07,14.07,0,0,1,9-2.51c4.39.34,5.67,4,4,8.14C275.89,124.88,276.34,126.62,276.34,128.18ZM84.52,264.4l.51-1.59c2,2,5.6,4,5.62,6.09,0,3.82,2,3.75,4.32,4.4.74-7.27,1.52-14.21,2.11-21.18A4.69,4.69,0,0,0,96,248.78a3,3,0,0,0-3,.19c-5.61,5.1-11.08,10.36-16.59,15.57l.67,1.65Zm144.87-9,.14-1.45c-5.74-4.18-11.45-8.42-17.27-12.5a4.68,4.68,0,0,0-3.47-.63c-.62.17-1.35,1.87-1.17,2.7,1.59,7.32,3.37,14.6,5.09,21.9,2-1.1,3.43-2.47,3.48-3.89.17-5.3,3.64-7.65,8.52-5.75C226,256.3,227.82,255.57,229.39,255.41Zm-58.78,15.9c3.91-2.93,4.45-6.81,1.67-10.35-3.7-4.72-8.4-1.44-13-1,1.16,6.58,2.3,12.75,3.31,18.95.57,3.47,2.37,3.32,4.9,1.92l-1.13-7.36c4,1.94,4.85,9.21,11.42,5.43Zm75.73-71.94c-.63,1.41-2,3.09-1.64,3.87,3.06,6.08,6.47,12,10.2,18.71l4.84-7.61,6.32-1.76a37.91,37.91,0,0,0-2.61-4.9,6,6,0,0,0-2.75-2c-1.43-.44-3.19,0-4.47-.66C253,203.47,250,201.49,246.34,199.37ZM102,38.39c-5.39-5.07-10.79-10.19-16.28-15.2a2.7,2.7,0,0,0-2.53-.43,3.63,3.63,0,0,0-1.57,2.65c.68,7.37,1.56,14.72,2.49,23C85.92,47,88.08,45.89,88,45.32c-1.3-5.66,3.49-5.8,6.48-7.84C96.7,39.23,98.71,42.56,102,38.39ZM250.37,188.81c3.57,4.55,6.52,9,10.16,12.7,2.65,2.73,6.42,2.9,9.53.34,2.88-2.37,4.27-5.59,2.71-9.31s-4.52-5.67-8.28-4.93c-2.44.48-4.56,2.58-7.27,4.21C255.59,191.3,256.34,184.85,250.37,188.81ZM24.73,209.91c1.05,1.92,1.58,3.85,2.21,3.88,5.08.26,10.25.65,15.27,0,3.51-.45,5.63-3.44,5.49-7.25s-2.07-6.66-5.84-7.74A7.18,7.18,0,0,0,33,202.49c-1.12,2.19-.78,5.12-1.11,7.85ZM270,138.4c1,6.94,1,6.94,4.57,6.22v-6h4.09c1.85,2.24-1.45,7.28,4.83,6.31-.24-3.94-.46-7.53-.71-11.56l-22.39,1.28c.17,3.51.18,6.64.57,9.73.09.69,1.48,1.22,2.27,1.83.5-.7,1.33-1.36,1.44-2.12a38.72,38.72,0,0,0,.07-5.1ZM228.21,58.13c-4.22-.51-7.11-2.19-7-6.54.09-3.93,2.34-7.31,5.94-7.5,3.06-.17,6.24,2.15,10.25,3.72,2.29-1.55,1-3.85-1.66-6.14-4.53-4-11.77-3.18-16.05,1.72s-4.08,12.15.55,16.1C223,61.81,225.7,63,228.21,58.13ZM82.81,248.67c1.92-2.35,3.78-4.08,1-6.61-3.26-2.93-7-4-11-2.6a12,12,0,0,0-8.49,10.12c-.65,4.49.79,8.21,4.65,10.76,3.21,2.12,5.79,2,7-2.4-4-.2-7.12-1.62-7.32-6a8,8,0,0,1,5.88-8.34C78.49,242.26,81.09,244.51,82.81,248.67ZM38.15,88.82c1.17,3.76,3.06,4.19,6.26,1.54A7.16,7.16,0,0,0,46,80.58C43.27,76.8,39.57,76.4,35,79c-1.48.86-3.41.93-5.14,1.35.57-1.59,1.21-3.17,1.71-4.8a3.92,3.92,0,0,0,.17-2.42c-.18-.42-1.38-.74-2-.59-3.14.75-5.48,5.77-4.31,9A6.32,6.32,0,0,0,34,85.27c1.63-.76,3-2.37,4.65-2.73,1.23-.26,2.76.88,4.16,1.4-.48,1.24-.71,2.7-1.53,3.64C40.58,88.32,39.2,88.43,38.15,88.82Zm85.41,193.12,1.55-1c.53-3,1.06-6,1.59-9,6,.63,6,.63,6.13-3.14l-5.55-1.13c.21-1.55.39-2.91.58-4.36,1.39.08,2.38.13,3.36.2s1.89.17,2.82.26c.63-4.11-1-4.82-10.22-4.71-.9,6.35-1.94,12.73-2.57,19.14C121.14,279.38,122.75,280.69,123.56,281.94ZM19.05,105.85l-2.25-5.36c-1.05,1.37-2.43,2.61-3.06,4.15a75.3,75.3,0,0,0-2.38,8l1,1.22,5.37-3.64L34,115.05l1.37-4.11ZM133.1,10.54l-1.3-1.22c-12.06.9-12.06.9-12.05,5.19h4.31c.93,6.15,1.81,12,2.73,18.09l4.25-.83c-.83-6.14-1.63-12-2.27-16.73ZM98.51,274.71a25.31,25.31,0,0,0,4.82,1.62,39.74,39.74,0,0,0,6-.1c-1.46-1.18-2.93-2.35-4.38-3.55a5,5,0,0,1-.67-.91c1.77-5.53,3.58-11.15,5.46-17l-4.19-1.24C103.17,260.61,100.94,267.34,98.51,274.71ZM18,194.63l-.71,1.63c1.35.64,3,2.13,4,1.77,6.2-2.15,12.25-4.71,18.63-7.25-.71-2-1.06-3.84-2.07-5.23-.42-.58-2.26-.14-3.45-.17.32,4.31-3.51,3.93-5.87,5C25.13,192,21.54,193.23,18,194.63Zm41,36.77-.11-2.28c-2.25-1.4-4.4-3.71-6.78-4-3.29-.37-5.55,2.22-5.35,5.67s2.59,5.87,5.85,5.21C55,235.55,56.93,233,59.05,231.4Zm-31.2-64.64,0-2.37c-2.2-1.49-4.46-4.19-6.6-4.11-1.95.07-4.91,2.91-5.42,5A4.68,4.68,0,0,0,21.11,171C23.48,170.74,25.61,168.26,27.85,166.76Zm247.88,1.94.06-2.35c-2.2-1.51-4.24-3.88-6.63-4.31-3.08-.54-5.37,1.87-5.52,5.12-.16,3.51,2.07,6.17,5.38,5.79C271.39,172.68,273.5,170.2,275.73,168.7Zm-80.41,80.41c2.91,5.71,5.9,11.22,8.53,16.89,1.57,3.38,3.21,3.15,5.51.82-3.32-6.48-6.63-12.94-10.07-19.68Zm48.25-15.92v-2.46c-2.19-1.45-4.26-3.82-6.6-4.12a4.58,4.58,0,0,0-5.24,5.59c.49,2.08,3.38,4.88,5.32,5C239.14,237.3,241.39,234.64,243.57,233.19ZM116.71,257.12c-1.77,7.48-3.4,14.33-5.12,21.59l4.38.91c1.74-7.38,3.39-14.36,5.12-21.65Zm70.22-242c-2.38,7.13-4.66,14-7,21.07l4.1,1.61c2.38-7.12,4.68-14,7.06-21.08Z"/><path class="cls-3" d="M35.83,144.91C36.48,84,85.64,35.32,145.93,35.82c60.91.5,109.66,50.08,108.88,110.74s-50,108.86-110.27,108.25C84,254.19,35.19,204.86,35.83,144.91ZM223,139.55l1.85,1.07c.2-.69.39-1.38.59-2.07l3.89-.44,7,5.29-.9,4-4,5.94q-2.9,4.54-5.78,9.09l-.85,1.2-.05.07-4.8,7.59-2.44,4.14c-.59,1.45-1.18,2.91-1.76,4.36l.12.15c-.81.62-2,1.08-2.39,1.91-2.1,4.36-4.22,8.74-5.89,13.27-1.3,3.54-2,7.32-3,11.41l11.46.93c-1.25,6.42-2.44,12.49-3.64,18.63.79.06,1,.13,1.11.07a6,6,0,0,0,1.25-.79c31.17-28.66,42.26-63.75,33.55-105.13-.22-1.06-.87-2.73-1.58-2.88-5.3-1.14-7.28-5.69-10.25-9.29-1-1.2-2.67-1.82-4-2.7l.09.08c1.38-.14,2.85-.66,4.13-.35a76.46,76.46,0,0,1,7.67,2.6c-18.95-47.19-65.15-74.2-114.23-67.17C82.87,47.27,52.82,84.24,46.4,109.76c.49-.16,1-.29,1.42-.46,15.83-6,27.53-20,44.9-23.06.32,0,.58-.33.89-.45,11-4.32,21.91-8,33.9-3.43,3.58,1.37,7.72,1.23,11.57,2,6.49,1.26,14.07,1,19.15,4.44,6.36,4.28,13.56,4.65,19.8,8.31,1.31,3.08,2.84,6.53,4.23,10,.71,1.79,1.15,3.68,1.71,5.53l-5,1.26c2,4.32,4.24,9,6.45,13.64l-1.26.56-4.69-5,3.87,15-1,0-5.81-11.67c-1.83,2.46-2.74,4.57-4.34,5.69-4.49,3.16-8,.58-11.26-2.55-1.87-1.76-4-3.27-6-4.89,9.9,14.57,16.14,26.62,15.09,30.88a53.88,53.88,0,0,0-6.72-3.34c-7.42-2.54-10.43-6.58-10.95-14.58-.12-1.77-1.05-4.79-2-5-2.78-.52-5.77.14-8.68.33l.14,1.39,4.27.61c-3.63,3.63-4.46,20.28-1.53,23.88.21.25.51.42.72.66,1.42,1.56,2.82,3.14,4.23,4.71l-.68.88-8.37-5.88,3.6,7.34c-6.61-2.65-13.18-7.16-19.92-7.43-6.54-.27-14.64-2.64-19.69,4.45,0-7.09.11-13.57-.12-20,0-1-1.38-2.38-2.45-2.89-4.61-2.15-7.31-5.81-9.09-10.39-2.32-5.94-4.71-11.85-7.08-17.77l1.37-.9a51,51,0,0,0,25.76,24.07,30.33,30.33,0,0,0-4.35-7.65c-2.47-3.28-5.36-6.27-7.5-9.73-.84-1.36-.14-3.68-.14-5.82l15.55,13.54,1-.92c-1.85-2.84-3.19-6.27-5.64-8.41-6.45-5.63-6.78-12.82-6.39-20.39,1.36,1.17,3.25,2.08,4,3.57,2,4,3.43,8.29,5.09,12.46l1.18-.41a38.62,38.62,0,0,1-1.18-4.8c0-.4,1-.94,1.49-1.41l1.46.68-.85-1.19-1.89-5.44.9-.59,4.36,3.31c.47-1.53,1.13-2.53.86-3-1.61-2.91-2.81-6.66-5.33-8.29-4-2.57-7.75.43-11.09,2.9-1.56.51-3.5.58-4.61,1.58-7.76,7-15.36,14.11-23,21.2-2.31,2.13-4.43,4.54-7,6.32-4.16,2.92-4.81,7.61-.25,10,4.3,2.23,6.84,5.59,9.69,9.06,3.69,4.49,7.93,8.52,11.61,13,1.47,1.8,2.1,4.3,2.77,5.74-4.23-2.85-8.33-6.34-13-8.63-10.85-5.3-16.25-13.73-16.88-25.89l-2.33-.12c1.28-3.72,2.6-7.42,3.82-11.16,1.14-3.51,2.62-6.23,6-3.85l4.35-8.13c-1-1.66-2.18-2.36-5-.46-8.05,5.48-8.22,14.79-11.61,22.51-.09.2.53.69.81,1q-2.52,3.31-5.06,6.62c2.18-7.56-.88-13.83-2.14-20.27l8.08.75L57.28,106c-3.06,1.92-5.56,3.89-8.38,5.15-4.13,1.84-6,5-6.45,9.2-1,10.57-2.51,21.15-2.62,31.73-.06,7.14,1.92,14.3,3,21.36L53,171.36a17,17,0,0,1-5,5.19c-2.13,1.53-4.08,3-1.47,5.57,5.23-3.08,7.63-9.84,15.53-10.86-4.28,5.79-8,10.48-11.29,15.45-.94,1.42-.7,3.64-1,5.49l1.61.37c4.37-6,8.66-12.13,13.16-18.07,1-1.37,2.82-2.19,4.26-3.27l1,1.11c-3.92,7.85-7.51,15.89-11.89,23.47-2.78,4.83-2,8.14,2.16,11.44,4.64-10.8,9.16-21.49,13.88-32.1.68-1.53,2.26-2.67,3.42-4l1.24.88c-2.54,15.88-7.8,31.29-9.86,48.17,6.67-2.93,9.36-6.61,9.86-12.68.89-10.94,2.55-21.83,4.09-32.71.19-1.28,1.63-2.38,2.49-3.56l1.91.79v33.58l9.75-2.06c-2-10.28-4.1-20.81-6.17-31.34l1.14-1c1.18,1.2,2.87,2.19,3.44,3.63,3.5,8.89,6.75,17.87,10.19,27.14l8.86-4.26-15.56-25.6,1.46-1.46c8.27,6.46,14.49,15.22,22.41,22.41l4.78-3L107.7,172.19l.7-1.07a40.45,40.45,0,0,1,5.18,2.36c6.46,4.1,12.55,8.89,19.33,12.36,5.83,3,13.46,2.3,17.21,9.07,10-6.86,19.26-7.44,28.65-.17,3.06,2.37,6.69,4,9.88,5.91V164l-5,1.55c.31-1,.33-2.35,1-2.81,1-.69,2.45-.75,4-1.14l-2.19-3.17c.45-1.65,1.25-3.29,1.28-4.95.14-7.7.06-15.4.06-22.15h20.51v15l12.15-3.89c0,.66,0,1.32,0,2l-.41.23.18.18.23-.41,2.19-4.49A.67.67,0,0,1,223,139.55Zm-1,12.5-4.44-2.2-.72,1,4.5,4.67L213,151.61c-1.51,1.46-5.16,3.3-5.39,5.49-1.06,10.32-1.18,20.73-1.63,31.1l.76.25,17.92-30-3.36-3a17.11,17.11,0,0,0,3.53.35,6.89,6.89,0,0,0,2.26-1.17l-2.2-1.46-.49-3.2ZM138.27,89.38l7.86-1.06,0-1.26-14-1.13L137,89.19c-3.4-.31-5.6,1.11-6.74,4.48l3.42,1.09-7.49,8.81c0,1.9.32,3.15,0,4.16-2.29,6.25-3.81,12.42-2.35,19.27.47,2.22-1.74,5-2.72,7.53a4.4,4.4,0,0,0-.12.74l3.69.35a13.66,13.66,0,0,0-1.83,3.27,20.55,20.55,0,0,0-.13,4.16c1.4-.48,3.55-.57,4.06-1.52,1.27-2.4,2.5-5.2,2.48-7.83-.05-6.15-1.92-12.4,2.76-18.1l-1.75-.53-3.47,6.24c-.38-1-1.25-2.16-1-2.68a117.22,117.22,0,0,1,7.63-12.29c1.94-2.6,5.07-4.3,7-6.89C143.19,95.72,142.27,92.52,138.27,89.38Zm57,125-2.2.18,0,.61,2.12.26-2.46,4.81-2.32-3.92c1.66-3,3.31-6,5-9-3.64-1.73-7.12-3.26-10.49-5s-6.71-3.68-10-5.61c-8.66-5.06-18.26-4.5-25.08,2.92s-12.51,15.75-18.16,23C138.54,224,145.4,225,152,226.91c5.07,1.46,9.79,4.11,14.68,6.21,10.41,4.47,21.1,5.95,32.17,2.84,4.44-1.25,8.59-3.24,9.93-8,1.49-5.35,2.38-10.88,3.55-16.37-3-.57-5.71-.77-8.18-1.63C199.47,208.3,197.23,211,195.23,214.38Zm-49.49-18c-4.25-5.62-7.32-6.82-13.24-4.92-2.81.9-5.39,2.52-8.07,3.82C114,200.34,104.74,208.57,92,207.59c-.41,0-.89.42-1.26.73-5.38,4.4-10.75,8.83-15.92,13.09,4.07,6.47,9.22,8.37,15.93,5.17,3.14-1.5,6.41-2.76,9.5-4.34,7.45-3.82,14.54-4.43,21.06,2.25Zm-46.14,44c21.74,10.73,44.38,13.43,69.37,8.3a25.85,25.85,0,0,0-2.81-1.13c-11.52-2.56-23-5.22-34.6-7.54-2.45-.49-5.16.37-7.75.48-2.12.09-4.79.81-6.29-.17C111.33,236.25,105.56,240.46,99.6,240.38Zm65.15-128.11c3.88-.08,4.84-1.3,4.88-5.45.08-7.63-6.54-7.85-9.75-11.69l-1.82,1c1.64,3.6,3.29,7.2,4.92,10.79-1.51,1.34-4.86,3.46-4.58,4.2,2,5.28-2.59,7-5,10.07C159.53,120.8,164.42,117.06,164.75,112.27ZM127.16,88.36c-6.69-11.15-14.9-4-22-3.73-5.53.21-8.16,5-10.26,9.93l23.48-8.8Zm91.6,58.35-1-1.79-10.71,5.65.84,1.56Q213.34,149.42,218.76,146.71Zm2.39,1.77.83-1.08c-.32-.22-.71-.66-1-.6s-.61.57-.91.88Z"/><path class="cls-4" d="M32.92,118.86c-2.75,8.06-9.28,2-12.93,5.17l11.25,6.09.08,1.26-13.61,2.9c3.36,3.6,11.1.3,12.16,8.74-7.76-2.4-14.51-4.44-21.22-6.62-.69-.23-1.66-1.6-1.49-2a4,4,0,0,1,2.21-2.06c4-1.09,8-1.94,13-3.09-4.42-2.32-8.07-4.13-11.6-6.15-.84-.49-1.3-1.65-1.94-2.51,1-.59,2-1.66,3.07-1.68C18.49,118.78,25.13,118.86,32.92,118.86Z"/><path class="cls-5" d="M193.12,263.92A84.22,84.22,0,0,0,190,255c-1.5-3.17.21-3.75,3.17-4.23,2.48,6.83,5,13.76,7.63,20.95-4.49,3.07-6.56-1.52-9.39-2.86-3.1-1.48-5.85-3.7-9.75-6.24,1.8,5.21,3.26,9.45,4.78,13.84-2.47,1.76-4.14,2.29-5.27-1.46-1.57-5.22-3.72-10.26-5.45-15.43-.34-1,.13-2.32.23-3.49,1.2.18,2.6,0,3.57.61,4.27,2.54,8.41,5.28,12.6,8l.93.76Z"/><path class="cls-6" d="M240.83,75.54c-5.84.08-11.08-4.89-11.14-10.58-.08-6.45,6-12.48,12.55-12.45a11.24,11.24,0,0,1,10.88,10.88C253.08,69.61,247.18,75.44,240.83,75.54Zm7.61-12.11a5.88,5.88,0,0,0-6.26-6.22,7.89,7.89,0,0,0-7.66,7.68c0,3.86,2.2,5.76,6,5.81A7.69,7.69,0,0,0,248.44,63.43Z"/><path class="cls-5" d="M57.17,52.62l8.56,10.43-4.41,2.28.13.13-1.1-1.13.11.07L46.92,47.49C54.41,45.09,60.68,50,68,49.43L58.8,38.78,62,35.68l15.8,18.18c-7.49,2.19-13.6-1.6-19.92-2l-1.24-.17Z"/><path class="cls-5" d="M122,34.74c-8.21-1.74-12.33-8-18.94-11.26,1.36,4.79,2.59,9.12,3.91,13.75l-4.2,1.53c-2.18-7.41-4.25-14.48-6.4-21.81,4.5-2.64,6.41,1.83,9.16,3.42,3,1.73,5.64,4,9.39,6.78-1.22-4.24-2-7.52-3.14-10.67-1-2.89-.66-4.55,3.35-4.41C117.21,18.84,119.36,25.91,122,34.74Z"/><path class="cls-7" d="M147.11,283.53c-6.44,0-11.23-5.12-11.2-12,0-6.47,5-11.64,11.1-11.63,6.31,0,11.38,5.43,11.27,12.05S153.28,283.51,147.11,283.53Zm.1-19.24c-3.53-.08-6.76,3.34-6.74,7.16,0,3.63,3.34,7.66,6.4,7.75,3.24.11,6.49-3.51,6.66-7.39S150.7,264.37,147.21,264.29Z"/><path class="cls-8" d="M163.26,8.12c6.68,4.83,7,12.62,11.61,18.23,1-4.79,1.87-9.07,2.75-13.35l1.31-.87c.84,1.27,2.56,2.68,2.39,3.8-1,6.52-2.45,13-4,20.68-6.73-4.92-6.94-12.84-11.54-18.3-1,4.83-1.95,9.27-2.94,14l-4.24-1C160.1,23.83,161.56,16.59,163.26,8.12Z"/><path class="cls-7" d="M211.68,31.76c0,6.71-5.32,12.5-11.62,12.54a10.91,10.91,0,0,1-10.87-11.25c.07-6.68,5.65-12.47,11.88-12.33A11,11,0,0,1,211.68,31.76Zm-4.43-.2c-.4-3.26-1.82-6-6-6.23a7.17,7.17,0,0,0-7.26,7.3c0,3.58,1.06,6.75,5.44,7C203.29,39.78,207.11,35.94,207.25,31.56Z"/><path class="cls-7" d="M146.44,8.17c6.34,0,11,4.86,11.08,11.57s-4.47,11.77-10.75,11.89c-6.55.13-11.43-4.92-11.39-11.79C135.41,13.24,140.2,8.2,146.44,8.17Zm6.67,11.41c-.08-3.79-3.4-7.24-6.84-7.11s-6.46,3.79-6.28,7.59,3.53,7.46,6.75,7.28S153.19,23.11,153.11,19.58Z"/><path class="cls-6" d="M276.34,128.18c0-1.56-.45-3.3.09-4.64,1.67-4.13.39-7.8-4-8.14a14.07,14.07,0,0,0-9,2.51c-3.87,3-1.95,7.34,3.19,8.53l2-5.2,1.66.42,2,9c-7.33,1.49-12-.51-13.94-5.72-1.81-5,.1-10,4.83-12.82,5.38-3.15,12.44-2.17,15.93,2.22s3,9.24-1.12,13.88Z"/><path class="cls-6" d="M84.52,264.4l-7.39,1.79-.67-1.65c5.51-5.21,11-10.47,16.59-15.57a3,3,0,0,1,3-.19,4.69,4.69,0,0,1,1.07,3.34c-.59,7-1.37,13.91-2.11,21.18-2.34-.65-4.27-.58-4.32-4.4,0-2-3.63-4.06-5.62-6.09Z"/><path class="cls-9" d="M61.32,65.33c-1,1.35-2.58,4-2.79,3.86-5.2-2.68-6.46,2-8.35,3.81v8.33l-1.56.13c-4-6.88-8-13.75-12.69-21.8,2.21-.32,4-1.09,5.41-.68,4.94,1.4,9.75,3.29,14.66,4.84a24.3,24.3,0,0,0,4.46.58l-.11-.07,1.1,1.13Z"/><path class="cls-5" d="M229.39,255.41c-1.57.16-3.37.89-4.68.38-4.88-1.9-8.35.45-8.52,5.75-.05,1.42-1.48,2.79-3.48,3.89-1.72-7.3-3.5-14.58-5.09-21.9-.18-.83.55-2.53,1.17-2.7a4.68,4.68,0,0,1,3.47.63c5.82,4.08,11.53,8.32,17.27,12.5Z"/><path class="cls-6" d="M170.61,271.31l7.16,7.56c-6.57,3.78-7.43-3.49-11.42-5.43l1.13,7.36c-2.53,1.4-4.33,1.55-4.9-1.92-1-6.2-2.15-12.37-3.31-18.95,4.61-.41,9.31-3.69,13,1C175.06,264.5,174.52,268.38,170.61,271.31Zm-5-2.19,1.21.51c.87-1.54,2.56-3.21,2.35-4.6-.17-1.19-2.52-2-3.91-3.06l-1,1.11Q164.88,266.11,165.58,269.12Z"/><path class="cls-1" d="M246.34,199.37c3.62,2.12,6.66,4.1,9.89,5.7,1.28.64,3,.22,4.47.66a6,6,0,0,1,2.75,2,37.91,37.91,0,0,1,2.61,4.9l-6.32,1.76L254.9,222c-3.73-6.73-7.14-12.63-10.2-18.71C244.31,202.46,245.71,200.78,246.34,199.37Z"/><path class="cls-10" d="M102,38.39c-3.32,4.17-5.33.84-7.6-.91-3,2-7.78,2.18-6.48,7.84.13.57-2,1.67-3.81,3.06-.93-8.25-1.81-15.6-2.49-23a3.63,3.63,0,0,1,1.57-2.65,2.7,2.7,0,0,1,2.53.43C91.24,28.2,96.64,33.32,102,38.39ZM91.31,35.22l-5.53-5.74c.53,2.68,1,5,1.49,7.57Z"/><path class="cls-11" d="M250.37,188.81c6-4,5.22,2.49,6.85,3,2.71-1.63,4.83-3.73,7.27-4.21,3.76-.74,6.77,1.35,8.28,4.93s.17,6.94-2.71,9.31c-3.11,2.56-6.88,2.39-9.53-.34C256.89,197.77,253.94,193.36,250.37,188.81Zm20.88,6.7c-3-1.66-4.63-3.21-6.38-3.32-1.09-.06-2.32,2-3.49,3.17,1.52,1.28,2.88,3.11,4.63,3.62C267,199.27,268.59,197.35,271.25,195.51Z"/><path class="cls-11" d="M253.41,99.53l18.92-5.84c4.69,8.21,4.84,10,.69,11.43l-2.49-6.18-4.39,1.49c.77,2.15,1.42,4,2.21,6.2l-3.44,1.58L262.3,102l-4.95,1.71c1.29,6.77,1.29,6.77-2,8.12-1.2-4.09-2.39-8.11-3.58-12.14Z"/><path class="cls-10" d="M24.73,209.91l7.16.43c.33-2.73,0-5.66,1.11-7.85a7.18,7.18,0,0,1,8.86-3.68c3.77,1.08,5.69,3.9,5.84,7.74s-2,6.8-5.49,7.25c-5,.64-10.19.25-15.27,0C26.31,213.76,25.78,211.83,24.73,209.91Zm20.85-3.27c-2.4-1.91-4-3.94-4.79-3.66-1.88.7-3.38,2.46-5,3.79,1,1.15,2.18,3.35,3,3.22C40.68,209.67,42.45,208.28,45.58,206.64Z"/><path class="cls-11" d="M270,138.4l-5.26.6a38.72,38.72,0,0,1-.07,5.1c-.11.76-.94,1.42-1.44,2.12-.79-.61-2.18-1.14-2.27-1.83-.39-3.09-.4-6.22-.57-9.73l22.39-1.28c.25,4,.47,7.62.71,11.56-6.28,1-3-4.07-4.83-6.31h-4.09v6C271,145.34,271,145.34,270,138.4Z"/><path class="cls-6" d="M228.21,58.13c-2.51,4.84-5.25,3.68-8,1.36-4.63-4-4.84-11.19-.55-16.1s11.52-5.67,16.05-1.72c2.63,2.29,3.95,4.59,1.66,6.14-4-1.57-7.19-3.89-10.25-3.72-3.6.19-5.85,3.57-5.94,7.5C221.1,55.94,224,57.62,228.21,58.13Z"/><path class="cls-9" d="M82.81,248.67c-1.72-4.16-4.32-6.41-8.34-5A8,8,0,0,0,68.59,252c.2,4.36,3.3,5.78,7.32,6-1.21,4.38-3.79,4.52-7,2.4-3.86-2.55-5.3-6.27-4.65-10.76a12,12,0,0,1,8.49-10.12c4.09-1.42,7.78-.33,11,2.6C86.59,244.59,84.73,246.32,82.81,248.67Z"/><path class="cls-8" d="M38.15,88.82c1.05-.39,2.43-.5,3.08-1.24.82-.94,1.05-2.4,1.53-3.64-1.4-.52-2.93-1.66-4.16-1.4-1.66.36-3,2-4.65,2.73a6.32,6.32,0,0,1-8.48-3.74c-1.17-3.2,1.17-8.22,4.31-9,.62-.15,1.82.17,2,.59a3.92,3.92,0,0,1-.17,2.42c-.5,1.63-1.14,3.21-1.71,4.8C31.63,80,33.56,79.88,35,79,39.57,76.4,43.27,76.8,46,80.58a7.16,7.16,0,0,1-1.54,9.78C41.21,93,39.32,92.58,38.15,88.82Z"/><path class="cls-11" d="M123.56,281.94c-.81-1.25-2.42-2.56-2.31-3.72.63-6.41,1.67-12.79,2.57-19.14,9.24-.11,10.85.6,10.22,4.71-.93-.09-1.87-.19-2.82-.26s-2-.12-3.36-.2c-.19,1.45-.37,2.81-.58,4.36l5.55,1.13c-.09,3.77-.09,3.77-6.13,3.14-.53,3-1.06,6-1.59,9Z"/><path class="cls-1" d="M19.05,105.85l16.27,5.09L34,115.05,17.7,110.23l-5.37,3.64-1-1.22a75.3,75.3,0,0,1,2.38-8c.63-1.54,2-2.78,3.06-4.15Z"/><path class="cls-5" d="M133.1,10.54,128.77,15c.64,4.73,1.44,10.59,2.27,16.73l-4.25.83c-.92-6.09-1.8-11.94-2.73-18.09h-4.31c0-4.29,0-4.29,12.05-5.19Z"/><path class="cls-9" d="M248.51,89.33c-1.46-.84-3.19-1.43-4.32-2.6-1.36-1.38-2.22-3.25-3.7-5.55l18.85-12.06c.85,1.28,1.6,2.41,2.48,3.71l-15.4,9.88c1,2,2,3.83,2.9,5.69l.12-.08-1.1,1.15Z"/><path class="cls-9" d="M98.51,274.71c2.43-7.37,4.66-14.1,7-21.21l4.19,1.24c-1.88,5.88-3.69,11.5-5.46,17a5,5,0,0,0,.67.91c1.45,1.2,2.92,2.37,4.38,3.55a39.74,39.74,0,0,1-6,.1A25.31,25.31,0,0,1,98.51,274.71Z"/><path class="cls-6" d="M253.41,99.53l-1.61.14c-2.19-3.09-6.05-5.66-3.29-10.34l-.17.14,1.1-1.15-.12.08c3.93-1.64,7.86-3.24,11.76-4.92,1.66-.71,3.25-1.6,5.29-2.61l2.35,3.75-15.8,8C253.1,95.11,253.25,97.32,253.41,99.53Z"/><path class="cls-11" d="M18,194.63c3.52-1.4,7.11-2.64,10.55-4.23,2.36-1.09,6.19-.71,5.87-5,1.19,0,3-.41,3.45.17,1,1.39,1.36,3.27,2.07,5.23-6.38,2.54-12.43,5.1-18.63,7.25-1,.36-2.67-1.13-4-1.77Z"/><path class="cls-10" d="M59.05,231.4c-2.12,1.61-4,4.15-6.39,4.62-3.26.66-5.66-1.85-5.85-5.21s2.06-6,5.35-5.67c2.38.27,4.53,2.58,6.78,4Z"/><path class="cls-9" d="M27.85,166.76c-2.24,1.5-4.37,4-6.74,4.25a4.68,4.68,0,0,1-5.23-5.72c.51-2.1,3.47-4.94,5.42-5,2.14-.08,4.4,2.62,6.6,4.11Z"/><path class="cls-10" d="M275.73,168.7c-2.23,1.5-4.34,4-6.71,4.25-3.31.38-5.54-2.28-5.38-5.79.15-3.25,2.44-5.66,5.52-5.12,2.39.43,4.43,2.8,6.63,4.31Z"/><path class="cls-9" d="M195.32,249.11l4-2c3.44,6.74,6.75,13.2,10.07,19.68-2.3,2.33-3.94,2.56-5.51-.82C201.22,260.33,198.23,254.82,195.32,249.11Z"/><path class="cls-3" d="M243.57,233.19c-2.18,1.45-4.43,4.11-6.53,4-1.94-.11-4.83-2.91-5.32-5a4.58,4.58,0,0,1,5.24-5.59c2.34.3,4.41,2.67,6.6,4.12Z"/><path class="cls-5" d="M116.71,257.12l4.38.85c-1.73,7.29-3.38,14.27-5.12,21.65l-4.38-.91C113.31,271.45,114.94,264.6,116.71,257.12Z"/><path class="cls-10" d="M186.93,15.1l4.14,1.6c-2.38,7.11-4.68,14-7.06,21.08l-4.1-1.61C182.27,29.08,184.55,22.23,186.93,15.1Z"/><path class="cls-12" d="M229.29,138.11l-3.89.44-2.44,1a.67.67,0,0,0-.38.36l-2.18,2.5-12.15,3.89v-15H187.74c0,6.75.08,14.45-.06,22.15,0,1.66-.83,3.3-1.28,4.95-7.91,3.93-15.84,7.83-23.71,11.84-.65.33-.92,1.43-1.37,2.17l-2.16,1.07-4.83.87-6,3.67-9,5.26,1,1.91,11.39-5.74h2.18l10.07-5,3.37-2.36,16.3-6.54,5-1.55v36.66c-3.19-1.88-6.82-3.54-9.88-5.91-9.39-7.27-18.66-6.69-28.65.17-3.75-6.77-11.38-6.08-17.21-9.07-6.78-3.47-12.87-8.26-19.33-12.36a40.45,40.45,0,0,0-5.18-2.36l-.7,1.07,19.59,17.95-4.78,3c-7.92-7.19-14.14-16-22.41-22.41l-1.46,1.46,15.56,25.6L105.34,202c-3.44-9.27-6.69-18.25-10.19-27.14-.57-1.44-2.26-2.43-3.44-3.63l-1.14,1c2.07,10.53,4.15,21.06,6.17,31.34L87,205.64V172.06l-1.91-.79c-.86,1.18-2.3,2.28-2.49,3.56-1.54,10.88-3.2,21.77-4.09,32.71-.5,6.07-3.19,9.75-9.86,12.68,2.06-16.88,7.32-32.29,9.86-48.17l-1.24-.88c-1.16,1.31-2.74,2.45-3.42,4-4.72,10.61-9.24,21.3-13.88,32.1-4.14-3.3-4.94-6.61-2.16-11.44,4.38-7.58,8-15.62,11.89-23.47l-1-1.11c-1.44,1.08-3.22,1.9-4.26,3.27-4.5,5.94-8.79,12-13.16,18.07l-1.61-.37c.3-1.85.06-4.07,1-5.49,3.3-5,7-9.66,11.29-15.45-7.9,1-10.3,7.78-15.53,10.86-2.61-2.57-.66-4,1.47-5.57a17,17,0,0,0,5-5.19l-10.19,2.11c-1-7.06-3-14.22-3-21.36.11-10.58,1.6-21.16,2.62-31.73.41-4.19,2.32-7.36,6.45-9.2,2.82-1.26,5.32-3.23,8.38-5.15l3.28,7.43-8.08-.75c1.26,6.44,4.32,12.71,2.14,20.27q2.54-3.3,5.06-6.62l.27.11.27-.11.53,1,.73-1-.16.06,2.33.12c.63,12.16,6,20.59,16.88,25.89,4.68,2.29,8.78,5.78,13,8.63-.67-1.44-1.3-3.94-2.77-5.74-3.68-4.49-7.92-8.52-11.61-13-2.85-3.47-5.39-6.83-9.69-9.06-4.56-2.36-3.91-7,.25-10,2.56-1.78,4.68-4.19,7-6.32,7.65-7.09,15.25-14.24,23-21.2,1.11-1,3-1.07,4.61-1.58l1,2.22c-.39,7.57-.06,14.76,6.39,20.39,2.45,2.14,3.79,5.57,5.64,8.41l-1,.92-15.55-13.54c0,2.14-.7,4.46.14,5.82,2.14,3.46,5,6.45,7.5,9.73a30.33,30.33,0,0,1,4.35,7.65,51,51,0,0,1-25.76-24.07l-1.37.9c2.37,5.92,4.76,11.83,7.08,17.77,1.78,4.58,4.48,8.24,9.09,10.39,1.07.51,2.42,1.88,2.45,2.89.23,6.46.12,12.94.12,20,5-7.09,13.15-4.72,19.69-4.45,6.74.27,13.31,4.78,19.92,7.43l-3.6-7.34,8.37,5.88,1.35.83-.67-1.71c-1.41-1.57-2.81-3.15-4.23-4.71-.21-.24-.51-.41-.72-.66-2.93-3.6-2.1-20.25,1.53-23.88l-4.27-.61-.14-1.39c2.91-.19,5.9-.85,8.68-.33,1,.18,1.91,3.2,2,5,.52,8,3.53,12,10.95,14.58a53.88,53.88,0,0,1,6.72,3.34c1.05-4.26-5.19-16.31-15.09-30.88,2,1.62,4.09,3.13,6,4.89,3.3,3.13,6.77,5.71,11.26,2.55,1.6-1.12,2.51-3.23,4.34-5.69l5.81,11.67,1,0-3.87-15,4.69,5,1.26-.56c-2.21-4.66-4.41-9.32-6.45-13.64l5-1.26c-.56-1.85-1-3.74-1.71-5.53-1.39-3.51-2.92-7-4.23-10-6.24-3.66-13.44-4-19.8-8.31-5.08-3.42-12.66-3.18-19.15-4.44-3.85-.74-8-.6-11.57-2-12-4.57-22.93-.89-33.9,3.43-.31.12-.57.4-.89.45-17.37,3-29.07,17.07-44.9,23.06-.46.17-.93.3-1.42.46,6.42-25.52,36.47-62.49,83.66-69.24,49.08-7,95.28,20,114.23,67.17a76.46,76.46,0,0,0-7.67-2.6c-1.28-.31-2.75.21-4.13.35a68.07,68.07,0,0,0-8.61.92c-3.09.71-2.37,2.5.19,4.78l-5.7,1.37c.5-2.34,1-4.69,1.79-8.47l-9.2,7.85,7.26,1.85c6.25,2.24,12.45,5.61,19,1l-4.78-9.36c1.36.88,3,1.5,4,2.7,3,3.6,4.95,8.15,10.25,9.29.71.15,1.36,1.82,1.58,2.88,8.71,41.38-2.38,76.47-33.55,105.13a6,6,0,0,1-1.25.79c-.12.06-.32,0-1.11-.07,1.2-6.14,2.39-12.21,3.64-18.63l-11.46-.93c1-4.09,1.7-7.87,3-11.41,1.67-4.53,3.79-8.91,5.89-13.27.4-.83,1.58-1.29,2.4-1.91q-2,4.94-4.11,9.86l1.25.68c1.68-2.71,3.53-5.32,5-8.14,1.14-2.19.12-3.13-2.26-2.55.58-1.45,1.17-2.91,1.76-4.36l4.19.91c.88-1.57,1.64-2.92,2.58-4.61l-4.33-.44,4.8-7.59v6.42l1.17.34q2.79-5.4,5.56-10.81l1.05-2.22-.05.05,4.93-9.14-1.95-.94.9-4-.07-1c.48-1.15.7-2.53,1.49-3.4,3.2-3.53,6.58-6.89,9.9-10.32l-1.38-1.76c-1.29.48-2.87.63-3.82,1.49-3.46,3.12-6.7,6.48-10,9.75Zm-23.61-29.56c1.93-3.32,4.72-6.43,5.63-10,2.28-9.06-3.78-14.54-9.89-19.67-7.85-6.57-8.42-8.78-4.26-17.6-6.89,3-9.31,7.09-8.74,14.12.26,3.29,0,6.61,0,11L184,83.52c-3.7,8-3.37,15.13,2.09,21.76C191.93,112.78,198.51,113.88,205.68,108.55Zm-19.15,2.21c0,3.27-.06,5.87,0,8.47.23,8.67,3.72,11.67,12.57,10.8,1.32-.13,2.62-.45,3.93-.69,4-.76,6.59-2.48,6.11-7.26-.37-3.71-.08-7.49-.08-11.68C201.79,116.25,194.31,116.53,186.53,110.76ZM211.8,121c-1.13,4.73-.75,5.66,2.07,5.35,3.69-.4,7.37-.87,12.56-1.5Zm3.87-21.5,0,1.22h2.91v-1Z"/><path class="cls-13" d="M192.67,220.24l2.46-4.81.1-1.05c2-3.42,4.24-6.08,8.91-4.46,2.47.86,5.17,1.06,8.18,1.63-1.17,5.49-2.06,11-3.55,16.37-1.34,4.8-5.49,6.79-9.93,8-11.07,3.11-21.76,1.63-32.17-2.84-4.89-2.1-9.61-4.75-14.68-6.21-6.59-1.91-13.45-2.9-20.38-4.32,5.65-7.25,11.37-15.62,18.16-23s16.42-8,25.08-2.92c3.3,1.93,6.61,3.85,10,5.61s6.85,3.28,10.49,5c-1.69,3.06-3.34,6.05-5,9l-3.36,8.3,2.29.87c2.51,2.3,9,1.8,14.16-1.92l-14.23,2ZM159,215.18a30.4,30.4,0,0,0-15.52-2.47l-.06,1.32,14,2.28c3.75,1.72,7.48,3.47,11.26,5.14,4.35,1.92,8.71,3.83,13.13,5.58.71.28,1.76-.29,2.52-.44-5.47-2.58-10.62-5.06-15.83-7.43C165.36,217.74,162.14,216.5,159,215.18Zm12.37,15.3c9.42,4.1,19.74,4.29,30.22,0Zm-31.65-11.27,27.17,7.84C163.51,221.79,146.16,217,139.68,219.21Zm28.5-12.05c-2.94-4.32-13.49-6.5-17.77-3.61ZM164,211.35c-2.37-3.8-11.94-5.52-17.29-2.66Zm-7.48-11.9,17,3.57C167.63,198.62,162.39,197.34,156.54,199.45ZM184,222l.52-1.81-15.47-6-.56,1.48Z"/><path class="cls-14" d="M145.74,196.36l-24.45,28.13c-6.52-6.68-13.61-6.07-21.06-2.25-3.09,1.58-6.36,2.84-9.5,4.34-6.71,3.2-11.86,1.3-15.93-5.17,5.17-4.26,10.54-8.69,15.92-13.09.37-.31.85-.76,1.26-.73,12.76,1,22-7.25,32.45-12.33,2.68-1.3,5.26-2.92,8.07-3.82C138.42,189.54,141.49,190.74,145.74,196.36Zm-40.33,20.91,15.33,1c-4.08-3.82-9.37-4.83-15.33-2.71l-17,7.39.69,1.6Zm17-5.28c-3.29-4.41-11.18-5.06-16.91-1.33Zm-40.1,7.91c6,1.37,10.79-1.42,15.39-4.91Zm38.39-19.46,12.4,3.3C129.39,199.27,125.31,198.73,120.74,200.44Z"/><path class="cls-15" d="M99.6,240.38c6,.08,11.73-4.13,17.92-.06,1.5,1,4.17.26,6.29.17,2.59-.11,5.3-1,7.75-.48,11.57,2.32,23.08,5,34.6,7.54a25.85,25.85,0,0,1,2.81,1.13C144,253.81,121.34,251.11,99.6,240.38Z"/><path class="cls-13" d="M138.27,89.38c4,3.14,4.92,6.34,2.16,10.07-1.93,2.59-5.06,4.29-7,6.89a117.22,117.22,0,0,0-7.63,12.29c-.29.52.58,1.7,1,2.68l3.47-6.24,1.75.53c-4.68,5.7-2.81,12-2.76,18.1,0,2.63-1.21,5.43-2.48,7.83-.51.95-2.66,1-4.06,1.52a20.55,20.55,0,0,1,.13-4.16,13.66,13.66,0,0,1,1.83-3.27l-3.69-.35a4.4,4.4,0,0,1,.12-.74c1-2.53,3.19-5.31,2.72-7.53-1.46-6.85.06-13,2.35-19.27.37-1,0-2.26,0-4.16l7.49-8.81-3.42-1.09c1.14-3.37,3.34-4.79,6.74-4.48Z"/><path class="cls-2" d="M221.34,155.51l3.36,3-17.92,30-.76-.25c.45-10.37.57-20.78,1.63-31.1.23-2.19,3.88-4,5.39-5.49l8.29,3.88Z"/><path class="cls-14" d="M164.75,112.27c-.33,4.79-5.22,8.53-11.34,8.92,2.4-3.06,7-4.79,5-10.07-.28-.74,3.07-2.86,4.58-4.2-1.63-3.59-3.28-7.19-4.92-10.79l1.82-1c3.21,3.84,9.83,4.06,9.75,11.69C169.59,111,168.63,112.19,164.75,112.27Z"/><path class="cls-16" d="M105.35,96.38l-1-2.22c3.34-2.47,7.11-5.47,11.09-2.9,2.52,1.63,3.72,5.38,5.33,8.29.27.48-.39,1.48-.86,3l-4.36-3.31-.92-.86,0,1.45,1.89,5.44-.61.51c-.53.47-1.54,1-1.49,1.41a38.62,38.62,0,0,0,1.18,4.8l-1.18.41c-1.66-4.17-3.13-8.44-5.09-12.46C108.6,98.46,106.71,97.55,105.35,96.38Z"/><path class="cls-14" d="M127.16,88.36l-8.81-2.6-23.48,8.8c2.1-5,4.73-9.72,10.26-9.93C112.26,84.36,120.47,77.21,127.16,88.36Z"/><path class="cls-17" d="M161.32,172.43c.45-.74.72-1.84,1.37-2.17,7.87-4,15.8-7.91,23.71-11.84l2.19,3.17c-1.5.39-3,.45-4,1.14-.66.46-.68,1.84-1,2.81l-16.3,6.54Z"/><path class="cls-18" d="M60.22,126.36l-.27.11-.27-.11c-.28-.36-.9-.85-.81-1,3.39-7.72,3.56-17,11.61-22.51,2.79-1.9,3.93-1.2,5,.46l-4.35,8.13c-3.34-2.38-4.82.34-6,3.85-1.22,3.74-2.54,7.44-3.82,11.16l.16-.06Z"/><path class="cls-19" d="M231.42,159.64q-2.78,5.42-5.56,10.81l-1.17-.34v-6.42l.06-.07a18.34,18.34,0,0,0,2.15,1.23c.11,0,.53-.64.81-1l-2.12-1.45q2.88-4.54,5.78-9.09c4.91.22-.69,3.11,1,4.14l.05-.05Z"/><path class="cls-17" d="M232.42,157.47c-1.74-1,3.86-3.92-1-4.14l4-5.94,1.95.94Z"/><path class="cls-20" d="M189.28,225.5l-2.29-.88,3.36-8.3,2.32,3.92-3.46,5.33Z"/><path class="cls-21" d="M221.33,155.49l-4.5-4.67.72-1,4.44,2.2.08,0,2.37,1.08.22.15.27,0,2.2,1.46a6.89,6.89,0,0,1-2.26,1.17,17.11,17.11,0,0,1-3.53-.35Z"/><path class="cls-22" d="M138.27,89.38,137,89.19l-4.82-3.26,14,1.13,0,1.26Z"/><path class="cls-19" d="M215.69,179.78c2.38-.58,3.4.36,2.26,2.55-1.46,2.82-3.31,5.43-5,8.14l-1.25-.68q2.07-4.93,4.11-9.86A1.74,1.74,0,0,1,215.69,179.78Z"/><path class="cls-22" d="M218.76,146.71q-5.43,2.7-10.84,5.42l-.84-1.56,10.71-5.65Z"/><path class="cls-19" d="M219.89,171.28l4.33.44c-.94,1.69-1.7,3-2.58,4.61l-4.19-.91Z"/><path class="cls-9" d="M229.29,138.11l3.1,0,3.84,4.24.07,1Z"/><path class="cls-23" d="M220.4,142.41l2.18-2.5-2.19,4.49C220.4,143.73,220.4,143.07,220.4,142.41Z"/><path class="cls-12" d="M225.59,162.42l2.12,1.45c-.28.34-.7,1-.81,1a18.34,18.34,0,0,1-2.15-1.23Z"/><path class="cls-23" d="M224.93,153.23l-.27,0-.23-.15L222.07,152l-.08,0,2.45-2C224.6,151.1,224.76,152.17,224.93,153.23Z"/><path class="cls-23" d="M223,139.55l2.44-1c-.2.69-.39,1.38-.59,2.07Z"/><path class="cls-23" d="M221.15,148.48l-1-.8c.3-.31.55-.78.91-.88s.64.38,1,.6Z"/><path class="cls-20" d="M195.23,214.38l-.1,1.05-2.12-.26,0-.61Z"/><path class="cls-16" d="M116.52,105.28l.85,1.19-1.46-.68Z"/><polygon class="cls-23" points="220.39 144.4 220.16 144.81 219.98 144.63 220.39 144.4"/><path class="cls-2" d="M193.12,263.92l-.07,1.52-.93-.76Z"/><path class="cls-2" d="M248.44,63.43a7.69,7.69,0,0,1-8,7.27c-3.76,0-6-2-6-5.81a7.89,7.89,0,0,1,7.66-7.68A5.88,5.88,0,0,1,248.44,63.43Z"/><path class="cls-2" d="M61.45,65.46l-1.1-1.13Z"/><path class="cls-2" d="M57.17,52.62l-.55-.92,1.24.17Z"/><path class="cls-2" d="M147.21,264.29c3.49.08,6.48,3.64,6.32,7.52s-3.42,7.5-6.66,7.39c-3.06-.09-6.39-4.12-6.4-7.75C140.45,267.63,143.68,264.21,147.21,264.29Z"/><path class="cls-15" d="M207.25,31.56c-.14,4.38-4,8.22-7.82,8-4.38-.22-5.41-3.39-5.44-7a7.17,7.17,0,0,1,7.26-7.3C205.43,25.52,206.85,28.3,207.25,31.56Z"/><path class="cls-15" d="M153.11,19.58c.08,3.53-3.25,7.58-6.37,7.76s-6.56-3.43-6.75-7.28,2.85-7.46,6.28-7.59S153,15.79,153.11,19.58Z"/><path class="cls-18" d="M165.58,269.12q-.71-3-1.39-6l1-1.11c1.39,1,3.74,1.87,3.91,3.06.21,1.39-1.48,3.06-2.35,4.6Z"/><path class="cls-21" d="M91.31,35.22l-4,1.83c-.51-2.58-1-4.89-1.49-7.57Z"/><path class="cls-14" d="M271.25,195.51c-2.66,1.84-4.27,3.76-5.24,3.47-1.75-.51-3.11-2.34-4.63-3.62,1.17-1.13,2.4-3.23,3.49-3.17C266.62,192.3,268.27,193.85,271.25,195.51Z"/><path class="cls-16" d="M45.58,206.64c-3.13,1.64-4.9,3-6.84,3.35-.8.13-2-2.07-3-3.22,1.65-1.33,3.15-3.09,5-3.79C41.56,202.7,43.18,204.73,45.58,206.64Z"/><path class="cls-2" d="M249.44,88.32l-1.1,1.15Z"/><path class="cls-24" d="M186.12,105.28c-5.46-6.63-5.79-13.8-2.09-21.76l4.43,2.89c0-4.42.22-7.74,0-11-.57-7,1.85-11.11,8.74-14.12-4.16,8.82-3.59,11,4.26,17.6,6.11,5.13,12.17,10.61,9.89,19.67-.91,3.59-3.7,6.7-5.63,10l-1.29-1.16,3.22-4.85-1.32.12c-.86-2.78-1.73-5.56-2.54-8.18-4.13,6.76-4.74,6.82-9.4.37-3.1,6.56-5.57-.36-9.08-.55,1.7,2.91,3.15,5.34,4.49,7.85.07.13-.89.81-1.37,1.24Z"/><path class="cls-24" d="M186.53,110.76c7.78,5.77,15.26,5.49,22.54-.36,0,4.19-.29,8,.08,11.68.48,4.78-2.11,6.5-6.11,7.26-1.31.24-2.61.56-3.93.69-8.85.87-12.34-2.13-12.57-10.8C186.47,116.63,186.53,114,186.53,110.76Z"/><path class="cls-23" d="M218.37,112.51l5.7-1.37c-2.56-2.28-3.28-4.07-.19-4.78a68.07,68.07,0,0,1,8.61-.92l-.09-.08,4.78,9.36c-6.51,4.63-12.71,1.26-19-1Z"/><path class="cls-23" d="M236.23,142.37l-3.84-4.24c3.33-3.27,6.57-6.63,10-9.75,1-.86,2.53-1,3.82-1.49l1.38,1.76c-3.32,3.43-6.7,6.79-9.9,10.32C236.93,139.84,236.71,141.22,236.23,142.37Z"/><path class="cls-25" d="M204.39,107.39l1.29,1.16c-7.17,5.33-13.75,4.23-19.56-3.27l2.27-1.89C191.06,109.66,197.17,111.18,204.39,107.39Z"/><path class="cls-1" d="M211.8,121l14.63,3.85c-5.19.63-8.87,1.1-12.56,1.5C211.05,126.65,210.67,125.72,211.8,121Z"/><path class="cls-20" d="M151.73,179.47l-11.39,5.74-1-1.91,9-5.26Z"/><path class="cls-26" d="M218.37,112.51l-.15,1.23L211,111.89l9.2-7.85C219.36,107.82,218.87,110.17,218.37,112.51Z"/><path class="cls-21" d="M151.73,179.47,148.31,178l6-3.67,1.1,1.26v1.53l-1.51,2.31Z"/><path class="cls-25" d="M153.91,179.47l1.51-2.31,2-1.77-.09.05,6.61-1Z"/><path class="cls-19" d="M164,174.44l-6.61,1,1.79-1.94,2.16-1.07,6-.35Z"/><path class="cls-27" d="M159.16,173.5l-1.79,1.94.09-.05-2,.24-1.1-1.26Z"/><path class="cls-28" d="M215.67,99.49l2.87.25v1h-2.91Z"/><path class="cls-17" d="M231.42,159.64l1.05-2.22Z"/><path class="cls-3" d="M149.48,164.31l.67,1.71-1.35-.83Z"/><path class="cls-3" d="M60.22,126.36l1.26,0-.73,1Z"/><path class="cls-26" d="M171.33,230.48h30.22C191.07,234.77,180.75,234.58,171.33,230.48Z"/><path class="cls-20" d="M139.68,219.21c6.48-2.18,23.83,2.58,27.17,7.84Z"/><path class="cls-29" d="M159,215.18c3.18,1.32,6.4,2.56,9.53,4,5.21,2.37,10.36,4.85,15.83,7.43-.76.15-1.81.72-2.52.44-4.42-1.75-8.78-3.66-13.13-5.58-3.78-1.67-7.51-3.42-11.26-5.14Z"/><path class="cls-25" d="M168.18,207.16l-17.77-3.61C154.69,200.66,165.24,202.84,168.18,207.16Z"/><path class="cls-17" d="M164,211.35l-17.29-2.66C152.08,205.83,161.65,207.55,164,211.35Z"/><path class="cls-26" d="M156.54,199.45c5.85-2.11,11.09-.83,17,3.57Z"/><path class="cls-17" d="M184,222l-15.51-6.37.56-1.48,15.47,6Z"/><path class="cls-27" d="M159,215.18l-1.55,1.13-14-2.28.06-1.32A30.4,30.4,0,0,1,159,215.18Z"/><path class="cls-27" d="M189.21,225.57l14.23-2c-5.19,3.72-11.65,4.22-14.16,1.92Z"/><path class="cls-25" d="M122.45,212l-16.91-1.33C111.27,206.93,119.16,207.58,122.45,212Z"/><path class="cls-29" d="M105.41,217.27l-16.27,7.24-.69-1.6,17-7.39Z"/><path class="cls-26" d="M82.35,219.9,97.74,215C93.14,218.48,88.34,221.27,82.35,219.9Z"/><path class="cls-17" d="M105.41,217.27v-1.75c6-2.12,11.25-1.11,15.33,2.71Z"/><path class="cls-29" d="M120.74,200.44c4.57-1.71,8.65-1.17,12.4,3.3Z"/><path class="cls-3" d="M114.63,99.84l0-1.45.92.86Z"/><path class="cls-3" d="M222.07,152l2.36,1.08Z"/><path class="cls-2" d="M204.39,107.39c-7.22,3.79-13.33,2.27-16-4,.48-.43,1.44-1.11,1.37-1.24-1.34-2.51-2.79-4.94-4.49-7.85,3.51.19,6,7.11,9.08.55,4.66,6.45,5.27,6.39,9.4-.37.81,2.62,1.68,5.4,2.54,8.18l1.32-.12Z"/><path class="cls-19" d="M155.43,175.63l2-.24-2,1.77Z"/></g></g></svg>