<svg xmlns="http://www.w3.org/2000/svg" viewBox="0 0 36.15 36.15"><defs><style>.cls-1{fill:#3fbcec;}.cls-2{fill:#061d25;}.cls-3{fill:#3abded;}.cls-4{fill:#071f27;}</style></defs><title>photoshop</title><g id="Layer_2" data-name="Layer 2"><g id="Layer_1-2" data-name="Layer 1"><path class="cls-1" d="M36.15,36.15H0V0H36.15Zm-35-35V35H35V1.17Z"/><path class="cls-2" d="M1.17,1.17H35V35H1.17Zm11,19.38c.42,0,.78,0,1.15,0a4.77,4.77,0,0,0,5.17-4.72,4.16,4.16,0,0,0-3.5-4.7A27.59,27.59,0,0,0,9.83,11s0,0-.07,0V25.49h2.39Zm7.26,4.16a.46.46,0,0,0,.1.07,5.61,5.61,0,0,0,5.32.2,3,3,0,0,0,.32-5.1,10.8,10.8,0,0,0-1.43-.75c-.42-.21-.86-.39-1.28-.61a1,1,0,0,1-.53-1,1.08,1.08,0,0,1,.75-.9,2.28,2.28,0,0,1,1.46,0c.48.14.94.34,1.42.52.16-.45.3-.92.48-1.38.09-.23,0-.35-.17-.45A5,5,0,0,0,21.58,15a2.85,2.85,0,0,0-1.81,2.35,2.7,2.7,0,0,0,1.33,2.76,10.74,10.74,0,0,0,1.22.62c.42.2.85.36,1.25.58a1.2,1.2,0,0,1,.64,1.34,1.18,1.18,0,0,1-1,1,3.76,3.76,0,0,1-2.4-.33c-.26-.11-.51-.26-.79-.4Z"/><path class="cls-3" d="M12.15,20.55v4.94H9.76V11s.05,0,.07,0a27.59,27.59,0,0,1,5.14.16,4.16,4.16,0,0,1,3.5,4.7,4.77,4.77,0,0,1-5.17,4.72C12.93,20.54,12.57,20.55,12.15,20.55Zm0-7.34v5c.73,0,1.43,0,2.14,0A1.91,1.91,0,0,0,16,17.06a3.51,3.51,0,0,0,.2-2.28,1.78,1.78,0,0,0-1.64-1.56C13.81,13.15,13,13.21,12.18,13.21Z"/><path class="cls-3" d="M19.41,24.71,20,22.94c.28.14.53.29.79.4a3.76,3.76,0,0,0,2.4.33,1.18,1.18,0,0,0,1-1,1.2,1.2,0,0,0-.64-1.34c-.4-.22-.83-.38-1.25-.58a10.74,10.74,0,0,1-1.22-.62,2.7,2.7,0,0,1-1.33-2.76A2.85,2.85,0,0,1,21.58,15a5,5,0,0,1,4.27.21c.21.1.26.22.17.45-.18.46-.32.93-.48,1.38-.48-.18-.94-.38-1.42-.52a2.28,2.28,0,0,0-1.46,0,1.08,1.08,0,0,0-.75.9,1,1,0,0,0,.53,1c.42.22.86.4,1.28.61a10.8,10.8,0,0,1,1.43.75,3,3,0,0,1-.32,5.1,5.61,5.61,0,0,1-5.32-.2A.46.46,0,0,1,19.41,24.71Z"/><path class="cls-4" d="M12.18,13.21c.82,0,1.63-.06,2.42,0a1.78,1.78,0,0,1,1.64,1.56,3.51,3.51,0,0,1-.2,2.28,1.91,1.91,0,0,1-1.72,1.16c-.71,0-1.41,0-2.14,0Z"/></g></g></svg>