<svg xmlns="http://www.w3.org/2000/svg" viewBox="0 0 40.26 40.32"><defs><style>.cls-1{fill:#111;}.cls-2{fill:#6b6b6b;}.cls-3{fill:#707070;}.cls-4{fill:#0a0a0a;}.cls-5{fill:#050505;}.cls-6{fill:#545454;}.cls-7{fill:#191919;}.cls-8{fill:#4b4a4a;}.cls-9{fill:#212121;}.cls-10{fill:#282828;}.cls-11{fill:#616161;}.cls-12{fill:#1c1c1c;}.cls-13{fill:#5b5b5b;}.cls-14{fill:#414141;}.cls-15{fill:#313130;}.cls-16{fill:#393939;}.cls-17{fill:#3c3d3c;}.cls-18{fill:#fdde5b;}.cls-19{fill:#fcd33b;}.cls-20{fill:#fdd644;}.cls-21{fill:#feda4f;}.cls-22{fill:#3c78aa;}.cls-23{fill:#4685b7;}.cls-24{fill:#427fb0;}.cls-25{fill:#787878;}.cls-26{fill:#356f9f;}.cls-27{fill:#316897;}.cls-28{fill:#fde773;}.cls-29{fill:#fee263;}</style></defs><title>python</title><g id="Layer_2" data-name="Layer 2"><g id="Layer_1-2" data-name="Layer 1"><path class="cls-1" d="M36.36,32c0,.05,0,.11,0,.14l-2.1,2.39s-.1-.05-.15,0a1.84,1.84,0,0,0-1,.49.32.32,0,0,1-.18.11c-.51,0-1,0-1.54-.07-.24,0-.49-.17-.56.22a.28.28,0,0,1-.21.17,3.94,3.94,0,0,1-.69.07c-.53,0-1.07,0-1.61,0-.27,0-.54,0-.82,0l-1.72-.06H22.09c-.36,0-.72,0-1.07,0s-.91-.06-1.36,0c-.89,0-1.78,0-2.66,0-.49,0-1,0-1.46,0-.27,0-.54,0-.82,0-.56,0-1.12-.06-1.69,0-.92,0-1.84,0-2.76,0a1.63,1.63,0,0,1-.78-.21,1.48,1.48,0,0,0-1-.27,3.44,3.44,0,0,1-.77.09,1,1,0,0,1-.68-.27c-.27-.35-.67-.14-1-.31l0,.09a17.36,17.36,0,0,1-2.43-2.85l0-.42c.22.26.75.22.44.81a1,1,0,0,1,1.11.21,1,1,0,0,0,.45.2c.3,0,.61-.06.91-.09a1,1,0,0,1,.24,0,2.52,2.52,0,0,0,.53.08,14.43,14.43,0,0,1,1.74,0c2,0,3.9,0,5.85,0,.23,0,.46.08.68.1a1.74,1.74,0,0,0,.34,0L15.16,32h.12l1.59.73,1.07.29H18l.11,0,.28,0,.18,0c.24,0,.47.08.71.1a11,11,0,0,0,5.12-.9c0,.07.07.17,0,.2a.48.48,0,0,1-.24.11c-.14,0-.28,0-.45.06l.5.2a.4.4,0,0,0,.19,0c.37,0,.73-.06,1.1,0,1.13,0,2.26,0,3.39,0,.83,0,1.67,0,2.5,0,.3,0,.61,0,.91,0a8.28,8.28,0,0,1,1.5.09,1.49,1.49,0,0,0,1.26-.29A3.21,3.21,0,0,1,36.36,32Zm-20.12.74,0-.09L16,32.55l0,.09Z"/><path class="cls-2" d="M11,2.17c1-.42,2-.9,3.07-1.26a17.27,17.27,0,0,1,4-.82S18,.2,17.93.22s-.38.06-.56.11a4.73,4.73,0,0,1-1.9.36.54.54,0,0,0-.26.09c-.19.09-.36.2-.55.27s-.56.14-.81.26c-.76.35-1.52.71-2.26,1.11A6.36,6.36,0,0,0,9.76,3.66c-.06.07-.17.1-.23.17-.38.38-.77.75-1.12,1.17a.61.61,0,0,0,.38.88c.32,0,.65,0,1,0,.54,0,1.07.06,1.6.05.92,0,1.85,0,2.77-.05.24,0,.49.06.73.05a20.55,20.55,0,0,1,2.48,0,16.69,16.69,0,0,1,2,0,10.19,10.19,0,0,0,2.14,0c.68,0,1.36-.06,2-.06.84,0,1.68.05,2.52.05s1.41,0,2.11-.05H30.2c.3,0,.61.06.91.05a.91.91,0,0,0,.58-.18.7.7,0,0,0-.06-1c-.55-.51-1.11-1-1.68-1.49a4.46,4.46,0,0,0-.71-.45c-.46-.27-.94-.52-1.41-.78-.26-.15-.51-.31-.79-.44a7.27,7.27,0,0,0-1-.39A6.27,6.27,0,0,0,24.49.68,7.45,7.45,0,0,1,23,.39c-.1,0-.17-.15-.25-.23l1.83.37a18.35,18.35,0,0,1,5.26,2,5.11,5.11,0,0,1,.48.33c0,.07,0,.17,0,.2.19.14.4.24.59.39s.53.49.82.71a2.16,2.16,0,0,1,.72.81.9.9,0,0,0,.15.19,6.82,6.82,0,0,1,1.24,1.69,6.6,6.6,0,0,1,.2.63c.14.37,0,.55-.36.54s-.61,0-.92-.05a7.39,7.39,0,0,1-1-.13.49.49,0,0,0-.48.06.5.5,0,0,1-.45.07,1.06,1.06,0,0,0-1.18-.07c-.11,0-.27,0-.41,0a2,2,0,0,0-.41-.06c-.24,0-.48.07-.71.09a7.4,7.4,0,0,1-1.05.06,1.46,1.46,0,0,1-1-.14.39.39,0,0,0-.34.05.44.44,0,0,1-.68,0l.05-.17-.08,0L24.82,8a3.37,3.37,0,0,1-.32-.19,4.74,4.74,0,0,0-1.91-.56c-.25,0-.49-.06-.74-.07-.53,0-1.07,0-1.6,0a1.86,1.86,0,0,0-.34,0,17.93,17.93,0,0,0-4.06.46s-.09-.06-.13-.06c-.36.06-.72.11-1.08.19-.07,0-.13.14-.19.23s-.13.23-.22.4c-.08-.21-.09-.37-.17-.41a2.85,2.85,0,0,0-.7-.22c-.14,0-.29.08-.44.1a1.28,1.28,0,0,1-.39,0c-.06,0-.13-.1-.18-.1-.52.06-1.06-.14-1.56.13a.31.31,0,0,1-.26,0,.6.6,0,0,0-.68,0,.59.59,0,0,1-.35,0,3,3,0,0,0-.38-.09,5.91,5.91,0,0,0-1.5.14,5.77,5.77,0,0,1-1.68,0A4.89,4.89,0,0,1,6.18,7,6.91,6.91,0,0,1,7,5.84a11,11,0,0,1,2-2c.37-.26.6-.73,1.13-.76.05,0,.1-.09.15-.14a2.15,2.15,0,0,1,.24-.18l.72-.4,0-.08Z"/><path class="cls-3" d="M22.79.16c.08.08.15.21.25.23a7.45,7.45,0,0,0,1.45.29A6.27,6.27,0,0,1,26,1.16a7.27,7.27,0,0,1,1,.39c.28.13.53.29.79.44.47.26,1,.51,1.41.78a4.46,4.46,0,0,1,.71.45c.57.49,1.13,1,1.68,1.49a.7.7,0,0,1,.06,1,.91.91,0,0,1-.58.18c-.3,0-.61,0-.91-.05H28.15c-.7,0-1.4.05-2.11.05s-1.68-.05-2.52-.05c-.68,0-1.36.05-2,.06a10.19,10.19,0,0,1-2.14,0,16.69,16.69,0,0,0-2,0,20.55,20.55,0,0,0-2.48,0c-.24,0-.49-.05-.73-.05-.92,0-1.85.05-2.77.05-.53,0-1.06,0-1.6-.05-.32,0-.65,0-1,0A.61.61,0,0,1,8.41,5c.35-.42.74-.79,1.12-1.17.06-.07.17-.1.23-.17a6.36,6.36,0,0,1,1.83-1.24c.74-.4,1.5-.76,2.26-1.11.25-.12.54-.16.81-.26s.36-.18.55-.27a.54.54,0,0,1,.26-.09,4.73,4.73,0,0,0,1.9-.36c.18,0,.38-.07.56-.11s.1-.09.15-.13c1,0,2.09-.09,3.13-.09A14.09,14.09,0,0,1,22.79.16ZM28.07,4V4A5.29,5.29,0,0,0,29,4c.13,0,.33-.16.35-.28s-.09-.3-.2-.41a5.51,5.51,0,0,0-.57-.5,2.31,2.31,0,0,0-.36-.25c-.58-.27-1.18-.49-1.74-.8a11.92,11.92,0,0,0-2.9-1A15.62,15.62,0,0,0,20.12.48c-.42,0-.84.05-1.26.06a11.68,11.68,0,0,0-3.16.53c-.67.2-1.32.49-2,.74A7.93,7.93,0,0,0,11,3.37a.74.74,0,0,0-.18.39s.11.13.18.14A12.87,12.87,0,0,0,12.42,4C13,4,13.54,4,14.1,4c.3,0,.61.05.91.05s.8-.05,1.2-.05S16.74,4,17,4c.66,0,1.32,0,2-.06h9.09Z"/><path class="cls-4" d="M6.05,34.59l0-.09c.3.17.7,0,1,.31a1,1,0,0,0,.68.27A3.44,3.44,0,0,0,8.5,35a1.48,1.48,0,0,1,1,.27,1.63,1.63,0,0,0,.78.21c.92,0,1.84,0,2.76,0,.57,0,1.13,0,1.69,0,.28,0,.55-.06.82,0,.49,0,1,0,1.46,0,.88,0,1.77,0,2.66,0,.45,0,.9,0,1.36,0s.71,0,1.07,0h3.64l1.72.06c.28,0,.55-.06.82,0,.54,0,1.08,0,1.61,0a3.94,3.94,0,0,0,.69-.07.28.28,0,0,0,.21-.17c.07-.39.32-.24.56-.22.51,0,1,.06,1.54.07a.32.32,0,0,0,.18-.11,1.84,1.84,0,0,1,1-.49c.05,0,.1,0,.15,0l-.47.46c-.1,0-.24,0-.17.15l0,0-.16.13-2.78,2.07a3.47,3.47,0,0,1-.33.18.23.23,0,0,0-.28-.27c-.45,0-.91-.11-1.33.16a.83.83,0,0,1-.32,0H24.56a1.35,1.35,0,0,0-.34.06,1.39,1.39,0,0,1-.43.12A4.73,4.73,0,0,1,22,37.47a2.29,2.29,0,0,0-1,0,.68.68,0,0,0-.35.1.47.47,0,0,1-.53,0,.64.64,0,0,0-.47,0,.63.63,0,0,1-.55,0,1.68,1.68,0,0,0-.94,0,1.25,1.25,0,0,1-1.13,0c-.06,0-.17-.07-.21,0a1.05,1.05,0,0,1-1.07,0,.6.6,0,0,0-.19,0H12.3a1.71,1.71,0,0,1-1-.15.13.13,0,0,0-.12,0,.72.72,0,0,1-.84,0l-.2.33A18.36,18.36,0,0,1,6.05,34.59Z"/><path class="cls-5" d="M10.12,37.64l.2-.33a.72.72,0,0,0,.84,0,.13.13,0,0,1,.12,0,1.71,1.71,0,0,0,1,.15h3.24a.6.6,0,0,1,.19,0,1.05,1.05,0,0,0,1.07,0s.15,0,.21,0a1.25,1.25,0,0,0,1.13,0,1.68,1.68,0,0,1,.94,0,.63.63,0,0,0,.55,0,.64.64,0,0,1,.47,0,.47.47,0,0,0,.53,0,.68.68,0,0,1,.35-.1,2.29,2.29,0,0,1,1,0,4.73,4.73,0,0,0,1.83.16,1.39,1.39,0,0,0,.43-.12,1.35,1.35,0,0,1,.34-.06h3.81a.83.83,0,0,0,.32,0c.42-.27.88-.13,1.33-.16a.23.23,0,0,1,.28.27l-.22.12-.22.13-.78.42-.19.08a19.83,19.83,0,0,1-15.26.95c-.69-.22-1.36-.52-2-.79a1.83,1.83,0,0,1-.26-.16l-.18-.08Z"/><path class="cls-6" d="M3.35,8.93l.83-1.07.12-.07-.09-.06.42-.52c.28.09.22.27.11.45L4.09,8.78A6.43,6.43,0,0,0,3.45,11c-.05.29.09.45.39.44.49,0,1-.09,1.47-.12s.9.28,1.33,0c0,0,.06,0,.09,0,.73,0,1.46.13,2.19.16.48,0,.95,0,1.43-.06h.06a3.42,3.42,0,0,1,1.65.05.45.45,0,0,0,.28,0l.76-.11,0-.35h.07l.06.43h.06l.08-.38a.22.22,0,0,1,.08.12l.12.29a1,1,0,0,0,.13-.3c0-.24,0-.47.07-.71h0v1l0,1.41.06,0h4.77l1,0,.39.1-.08.73h-.38c-.09,0-.17-.12-.25-.12H11.9c-.09,0-.17.08-.25.12h-.13a.6.6,0,0,0-.21-.08l-1,0A7.75,7.75,0,0,1,9.23,14a17.71,17.71,0,0,0-3,.11,1,1,0,0,1-.37,0,4,4,0,0,0-.5-.07c-.72,0-1.44.06-2.15,0-.89-.09-1,0-1-1a6.28,6.28,0,0,1,.43-2.08,9.65,9.65,0,0,0,.33-1c0-.07-.06-.16-.09-.24l.22-.31.11-.21h0C3.43,9.09,3.44,9.07,3.35,8.93Z"/><path class="cls-7" d="M15.16,32l.73.64a1.74,1.74,0,0,1-.34,0c-.22,0-.45-.1-.68-.1-1.95,0-3.9,0-5.85,0a14.43,14.43,0,0,0-1.74,0,2.52,2.52,0,0,1-.53-.08,1,1,0,0,0-.24,0c-.3,0-.61.09-.91.09a1,1,0,0,1-.45-.2A1,1,0,0,0,4,32.13c.31-.59-.22-.55-.44-.81l0,.42a16.88,16.88,0,0,1-2-3.52c.29-.12.41.14.57.29s.38.42.58.63a1.38,1.38,0,0,0,1.4.56,2.37,2.37,0,0,1,.75.13c.1,0,.23,0,.29,0A.72.72,0,0,1,6,29.76a.57.57,0,0,0,.34,0,1.53,1.53,0,0,1,1.11.06.53.53,0,0,0,.33.06c.47-.05.93-.3,1.42-.07.11.05.29-.06.43-.07a1.42,1.42,0,0,1,.65,0,4.17,4.17,0,0,0,2.1.1,1.58,1.58,0,0,1,1.11.17l.09-.28h.07v.61l.14-.26.07-.27.11,0a6.17,6.17,0,0,0,.12.73,3.12,3.12,0,0,0,1,1.27l.07.09Z"/><path class="cls-8" d="M2.91,9.63c0,.08.11.17.09.24a9.65,9.65,0,0,1-.33,1A6.28,6.28,0,0,0,2.24,13c0,.95.08.87,1,1,.71.08,1.43,0,2.15,0a4,4,0,0,1,.5.07,1,1,0,0,0,.37,0,17.71,17.71,0,0,1,3-.11,7.75,7.75,0,0,0,1.12-.29l1,0a.6.6,0,0,1,.21.08,3.83,3.83,0,0,0-3.71,2.6c-.13.34-.21.69-.31,1-.18.15-.42.26-.39.57,0,.05-.11.12-.18.18l0,0,.11-.4c-.17.05-.31.16-.41.12a2.6,2.6,0,0,0-1.21,0c-.61.06-1.2-.24-1.81,0-.1,0-.23,0-.34-.05H2.89l-1,.06c-.06,0-.13-.09-.19-.14s-.19-.16-.29-.16a.28.28,0,0,1-.29-.27,10.33,10.33,0,0,1,0-3,4.31,4.31,0,0,0-.05-.71A18.67,18.67,0,0,1,2.91,9.63Z"/><path class="cls-9" d="M13.75,30.07l-.14.26v-.61h-.07l-.09.28a1.58,1.58,0,0,0-1.11-.17,4.17,4.17,0,0,1-2.1-.1,1.42,1.42,0,0,0-.65,0c-.14,0-.32.12-.43.07-.49-.23-.95,0-1.42.07a.53.53,0,0,1-.33-.06,1.53,1.53,0,0,0-1.11-.06.57.57,0,0,1-.34,0,.72.72,0,0,0-.72.06c-.06.05-.19,0-.29,0a2.37,2.37,0,0,0-.75-.13,1.38,1.38,0,0,1-1.4-.56c-.2-.21-.37-.44-.58-.63s-.28-.41-.57-.29A14.74,14.74,0,0,1,.58,25.1c.12.15.26.28.37.44s.4.62.63.91a7.14,7.14,0,0,1,.54.56.83.83,0,0,0,.87.38l2-.17a1,1,0,0,1,.24,0l.56.1c.62.12,1.24-.26,1.87,0H7.7a3.54,3.54,0,0,1,1.91,0c.08,0,.18,0,.27,0H11c.11,0,.22,0,.33,0s.44-.08.66-.08c.44,0,.89,0,1.34.06l.05.47h.08l.06-.56h.09a3.53,3.53,0,0,0,0,.46.64.64,0,0,0,.12.25Z"/><path class="cls-6" d="M35.57,7.22l1.77,2.45c-.24.06-.13.18-.06.3a2.42,2.42,0,0,1,.26.47c.17.64.34,1.28.48,1.92a3.59,3.59,0,0,1,0,1.53.4.4,0,0,1-.45.34H32.24c-.25,0-.45,0-.49.29l-.31-.34-.2.21a3,3,0,0,0-1.46-.64,2.13,2.13,0,0,0-.49-.15c-.64,0-1.29,0-1.93,0a1.23,1.23,0,0,0-.37.12l-.07,2.36-.06-1V14l-.51.06-.07-1.53,0-.51a1.46,1.46,0,0,1,.88-.2c.82,0,1.64.1,2.47,0,1.06-.1,2.12,0,3.18,0,.55,0,1.1,0,1.65,0a7,7,0,0,0,1.65,0,2.32,2.32,0,0,1,.58-.13c.26,0,.31-.12.33-.34a4.22,4.22,0,0,0-.39-1.57,12.24,12.24,0,0,0-.51-1.31A4.17,4.17,0,0,0,35.88,8c-.12-.21-.26-.42-.38-.63C35.48,7.34,35.55,7.27,35.57,7.22Z"/><path class="cls-10" d="M40.21,21.67a14.34,14.34,0,0,1-.53,3.12s-.14.07-.14.09a.48.48,0,0,1-.26.44c-.06,0-.08.14-.13.21-.47.74-.8,1.64-1.94,1.55-.11,0-.22.07-.34.08s-.26,0-.4,0H35.32c-.12,0-.23,0-.34,0a6.17,6.17,0,0,1-.62-.09c-.59-.09-1.19.23-1.78,0a.17.17,0,0,0-.12,0c-.81.36-1.66-.05-2.48.1,0,0-.06,0-.09,0h-1l-.66-.08c-.41-.07-.85.15-1.22-.11l-.16.4-.3-.1c0,.3,0,.57,0,.83a.58.58,0,0,1-.12.25l-.06-1.15-.06-.05a1.53,1.53,0,0,0-.36-.07H20.51c-.22,0-.34,0-.38-.26V26.5h9.33a1.91,1.91,0,0,0,.33-.06,2.72,2.72,0,0,0,2-1.53c.33-.7.59-1.44.88-2.16,0,.06.06.13,0,.18a5.5,5.5,0,0,1-.16.58c-.12.35-.26.69-.36,1l1.2.14a2.67,2.67,0,0,0,.4,0,1.56,1.56,0,0,1,1.16.11.41.41,0,0,0,.38-.05c.21-.14.35-.08.57,0a1.11,1.11,0,0,0,.84,0c.49-.32,1-.15,1.53-.28.25-.07.5-.12.6-.31.3-.51.54-1.07.81-1.6C39.87,22.24,40.05,22,40.21,21.67Zm-8.13,3.25-.06,0,0,.17H32Z"/><path class="cls-11" d="M13.86,10.47h0V10l-.1,0-.16.42-.09-.3c-.09,0-.15.12-.21.12-.22,0-.43-.08-.65-.08H4.82c-.45,0-.62-.21-.51-.64a5.68,5.68,0,0,1,.35-1.08A15.49,15.49,0,0,1,5.52,6.9c.18-.28.45-.52.65-.79a2.43,2.43,0,0,1,.43-.58c.18-.13,0-.2-.13-.23,1-.76,2-1.54,3-2.26A13.73,13.73,0,0,1,11,2.17l.2.06,0,.08-.72.4a2.15,2.15,0,0,0-.24.18c-.05,0-.1.14-.15.14-.53,0-.76.5-1.13.76A11,11,0,0,0,7,5.84,6.91,6.91,0,0,0,6.18,7a4.89,4.89,0,0,0-.24.81,5.77,5.77,0,0,0,1.68,0,5.91,5.91,0,0,1,1.5-.14,3,3,0,0,1,.38.09.59.59,0,0,0,.35,0,.6.6,0,0,1,.68,0,.31.31,0,0,0,.26,0c.5-.27,1-.07,1.56-.13.05,0,.12.09.18.1a1.28,1.28,0,0,0,.39,0c.15,0,.3-.12.44-.1a2.85,2.85,0,0,1,.7.22c.08,0,.09.2.17.41.09-.17.15-.29.22-.4s.12-.21.19-.23c.36-.08.72-.13,1.08-.19,0,0,.09,0,.13.06l-.28.12a2.26,2.26,0,0,0-1.42,1.12,7.83,7.83,0,0,0-.27.86l0-.15-.08,0,.09.24Z"/><path class="cls-12" d="M38.79,27.72c-.19.46-.38.92-.6,1.36s-.41.76-.62,1.13c0-.17-.12-.25-.27-.19s-.27.15-.11.33,0,.14,0,.22c-.28-.14-.26-.11-.5,0s-.56.57-1,.48a.26.26,0,0,0-.18.07,1.73,1.73,0,0,1-1.06.3H26.58a2,2,0,0,1-.51-.15c-.14-.11-.2.27-.41,0l.56-1,.19-.51v-.32l.26-.27.29,0c.22,0,.44-.06.66-.06h3.71c.8,0,1.61,0,2.41,0a5.13,5.13,0,0,1,1.83.12.42.42,0,0,0,.19,0c.25,0,.51-.07.76-.12a1.07,1.07,0,0,0,.45-.11,8.63,8.63,0,0,0,.81-.66,4.78,4.78,0,0,0,.45-.45l.35-.38Z"/><path class="cls-9" d="M38.79,27.72l-.21-.15-.35.38a4.78,4.78,0,0,1-.45.45,8.63,8.63,0,0,1-.81.66,1.07,1.07,0,0,1-.45.11c-.25,0-.51.09-.76.12a.42.42,0,0,1-.19,0,5.13,5.13,0,0,0-1.83-.12c-.8,0-1.61,0-2.41,0H27.62c-.22,0-.44.05-.66.06l-.29,0-.26.27V28.35a.58.58,0,0,0,.12-.25c0-.26,0-.53,0-.83l.3.1L27,27c.37.26.81,0,1.22.11l.66.08h1s.06,0,.09,0c.82-.15,1.67.26,2.48-.1a.17.17,0,0,1,.12,0c.59.22,1.19-.1,1.78,0a6.17,6.17,0,0,0,.62.09c.11,0,.22,0,.34,0h1.15c.14,0,.27,0,.4,0s.23-.08.34-.08c1.14.09,1.47-.81,1.94-1.55.05-.07.07-.17.13-.21a.48.48,0,0,0,.26-.44s.09-.06.14-.09a1.24,1.24,0,0,1,0,.18C39.4,25.89,39.1,26.81,38.79,27.72Z"/><path class="cls-11" d="M24.82,8l.26-.33.08,0-.05.17a.44.44,0,0,0,.68,0,.39.39,0,0,1,.34-.05,1.46,1.46,0,0,0,1,.14,7.4,7.4,0,0,0,1.05-.06c.23,0,.47-.08.71-.09a2,2,0,0,1,.41.06c.14,0,.3.09.41,0a1.06,1.06,0,0,1,1.18.07.5.5,0,0,0,.45-.07.49.49,0,0,1,.48-.06,7.39,7.39,0,0,0,1,.13c.31,0,.61.05.92.05s.5-.17.36-.54a6.6,6.6,0,0,0-.2-.63,6.82,6.82,0,0,0-1.24-1.69.9.9,0,0,1-.15-.19,2.16,2.16,0,0,0-.72-.81c-.29-.22-.54-.49-.82-.71s-.4-.25-.59-.39c0,0,0-.13,0-.2a15.39,15.39,0,0,1,3.23,2.32s0,0-.05.05l-.1,0,.1.08h0l.66,1c.32.45.66.89.94,1.37a2.29,2.29,0,0,1,.5,1.12s0,.05,0,.08c.07.31.15.63.19.94a.31.31,0,0,1-.19.24,4,4,0,0,1-.78.07h-1.7c-.65,0-1.31-.05-2-.05s-1.29,0-1.93.05h-2a.89.89,0,0,1-.28,0,.7.7,0,0,0-.79.1,3.08,3.08,0,0,0-.14-.6,6.38,6.38,0,0,0-.38-.67l-.11-.14-.33-.37Z"/><path class="cls-10" d="M13.75,27.9a.64.64,0,0,1-.12-.25,3.53,3.53,0,0,1,0-.46h-.09l-.06.56h-.08l-.05-.47c-.45,0-.9-.06-1.34-.06-.22,0-.44.06-.66.08s-.22,0-.33,0H9.88c-.09,0-.19.06-.27,0a3.54,3.54,0,0,0-1.91,0H7.64c-.63-.25-1.25.13-1.87,0l-.56-.1a1,1,0,0,0-.24,0l-2,.17A.83.83,0,0,1,2.12,27a7.14,7.14,0,0,0-.54-.56c-.23-.29-.41-.61-.63-.91S.7,25.25.58,25.1L.06,22.18a2.56,2.56,0,0,1,.35.51,8.47,8.47,0,0,0,.76,1.54c.33.46.64.8,1.26.75.46,0,.93,0,1.39,0H5.49c.09,0,.2,0,.25,0a1.41,1.41,0,0,0,1,.16c.37,0,.74,0,1.11,0a2.21,2.21,0,0,0,.43-.09c-.2-.22-.5-.33-.24-.6l.18.19a2.55,2.55,0,0,0,1.6,1.49,1.34,1.34,0,0,0,.4.16l2.7.07c.06,0,.12-.09.18-.14,0-.55,0-1.1,0-1.64l.35.52.06-.36h.09c0,.23,0,.47,0,.7a.74.74,0,0,0,.12.28V27.9Z"/><path class="cls-13" d="M26.23,10.15a.7.7,0,0,1,.79-.1.89.89,0,0,0,.28,0h2c.64,0,1.29-.05,1.93-.05s1.31,0,2,.05h1.7a4,4,0,0,0,.78-.07.31.31,0,0,0,.19-.24c0-.31-.12-.63-.19-.94,0,0,0-.05,0-.08a2.29,2.29,0,0,0-.5-1.12c-.28-.48-.62-.92-.94-1.37l-.66-1,.14-.09L35.42,7c.06.07.1.16.15.23s-.09.12-.07.15c.12.21.26.42.38.63a4.17,4.17,0,0,1,.26.46,12.24,12.24,0,0,1,.51,1.31A4.22,4.22,0,0,1,37,11.34c0,.22-.07.34-.33.34a2.32,2.32,0,0,0-.58.13,7,7,0,0,1-1.65,0c-.55,0-1.1,0-1.65,0-1.06.06-2.12-.09-3.18,0-.83.07-1.65-.05-2.47,0a1.46,1.46,0,0,0-.88.2c0-.21.05-.43,0-.64C26.32,11,26.27,10.55,26.23,10.15Z"/><path class="cls-8" d="M31.24,14.38l.2-.21.31.34c0-.24.24-.29.49-.29h5.34a.4.4,0,0,0,.45-.34,3.59,3.59,0,0,0,0-1.53c-.14-.64-.31-1.28-.48-1.92a2.42,2.42,0,0,0-.26-.47c-.07-.12-.18-.24.06-.3h0c0,.1-.12.22.09.16.16.29.33.58.48.88l.87,1.78a2.07,2.07,0,0,1,.1.33c0,.12-.15.25-.13.36A8.64,8.64,0,0,1,39,14.45a5.48,5.48,0,0,1-.24,2.17c-.05.15-.08.3-.12.47a2.07,2.07,0,0,0-1.32-.3,7,7,0,0,1-2.58-.08.54.54,0,0,0-.22,0c-.27,0-.55.1-.83.12s-.51,0-.56.46c-.19-.15-.39-.22-.45-.36a5.66,5.66,0,0,1-.22-.88l-.12.09-.73-1.29Z"/><path class="cls-14" d="M32.32,16.14l.12-.09a5.66,5.66,0,0,0,.22.88c.06.14.26.21.45.36,0-.42.3-.45.56-.46s.56-.08.83-.12a.54.54,0,0,1,.22,0,7,7,0,0,0,2.58.08,2.07,2.07,0,0,1,1.32.3c0-.17.07-.32.12-.47A5.48,5.48,0,0,0,39,14.45a8.64,8.64,0,0,0-.23-1.27c0-.11.09-.24.13-.36l.76,2.29c0,.08-.11.15-.11.23,0,.62.1,1.24.11,1.85a4.7,4.7,0,0,1-.15.9,2.13,2.13,0,0,0-.15.49,1.06,1.06,0,0,1-1.12,1.09c-.4,0-.8,0-1.2,0a5.33,5.33,0,0,1-1.42-.13,2.58,2.58,0,0,0-1.79.1.42.42,0,0,1-.31,0c-.14-.07-.27-.19-.41-.28v-.65c-.08-.22-.14-.37-.19-.53l-.3-1.05-.2-.52h0Z"/><path class="cls-15" d="M8,24.47c-.26.27,0,.38.24.6a2.21,2.21,0,0,1-.43.09c-.37,0-.74,0-1.11,0a1.41,1.41,0,0,1-1-.16s-.16,0-.25,0H3.82c-.46,0-.93,0-1.39,0-.62.05-.93-.29-1.26-.75a8.47,8.47,0,0,1-.76-1.54,2.56,2.56,0,0,0-.35-.51l0-.32.1-.09L0,21.67v-2.8c.06.12.18.24.18.36,0,.44-.09.9.25,1.27,0,0,0,.09,0,.13a3.47,3.47,0,0,0,.78,1.72.66.66,0,0,0,.35.2c.83,0,1.67.06,2.5.06s1.51,0,2.26-.05h.59l.34.15c-.22-.48-.21-.56.05-.79l.12.34.13.62a5.41,5.41,0,0,0,.12.55C7.79,23.78,7.91,24.12,8,24.47Z"/><path class="cls-16" d="M33.09,19.38c.14.09.27.21.41.28a.42.42,0,0,0,.31,0,2.58,2.58,0,0,1,1.79-.1,5.33,5.33,0,0,0,1.42.13c.4,0,.8,0,1.2,0a1.06,1.06,0,0,0,1.12-1.09,2.13,2.13,0,0,1,.15-.49,4.7,4.7,0,0,0,.15-.9c0-.61-.08-1.23-.11-1.85,0-.08.07-.15.11-.23a18.23,18.23,0,0,1,.6,3.74c0,.13,0,.27,0,.4l-.12,0c-.13.37-.21.7-.34,1a4.11,4.11,0,0,1-.69,1.52s0,.07,0,.09-.18.21-.28.21c-.9,0-1.8.07-2.69.07s-1.67,0-2.51-.06a1.13,1.13,0,0,1-.18,0h-.09l-.15.31c-.09-.18-.18-.29-.18-.39,0-.46.06-.91.1-1.36V19.38Z"/><path class="cls-15" d="M33.1,20.64c0,.45-.08.9-.1,1.36,0,.1.09.21.18.39l.15-.31h.09a1.13,1.13,0,0,0,.18,0c.84,0,1.67.06,2.51.06s1.79,0,2.69-.07c.1,0,.19-.13.28-.21s0-.07,0-.09a4.11,4.11,0,0,0,.69-1.52c.13-.31.21-.64.34-1l.12,0,0,1.92-.16-.12L40,21.1l.2.31v.26c-.16.29-.34.57-.5.86-.27.53-.51,1.09-.81,1.6-.1.19-.35.24-.6.31-.5.13-1,0-1.53.28a1.11,1.11,0,0,1-.84,0c-.22-.08-.36-.14-.57,0a.41.41,0,0,1-.38.05,1.56,1.56,0,0,0-1.16-.11,2.67,2.67,0,0,1-.4,0l-1.2-.14c.1-.29.24-.63.36-1a5.5,5.5,0,0,0,.16-.58c0-.05,0-.12,0-.18l.13-.7L33,21l0-.38Z"/><path class="cls-7" d="M25.66,31.34c.21.24.27-.14.41,0a2,2,0,0,0,.51.15h7.81a1.73,1.73,0,0,0,1.06-.3.26.26,0,0,1,.18-.07c.45.09.7-.27,1-.48s.22-.18.5,0c0-.08.07-.18,0-.22s0-.27.11-.33.26,0,.27.19c-.33.53-.65,1.06-1,1.58a1.07,1.07,0,0,1-.22.2,3.21,3.21,0,0,0-1.25.66,1.49,1.49,0,0,1-1.26.29,8.28,8.28,0,0,0-1.5-.09c-.3,0-.61-.05-.91,0-.83,0-1.67,0-2.5,0-1.13,0-2.26,0-3.39,0-.37,0-.73,0-1.1,0a.4.4,0,0,1-.19,0l-.5-.2c.17,0,.31,0,.45-.06a.48.48,0,0,0,.24-.11s0-.13,0-.2l1-.7a.36.36,0,0,0,.56.13l-.56-.13Z"/><path class="cls-13" d="M6.47,5.3c.13,0,.31.1.13.23a2.43,2.43,0,0,0-.43.58c-.2.27-.47.51-.65.79a15.49,15.49,0,0,0-.86,1.46,5.68,5.68,0,0,0-.35,1.08c-.11.43.06.64.51.64H12.6c.22,0,.43.06.65.08.06,0,.12-.07.21-.12l.09.3.16-.42.1,0v.52c0,.24,0,.47-.07.71a1,1,0,0,1-.13.3l-.12-.29a.22.22,0,0,0-.08-.12l-.08.38h-.06L13.21,11h-.07l0,.35-.76.11a.45.45,0,0,1-.28,0,3.42,3.42,0,0,0-1.65-.05h-.06c-.48,0-.95.08-1.43.06-.73,0-1.46-.11-2.19-.16,0,0-.07,0-.09,0-.43.33-.89,0-1.33,0s-1,.1-1.47.12c-.3,0-.44-.15-.39-.44a6.43,6.43,0,0,1,.64-2.26l.65-1.12c.11-.18.17-.36-.11-.45Z"/><path class="cls-14" d="M1.06,13.51a4.31,4.31,0,0,1,.05.71,10.33,10.33,0,0,0,0,3,.28.28,0,0,0,.29.27c.1,0,.19.1.29.16s.13.14.19.14l1-.06h.34c.11,0,.24.08.34.05.61-.22,1.2.08,1.81,0a2.6,2.6,0,0,1,1.21,0c.1,0,.24-.07.41-.12l-.11.4,0,0c.07-.06.19-.13.18-.18,0-.31.21-.42.39-.57l-.24,1.27c-.2.08-.15.2-.06.32v.19l0,.14v.12c-.65,0-1.29,0-1.93.06a2.42,2.42,0,0,0-.45.1,2.88,2.88,0,0,1-1.37,0,3.38,3.38,0,0,0-1.7,0c-.11,0-.29,0-.35,0A1.77,1.77,0,0,1,1,18.9a7.42,7.42,0,0,1-.39-2.47c0-.19-.07-.26-.24-.24Z"/><path class="cls-16" d="M7.32,21.92c-.26.23-.27.31-.05.79l-.34-.15H6.34c-.75,0-1.5.06-2.26.05s-1.67,0-2.5-.06a.66.66,0,0,1-.35-.2,3.47,3.47,0,0,1-.78-1.72s0-.1,0-.13c-.34-.37-.25-.83-.25-1.27,0-.12-.12-.24-.18-.36l.13-1.4c.24,0,.24.23.26.41A11.69,11.69,0,0,0,.5,19.07c.06.34.19.66.26,1A1.18,1.18,0,0,0,2.32,21a.55.55,0,0,1,.31-.05c.36.05.71.15,1.07.18s.9,0,1.35,0A.44.44,0,0,0,5.2,21a3.06,3.06,0,0,1,1.56-.1,1.68,1.68,0,0,1,.39.19,3,3,0,0,1-.1-.46.8.8,0,0,1,.08-.28c.06.43.13.85.2,1.28Z"/><path class="cls-17" d="M7.13,20.39a.8.8,0,0,0-.08.28,3,3,0,0,0,.1.46,1.68,1.68,0,0,0-.39-.19A3.06,3.06,0,0,0,5.2,21a.44.44,0,0,1-.15.05c-.45,0-.9,0-1.35,0S3,21,2.63,20.91a.55.55,0,0,0-.31.05,1.18,1.18,0,0,1-1.56-.89c-.07-.34-.2-.66-.26-1a11.69,11.69,0,0,1-.11-1.19c0-.18,0-.37-.26-.41l.21-1.28c.17,0,.24,0,.24.24A7.42,7.42,0,0,0,1,18.9a1.77,1.77,0,0,0,.37.6c.06.07.24.06.35,0a3.38,3.38,0,0,1,1.7,0,2.88,2.88,0,0,0,1.37,0,2.42,2.42,0,0,1,.45-.1c.64,0,1.28,0,1.93-.06C7.13,19.72,7.13,20.05,7.13,20.39Z"/><path class="cls-10" d="M40.22,21.41,40,21.1l.06-.05.16.12Z"/><path class="cls-8" d="M3.35,8.93c.09.14.08.16-.12.19Z"/><path class="cls-10" d="M0,21.67l.11.1-.1.09Z"/><path class="cls-8" d="M3.24,9.11l-.11.21Z"/><path class="cls-6" d="M37.43,9.83c-.21.06-.13-.06-.09-.16Z"/><path class="cls-1" d="M33.59,35.13c-.07-.2.07-.15.17-.15Z"/><path class="cls-1" d="M33.41,35.28l.16-.13Z"/><path class="cls-4" d="M29.86,37.78l.22-.13Z"/><path class="cls-8" d="M4.21,7.73l.09.06-.12.07Z"/><path class="cls-11" d="M33.68,5.22l-.14.09h0V5.19s0,0,.05-.05Z"/><path class="cls-4" d="M28.89,38.28l.19-.08Z"/><path class="cls-4" d="M11.15,38.2l.18.08Z"/><path class="cls-18" d="M15,31.82a3.12,3.12,0,0,1-1-1.27,6.17,6.17,0,0,1-.12-.73v-.58c.08,0,.2,0,.22-.09.1-.31.39-.31.63-.41.08,0,.19-.06.24-.13.21-.24.59-.33.66-.71,0,0,.09-.1.12-.09a.84.84,0,0,0,1-.4,2.21,2.21,0,0,1,.52-.43l-.05-.07a2.16,2.16,0,0,1,.61-.14c.31,0,.32-.24.43-.42s.08,0,.11-.05.16-.16.25-.23a1.09,1.09,0,0,1,.27-.21c.19-.1.54-.15.57-.27.12-.49.67-.4.87-.74a1.37,1.37,0,0,1,.34-.34c.12-.11.26-.27.4-.29.48,0,.77-.41,1.16-.6,0,0,.05-.07.08-.1s.19-.24.31-.27c.3-.08.66,0,.73-.47h0l.75-.6a.29.29,0,0,0,.14-.17c.05-.19.18-.21.34-.21s.54-.06.65-.38c0-.05.09-.08.14-.12a3,3,0,0,0,.35-.36c.12-.19.22-.32.48-.25a.52.52,0,0,0,.44-.12c.14-.14.22-.31.44-.35A.28.28,0,0,0,27.3,20c0-.25.24-.27.43-.33s.67,0,.71-.46l0,0,.76-.59a.23.23,0,0,0,.1-.12c.06-.29.28-.24.49-.27a.77.77,0,0,0,.47-.18,1.33,1.33,0,0,1,.46-.51s.05-.09.09-.13a.83.83,0,0,1,.25-.18,3.85,3.85,0,0,0,.72-.28c.18-.12.27-.37.39-.55l.18.24h0c0,.23,0,.48.2.65.08.45.17.89.26,1.34l-.22-.2c-.17.43-.39.73-.9.64a.4.4,0,0,0-.5.37c0,.08-.16.15-.25.2a2,2,0,0,0-.62.3c-.14.13-.23.26-.45.28-.58.06-.57.07-.65.65a.43.43,0,0,1-.23.23c-.13.08-.36.09-.4.2-.14.35-.42.34-.72.39a1,1,0,0,0-.6.3c-.15.2-.31.34-.54.31s-.48.17-.56.46a1.8,1.8,0,0,0,0,.19c0,.18-.09.25-.28.26a1.8,1.8,0,0,0-.78.1c-.3.17-.44.58-.84.64,0,0,0,.08,0,.12s-.07.31-.11.46-.06.17-.11.17a5.17,5.17,0,0,1-.79.1.5.5,0,0,0-.47.24,4.32,4.32,0,0,1-.89.81s-.1,0-.15,0h-.42l-.06.4.92.11h-1l-1.06.05v1.08c0,.27-.1.39-.37.39-.48,0-.56.06-.64.56,0,.25-.15.3-.37.34a1.79,1.79,0,0,0-.54.26c-.14.07-.27.17-.41.23s-.5.1-.64.38a.5.5,0,0,1-.57.26c-.23,0-.34,0-.35.31a.58.58,0,0,1-.61.58H15l-.06.64-.07,0v0l.08,0,.32.48h-.12l-.06-.05Z"/><path class="cls-19" d="M25.44,31.58l-1,.7a11,11,0,0,1-5.12.9c-.24,0-.47-.07-.71-.1l-.18,0-.28,0,.15,0,0,0L18,33h-.07c0-.16,0-.37.09-.46a5.48,5.48,0,0,1,.75-.6c.11-.07.26-.09.38-.15a3.83,3.83,0,0,1,.62-.4c.18-.07.3-.11.35-.31a.35.35,0,0,1,.23-.21.82.82,0,0,0,.68-.39c.07-.09.23-.11.3-.2a3.83,3.83,0,0,1,.84-.61c.05,0,.07-.1.1-.16l.17-.35,0,0v.34a.37.37,0,0,0-.09.58,1.18,1.18,0,0,0,.76,1h0l.08,0h0a1,1,0,0,0,1.09-.24h0a1,1,0,0,0,.38-1.17,1.21,1.21,0,0,0-.64-.82l-.14-.05-.44,0a1.65,1.65,0,0,1,.24-.22c.25-.13.51-.24.76-.36a.25.25,0,0,0,.13-.14c.06-.24.27-.27.46-.36s.57,0,.58-.42h.57v3.05l-.56,1-.22.24h0Z"/><path class="cls-20" d="M22.49,29.47v-.32l0,0-.17.35c0,.06-.05.13-.1.16a3.83,3.83,0,0,0-.84.61c-.07.09-.23.11-.3.2a.82.82,0,0,1-.68.39.35.35,0,0,0-.23.21c-.05.2-.17.24-.35.31a3.83,3.83,0,0,0-.62.4c-.12.06-.27.08-.38.15a5.48,5.48,0,0,0-.75.6c-.09.09-.07.3-.09.46l-1.07-.29-.62-.37a.73.73,0,0,1,.52-.49.45.45,0,0,0,.28-.24.37.37,0,0,1,.41-.3c.28,0,.57,0,.61-.35,0,0,.06-.08.11-.11.3-.21.46-.64.92-.61,0,0,.07-.05.08-.09.08-.29.35-.33.57-.36s.27-.1.31-.3c.12-.6.21-.66.84-.67a.53.53,0,0,0,.22,0c.13-.07.34-.14.37-.25s.2-.28.41-.32.22-.09.23-.16c.06-.22.2-.25.39-.29s.68,0,.6-.49h2.53c0,.38-.38.31-.58.42s-.4.12-.46.36a.25.25,0,0,1-.13.14c-.25.12-.51.23-.76.36a1.65,1.65,0,0,0-.24.22l-.76.41Zm.2-.55,0,.06.08-.08Z"/><path class="cls-21" d="M25.65,27.27H23.12c.08.53-.33.45-.6.49s-.33.07-.39.29c0,.07-.15.15-.23.16s-.35.08-.41.32-.24.18-.37.25a.53.53,0,0,1-.22,0c-.63,0-.72.07-.84.67,0,.2-.09.27-.31.3s-.49.07-.57.36c0,0-.05.09-.08.09-.46,0-.62.4-.92.61-.05,0-.11.07-.11.11,0,.39-.33.36-.61.35a.37.37,0,0,0-.41.3.45.45,0,0,1-.28.24.73.73,0,0,0-.52.49l.62.37L15.28,32,15,31.47h0l.06-.64h.59a.58.58,0,0,0,.61-.58c0-.26.12-.34.35-.31a.5.5,0,0,0,.57-.26c.14-.28.4-.28.64-.38s.27-.16.41-.23a1.79,1.79,0,0,1,.54-.26c.22,0,.33-.09.37-.34.08-.5.16-.56.64-.56.27,0,.39-.12.37-.39V27.2h1.11l5,0v.06Z"/><path class="cls-7" d="M16.24,32.73,16,32.64l0-.09.25.09Z"/><path class="cls-20" d="M18,33l.24-.06,0,0-.15,0Z"/><path class="cls-20" d="M18.4,33.05l.18,0Z"/><path class="cls-22" d="M9.8,26.15a2.55,2.55,0,0,1-1.6-1.49c.31,0,.14-.2.16-.39l.45.05c.2-.15.13-.64.58-.7,0,0,0-.11,0-.14l.78-.79a1.73,1.73,0,0,0,.23-.24c.2-.28.52-.43.72-.73.07-.12.21-.2.26-.37s.05-.65.48-.68a1.31,1.31,0,0,1,.62-.63s0-.07,0-.09l.66-.8s0,0,.06,0c.3-.16.38-.56.73-.65,0,0,0,0,0,0,.25-.28.51-.56.76-.85.07-.08.19-.18.19-.26,0-.59.66-.72.77-1.22,0,0,.1,0,.14-.06S16,16,16,15.94a.41.41,0,0,1,.41-.4s.08-.09.11-.14c.24-.28.48-.56.73-.83l0,0a3.15,3.15,0,0,1,.22-.29c.09-.11.19-.26.3-.28.36-.06.73-.05,1.1-.08a.82.82,0,0,0,.25-.12h.32l.06.06.51-.12.08-.73-.39-.1-1-.07H17.57s.05-.11.08-.11c.29,0,.37-.15.38-.42s.19-.24.3-.36.13-.09.18-.14l.35-.36.18-.2.72-.78h0c.21,0,.27-.17.29-.35a1.87,1.87,0,0,1,0-.25c.1-.41.55-.49.76-.82.08-.12.26-.21.32-.4s.13-.17.21-.25.1-.06.14-.11.3-.35.45-.52l.07,0,0-.37.49-.18a4.58,4.58,0,0,1,1.91.55,3.37,3.37,0,0,0,.32.19l.45.39c-.08.48-.08.48.33.37l.11.14L25.45,9a1.52,1.52,0,0,0-.35.08,1.48,1.48,0,0,0-.26.24,2.27,2.27,0,0,0-.26.28c-.15.24-.29.5-.44.74a.2.2,0,0,1-.13.08,1.19,1.19,0,0,0-.89,1c-.29,0-.49.11-.49.47a.78.78,0,0,1-.25.42c-.24.25-.51.48-.76.72a.78.78,0,0,0-.1.15c-.16.24-.46.39-.45.73,0,0-.11.08-.17.07-.45,0-.53.41-.69.65a1.15,1.15,0,0,1-.39.43c-.25.17-.63.43-.66.67-.1.6-.7.76-.88,1.24a1.3,1.3,0,0,1-.21.34c-.06.09-.15.22-.24.23a.58.58,0,0,0-.41.29c-.14.21-.39.33-.4.64,0,0-.1.09-.15.09-.31,0-.36.26-.53.4s-.15.45-.11.69l-.67.26a2.22,2.22,0,0,0-1.18.81,1.13,1.13,0,0,0-.18.12,4.14,4.14,0,0,0-1,1.68l-.07.27,0,.3-.25-.05c-.58-.11-.95.13-1,.69,0,.23-.1.3-.32.33s-.44,0-.51.29-.13.69-.53.84c-.06,0-.07.15-.13.21s-.25.48-.59.47Z"/><path class="cls-23" d="M17.57,12.82h1.14v.11H13.94l-.06,0c0-.47,0-.94,0-1.41v-1c0-.23,0-.47,0-.7V9.65a7.83,7.83,0,0,1,.27-.86,2.26,2.26,0,0,1,1.42-1.12l.28-.12a17.93,17.93,0,0,1,4.06-.46,1.86,1.86,0,0,1,.34,0,1.22,1.22,0,0,0,0,.32c.07.27-.06.41-.26.55s-.22.2-.33.29-.14.12-.21.19-.15.14-.23.21l-.84.81h0c-.23.1-.4.23-.36.52s0,.31,0,.47-.09.37-.34.34a3.83,3.83,0,0,0,.13-.74A1.18,1.18,0,0,0,16.94,9a1.13,1.13,0,0,0-1.21.33,1.16,1.16,0,0,0-.23,1.26,1.39,1.39,0,0,0,1.05.8c0,.7-.45,1-1,1.3v.1Z"/><path class="cls-24" d="M17.57,12.82h-2v-.1c.57-.26,1-.6,1-1.3l.32-.06c.19.14.35.05.5-.08s-.05-.08-.08-.12l.32-.32c.25,0,.34-.11.34-.34s0-.32,0-.47.13-.42.36-.52h0l.84-.81c.08-.07.15-.15.23-.21s.15-.12.21-.19.21-.21.33-.29.33-.28.26-.55a1.22,1.22,0,0,1,0-.32c.53,0,1.07,0,1.6,0,.25,0,.49,0,.74.07l-.49.19,0,.37-.07,0c-.15.17-.29.35-.45.52s-.1.06-.14.11-.18.15-.21.25-.24.28-.32.4c-.21.33-.66.41-.76.82a1.87,1.87,0,0,0,0,.25c0,.18-.08.33-.29.35h0l-.72.78-.18.2-.35.36c-.05.05-.13.09-.18.14s-.29.23-.3.36-.09.42-.38.42C17.62,12.71,17.6,12.78,17.57,12.82Z"/><path class="cls-25" d="M28.07,4H19C18.32,4,17.66,4,17,4c-.26,0-.53-.06-.79-.06S15.41,4,15,4,14.4,4,14.1,4C13.54,4,13,4,12.42,4A12.87,12.87,0,0,1,11,3.9c-.07,0-.19-.11-.18-.14A.74.74,0,0,1,11,3.37a7.93,7.93,0,0,1,2.68-1.56c.66-.25,1.31-.54,2-.74A11.68,11.68,0,0,1,18.86.54c.42,0,.84-.08,1.26-.06a15.62,15.62,0,0,1,3.42.33,11.92,11.92,0,0,1,2.9,1c.56.31,1.16.53,1.74.8a2.31,2.31,0,0,1,.36.25,5.51,5.51,0,0,1,.57.5c.11.11.23.29.2.41S29.09,4,29,4a5.29,5.29,0,0,1-.89,0Z"/><path class="cls-23" d="M7.13,20.39c0-.34,0-.67,0-1v-.12l0-.14v-.19l.06-.32.24-1.27c.1-.34.18-.69.31-1a3.83,3.83,0,0,1,3.71-2.6h.13l3.43,0-.35.11c-.28.11-.66.15-.8.35a1,1,0,0,1-.61.42.4.4,0,0,0-.23.13,1.53,1.53,0,0,0-.21.68c.06.52-.31.57-.62.71a.48.48,0,0,0-.23.24,1,1,0,0,1-.77.78.51.51,0,0,0-.25.25c-.14.28-.2.62-.58.67s-.48.52-.56.88c0,.11,0,.24,0,.35a.38.38,0,0,1-.17.24c-.14.07-.32.09-.47.16a.47.47,0,0,0-.24.22c-.13.29-.21.61-.59.71a.82.82,0,0,0-.57.43,1,1,0,0,0-.19.78c0,.06,0,.14-.07.29l-.23-.46Z"/><path class="cls-8" d="M15.08,13.73l-3.43,0c.08,0,.16-.12.25-.12h7.52c.08,0,.16.08.25.12l-.51,0Z"/><path class="cls-26" d="M19.16,13.73l.51,0h.38l-.51.12-.06-.06h-.32Z"/><path class="cls-24" d="M18.71,12.93v-.11l1,.07Z"/><path class="cls-11" d="M13.86,11v0Z"/><path class="cls-22" d="M13.88,12.89l.06,0Z"/><path class="cls-11" d="M13.93,29.56v.26l-.11,0c0-1.18,0-2.36,0-3.55l0-.07c0,1,0,2,0,3.06A1.77,1.77,0,0,0,13.93,29.56Z"/><path class="cls-4" d="M13.8,26.25c0,1.19,0,2.37,0,3.55l-.07.27V26.25h.05Z"/><path class="cls-1" d="M15,31.82l.07.09Z"/><path class="cls-26" d="M16.23,19.69c0-.24-.16-.46.11-.69s.22-.43.53-.4c.05,0,.15-.06.15-.09,0-.31.26-.43.4-.64a.58.58,0,0,1,.41-.29c.09,0,.18-.14.24-.23a1.3,1.3,0,0,0,.21-.34c.18-.48.78-.64.88-1.24,0-.24.41-.5.66-.67a1.15,1.15,0,0,0,.39-.43c.16-.24.24-.67.69-.65.06,0,.17,0,.17-.07,0-.34.29-.49.45-.73a.78.78,0,0,1,.1-.15c.25-.24.52-.47.76-.72a.78.78,0,0,0,.25-.42c0-.36.2-.45.49-.47a1.19,1.19,0,0,1,.89-1,.2.2,0,0,0,.13-.08c.15-.24.29-.5.44-.74a2.27,2.27,0,0,1,.26-.28,1.48,1.48,0,0,1,.26-.24A1.52,1.52,0,0,1,25.45,9l.26-.15a6.38,6.38,0,0,1,.38.67,3.08,3.08,0,0,1,.14.6c0,.4.09.8.11,1.2,0,.21,0,.43,0,.64s0,.34,0,.51c-.52-.12-.79.23-.94.62s-.58.66-.82,1a2.8,2.8,0,0,0-.33.54c-.13.39-.6.48-.73.86,0,0-.07,0-.09,0a1.5,1.5,0,0,0-.2.23,2.46,2.46,0,0,0-.22.39c-.17.4-.82.28-.87.8,0,0-.1.08-.15.1a.94.94,0,0,0-.8,1c0,.3-.09.49-.44.52-.12,0-.34.14-.33.19,0,.29-.25.32-.4.55a2.52,2.52,0,0,1,.33.15,1.56,1.56,0,0,1,.2.16Z"/><path class="cls-27" d="M20.49,19.67a1.56,1.56,0,0,0-.2-.16,2.52,2.52,0,0,0-.33-.15c.15-.23.43-.26.4-.55,0,0,.21-.18.33-.19.35,0,.44-.22.44-.52a.94.94,0,0,1,.8-1c.05,0,.15-.06.15-.1.05-.52.7-.4.87-.8a2.46,2.46,0,0,1,.22-.39,1.5,1.5,0,0,1,.2-.23s.09,0,.09,0c.13-.38.6-.47.73-.86a2.8,2.8,0,0,1,.33-.54c.24-.37.66-.58.82-1s.42-.74.94-.62c0,.51,0,1,.07,1.53s0,1.14,0,1.71a.34.34,0,0,0-.05.11A5,5,0,0,1,26,18s-.07.05-.09.09a2.74,2.74,0,0,1-2,1.43C22.77,19.69,21.63,19.64,20.49,19.67Z"/><path class="cls-28" d="M31.24,14.38l.35.47c-.13,0-.23,0-.09.23a3,3,0,0,1,.32.67h0l-.25-.3-.55.24c-.07,0-.13.11-.2.16l-.28.22c-.07.05-.21.1-.21.16,0,.25-.2.29-.39.33s-.37,0-.42.11c-.17.32-.48.44-.75.64a3.86,3.86,0,0,0-.58.69.37.37,0,0,1-.2.09,1.84,1.84,0,0,1-.47.07c-.2,0-.28.08-.28.28a.45.45,0,0,1-.39.45v-.63L26,19.4c-.06.07-.19.08-.29.12a1.88,1.88,0,0,0,.24-.25l.69-1a0,0,0,0,0,0,0l.14-.26h0a2.84,2.84,0,0,0,.32-1.48V13.72l2.71,0A3,3,0,0,1,31.24,14.38Z"/><path class="cls-14" d="M26.61,18.19a0,0,0,0,1,0,0l-.22.14L26,18a5,5,0,0,0,.33-2.19.34.34,0,0,1,.05-.11l.18.3a.63.63,0,0,0,.28-.67,1.28,1.28,0,0,1,.06-.32l.06,1a5.47,5.47,0,0,1,0,.7c-.05.39-.14.77-.2,1.16h0C26.7,18,26.66,18.1,26.61,18.19Z"/><path class="cls-8" d="M26.86,15.05a1.28,1.28,0,0,0-.06.32.63.63,0,0,1-.28.67l-.18-.3c0-.57,0-1.14,0-1.71l.51-.06Z"/><path class="cls-17" d="M26.75,17.93c.06-.39.15-.77.2-1.16a5.47,5.47,0,0,0,0-.7c0-.79,0-1.57.07-2.36h.08v2.73A2.84,2.84,0,0,1,26.75,17.93Z"/><path class="cls-8" d="M27.07,13.72H27a1.23,1.23,0,0,1,.37-.12c.64,0,1.29,0,1.93,0a2.13,2.13,0,0,1,.49.15Z"/><path class="cls-19" d="M32.83,22.05l-.13.7c-.29.72-.55,1.46-.88,2.16a2.72,2.72,0,0,1-2,1.53l-.51-.06h-2l-.3-.4a2.83,2.83,0,0,0,.6-.25c.31-.2.72-.31.79-.77,0-.07.12-.15.19-.17s.25,0,.38,0,.47-.05.51-.35a.2.2,0,0,1,.06-.11,3.76,3.76,0,0,1,1-.56c.38-.1.58-.4.85-.6s.62-.61,1.1-.49l.32-1Z"/><path class="cls-7" d="M27.24,26.38h2l.51.06a1.91,1.91,0,0,1-.33.06H20.13a.14.14,0,0,1,0-.06l1.06-.05h6.07Z"/><path class="cls-12" d="M26.22,27.21l-5,0H20.11v-.38c0,.21.16.26.38.26h5.42a1.53,1.53,0,0,1,.36.07v0Z"/><path class="cls-1" d="M26.22,30.32v-.25l.08-.26c0-.12.05-.23.05-.34V27.2h0l.06,1.15v1.46Z"/><path class="cls-14" d="M20.13,26.82v.36c0-.25,0-.49,0-.74a.14.14,0,0,0,0,.06Z"/><path class="cls-15" d="M32.08,24.92l0,.16H32l0-.17Z"/><path class="cls-1" d="M26.29,27.19v0l.06.05h-.06Z"/><path class="cls-13" d="M13.88,9.65v.12l-.09-.24.08,0Z"/><path class="cls-9" d="M26.41,29.81v0Z"/><path class="cls-26" d="M25.6,8.74c-.41.11-.41.11-.33-.37Z"/><path class="cls-13" d="M33.54,5.19v.12l-.1-.08Z"/><path class="cls-24" d="M19.16,13.73v0a.82.82,0,0,1-.25.12c-.37,0-.74,0-1.1.08-.11,0-.21.17-.3.28a3.15,3.15,0,0,0-.22.29l0,0c-.25.27-.49.55-.73.83,0,0-.07.13-.11.14a.41.41,0,0,0-.41.4c0,.05-.1.09-.16.12s-.14,0-.14.06c-.11.5-.79.63-.77,1.22,0,.08-.12.18-.19.26-.25.29-.51.57-.76.85,0,0,0,0,0,0-.35.09-.43.49-.73.65,0,0,0,0-.06,0l-.66.8s0,.07,0,.09a1.31,1.31,0,0,0-.62.63c-.43,0-.41.41-.48.68s-.19.25-.26.37c-.2.3-.52.45-.72.73a1.73,1.73,0,0,1-.23.24l-.78.79s0,.14,0,.14c-.45.06-.38.55-.58.7l-.45-.05c0,.19.15.41-.16.39L8,24.47c-.11-.35-.23-.69-.33-1a5.41,5.41,0,0,1-.12-.55l.16-.2a3,3,0,0,0-.16-.35s-.09,0-.13-.07l-.12-.34v-.25l.23.46c0-.15.09-.23.07-.29a1,1,0,0,1,.19-.78.82.82,0,0,1,.57-.43c.38-.1.46-.42.59-.71a.47.47,0,0,1,.24-.22c.15-.07.33-.09.47-.16a.38.38,0,0,0,.17-.24c0-.11,0-.24,0-.35.08-.36,0-.8.56-.88s.44-.39.58-.67a.51.51,0,0,1,.25-.25,1,1,0,0,0,.77-.78.48.48,0,0,1,.23-.24c.31-.14.68-.19.62-.71a1.53,1.53,0,0,1,.21-.68.4.4,0,0,1,.23-.13,1,1,0,0,0,.61-.42c.14-.2.52-.24.8-.35l.35-.11Z"/><path class="cls-26" d="M9.8,26.15l0-.24c.34,0,.42-.29.59-.47s.07-.19.13-.21c.4-.15.46-.5.53-.84s.33-.26.51-.29.3-.1.32-.33c.05-.56.42-.8,1-.69l.25.05v.38s0,.07,0,.11c0,.88,0,1.75,0,2.62-.06.05-.12.14-.18.14l-2.7-.07A1.34,1.34,0,0,1,9.8,26.15Z"/><path class="cls-15" d="M13.11,23.51v-.38l0-.3.07-.27a4.14,4.14,0,0,1,1-1.68,1.13,1.13,0,0,1,.18-.12s.06.11,0,.14c-.15.29.09.41.23.58a4.1,4.1,0,0,0-.78,1.71,1.38,1.38,0,0,0-.12.29c0,.75,0,1.51,0,2.26a.74.74,0,0,1-.12-.28c0-.23,0-.47,0-.7h-.09l-.06.36-.35-.52v-.39c.05-.21.16-.42,0-.63Zm1.1-2c0-.05.08-.08.08-.11s0-.07-.07-.07a.09.09,0,0,0-.07.08S14.18,21.43,14.21,21.48Z"/><path class="cls-7" d="M13.75,25.74c0-.75,0-1.51,0-2.26a1.38,1.38,0,0,1,.12-.29l0,.26v2.73l0,.07h-.05Z"/><path class="cls-14" d="M13.11,23.51V24.6c0,.54,0,1.09,0,1.64,0-.87,0-1.74,0-2.62C13.06,23.58,13.09,23.55,13.11,23.51Z"/><path class="cls-29" d="M31.82,15.75a3,3,0,0,0-.32-.67c-.14-.19,0-.19.09-.23l.73,1.29.08.49-.18-.24c-.12.18-.21.43-.39.55a3.85,3.85,0,0,1-.72.28.83.83,0,0,0-.25.18s-.05.11-.09.13a1.33,1.33,0,0,0-.46.51.77.77,0,0,1-.47.18c-.21,0-.43,0-.49.27a.23.23,0,0,1-.1.12l-.76.59,0,0c0,.45-.43.38-.71.46s-.39.08-.43.33a.28.28,0,0,1-.17.18c-.22,0-.3.21-.44.35a.52.52,0,0,1-.44.12c-.26-.07-.36.06-.48.25a3,3,0,0,1-.35.36c-.05,0-.12.07-.14.12-.11.32-.36.38-.65.38s-.29,0-.34.21a.29.29,0,0,1-.14.17l-.75.6h0c-.07.44-.43.39-.73.47-.12,0-.21.18-.31.27s0,.09-.08.1c-.39.19-.68.56-1.16.6-.14,0-.28.18-.4.29a1.37,1.37,0,0,0-.34.34c-.2.34-.75.25-.87.74,0,.12-.38.17-.57.27a1.09,1.09,0,0,0-.27.21c-.09.07-.16.16-.25.23s-.1,0-.11.05-.12.43-.43.42a2.16,2.16,0,0,0-.61.14l.05.07a2.21,2.21,0,0,0-.52.43.84.84,0,0,1-1,.4s-.11.05-.12.09c-.07.38-.45.47-.66.71,0,.07-.16.09-.24.13-.24.1-.53.1-.63.41,0,.05-.14.06-.22.09V27.05l.15,0a1.26,1.26,0,0,0,.93-.6.55.55,0,0,1,.38-.22.62.62,0,0,0,.67-.56,2,2,0,0,1,.08-.34h.5c.23,0,.42-.07.45-.3s.16-.26.35-.28a1.13,1.13,0,0,0,.54-.19c.29-.22.52-.54.82-.74s.61-.16.71-.53c0,0,0,0,.05,0a.81.81,0,0,0,.61-.48c0-.06.16-.1.25-.11.28,0,.54-.05.67-.37,0-.13.28-.18.33-.31a.45.45,0,0,1,.47-.29c.1,0,.27-.13.27-.2,0-.37.26-.39.54-.36s.35-.05.38-.25.17-.25.35-.27a.62.62,0,0,0,.23-.14l1.06-.31.2-.09h0l.12-.07h0c.25,0,.47-.07.52-.36h0l.12-.09h0c.1,0,.23-.05.29-.12l.88-1.14v.63a.45.45,0,0,0,.39-.45c0-.2.08-.28.28-.28a1.84,1.84,0,0,0,.47-.07.37.37,0,0,0,.2-.09,3.86,3.86,0,0,1,.58-.69c.27-.2.58-.32.75-.64.05-.09.28-.08.42-.11s.37-.08.39-.33c0-.06.14-.11.21-.16l.28-.22c.07,0,.13-.12.2-.16l.55-.24.25.3.08.1,0,0Z"/><path class="cls-8" d="M32.86,18.62c-.09-.45-.18-.89-.26-1.34v-.13l.3,1.05c.05.16.11.31.19.53v.39L33,19.3h0l0,0-.09-.57Z"/><path class="cls-29" d="M32.6,17.15v.13c-.23-.17-.19-.42-.2-.65Z"/><path class="cls-16" d="M33,19.3l.11-.18v.26H33Z"/><path class="cls-23" d="M7.44,22.26s.11,0,.13.07a3,3,0,0,1,.16.35l-.16.2C7.52,22.67,7.48,22.46,7.44,22.26Z"/><path class="cls-8" d="M33,19.3l.05.08.07.76v.5H33l0-1.34Z"/><path class="cls-15" d="M33.1,20.14,33,19.38h.06Z"/><path class="cls-21" d="M33,19.31l0,1.34L33,21l-.12-.43-.19.29-.09-.17a2.22,2.22,0,0,0-.38,0c-.12,0-.27.06-.33.15s-.5.38-.54.73c0,0-.1.07-.16.08s-.35,0-.53.08-.22.06-.23.11c0,.24-.16.32-.38.36s-.14.11-.21.17a.87.87,0,0,1-.27.17c-.33.09-.77,0-.83.52,0,.05-.12.08-.17.13s-.17.13-.18.21a.34.34,0,0,1-.34.31.63.63,0,0,0-.21.12,2.41,2.41,0,0,1-.39.26c-.21.1-.44.16-.63.27a1.34,1.34,0,0,0-.32.31.65.65,0,0,0-.16.22c0,.25-.2.31-.42.34s-.6,0-.65.38a.2.2,0,0,1-.15.11c-.4,0-.4.3-.37.59H22.15l-.92-.11.06-.4h.42c.05,0,.12,0,.15,0a4.32,4.32,0,0,0,.89-.81.5.5,0,0,1,.47-.24,5.17,5.17,0,0,0,.79-.1s.09-.11.11-.17.07-.31.11-.46,0-.11,0-.12c.4-.06.54-.47.84-.64a1.8,1.8,0,0,1,.78-.1c.19,0,.27-.08.28-.26a1.8,1.8,0,0,1,0-.19c.08-.29.19-.5.56-.46s.39-.11.54-.31a1,1,0,0,1,.6-.3c.3-.05.58,0,.72-.39,0-.11.27-.12.4-.2a.43.43,0,0,0,.23-.23c.08-.58.07-.59.65-.65.22,0,.31-.15.45-.28a2,2,0,0,1,.62-.3c.09-.05.23-.12.25-.2a.4.4,0,0,1,.5-.37c.51.09.73-.21.9-.64l.22.2,0,.08v.55l.09,0Z"/><path class="cls-20" d="M24.7,26.38c0-.29,0-.57.37-.59a.2.2,0,0,0,.15-.11c.05-.42.4-.33.65-.38s.38-.09.42-.34a.65.65,0,0,1,.16-.22,1.34,1.34,0,0,1,.32-.31c.19-.11.42-.17.63-.27a2.41,2.41,0,0,0,.39-.26.63.63,0,0,1,.21-.12.34.34,0,0,0,.34-.31c0-.08.11-.15.18-.21s.16-.08.17-.13c.06-.53.5-.43.83-.52a.87.87,0,0,0,.27-.17c.07-.06.14-.16.21-.17s.35-.12.38-.36c0-.05.15-.1.23-.11s.36-.05.53-.08.16,0,.16-.08c0-.35.35-.49.54-.73s.21-.12.33-.15a2.22,2.22,0,0,1,.38,0l.09.17.19-.29L33,21l-.12,1-.13-.42-.32,1c-.48-.12-.75.23-1.1.49s-.47.5-.85.6a3.76,3.76,0,0,0-1,.56.2.2,0,0,0-.06.11c0,.3-.26.35-.51.35s-.26,0-.38,0-.18.1-.19.17c-.07.46-.48.57-.79.77a2.83,2.83,0,0,1-.6.25l.3.4H24.7Z"/><path class="cls-12" d="M25.44,31.58l.56.13a.36.36,0,0,1-.56-.13h0Z"/><path class="cls-17" d="M7.26,18.61l-.06.32C7.11,18.81,7.06,18.69,7.26,18.61Z"/><path class="cls-17" d="M7.2,19.12l0,.14Z"/><path class="cls-28" d="M23.67,20.44a.62.62,0,0,1-.23.14c-.18,0-.32.05-.35.27s-.19.26-.38.25-.51,0-.54.36c0,.07-.17.19-.27.2a.45.45,0,0,0-.47.29c-.05.13-.28.18-.33.31-.13.32-.39.34-.67.37-.09,0-.23.05-.25.11a.81.81,0,0,1-.61.48s-.05,0-.05,0c-.1.37-.46.37-.71.53s-.53.52-.82.74a1.13,1.13,0,0,1-.54.19c-.19,0-.31.05-.35.28s-.22.31-.45.3h-.5a2,2,0,0,0-.08.34.62.62,0,0,1-.67.56.55.55,0,0,0-.38.22,1.26,1.26,0,0,1-.93.6l-.15,0v2.51a1.77,1.77,0,0,1,0-.32c0-1,0-2,0-3.06V23.45l0-.26a4.1,4.1,0,0,1,.78-1.71h0l.07-.07h0l.06-.07h0l.53-.42h0s0,0,0,0a4,4,0,0,1,2.08-.47C19.5,20.46,21.59,20.45,23.67,20.44Z"/><path class="cls-21" d="M15,31.47l-.08,0v0l.07,0Z"/><path class="cls-12" d="M22.72,29.18l.76-.41.44,0,.14.05a1.21,1.21,0,0,1,.64.82c0,.06-.08.14-.06.18.14.28-.06.45-.18.66s-.09.22-.14.33h0l-1.09.24h0l-.08,0h0c0-.05-.1-.12-.16-.17a1,1,0,0,1-.45-.83A6.58,6.58,0,0,1,22.72,29.18Z"/><path class="cls-9" d="M22.72,29.18a6.58,6.58,0,0,0-.18.86,1,1,0,0,0,.45.83c.06.05.11.12.16.17a1.18,1.18,0,0,1-.76-1l.09-.58v0Z"/><path class="cls-18" d="M26.3,29.81l-.08.26V27.21l.07,0h0C26.29,28.07,26.29,28.94,26.3,29.81Z"/><path class="cls-9" d="M24.32,30.85c.05-.11.09-.23.14-.33s.32-.38.18-.66c0,0,0-.12.06-.18A1,1,0,0,1,24.32,30.85Z"/><path class="cls-9" d="M23.24,31.08l1.09-.24A1,1,0,0,1,23.24,31.08Z"/><path class="cls-20" d="M22.48,29.49l-.09.58A.37.37,0,0,1,22.48,29.49Z"/><path class="cls-20" d="M24.06,28.86l-.14-.05Z"/><path class="cls-9" d="M23.15,31l.08,0Z"/><path class="cls-19" d="M22.69,28.92l.12,0-.08.08Z"/><path class="cls-17" d="M23.67,20.44c-2.08,0-4.17,0-6.25,0a4,4,0,0,0-2.08.47l0,0v.06h0c-.31,0-.51.09-.53.42h0l-.06.07h0l-.07.07h0c-.14-.17-.38-.29-.23-.58,0,0,0-.09,0-.14A2.22,2.22,0,0,1,15.56,20l.67-.26,4.26,0c1.14,0,2.28,0,3.41-.11a2.74,2.74,0,0,0,2-1.43s.06-.06.09-.09l.43.33.22-.14-.69,1a1.88,1.88,0,0,1-.24.25h0l-.12.09h0l-.52.36h0l-.12.07h0l-.2.09Zm2.35-2-.09.07s0,.06.05.06a.16.16,0,0,0,.08-.06S26,18.5,26,18.47Z"/><path class="cls-26" d="M13.19,22.56l-.07.27Z"/><path class="cls-24" d="M19.48,13.78l.06.06Z"/><path class="cls-13" d="M16.87,11.36l-.32.06a1.39,1.39,0,0,1-1.05-.8,1.16,1.16,0,0,1,.23-1.26A1.13,1.13,0,0,1,16.94,9a1.18,1.18,0,0,1,.8,1.07,3.83,3.83,0,0,1-.13.74l-.32.32Z"/><path class="cls-23" d="M16.87,11.36l.42-.2s.09.12.08.12S17.06,11.5,16.87,11.36Z"/><path class="cls-17" d="M26.61,18.19c.05-.09.09-.18.14-.26C26.7,18,26.66,18.1,26.61,18.19Z"/><path class="cls-20" d="M29.28,26.38h0Z"/><path class="cls-21" d="M25.14,26.38h0Z"/><path class="cls-14" d="M26.3,29.81c0-.87,0-1.74,0-2.61h.06v2.27C26.35,29.58,26.31,29.69,26.3,29.81Z"/><path class="cls-10" d="M13.12,24.21v-.63C13.28,23.79,13.17,24,13.12,24.21Z"/><path class="cls-17" d="M14.21,21.48c0-.05-.07-.08-.06-.1a.09.09,0,0,1,.07-.08s.08.05.07.07S14.25,21.43,14.21,21.48Z"/><path class="cls-11" d="M13.85,23.45v0Z"/><path class="cls-28" d="M25.05,20l.52-.36C25.52,19.91,25.3,20,25.05,20Z"/><path class="cls-28" d="M31.82,15.75l.1.07,0,0-.08-.1Z"/><path class="cls-28" d="M24.73,20.13l.2-.09Z"/><path class="cls-28" d="M24.93,20.05l.12-.07Z"/><path class="cls-28" d="M25.57,19.62l.12-.09Z"/><path class="cls-18" d="M32.93,19.27l-.09,0V18.7Z"/><path class="cls-15" d="M14.77,21.35c0-.33.22-.44.53-.42Z"/><path class="cls-15" d="M14.64,21.48l.07-.07Z"/><path class="cls-15" d="M14.71,21.42l.06-.07Z"/><path class="cls-15" d="M15.31,20.94v-.06l0,0S15.33,20.94,15.31,20.94Z"/><path class="cls-14" d="M26,18.47s.05.06,0,.07a.16.16,0,0,1-.08.06s0,0-.05-.06Z"/></g></g></svg>