<svg xmlns="http://www.w3.org/2000/svg" viewBox="0 0 39.98 38.76"><defs><style>.cls-1{fill:#040604;}.cls-2{fill:#303030;}.cls-3{fill:#ebebeb;}.cls-4{fill:#dfdfdf;}.cls-5{fill:#2caf34;}.cls-6{fill:#d3d3d3;}.cls-7{fill:#e5e5e5;}.cls-8{fill:#9b9b9b;}.cls-9{fill:#d8d8d8;}.cls-10{fill:#aaa;}.cls-11{fill:#b1b1b1;}.cls-12{fill:#b7b7b7;}.cls-13{fill:#c5c5c5;}.cls-14{fill:#bfbfbf;}.cls-15{fill:#26751e;}.cls-16{fill:#298e28;}.cls-17{fill:#ccc;}.cls-18{fill:#a2a2a2;}.cls-19{fill:#2ca731;}.cls-20{fill:#75ab71;}.cls-21{fill:#4b9246;}.cls-22{fill:#272727;}.cls-23{fill:#616161;}.cls-24{fill:#424242;}.cls-25{fill:#939393;}.cls-26{fill:#4d4d4d;}.cls-27{fill:#828282;}.cls-28{fill:#8a8a8a;}.cls-29{fill:#737373;}</style></defs><title>selenium</title><g id="Layer_2" data-name="Layer 2"><g id="Layer_1-2" data-name="Layer 1"><path class="cls-1" d="M33.66,3.94c.3-.3.61-.59.91-.9l2.9-3,.3.52,2,3.51a3.3,3.3,0,0,0,.22.3v.16s0,0-.07,0L36.25,8.31l-.88.94-.78.85a.49.49,0,0,0-.2.11L32,12.67l-1.88,1.95-1.21,1.26-1.15,1.18-1.33,1.39-1.16,1.2-1,1-.83.81L23.05,21l-1.9-2-1.69-1.83L18,15.62c-.45-.49-.91-1-1.37-1.46,0-.12,0-.26,0-.35.16-.3.36-.59.55-.88L18,11.76l.68-1,.64-.91.69.6,1.57,1.48L23,13.32l.86.93.71-.78,1.11-1.16,1.11-1.16.83-.88L28.83,9l1.49-1.56,1.19-1.24.83-.87A3.76,3.76,0,0,0,32.68,5,3.23,3.23,0,0,0,33,4.57ZM20.22,11.51l-.76-.94-.74,1.15-.32.47-.33.49-.2.31-.27.39-.18.3c-.2.16-.18.3,0,.48.85.88,1.68,1.77,2.51,2.66s1.78,1.93,2.68,2.89c.29.31.6.6.89.9a.86.86,0,0,0,.16-.13l3.89-4a.91.91,0,0,0,.08-.13L28,16q1.64-1.71,3.29-3.41l2.44-2.53.15-.12q2.55-2.64,5.11-5.27c.27-.28.33-.51.09-.83a7.52,7.52,0,0,1-.45-.78L37.34.92a3.66,3.66,0,0,1-.27.32L33,5.47,30.52,8.14,27.84,11l-1.77,1.84-2.22,2.07-.41-.34-1.57-1.49-.19-.16-.37-.36-.24-.23-.45-.41Z"/><path class="cls-2" d="M35.37,9.25l.88-.94c0,.44.12.88.12,1.31q0,11,0,21.92a7.16,7.16,0,0,1-7.18,7.22q-11,0-22,0a7,7,0,0,1-7-5.54A7.56,7.56,0,0,1,0,31.52Q0,20.57,0,9.64A7.07,7.07,0,0,1,5.91,2.5a6.9,6.9,0,0,1,1.28-.1h22a6.82,6.82,0,0,1,4.47,1.55L33,4.57l-.17-.08a6.1,6.1,0,0,0-3.67-1.1H8.89c-.75,0-1.5,0-2.25,0a5.37,5.37,0,0,0-2.83,1A5.64,5.64,0,0,0,1.29,7.69L1,9.64V26.21c0,1,0,2,0,3,0,.3.1.38.39.36a6.61,6.61,0,0,1,1.09,0,6.93,6.93,0,0,1,.87.22,5.16,5.16,0,0,1-.77.21c-.24,0-.28.17-.22.36a5.83,5.83,0,0,0,2.29,3.44A7.85,7.85,0,0,0,7.8,35c-.06.78-.08,1.57-.19,2.35-.05.33,0,.38.31.38,1.15,0,2.31,0,3.47,0H29.05l2-.27,1.77-.87a1.86,1.86,0,0,1,.26-.23,4.43,4.43,0,0,0,1.52-1.75,5.47,5.47,0,0,0,.78-2.56c0-2.51,0-5,0-7.51V21.36c0-.1,0-.2,0-.31C35.38,17.12,35.37,13.18,35.37,9.25Z"/><path class="cls-3" d="M32.34,5.36l-.83.87a1.45,1.45,0,0,0-.41-.1c-3,0-6,.07-9-.16l-.92-.07-2.52-.16c-.14,0-.29,0-.43,0l-2-.2c-.66-.06-1.32-.12-2-.16l-1.83-.08c-.61,0-1.22,0-1.83,0-.9,0-1.8-.17-2.71-.21S6,5,5.08,5c-.18,0-.38,0-.41-.23l.08-.08a.85.85,0,0,0,.22,0,6.44,6.44,0,0,1,2.6-.5c1.07,0,2.13,0,3.19,0h8.68c3.08,0,6.17,0,9.25,0a7.94,7.94,0,0,1,1.88.24A3.42,3.42,0,0,1,32.34,5.36Z"/><path class="cls-4" d="M30.32,7.47,28.83,9a7.78,7.78,0,0,1-2.08-.21,5.14,5.14,0,0,0-1.47,0,3.11,3.11,0,0,1-.43,0c-1.07-.14-2.14-.33-3.21-.42-1.24-.11-2.48-.12-3.72-.17H17.8C17,8.07,16.23,8,15.45,7.93s-1.32-.06-2-.08L9.59,7.69H9.31c-.94-.07-1.87-.19-2.81-.21-1.45,0-2.89,0-4.34,0,.4-.55.79-1.11,1.18-1.66,0,.33.24.33.46.33,1.14,0,2.28-.09,3.4,0A56,56,0,0,0,13,6.36a3.1,3.1,0,0,1,.43,0c.77.07,1.54.15,2.31.21.37,0,.73,0,1.1,0,.89.06,1.77.15,2.66.22l.5.07c.49.06,1,.12,1.46.16a4.75,4.75,0,0,1,.93,0,7.79,7.79,0,0,0,2.4.21l.46,0a11.6,11.6,0,0,0,1.3.18C27.8,7.53,29.06,7.49,30.32,7.47Z"/><path class="cls-5" d="M30.52,8.14,33,5.47l4-4.23a3.66,3.66,0,0,0,.27-.32l1.24,2.17a7.52,7.52,0,0,0,.45.78c.24.32.18.55-.09.83Q36.38,7.33,33.83,10l-.15.12a1.93,1.93,0,0,0-.35-.29C32.57,9.41,31.79,9,31,8.63A2.18,2.18,0,0,1,30.52,8.14Z"/><path class="cls-6" d="M27.65,10.27l-.83.88c-.16,0-.33-.08-.49-.1a2.5,2.5,0,0,1-.73,0,4.46,4.46,0,0,0-1.81-.2l-.35,0-1.53-.2c-.35-.05-.71-.11-1.07-.14s-.58,0-.87,0l-.69-.6-.64.91C13,10.3,7.31,10.05,1.63,10l0-.38.18-1.1H6.5c1,.07,2,.17,3,.22s1.94.05,2.91.09c.71,0,1.42.1,2.13.15l1.32.08,2.71.15.38,0,2,.21.8.09,3,.38a.85.85,0,0,1,.16,0l2.65.25Z"/><path class="cls-7" d="M30.32,7.47c-1.26,0-2.52.06-3.78.06a11.6,11.6,0,0,1-1.3-.18l-.46,0a7.79,7.79,0,0,1-2.4-.21,4.75,4.75,0,0,0-.93,0C21,7,20.48,7,20,6.9l-.5-.07c-.89-.07-1.77-.16-2.66-.22-.37,0-.73,0-1.1,0-.77-.06-1.54-.14-2.31-.21a3.1,3.1,0,0,0-.43,0A56,56,0,0,1,7.2,6.15c-1.12-.11-2.26,0-3.4,0-.22,0-.46,0-.46-.33l1.33-1c0,.27.23.23.41.23C6,5,7,5,7.93,5s1.81.16,2.71.21c.61,0,1.22,0,1.83,0l1.83.08c.65,0,1.31.1,2,.16l2,.2c.14,0,.29,0,.43,0l2.52.16L22.1,6c3,.23,6,.14,9,.16a1.45,1.45,0,0,1,.41.1Z"/><path class="cls-8" d="M23.05,21l.45.42.83-.81c.49.11,1,.25,1.45.32.81.11,1.62.17,2.42.26l.08,0,1.33.19c.15,0,.31,0,.46,0,.67.14,1.32.34,2,.43.87.13,1.75.18,2.62.26,0,.39-.05.78-.08,1.17l-.15,1.09a2.93,2.93,0,0,0-1.54-.32c-.07,0-.14,0-.22-.05l-.94-.18c-.14,0-.28,0-.42,0l-1.09-.19-.91-.16-.57-.07-.54,0-2-.26a11.1,11.1,0,0,0-1.36-.72,6.37,6.37,0,0,0-4.92.18,4.49,4.49,0,0,0-.86-.33c-.45-.09-.91-.12-1.37-.17L17,22l-1.18-.16-.72-1.48c.33,0,.67,0,1,0,.51.05,1,.14,1.52.2a2.47,2.47,0,0,1,.39,0,22.45,22.45,0,0,0,3.17.36c.37.07.75.08,1.11.18A.74.74,0,0,0,23.05,21Z"/><path class="cls-9" d="M27.65,10.27l-.15-.06L24.85,10a.85.85,0,0,0-.16,0l-3-.38-.8-.09-2-.21-.38,0L15.84,9.1,14.52,9c-.71,0-1.42-.12-2.13-.15-1,0-1.94,0-2.91-.09s-2-.15-3-.22H1.78L2,7.78l.21-.32c1.45,0,2.89,0,4.34,0,.94,0,1.87.14,2.81.21h.28l3.88.16c.66,0,1.32,0,2,.08s1.57.14,2.35.22h.12c1.24.05,2.48.06,3.72.17,1.07.09,2.14.28,3.21.42a3.11,3.11,0,0,0,.43,0,5.14,5.14,0,0,1,1.47,0A7.78,7.78,0,0,0,28.83,9Z"/><path class="cls-10" d="M19.46,17.21,21.15,19c-.14,0-.3.14-.42.1a18.15,18.15,0,0,0-3-.35c-.4-.05-.82,0-1.24-.05s-1.07-.12-1.61-.19c-.35,0-.71-.1-1.07-.12s-.52-.25-.75.05a9.35,9.35,0,0,0-5.38-.58.75.75,0,0,0-.25-.13c-.84-.06-1.68-.12-2.52-.15-1.08,0-2.17-.06-3.26-.08l0-1,0-.25c1.94,0,3.88,0,5.82.22,1.66.16,3.34.12,5,.18.35,0,.7.06,1,.09l1.38.14,1.89.16.77.07c.45.05.9.11,1.34.14A2.78,2.78,0,0,0,19.46,17.21Z"/><path class="cls-11" d="M19.46,17.21a2.78,2.78,0,0,1-.57.07c-.44,0-.89-.09-1.34-.14l-.77-.07-1.89-.16-1.38-.14c-.35,0-.7-.08-1-.09-1.67-.06-3.35,0-5-.18-1.94-.19-3.88-.22-5.82-.22v-1.4L9.41,15h.12a15.6,15.6,0,0,0,3.48.23c.32,0,.64.06,1,.09l1.19.14c.6.07,1.21.16,1.81.2a6.74,6.74,0,0,0,1-.08Z"/><path class="cls-12" d="M18,15.62a6.74,6.74,0,0,1-1,.08c-.6,0-1.21-.13-1.81-.2L14,15.36c-.32,0-.64-.09-1-.09A15.6,15.6,0,0,1,9.53,15H9.41l-7.79-.16,0-1.09,0-.24,2,.08,4.15.16,6.13.23.23.05a5.48,5.48,0,0,0,2.45.09Z"/><path class="cls-13" d="M18,11.76l-.78,1.17a29.32,29.32,0,0,1-3.1-.2c-1.19-.14-2.42-.14-3.63-.25C8.64,12.33,6.8,12.34,5,12.3c-1.12,0-2.24,0-3.35,0l0-.78,0-.55L3,11.05l5.68.16,1.94.07,3.18.16c.25,0,.5,0,.74,0Z"/><path class="cls-14" d="M1.63,12.3c1.11,0,2.23,0,3.35,0,1.82,0,3.66,0,5.47.18,1.21.11,2.44.11,3.63.25a29.32,29.32,0,0,0,3.1.2c-.19.29-.39.58-.55.88-.06.09,0,.23,0,.35a5.48,5.48,0,0,1-2.45-.09L13.92,14l-6.13-.23-4.15-.16-2-.08Z"/><path class="cls-15" d="M27.62,16.36a.91.91,0,0,1-.08.13l-3.89,4a.86.86,0,0,1-.16.13c-.29-.3-.6-.59-.89-.9-.9-1-1.78-1.93-2.68-2.89S18.26,15,17.41,14.16c-.17-.18-.19-.32,0-.48l.67.43L21,16.22l1.48,1.08c.17.06.38.21.49.15.37-.2.69-.49,1.06-.7.56-.32.8-1.09,1.57-1.11a1.29,1.29,0,0,1,.52,0C26.63,15.87,27.12,16.12,27.62,16.36Z"/><path class="cls-16" d="M27.62,16.36c-.5-.24-1-.49-1.5-.7a1.29,1.29,0,0,0-.52,0c-.77,0-1,.79-1.57,1.11-.37.21-.69.5-1.06.7-.11.06-.32-.09-.49-.15A12.48,12.48,0,0,0,24.23,16a7.14,7.14,0,0,0,1.61-2.4,5.74,5.74,0,0,0,.23-.81L27.84,11a2.34,2.34,0,0,1,.24.09l3.16,1.56Q29.59,14.32,28,16Z"/><path class="cls-17" d="M18,11.76l-3.4-.31c-.24,0-.49,0-.74,0l-3.18-.16L8.7,11.21,3,11.05,1.63,11V10c5.68,0,11.35.27,17,.71Z"/><path class="cls-12" d="M35.37,9.25c0,3.93,0,7.87,0,11.8,0,.11,0,.21,0,.31l-.36-.5-.33-.43V20c0-.39,0-.78,0-1.17a.71.71,0,0,0-.54-.76,2.54,2.54,0,0,0-.68-.1c-.33,0-.67,0-1-.06s-.66-.13-1-.18a2.85,2.85,0,0,1-.51,0,18.54,18.54,0,0,0-2.88-.44,1.46,1.46,0,0,1-.3-.16l1.15-1.18c.47.11.94.23,1.42.32s.91.15,1.36.21l2.37.26a.41.41,0,0,0,.51-.4c0-.46,0-.93.07-1.39V12.69l-.08-2.59Z"/><path class="cls-18" d="M13,18.48c.23-.3.5-.07.75-.05s.72.08,1.07.12c.54.07,1.08.14,1.61.19s.84,0,1.24.05a18.15,18.15,0,0,1,3,.35c.12,0,.28-.07.42-.1l1.9,2a.74.74,0,0,1-.72.11c-.36-.1-.74-.11-1.11-.18a22.45,22.45,0,0,1-3.17-.36,2.47,2.47,0,0,0-.39,0c-.51-.06-1-.15-1.52-.2-.34,0-.68,0-1,0A6.39,6.39,0,0,0,13,18.48Z"/><path class="cls-19" d="M31.24,12.62l-3.16-1.56a2.34,2.34,0,0,0-.24-.09c.89-1,1.79-1.89,2.68-2.83a2.18,2.18,0,0,0,.52.49c.75.41,1.53.78,2.29,1.17a1.93,1.93,0,0,1,.35.29C32.87,10.93,32.05,11.77,31.24,12.62Z"/><path class="cls-11" d="M27.79,17.06a1.46,1.46,0,0,0,.3.16,18.54,18.54,0,0,1,2.88.44,2.85,2.85,0,0,0,.51,0c.32,0,.65.14,1,.18s.67,0,1,.06a2.54,2.54,0,0,1,.68.1.71.71,0,0,1,.54.76c0,.39,0,.78,0,1.17a1.14,1.14,0,0,0-.34-.15l-1.91-.25a.8.8,0,0,1-.15,0c-.73-.14-1.45-.32-2.19-.42-.92-.12-1.84-.16-2.77-.25-.33,0-.67-.05-.85-.41Z"/><path class="cls-10" d="M26.46,18.45c.18.36.52.38.85.41.93.09,1.85.13,2.77.25.74.1,1.46.28,2.19.42a.8.8,0,0,0,.15,0l1.91.25a1.14,1.14,0,0,1,.34.15v1.33A3,3,0,0,0,33.41,21a19.86,19.86,0,0,1-2-.24l-.08,0-1.09-.2-.46-.06-1.1-.17c-.75-.09-1.51-.15-2.26-.25a6.74,6.74,0,0,1-1-.24c-.06,0-.1-.09-.14-.13Z"/><path class="cls-12" d="M32.34,5.36a3.42,3.42,0,0,0-1.77-.93,7.94,7.94,0,0,0-1.88-.24c-3.08,0-6.17,0-9.25,0l-.52-.45c-.12-.1-.23-.21-.34-.32H29.11a6.1,6.1,0,0,1,3.67,1.1l.17.08a3.23,3.23,0,0,1-.27.44A3.76,3.76,0,0,1,32.34,5.36Z"/><path class="cls-18" d="M25.3,19.65s.08.11.14.13a6.74,6.74,0,0,0,1,.24c.75.1,1.51.16,2.26.25l1.1.17.46.06,1.09.2.08,0a19.86,19.86,0,0,0,2,.24,3,3,0,0,1,1.26.33v.86c-.87-.08-1.75-.13-2.62-.26-.66-.09-1.31-.29-2-.43-.15,0-.31,0-.46,0l-1.33-.19-.08,0c-.8-.09-1.61-.15-2.42-.26-.49-.07-1-.21-1.45-.32Z"/><path class="cls-13" d="M34.67,12.69v2.19A3.83,3.83,0,0,1,32.5,15,10.82,10.82,0,0,0,31,14.79a6.54,6.54,0,0,1-.86-.17L32,12.67a6.56,6.56,0,0,0,.88.09C33.49,12.76,34.08,12.72,34.67,12.69Z"/><path class="cls-14" d="M30.15,14.62a6.54,6.54,0,0,0,.86.17A10.82,10.82,0,0,1,32.5,15a3.83,3.83,0,0,0,2.17-.09c0,.46,0,.93-.07,1.39a.41.41,0,0,1-.51.4l-2.37-.26c-.45-.06-.91-.12-1.36-.21s-.95-.21-1.42-.32Z"/><path class="cls-20" d="M21,16.22l-2.91-2.11a2.33,2.33,0,0,1,.46,0,3.52,3.52,0,0,0,3.06-.71,1.12,1.12,0,0,0,.26-.37l1.57,1.49c-.48.38-1,.77-1.46,1.13C21.67,15.88,21.33,16,21,16.22Z"/><path class="cls-17" d="M20,10.43c.29,0,.58,0,.87,0s.72.09,1.07.14l1.53.2.35,0a4.46,4.46,0,0,1,1.81.2,2.5,2.5,0,0,0,.73,0c.16,0,.33.07.49.1l-1.11,1.16-2.15-.25c-.29,0-.58-.1-.88-.12s-.76,0-1.14,0Z"/><path class="cls-21" d="M21,16.22c.33-.18.67-.34,1-.55.5-.36,1-.75,1.46-1.13l.41.34c.74-.7,1.48-1.38,2.22-2.07a5.74,5.74,0,0,1-.23.81A7.14,7.14,0,0,1,24.23,16a12.48,12.48,0,0,1-1.75,1.28Z"/><path class="cls-13" d="M21.54,11.91c.38,0,.76,0,1.14,0s.59.09.88.12l2.15.25L24.6,13.47A2.49,2.49,0,0,0,23,13.32Z"/><path class="cls-17" d="M34.67,12.69c-.59,0-1.18.07-1.76.07a6.56,6.56,0,0,1-.88-.09l2.36-2.46a.49.49,0,0,1,.2-.11Z"/><path class="cls-18" d="M21.87,13.05a1.12,1.12,0,0,1-.26.37,3.52,3.52,0,0,1-3.06.71,2.33,2.33,0,0,0-.46,0l-.67-.43.18-.3.28.13a3.43,3.43,0,0,0,1.68.31,4.24,4.24,0,0,0,2.12-.93Z"/><path class="cls-10" d="M21.68,12.89a4.24,4.24,0,0,1-2.12.93,3.43,3.43,0,0,1-1.68-.31l-.28-.13.27-.39a2.39,2.39,0,0,0,1.92.37,2.26,2.26,0,0,0,1.52-.83Z"/><path class="cls-14" d="M18.07,12.68l.33-.49a1.79,1.79,0,0,0,2.22-.3l.45.41A2.65,2.65,0,0,1,18.07,12.68Z"/><path class="cls-11" d="M18.07,12.68a2.65,2.65,0,0,0,3-.38l.24.23a2.26,2.26,0,0,1-1.52.83A2.39,2.39,0,0,1,17.87,13Z"/><path class="cls-17" d="M18.72,11.72l.74-1.15.76.94A1.06,1.06,0,0,1,18.72,11.72Z"/><path class="cls-13" d="M18.72,11.72a1.06,1.06,0,0,0,1.5-.21l.4.38a1.79,1.79,0,0,1-2.22.3Z"/><path class="cls-14" d="M23,13.32a2.49,2.49,0,0,1,1.57.15l-.71.78Z"/><path class="cls-22" d="M13,18.48a6.39,6.39,0,0,1,2.1,1.87l.72,1.48c-.08.1-.15.26-.25.3-.65.24-1.31.46-2,.68l-1.51.49-.33-.71a2.1,2.1,0,0,0-1.75-1.23,6.35,6.35,0,0,0-1.51,0c-.73.12-1,.42-1,1.06a1,1,0,0,0,.64,1,6.44,6.44,0,0,0,.74.25l4.18,1.08.15.07.39.18c.37.28.75.55,1.11.85a9.93,9.93,0,0,1,.72.73l.76,2.08a5.69,5.69,0,0,1-.32,2.59c-.24.5-.53,1-.79,1.46-.41.38-.8.78-1.23,1.13A7.19,7.19,0,0,1,11.46,35,14,14,0,0,1,7.8,35a7.85,7.85,0,0,1-3.16-1.23,5.83,5.83,0,0,1-2.29-3.44c-.06-.19,0-.32.22-.36a5.16,5.16,0,0,0,.77-.21c.89-.18,1.78-.35,2.66-.57.31-.08.41,0,.49.29a2.36,2.36,0,0,0,1.69,1.77c.54.12,1.1.15,1.65.22a7.48,7.48,0,0,0,1.25-.36A1.15,1.15,0,0,0,11.79,30a1,1,0,0,0-.73-.95c-.41-.16-.83-.27-1.25-.41-.67-.16-1.34-.29-2-.48a6.74,6.74,0,0,1-4-2.35l-.57-1.48-.1-1.48.27-1.4A6,6,0,0,1,5.25,19a6.63,6.63,0,0,1,2.4-1.06A9.35,9.35,0,0,1,13,18.48Zm2.13,3.21a4.94,4.94,0,0,0-2.92-2.91,8.49,8.49,0,0,0-4.12-.38,4.84,4.84,0,0,0-4.35,4.68A3.66,3.66,0,0,0,6,26.85c1,.4,2,.68,2.94,1,.79.25,1.62.39,2.38.71a1.64,1.64,0,0,1,.38,2.88,2.68,2.68,0,0,1-1.58.6c-1.77.17-3.44-.28-4.12-2.1,0,0,0,0-.07-.08L3,30.51a4.91,4.91,0,0,0,2.66,3.26,8.82,8.82,0,0,0,5.57.58,5.34,5.34,0,0,0,3.47-2.05,4.44,4.44,0,0,0-2.06-7c-.85-.3-1.75-.47-2.62-.72a20.56,20.56,0,0,1-2.2-.64,1.61,1.61,0,0,1,0-2.9,3.42,3.42,0,0,1,4.54,1.49s0,0,.09.06Z"/><path class="cls-23" d="M15.13,32.76c.26-.48.55-1,.79-1.46a5.69,5.69,0,0,0,.32-2.59h.28c0,.14,0,.28,0,.43a6,6,0,0,0,2.87,5.12,11.3,11.3,0,0,0,1.36.65l-.08,2.86H15.46a5.45,5.45,0,0,1,0-.7A12,12,0,0,0,15.13,32.76Z"/><path class="cls-24" d="M9.83,31.51c-.55-.07-1.11-.1-1.65-.22a2.36,2.36,0,0,1-1.69-1.77c-.08-.28-.18-.37-.49-.29-.88.22-1.77.39-2.66.57a6.93,6.93,0,0,0-.87-.22,6.61,6.61,0,0,0-1.09,0c-.29,0-.39-.06-.39-.36,0-1,0-2,0-3H2.56a6.24,6.24,0,0,0,2,1.8,5.74,5.74,0,0,0,3.25.69.85.85,0,0,0,.09.24c.39.42.83.8,1.17,1.25A10.83,10.83,0,0,1,9.83,31.51Z"/><path class="cls-25" d="M31,37.49l-2,.27a34.16,34.16,0,0,0-.24-5.54c-.08-.45-.22-.89-.32-1.33l.1-.49-.32-.06-.16-.9.47-.05,0-.68,1.44-.08a8.89,8.89,0,0,0,.13.88,28,28,0,0,1,.73,6c0,.53,0,1.06,0,1.6A1.86,1.86,0,0,0,31,37.49Z"/><path class="cls-8" d="M31,37.49a1.86,1.86,0,0,1-.1-.39c0-.54,0-1.07,0-1.6a28,28,0,0,0-.73-6,8.89,8.89,0,0,1-.13-.88L31.7,28c0,.12.08.24.11.37.27,1.54.61,3.09.81,4.64.15,1.19.13,2.41.18,3.61Z"/><path class="cls-26" d="M15.13,32.76a12,12,0,0,1,.33,4.3,5.45,5.45,0,0,0,0,.7H11.39c0-.94,0-1.88.07-2.82a7.19,7.19,0,0,0,2.44-1.06C14.33,33.54,14.72,33.14,15.13,32.76Z"/><path class="cls-18" d="M32.8,36.62c0-1.2,0-2.42-.18-3.61-.2-1.55-.54-3.1-.81-4.64,0-.13-.07-.25-.11-.37l.78-.55.71-.62,0,.23c.28,1.2.61,2.38.81,3.59s.27,2.51.41,3.76a.62.62,0,0,0,.14.23,4.43,4.43,0,0,1-1.52,1.75A1.86,1.86,0,0,0,32.8,36.62Z"/><path class="cls-10" d="M34.58,34.64a.62.62,0,0,1-.14-.23c-.14-1.25-.21-2.52-.41-3.76s-.53-2.39-.81-3.59l0-.23.62-.93.63-1.49.15-1.09a2.42,2.42,0,0,1,.36.43,7.84,7.84,0,0,1,.41.82c0,2.5,0,5,0,7.51A5.47,5.47,0,0,1,34.58,34.64Z"/><path class="cls-27" d="M27.17,37.76H23.89V35a5.55,5.55,0,0,0,3.18-1.65s.09.1.09.16A14.44,14.44,0,0,1,27.24,35C27.24,35.93,27.2,36.84,27.17,37.76Z"/><path class="cls-28" d="M27.17,37.76c0-.92.07-1.83.07-2.75a14.44,14.44,0,0,0-.08-1.46c0-.06-.05-.11-.09-.16a8.84,8.84,0,0,0,1.42-2.5c.1.44.24.88.32,1.33a34.16,34.16,0,0,1,.24,5.54Z"/><path class="cls-24" d="M11.46,35c0,.94-.05,1.88-.07,2.82-1.16,0-2.32,0-3.47,0-.3,0-.36-.05-.31-.38.11-.78.13-1.57.19-2.35A14,14,0,0,0,11.46,35Z"/><path class="cls-29" d="M23.89,35v2.72h-3.2c0-.95,0-1.91.08-2.86A9.34,9.34,0,0,0,23.89,35Z"/><path class="cls-18" d="M10.76,4.17c-1.06,0-2.12,0-3.19,0a6.44,6.44,0,0,0-2.6.5.85.85,0,0,1-.22,0,1.5,1.5,0,0,0-.23-.15l-.71-.2a5.37,5.37,0,0,1,2.83-1c.75-.05,1.5,0,2.25,0a.94.94,0,0,0,.28.22c.35.1.71.14,1.05.25A3.2,3.2,0,0,1,10.76,4.17Z"/><path class="cls-11" d="M18.58,3.4c.11.11.22.22.34.32l.52.45h-5c-.2-.13-.38-.26-.58-.38s-.45-.26-.67-.38Z"/><path class="cls-23" d="M1.59,16.53l0,1v3.82l0,1.49H1V16.52Z"/><path class="cls-8" d="M3.81,4.37l.71.2a1.5,1.5,0,0,1,.23.15l-.08.08-1.33,1C3,6.35,2.56,6.91,2.16,7.46L2,7.78l-.66-.09A5.64,5.64,0,0,1,3.81,4.37Z"/><path class="cls-10" d="M13.19,3.41c.22.12.45.24.67.38s.38.25.58.38H10.76a3.2,3.2,0,0,0-.54-.3c-.34-.11-.7-.15-1.05-.25a.94.94,0,0,1-.28-.22Z"/><path class="cls-26" d="M1,22.84h.61l.16,1.48.56,1.48.22.4H1C1,25.08,1,24,1,22.84Z"/><path class="cls-11" d="M35.36,24.57a7.84,7.84,0,0,0-.41-.82,2.42,2.42,0,0,0-.36-.43c0-.39,0-.78.08-1.17V20.43l.33.43.36.5Z"/><path class="cls-29" d="M1.59,16.53H1V13.78H1.6l0,1.09v1.4Z"/><path class="cls-27" d="M1.6,13.79H1V11.52H1.6l0,.78v1.25Z"/><path class="cls-25" d="M1.29,7.69,2,7.78c-.06.25-.11.51-.17.77L1.6,9.65H1Z"/><path class="cls-28" d="M1,9.64H1.6l0,.38V11l0,.55H1Z"/><path class="cls-22" d="M23.89,35a9.34,9.34,0,0,1-3.12-.14,11.3,11.3,0,0,1-1.36-.65,6,6,0,0,1-2.87-5.12c0-.15,0-.29,0-.43l.18-1.95.48-1.39,1.4-1.89,1.33-.91a6.37,6.37,0,0,1,4.92-.18,12,12,0,0,1,1.37.72,6.38,6.38,0,0,1,1.56,1.79l.66,1.86.2,2,0,.68-.47.05H20.88c-.17,1.48.65,2.56,1.92,2.55s1.49-.28,2-1.88l1.1.07,2.35.16.32.06-.1.49a8.84,8.84,0,0,1-1.42,2.5A5.55,5.55,0,0,1,23.89,35Zm4.18-6.17c-.07-.63-.11-1.21-.2-1.79A5,5,0,0,0,24,22.72a5.27,5.27,0,0,0-5.73,2,6.49,6.49,0,0,0-1.19,4.19,5.51,5.51,0,0,0,5.23,5.67,5.16,5.16,0,0,0,5.42-3.36c0-.09.05-.18.08-.29l-2.56-.19c0,.1-.06.16-.08.22a2.24,2.24,0,0,1-2.36,1.66,2.47,2.47,0,0,1-2.41-1.86,13.82,13.82,0,0,1-.17-1.86Z"/><path class="cls-25" d="M27.76,24.89A6.38,6.38,0,0,0,26.2,23.1l2,.26.54,0,.57.07.91.16,1.09.19c.14,0,.28,0,.42,0l.94.18c.08,0,.15.06.22.05a2.93,2.93,0,0,1,1.54.32l-.63,1.49a.88.88,0,0,0-.15-.12,8.68,8.68,0,0,0-2.37-.42c-.76-.12-1.53-.17-2.3-.26l-.07,0A1.67,1.67,0,0,0,27.76,24.89Z"/><path class="cls-25" d="M19.91,22.56l-1.33.91c-.57-.1-1.13-.25-1.7-.3-1-.09-1.95-.11-2.92-.17-.11,0-.21-.12-.32-.19.65-.22,1.31-.44,2-.68.1,0,.17-.2.25-.3L17,22l.65.07c.46.05.92.08,1.37.17A4.49,4.49,0,0,1,19.91,22.56Z"/><path class="cls-18" d="M1.62,18.79V17.54c1.09,0,2.18,0,3.26.08.84,0,1.68.09,2.52.15a.75.75,0,0,1,.25.13A6.63,6.63,0,0,0,5.25,19a1.54,1.54,0,0,0-.37-.09C3.8,18.83,2.71,18.81,1.62,18.79Z"/><path class="cls-3" d="M15.16,21.69l-2.65.88s-.08,0-.09-.06A3.42,3.42,0,0,0,7.88,21a1.61,1.61,0,0,0,0,2.9,20.56,20.56,0,0,0,2.2.64c.87.25,1.77.42,2.62.72a4.44,4.44,0,0,1,2.06,7,5.34,5.34,0,0,1-3.47,2.05,8.82,8.82,0,0,1-5.57-.58A4.91,4.91,0,0,1,3,30.51l2.91-.66s.06,0,.07.08c.68,1.82,2.35,2.27,4.12,2.1a2.68,2.68,0,0,0,1.58-.6,1.64,1.64,0,0,0-.38-2.88c-.76-.32-1.59-.46-2.38-.71-1-.31-2-.59-2.94-1a3.66,3.66,0,0,1-2.23-3.77A4.84,4.84,0,0,1,8.12,18.4a8.49,8.49,0,0,1,4.12.38A4.94,4.94,0,0,1,15.16,21.69Z"/><path class="cls-28" d="M13.64,22.81c.11.07.21.18.32.19,1,.06,1.95.08,2.92.17.57,0,1.13.2,1.7.3l-1.4,1.89c-.3-.08-.58-.19-.88-.24-.48-.09-1-.13-1.46-.2a1.54,1.54,0,0,0-1.19.13l-.39-.18-.15-.07L8.93,23.72a6.44,6.44,0,0,1-.74-.25,1,1,0,0,1-.64-1c.37,0,.75.07,1.12.07a9.52,9.52,0,0,1,2.66.22c.13,0,.31-.11.47-.16l.33.71Z"/><path class="cls-26" d="M9.83,31.51a10.83,10.83,0,0,0-.77-1.32c-.34-.45-.78-.83-1.17-1.25a.85.85,0,0,1-.09-.24c.19,0,.38,0,.57,0l1.44-.06c.42.14.84.25,1.25.41a1,1,0,0,1,.73.95,1.15,1.15,0,0,1-.71,1.15A7.48,7.48,0,0,1,9.83,31.51Z"/><path class="cls-8" d="M1.62,18.79c1.09,0,2.18,0,3.26.08a1.54,1.54,0,0,1,.37.09,6,6,0,0,0-1.8,2.49l-1.82-.09Z"/><path class="cls-29" d="M9.81,28.64l-1.44.06c-.19,0-.38,0-.57,0A5.74,5.74,0,0,1,4.55,28a6.24,6.24,0,0,1-2-1.8l-.22-.4H3.85a6.74,6.74,0,0,0,4,2.35C8.47,28.35,9.14,28.48,9.81,28.64Z"/><path class="cls-25" d="M11.8,22.59c-.16.05-.34.2-.47.16a9.52,9.52,0,0,0-2.66-.22c-.37,0-.75-.05-1.12-.07,0-.64.26-.94,1-1.06a6.35,6.35,0,0,1,1.51,0A2.1,2.1,0,0,1,11.8,22.59Z"/><path class="cls-27" d="M13.65,25.05a1.54,1.54,0,0,1,1.19-.13c.49.07,1,.11,1.46.2.3.05.58.16.88.24l-.48,1.39-1.22-.12a9.93,9.93,0,0,0-.72-.73C14.4,25.6,14,25.33,13.65,25.05Z"/><path class="cls-25" d="M1.63,21.36l1.82.09-.27,1.4H1.61C1.61,22.36,1.62,21.86,1.63,21.36Z"/><path class="cls-28" d="M1.62,22.85H3.18c0,.49.07,1,.1,1.48H1.78Z"/><path class="cls-27" d="M1.78,24.33h1.5l.57,1.48H2.34C2.15,25.32,2,24.82,1.78,24.33Z"/><path class="cls-29" d="M15.48,26.63l1.22.12-.18,1.95h-.28C16,28,15.73,27.32,15.48,26.63Z"/><path class="cls-27" d="M13.11,24.8l.15.07Z"/><path class="cls-27" d="M28.62,28.71c-.07-.65-.14-1.3-.2-2a4.92,4.92,0,0,1,1.36.2,18.11,18.11,0,0,0,2.23.28,2,2,0,0,1,.47.22L31.7,28l-1.64.63Z"/><path class="cls-28" d="M25.77,29.44h2.34l.16.9-2.35-.16Z"/><path class="cls-28" d="M32.48,27.45a2,2,0,0,0-.47-.22A18.11,18.11,0,0,1,29.78,27a4.92,4.92,0,0,0-1.36-.2l-.66-1.86a1.67,1.67,0,0,1,1.16.19l.07,0c.77.09,1.54.14,2.3.26a8.68,8.68,0,0,1,2.37.42.88.88,0,0,1,.15.12l-.62.93Z"/><path class="cls-3" d="M28.07,28.87H20.24a13.82,13.82,0,0,0,.17,1.86,2.47,2.47,0,0,0,2.41,1.86,2.24,2.24,0,0,0,2.36-1.66c0-.06,0-.12.08-.22l2.56.19c0,.11-.05.2-.08.29a5.16,5.16,0,0,1-5.42,3.36,5.51,5.51,0,0,1-5.23-5.67,6.49,6.49,0,0,1,1.19-4.19,5.27,5.27,0,0,1,5.73-2,5,5,0,0,1,3.86,4.36C28,27.66,28,28.24,28.07,28.87Zm-7.91-1.53h5c-.11-.53-.17-1-.32-1.52a2,2,0,0,0-1.8-1.49,2.16,2.16,0,0,0-2.39,1.23A12.4,12.4,0,0,0,20.16,27.34Z"/><path class="cls-27" d="M25.77,29.44l.15.74-1.1-.07c-.53,1.6-.87,1.91-2,1.88-.07-.31-.13-.63-.2-.94-.11-.54-.23-1.08-.35-1.61Z"/><path class="cls-29" d="M22.25,29.44c.12.53.24,1.07.35,1.61.07.31.13.63.2.94-1.27,0-2.09-1.07-1.92-2.55Z"/><path class="cls-22" d="M20.16,27.34a12.4,12.4,0,0,1,.53-1.78,2.16,2.16,0,0,1,2.39-1.23,2,2,0,0,1,1.8,1.49c.15.48.21,1,.32,1.52Zm.91-1.22-.19.64H24.5c-.12-1.17-.65-1.81-1.52-1.88A1.69,1.69,0,0,0,21.07,26.12Z"/><path class="cls-28" d="M21.07,26.12A1.69,1.69,0,0,1,23,24.88c.87.07,1.4.71,1.52,1.88h-.61a1.53,1.53,0,0,0-.46-.23c-.72-.1-1.44-.17-2.15-.26C21.2,26.26,21.14,26.17,21.07,26.12Z"/><path class="cls-27" d="M21.07,26.12c.07.05.13.14.21.15.71.09,1.43.16,2.15.26a1.53,1.53,0,0,1,.46.23h-3Z"/></g></g></svg>