<svg xmlns="http://www.w3.org/2000/svg" viewBox="0 0 40.02 39.99"><defs><style>.cls-1{fill:#5c5560;}.cls-2{fill:#5d5760;}.cls-3{fill:#7fbf29;}.cls-4{fill:#3e8d33;}.cls-5{fill:#5c5660;}.cls-6{fill:#fbfdfb;}.cls-7{fill:#5c565f;}.cls-8{fill:#5c575f;}</style></defs><title>shopify</title><g id="Layer_2" data-name="Layer 2"><g id="Layer_1-2" data-name="Layer 1"><path class="cls-1" d="M0,18.43C.07,18,.15,17.49.22,17A19.8,19.8,0,0,1,7.57,4.33,19.57,19.57,0,0,1,17.3.17a4.85,4.85,0,0,1,.66,0,.42.42,0,0,1-.12.08,7.45,7.45,0,0,0-3.41,2.68,16.57,16.57,0,0,0-2.87,6.39.81.81,0,0,1-.64.7c-1.35.41-2.7.86-4,1.31a.57.57,0,0,0-.3.33c-.11.61-.17,1.23-.25,1.85l-.57,4.55-.6,4.59-.57,4.55c-.2,1.58-.41,3.16-.62,4.74A19.66,19.66,0,0,1,.23,23C.16,22.54.08,22,0,21.55Z"/><path class="cls-2" d="M18.36,40,17,39.76a19.4,19.4,0,0,1-7.66-2.89l3.59.64,8.24,1.54c.9.17,1.8.37,2.7.55l-2,.31-.32.08Z"/><path class="cls-3" d="M23.84,39.6c-.9-.18-1.8-.38-2.7-.55L12.9,37.51l-3.59-.64c-.73-.53-1.5-1-2.2-1.59A16.37,16.37,0,0,1,4,31.93c.21-1.58.42-3.16.62-4.74l.57-4.55.6-4.59.57-4.55c.08-.62.14-1.24.25-1.85a.57.57,0,0,1,.3-.33c1.34-.45,2.69-.9,4-1.31a.81.81,0,0,0,.64-.7,16.57,16.57,0,0,1,2.87-6.39A7.45,7.45,0,0,1,17.84.24.42.42,0,0,0,18,.16L19.84,0a3.39,3.39,0,0,1,1.74,1c.08.09.27.1.42.13a8.77,8.77,0,0,1,1.28.23,4,4,0,0,1,2,1.86c.33.57.61,1.18.91,1.76l1.35-.35-.09,2.18c-.06,1.34-.11,2.69-.16,4s-.1,2.57-.16,3.85l-.15,4c-.05,1.26-.11,2.52-.16,3.78s-.1,2.74-.16,4.12l-.15,3.77c-.06,1.5-.1,3-.16,4.51,0,1.12-.11,2.23-.15,3.34a5.36,5.36,0,0,0,.06.69ZM9.66,28.21l-.13.4c-.25.79-.48,1.59-.73,2.38-.19.59-.16.72.31,1.12A8.47,8.47,0,0,0,13.22,34a6.1,6.1,0,0,0,4-.56C19.79,32,20.5,28.69,20,26.58a6.24,6.24,0,0,0-2.33-3.5c-.78-.63-1.58-1.24-2.34-1.88a1.43,1.43,0,0,1-.55-1.35,1.83,1.83,0,0,1,1.68-1.58,6,6,0,0,1,3.25.42c.52.2.52.2.7-.34.38-1.15.76-2.3,1.15-3.44.18-.55.15-.61-.4-.77a9.43,9.43,0,0,0-4.09-.24,6.93,6.93,0,0,0-6.06,4.76c-.9,2.57-.56,4.94,1.8,6.74a8.69,8.69,0,0,1,1.28,1.14,4.05,4.05,0,0,1,.81,1.35,1.53,1.53,0,0,1-1.58,2,4.62,4.62,0,0,1-2.13-.69C10.72,28.92,10.22,28.58,9.66,28.21ZM13,9.26c.12,0,.15,0,.17,0,.94-.3,1.88-.59,2.81-.91a.42.42,0,0,0,.23-.27c.1-.31.16-.63.25-.94a9.27,9.27,0,0,1,2.3-4.28c.49-.48,1.07-.88,1.61-1.32a1.6,1.6,0,0,0-1.41-.2,5.4,5.4,0,0,0-2.43,1.42,8.8,8.8,0,0,0-2.39,3.51ZM21.3,2.77c-1.64.52-3.61,3.42-3.45,4.92,0,0,0,0,.07,0l3.55-1.15a.37.37,0,0,0,.16-.3,10.44,10.44,0,0,0,0-1.48C21.55,4.12,21.41,3.47,21.3,2.77ZM23.13,6l1.81-.58c-.16-.41-.28-.79-.46-1.15A3,3,0,0,0,23,2.73a3.67,3.67,0,0,0-.43-.09Z"/><path class="cls-4" d="M26.24,39a5.36,5.36,0,0,1-.06-.69c0-1.11.1-2.22.15-3.34.06-1.5.1-3,.16-4.51l.15-3.77c.06-1.38.11-2.75.16-4.12s.11-2.52.16-3.78l.15-4c.06-1.28.11-2.57.16-3.85s.1-2.7.16-4l.09-2.18a.78.78,0,0,1,.2.11c.81.7,1.62,1.42,2.44,2.12a1.52,1.52,0,0,0,.71.41c.9.08,1.82.08,2.72.1H34c.23,1.48.45,2.91.66,4.34.27,1.83.53,3.66.8,5.49s.57,3.74.85,5.6c.2,1.32.41,2.64.61,3.95.15,1,.28,2.08.42,3.12a18.68,18.68,0,0,1-3.47,4.48,19.82,19.82,0,0,1-7.42,4.54Z"/><path class="cls-5" d="M37.36,29.91c-.14-1-.27-2.08-.42-3.12-.2-1.31-.41-2.63-.61-3.95-.28-1.86-.57-3.73-.85-5.6s-.53-3.66-.8-5.49c-.21-1.43-.43-2.86-.66-4.34h-.43c-.9,0-1.82,0-2.72-.1a1.52,1.52,0,0,1-.71-.41c-.82-.7-1.63-1.42-2.44-2.12a.78.78,0,0,0-.2-.11L26.17,5c-.3-.58-.58-1.19-.91-1.76a4,4,0,0,0-2-1.86A8.77,8.77,0,0,0,22,1.17c-.15,0-.34,0-.42-.13a3.39,3.39,0,0,0-1.74-1A19.09,19.09,0,0,1,29.6,2.45a19.58,19.58,0,0,1,10,13.87,19.51,19.51,0,0,1-2,13.12Z"/><path class="cls-6" d="M9.66,28.21c.56.37,1.06.71,1.57,1a4.62,4.62,0,0,0,2.13.69,1.53,1.53,0,0,0,1.58-2,4.05,4.05,0,0,0-.81-1.35,8.69,8.69,0,0,0-1.28-1.14c-2.36-1.8-2.7-4.17-1.8-6.74a6.93,6.93,0,0,1,6.06-4.76,9.43,9.43,0,0,1,4.09.24c.55.16.58.22.4.77-.39,1.14-.77,2.29-1.15,3.44-.18.54-.18.54-.7.34a6,6,0,0,0-3.25-.42,1.83,1.83,0,0,0-1.68,1.58,1.43,1.43,0,0,0,.55,1.35c.76.64,1.56,1.25,2.34,1.88A6.24,6.24,0,0,1,20,26.58c.46,2.11-.25,5.44-2.84,6.82a6.1,6.1,0,0,1-4,.56,8.47,8.47,0,0,1-4.11-1.85c-.47-.4-.5-.53-.31-1.12.25-.79.48-1.59.73-2.38Z"/><path class="cls-7" d="M13,9.26l1.14-3a8.8,8.8,0,0,1,2.39-3.51,5.4,5.4,0,0,1,2.43-1.42,1.6,1.6,0,0,1,1.41.2c-.54.44-1.12.84-1.61,1.32a9.27,9.27,0,0,0-2.3,4.28c-.09.31-.15.63-.25.94a.42.42,0,0,1-.23.27c-.93.32-1.87.61-2.81.91C13.1,9.29,13.07,9.27,13,9.26Z"/><path class="cls-7" d="M21.3,2.77c.11.7.25,1.35.33,2a10.44,10.44,0,0,1,0,1.48.37.37,0,0,1-.16.3L17.92,7.71s-.05,0-.07,0C17.69,6.19,19.66,3.29,21.3,2.77Z"/><path class="cls-8" d="M23.13,6l-.58-3.39a3.67,3.67,0,0,1,.43.09,3,3,0,0,1,1.5,1.57c.18.36.3.74.46,1.15Z"/></g></g></svg>