<svg xmlns="http://www.w3.org/2000/svg" viewBox="0 0 37.59 37.59"><defs><style>.cls-1{fill:#070707;}.cls-2{fill:#fafafa;}.cls-3{fill:#f7f7f7;}.cls-4{fill:#0b0b0b;}.cls-5{fill:#eee;}.cls-6{fill:#f1f1f1;}.cls-7{fill:#ddd;}.cls-8{fill:#f3f3f3;}.cls-9{fill:#ebebeb;}.cls-10{fill:#e1e1e1;}.cls-11{fill:#f6f6f6;}.cls-12{fill:#e9e9e9;}.cls-13{fill:#ededed;}.cls-14{fill:#f4f4f4;}.cls-15{fill:#e6e6e6;}.cls-16{fill:#e0e0e0;}.cls-17{fill:#0d0d0d;}</style></defs><title>sql</title><g id="Layer_2" data-name="Layer 2"><g id="Layer_1-2" data-name="Layer 1"><path class="cls-1" d="M18.81,37.59A18.8,18.8,0,1,1,37.59,18.83,18.79,18.79,0,0,1,18.81,37.59ZM9.06,18.75l-.32.6c-.06,0-.07.08,0,.14-.07,1.17-.46,2.37.3,3.47l1.7,1,.19.06.64.18c.06,0,.11.11.17.12a28.38,28.38,0,0,0,10.47.42,26.31,26.31,0,0,0,4.44-1.14c.48-.15,1.17-.63,1.22-1a36.59,36.59,0,0,0,.05-4.08c-.54.28-.87.47-1.22.62a9.63,9.63,0,0,1-1.17.43,30.27,30.27,0,0,1-13.91.28l-1.68-.59-.72-.36C9.18,18.78,9.14,18.74,9.06,18.75ZM25.86,6.44l-.63-.2L23.94,5.9l-.42,0L21,5.49l-.63,0a33,33,0,0,0-9,.62l-1.05.59A1.5,1.5,0,0,0,8.84,8a31.73,31.73,0,0,0-.21,3.64c0,.42.37.83.56,1.24a8,8,0,0,0,4.89,1.28l.6,0,.88.27c2.39,0,4.8,0,7.18-.2A21.43,21.43,0,0,0,27.05,13,1.29,1.29,0,0,0,28,11.55c-.07-1.08-.17-2.16-.2-3.24a1.08,1.08,0,0,0-.89-1.19ZM18.67,32.35l.23.18,2.48-.07,1.08.72c.95-.88-.21-1.08-.39-1.57a4.4,4.4,0,0,0,.12-4.78l-1.45-1-2.3-.06-.65.29-.37.42-.72.62-.32.88-.09.6c-.31,2.19.64,3.71,2.39,3.83ZM9.23,13.69l-.39-.2-.05.37-.09.59-.06.46v1.47c0,1.5.74,2.2,2.71,2.55l1,.31,1.08.19,1.88.23,4.85.06c1.76-.28,3.54-.42,5.25-.86,2.41-.62,2.63-1.05,2.55-3.53,0-.35,0-.7-.05-1.05l-.12-.89-1.33.68-.89.4-.82.34a16.39,16.39,0,0,1-1.82.29c-2,.1-3.95.16-5.92.23h-.42l-.84,0-1.68-.17H12.6Zm.59,16.65c0,1.63,1.52,2.48,3.35,2.24a2.13,2.13,0,0,0,2.06-1.87c.12-1.08-.4-1.8-1.62-2.2-.63-.21-1.28-.35-1.89-.6a.83.83,0,0,1-.45-.61c0-.2.34-.55.51-.55.56,0,1.36,0,1.61.32.51.69,1,.52,1.59.42-.27-1.66-1.85-2.38-3.65-1.77A1.72,1.72,0,0,0,10,27.35a1.76,1.76,0,0,0,1.27,1.84c.61.22,1.29.31,1.88.57.32.15.78.64.72.81-.13.36-.56.85-.87.84a2.19,2.19,0,0,1-1.63-.54A1.11,1.11,0,0,0,9.82,30.34Zm18.94,1H25.34V25.79H24.07v6.67h4.69Z"/><path class="cls-2" d="M14.68,14.08l-.6,0c0-.1,0-.27-.1-.28-1.53-.37-3.06-.73-4.6-1.08-.05,0-.12.05-.19.08-.19-.41-.56-.82-.56-1.24A31.73,31.73,0,0,1,8.84,8a1.5,1.5,0,0,1,1.45-1.27l1.05.05L10,7.8a9.1,9.1,0,0,0,1.49.58,32,32,0,0,0,4.22.71c3.6.25,7.19.22,10.58-1.32h.17l.44-.46v-.2a1.08,1.08,0,0,1,.89,1.19c0,1.08.13,2.16.2,3.24A1.29,1.29,0,0,1,27.05,13a21.43,21.43,0,0,1-4.31,1.14c-2.38.23-4.79.15-7.18.2Z"/><path class="cls-3" d="M9,23c-.76-1.1-.37-2.3-.3-3.47.81.28.45-.32.48-.63l.72.36a1,1,0,0,0,1.68.59,30.27,30.27,0,0,0,13.91-.28,9.63,9.63,0,0,0,1.17-.43c.35-.15.68-.34,1.22-.62a36.59,36.59,0,0,1-.05,4.08c-.05.39-.74.87-1.22,1a26.31,26.31,0,0,1-4.44,1.14,28.38,28.38,0,0,1-10.47-.42c-.06,0-.11-.08-.17-.12l-.38-.5L10.9,24l-.19-.06L9.16,22.62Z"/><path class="cls-2" d="M15.31,19.66l-1.88-.23c-.22-.85-.62-.66-1.08-.19l-1-.31c-.15-.22-.28-.6-.45-.62C9.6,18.15,9,17.49,9.26,16.14l-.63.24v-1l.32-.2-.31-.22.06-.46L12,15.54l.37.38.26-.38v-.42h1.47c.26.34.46.9.78,1a.7.7,0,0,0,.9-.8l.84,0,.26.34.16-.33c2-.07,3.95-.13,5.92-.23a16.39,16.39,0,0,0,1.82-.29l.88,0-.06-.39.89-.4c.36.94,1-.12,1.45.21,0,.35,0,.7.05,1.05.08,2.48-.14,2.91-2.55,3.53-1.71.44-3.49.58-5.25.86a2.54,2.54,0,0,0-.8-.38c-.78-.05-1.57,0-2.35,0-.34-.57-.7-1.05-1.26-.2Z"/><path class="cls-4" d="M26.28,7.77c-3.39,1.54-7,1.57-10.58,1.32a32,32,0,0,1-4.22-.71A9.1,9.1,0,0,1,10,7.8l1.35-1.07-1.05-.05,1.05-.59v.42l.22.22.07,0,.07,0h.37l3.06-.46.84,0h4.41l.63,0,2.21.27.73.18,1.26.4.08,0,.09,0Z"/><path class="cls-5" d="M9.82,30.34a1.11,1.11,0,0,1,1.53.53,2.19,2.19,0,0,0,1.63.54c.31,0,.74-.48.87-.84.06-.17-.4-.66-.72-.81-.59-.26-1.27-.35-1.88-.57A1.76,1.76,0,0,1,10,27.35a1.72,1.72,0,0,1,1.35-1.63c1.8-.61,3.38.11,3.65,1.77-.59.1-1.08.27-1.59-.42-.25-.33-1.05-.3-1.61-.32-.17,0-.49.35-.51.55a.83.83,0,0,0,.45.61c.61.25,1.26.39,1.89.6,1.22.4,1.74,1.12,1.62,2.2a2.13,2.13,0,0,1-2.06,1.87C11.34,32.82,9.8,32,9.82,30.34Z"/><path class="cls-6" d="M16.38,27.93l.32-.88.72-.62.37-.42c.32.13.7.4.65-.29l2.3.06-.22.36,1.67.69a4.4,4.4,0,0,1-.12,4.78c.18.49,1.34.69.39,1.57l-1.08-.72c-.07-.87-.63-.49-1.05-.41s-1,.29-1-.53l.46-.09-.42-1.34,1.58.75a2.41,2.41,0,0,0,.29-.58c.09-.58.12-1.17.2-1.76.11-.77-1.4-2.34-2.16-2.23-.1,0-.24,0-.28.1-.5.8-1,1.6-1.46,2.4L17,29l.49.23.09.62-.33.38.48.21.16.31.62.78.31,0-.16.88c-1.75-.12-2.7-1.64-2.39-3.83l.47-.24Z"/><path class="cls-7" d="M28.76,31.37v1.09H24.07V25.79h1.27v5.58Z"/><path class="cls-8" d="M20.37,6.26H16c-.3-.56-.58-.56-.84,0l-3.06.46h-.37l-.07,0-.07,0-.22-.22V6.09a33,33,0,0,1,9-.62Z"/><path class="cls-9" d="M9.19,12.83c.07,0,.14-.09.19-.08,1.54.35,3.07.71,4.6,1.08.06,0,.07.18.1.28A8,8,0,0,1,9.19,12.83Z"/><path class="cls-10" d="M15.31,19.66l.44-.54,1.26.2c.78,0,1.57,0,2.35,0a2.54,2.54,0,0,1,.8.38Z"/><path class="cls-11" d="M12.6,15.12v.42H12L8.7,14.45l.09-.59.44-.17Z"/><path class="cls-8" d="M23.21,6.56,21,6.29v-.8l2.52.37Z"/><path class="cls-11" d="M8.63,16.38l.63-.24c-.26,1.35.34,2,1.63,2.17.17,0,.3.4.45.62C9.37,18.58,8.63,17.88,8.63,16.38Z"/><path class="cls-12" d="M19.32,31.52c0,.82.53.61,1,.53s1-.46,1.05.41l-2.48.07-.23-.18h0l.16-.88Z"/><path class="cls-3" d="M15.75,15.29a.7.7,0,0,1-.9.8c-.32-.07-.52-.63-.78-1Z"/><path class="cls-8" d="M25.2,7.14l-1.26-.4V5.9l1.29.34Z"/><path class="cls-8" d="M26.28,7.77l-.91-.61.49-.72,1,.68v.2l-.44.46h-.17Z"/><path class="cls-13" d="M27.91,14.28c-.45-.33-1.09.73-1.45-.21l1.33-.68Z"/><path class="cls-14" d="M9,23l.15-.34,1.55,1.32Z"/><path class="cls-14" d="M11.59,19.81a1,1,0,0,1-1.68-.59Z"/><path class="cls-12" d="M22.19,26.83l-1.67-.69.22-.36Z"/><path class="cls-15" d="M21,5.49v.8l-.63,0V5.47Z"/><path class="cls-15" d="M25.86,6.44l-.49.72-.09,0-.08,0,0-.9Z"/><path class="cls-11" d="M12.35,19.24c.46-.47.86-.66,1.08.19Z"/><path class="cls-15" d="M23.94,5.9v.84l-.73-.18.31-.7Z"/><path class="cls-13" d="M25.57,14.47l.06.39-.88,0Z"/><path class="cls-16" d="M14.68,14.08l.88.27Z"/><path class="cls-14" d="M10.9,24l.26-.32.38.5Z"/><path class="cls-12" d="M17.42,26.43l-.72.62Z"/><path class="cls-12" d="M16.38,27.93l.38.36-.47.24Z"/><path class="cls-12" d="M18.44,25.72c0,.69-.33.42-.65.29Z"/><path class="cls-3" d="M17,15.33l-.16.33-.26-.34Z"/><path class="cls-11" d="M8.64,14.91l.31.22-.32.2Z"/><path class="cls-14" d="M9.19,18.86c0,.31.33.91-.48.63,0-.06,0-.11,0-.14l.32-.6C9.14,18.74,9.18,18.78,9.19,18.86Z"/><path class="cls-3" d="M9.06,18.75l-.32.6Z"/><path class="cls-2" d="M9.23,13.69l-.44.17.05-.37Z"/><path class="cls-6" d="M18.67,32.35l.23.18Z"/><path class="cls-16" d="M26.45,7.78l.44-.46Z"/><path class="cls-3" d="M17,19.32l-1.26-.2C16.31,18.27,16.67,18.75,17,19.32Z"/><path class="cls-3" d="M12,15.54h.63l-.26.38Z"/><path class="cls-15" d="M15.12,6.3c.26-.59.54-.59.84,0Z"/><path class="cls-15" d="M11.69,6.75h0Z"/><path class="cls-15" d="M11.33,6.51l.22.22Z"/><path class="cls-17" d="M19.32,31.52l-.48,0-.31,0-.62-.78-.16-.31-.15-.59-.09-.62,0-.43c.48-.8,1-1.6,1.46-2.4,0-.06.18-.08.28-.1.76-.11,2.27,1.46,2.16,2.23-.08.59-.11,1.18-.2,1.76a2.41,2.41,0,0,1-.29.58l-1.58-.75.42,1.34Z"/><path class="cls-12" d="M17.53,28.77l0,.43L17,29Z"/><path class="cls-12" d="M17.91,30.72l.62.78Z"/><path class="cls-12" d="M17.6,29.82l.15.59-.48-.21Z"/></g></g></svg>