<svg id="Layer_1" data-name="Layer 1" xmlns="http://www.w3.org/2000/svg" viewBox="0 0 660.79 658.96"><title>uci-logo</title><path d="M1042.07,364.81q-.06,8.16-.11,16.33l-1.56,16.18-2.13,16.42q-1.65,8.1-3.29,16.19l-8.55,33.62-5.4,16.33c-3,6.52-6,13-8.94,19.57-1.92,4.31-3.64,8.7-5.44,13.06-2,3.67-4.1,7.33-6.11,11-1.11,2-2,4.24-3.22,6.19-3.54,5.47-7.24,10.85-10.88,16.26l-2.5,4.63-8.68,12.54-7.66,9.08-6.15,7.36c-5.57,5.91-10.89,12.09-16.78,17.66-8.74,8.25-17.89,16.06-26.86,24.06l-9.47,7.07-8,6.32-15.72,10.52a60.39,60.39,0,0,0-6.09,2.52c-3.6,2-7.08,4.15-10.6,6.25l-12.72,7.06-3.69,1.67-16.26,6.83L801.83,681.1l-16.33,3.71-16.28,3.62L719.36,693H703.08l-49.86-4.53-16.28-3.64-16.33-3.7-32.53-11.23-17.17-7.22-3.66-1.76L554.46,654l-15.75-8.83-15.93-10.33-8.14-6.34-9-6.58c-6-5.17-12.12-10.26-18.05-15.53-3.89-3.46-7.65-7.08-11.28-10.81-5.42-5.59-10.67-11.33-16-17-1.81-2.14-3.62-4.29-5.44-6.43l-7.33-8.86-9-12.73-2.28-4.59c-5.15-8.23-10.37-16.41-15.41-24.7-1.72-2.84-3-6-4.48-8.94-2.32-5.29-4.62-10.58-6.94-15.87q-3.63-8.28-7.29-16.55l-5.89-16.41q-4.31-16.71-8.62-33.42l-3.24-16.37q-1.1-8.13-2.18-16.25-.45-8.13-.91-16.27V347.63l.78-16.35q1-8.14,2.05-16.28l3.27-16.14q3.94-16.19,7.91-32.35l6.6-17.42a17.8,17.8,0,0,1,.77-3.92c4.34-9.67,8.78-19.29,13.19-28.93L435,182.76c1.52-2.42,3-4.83,4.55-7.25l6.38-9c6.85-5.16,9.47-13.74,16.18-19.27s11.63-12.64,17.84-18.56c8.29-7.91,17.06-15.32,25.62-22.94L512,100.3,521.89,94c2.48-1.8,5-3.56,7.43-5.42,1.5-1.15,2.89-2.44,4.33-3.67L538.17,83l16.41-9.56,8.14-4.75,8.15-3.46L588.12,58l32.51-11.22,16.28-4.58,16.34-2.75,17.18-2.74,11.81-1.59,4.5-.18,16.34-.9h16.28l16.34.9,5.38.26,11.83,1.56,16.28,2.68,16.34,2.74,16.28,4.59,33.35,11.5,16.44,6.9,33.56,18,3.65,1.74,12.68,9.07,9.08,6.36,7.21,5.46c21.51,18.4,41.4,38.37,58.84,60.71l7.19,10.21,3.77,6.07c3.8,6.29,7.72,12.52,11.36,18.91,3,5.17,5.59,10.53,8.37,15.81,2.93,6.29,5.9,12.57,8.79,18.88,1.92,4.2,3.74,8.44,5.6,12.67l5.1,16.29,5.61,17.33a.28.28,0,0,0-.14.45q1.56,7.86,3.1,15.71l3.06,16.25q1.13,8.13,2.26,16.26l1.31,16.35Q1042,356.22,1042.07,364.81ZM710.9,49.66C537.25,51.21,397.17,189.84,397.15,364S537.69,677.77,711.35,677.9C884,678,1023.87,537.55,1025,366.62,1026.23,189.61,882.71,50.36,710.9,49.66Z" transform="translate(-381.28 -33.99)" fill="#03447e"/><path d="M710.9,49.66c171.81.7,315.33,140,314.13,317C1023.87,537.55,884,678,711.35,677.9,537.69,677.77,397.12,538.2,397.15,364S537.25,51.21,710.9,49.66ZM687.6,633.1c1.11.52,2.22,1.47,3.33,1.48q20.28.17,40.57,0c1.11,0,2.22-1,3.33-1.53,4.51-.25,9.12,0,13.51-.87,11.39-2.27,22.86-4.44,33.95-7.8,8.74-2.65,17.36-6.21,24.57-12.27,2.59-2.17,3.56-4.86,1.17-7.38-5.92-6.23-8.46-14-11-21.87-1.82-5.67-4-11.22-6-16.72-8.24,2.24-15.78,4.45-23.4,6.34-11.5,2.85-23,6-34.62,8.08-20.16,3.66-40.17,2.8-59.74-4-6.36-2.21-12.88-4-19.28-6.12-6.15-2.07-12.18-4.53-18.37-6.46-3.54-1.11-6.69.06-8.2,3.72-1.8,4.38-3.43,8.83-4.93,13.32-2.63,7.86-5.08,15.77-7.64,23.64-1.52,4.65.71,11.61,6.64,15a75.61,75.61,0,0,0,22.71,8.31C658.51,631.14,672.88,633.47,687.6,633.1ZM577,420.9c.63-1.57,1.82-3.14,1.83-4.71q.16-66.09.11-132.18c0-14.78-.06-29.57-.09-44.35,2.78-2.19,3.66.27,4.4,2,.49,1.18.26,2.68.25,4q-.25,21.51-.54,43-.57,47.55-1.1,95.08c-.12,12.2,0,24.41,0,36.88l6-1.21c.07-1.56.17-2.89.18-4.22.21-35.93.31-71.85.65-107.77.19-21.13.73-42.25,1.18-63.37a32.15,32.15,0,0,1,1-5.12c1.18.89,1.82,1.15,1.82,1.41q.06,89.07,0,178.35h5c.07-1.58.17-2.91.19-4.23q.82-45.72,1.62-91.43c.44-25.8.83-51.61,1.32-77.41a43.21,43.21,0,0,1,.93-6l1.57.16c.12,1.71.34,3.43.34,5.14,0,14.34,0,28.68-.11,43-.37,41.95-.73,83.91-1.33,125.86-.07,4.39,1.4,5.85,5.37,7,6.43,1.81,12.58,4.58,18.9,6.75a40.89,40.89,0,0,0,9.38,2.38c4.49.41,9.06,0,13.57.22,1.13.06,2.18,1.34,3.27,2.06-.22.52-.45,1-.67,1.58H638.13c3.26,6.05,7.52,9.05,14.08,8.05a19.71,19.71,0,0,1,6.32.1c1.1.19,2,1.36,3,2.1l-.75,1.07-11-.54a36.43,36.43,0,0,0,7.37,7.1c1.38,1.11,3.77,2.21,3.86,3.44.42,5.84,5,8.81,8.13,12.74,1.13,1.45,3.43,2.29,5.35,2.74,10,2.28,20.06,4.35,30.09,6.5l-.07,1.88a18,18,0,0,1-4.35.39c-8.86-1.31-17.71-2.78-26.86-4.24.26,3.86,1.26,5.78,4.89,5.73a60.31,60.31,0,0,1,9.45,1c4,.59,7.91,1.37,11.86,2.08l-.21,1.49-22.93-2L676,484.9c5.47,4.83,13.88-.47,19.28,5H679.39c.33,1,.44,2,.7,2,9.72,1.68,20,1.09,29.51,7.72,1.59,2.07-3.82,8.7,4.51,9.8v-9.84l19.83-7-7.34-6.42.06.07-2.92-9.37a27.5,27.5,0,0,0,1.61-4.44c1-4.81,0-10.28,4.55-14.24l-10.59,2c2.88-4.59,6.76-5,10-5.29,5.37-.42,5.34-3.45,5.06-8.13L720,450.13l-.4-1.35c3.59-4.41,9.22-3.52,15-4.63-1.54-2.29-2.52-5.41-4.19-5.84-3.35-.86-7.08-.25-10.66-.25,3.14-2.29,7-3.79,10.47-5.84,3.73-2.18,7.15-4.89,10.46-7.2l-4.82-1.56.13-1.28c2.63-.37,5.27-1.16,7.87-1,5.93.3,11.85,1,17.76,1.64,7.68.82,15.35,1.72,23,2.57,3.12.34,5.15,1.28,2.5,4.82,9.14,7.2,19.68,8.3,30.9,8.88v-8.45c-3.39-.72-6.08-1.11-8.66-1.87-7.12-2.1-8.8-4.46-9.58-11.78-.41-3.82-1.39-7.58-2.21-11.88-4.34,4.29-8.54,4-11.56-.52l9.71-1c-2.22-6.93-4.39-13.68-6.47-20.15l-15.51-1.88c.08-.69.16-1.37.25-2,5.31-1.46,10.43.07,16.4,2.52-.63-4.21-1.14-7.67-1.67-11.24,1-.42,2.79-.58,3.61-1.55,6.11-7.24,13.28-12.43,23-13.57,1-.12,2.57-2.35,2.61-3.64q1-31.11,1.57-62.21c.29-16.3.26-32.61.45-48.91a36.86,36.86,0,0,1,.83-5.38l1.63-.23c.59,1.49,1.59,3,1.67,4.46.16,3.3-.23,6.63-.25,9.94q-.23,49.59-.4,99.18v4.79h6.16c0-1.76,0-3.24,0-4.73q.21-47.1.45-94.2c0-4.37.29-8.75.68-13.1.09-.91,1.27-1.71,1.94-2.55.81.74,2.08,1.36,2.32,2.26a18.5,18.5,0,0,1,.27,4.95q-.47,59.31-1,118.63c0,5.1,0,5.1,5.24,5.52v-125c0-1.21-.31-2.54.1-3.59.46-1.21,1.52-3,2.4-3a4.18,4.18,0,0,1,3.16,2.34,18.49,18.49,0,0,1,.82,6.22q.07,51,0,101.91v20.83c3.49.17,4-1.65,4-4.26,0-9.81.25-19.61.33-29.42,0-7.61,0-15.23,0-22.84l1.38-.73c3.16,7.85,11.87,9.5,16.31,16.45,4.22,6.6,10.4,11.94,15.62,17.71,4.13-2.23,2.38-4.72.75-6.43-7.8-8.22-15.61-16.43-23.8-24.25-7-6.63-11.7-13.48-10.31-24,1.12-8.53.23-17.33.23-26.78l52.87,38.57,1.17-1c-.87-1.28-1.49-2.88-2.65-3.8-4.11-3.23-8.41-6.21-12.61-9.31-11.35-8.37-22.64-16.83-34.06-25.09-3.52-2.55-5.18-5.35-4.78-9.93.51-6,.19-12.07.08-18.1a27.61,27.61,0,0,0-.78-4.71c-7.52,0-14.22.16-20.91-.06-3.89-.12-8-1.8-11.61-1.07-4.58.93-7.64.16-11.34-2.72-9.12-7.12-18.85-13.44-28.16-20.31-8.49-6.27-16.7-12.92-25.16-19.22-2.52-1.89-5.49-3.17-8.25-4.72l-1.23,1.89,62.95,46.83-.33,1.24c-6.29.41-12.58,1.06-18.87,1.08a10.51,10.51,0,0,1-6.18-2.57,134.37,134.37,0,0,1-9.87-9.67c-6.38-6.61-12.46-13.53-19.17-19.78-2.38-2.23-3.78-6.9-9.33-5.63,1,1.78,1.48,3.41,2.54,4.51,9,9.31,18.11,18.51,27.11,27.82a14.52,14.52,0,0,1,1.89,3.45l-.41.42c-4.18-.51-8.39-.88-12.53-1.6a6.42,6.42,0,0,1-3.69-2.15c-3.45-4.45-6.61-9.11-10-13.6a11.38,11.38,0,0,0-2.86-2l-1.58,1.42c3,4.95,6.07,9.91,9.45,15.42-2.45,0-4.32-.34-6,.07-3.53.87-5.11-.5-6.24-3.76-.73-2.15-2.49-3.95-3.79-5.9l-1.56.76c.37,2,.4,4.09,1.19,5.87,1.52,3.43.18,5-3,5.9-1.39.39-2.77.8-4.09,1.18-3.65-7.4-.42-16.21-6.16-22.77a8.24,8.24,0,0,0-1,4.55c.47,3.58,1.14,7.14,1.91,10.67,1.13,5.24,2.4,10.3-4.42,12.95-1.73.67-3,2.65-4.41,4l-1.55-.67V208.9l-2,0c-2.09,11.11-.15,22.55-1.27,33.39l-11.34-8c.77-6.9,1.55-13.95,2.33-21l-1.92-.41c-4.54,5.92-1.23,14.34-5.49,20.57l-7.57-2,1.57-8.73-1.78-.67c-1.35,2.32-2.6,4.72-4.1,7-.73,1.08-1.84,2.46-2.94,2.62-2.62.39-5.34.13-8.68.13,2.26-6.45,8.74-10.11,9.51-18.23a32.68,32.68,0,0,0-9.17,9.28c-2.19,3.44-4.64,7.65-8,9.15-3.56,1.58-8.36.36-12.64.36,0-.71,0-1.11.11-1.27,9.17-9.59,18.39-19.12,27.51-28.75,1.13-1.2,1.71-2.92,2.55-4.39l-1-1c-1.17.47-2.65.63-3.45,1.45-8.72,9-17.23,18.2-26,27.11-2.93,3-6.22,6.84-9.88,7.56-8,1.56-16.43,1.38-26,2l66.28-49.17-1-1.64a24.34,24.34,0,0,0-4.53,2.1c-6.18,4.55-12.15,9.38-18.37,13.86-13.07,9.44-26.84,18-39.15,28.35-6.74,5.66-13.36,7.31-21.38,6.73-6.87-.49-13.75-.87-20.62-1.38-2.93-.22-4.2,1.09-4.18,3.91,0,6.65-.12,13.29.15,19.93a8.09,8.09,0,0,1-4.05,7.77c-5.15,3.46-10.19,7.11-15.17,10.83q-16,11.94-31.79,24.07c-.87.67-1.16,2.09-1.72,3.15l1.19,1,51.52-38c0,13.63,0,26.39-.07,39.15a4.67,4.67,0,0,1-1.45,2.69q-10.7,11.51-21.49,22.92c-11.95,12.58-24,25.09-35.89,37.7-.81.85-1,2.3-1.46,3.48l1.47,1.22c19.84-19.27,39.08-39.17,59-60.08,0,20.92,0,40.51,0,60.1a6.05,6.05,0,0,1-.71,3c-2.52,4.2-5.23,8.29-7.78,12.48Q549,411,535.73,432.82l-3.82,6.32,1.58,1.08c7.65-7.9,12.09-18.17,18.23-27.17,6.25-9.17,12.25-18.52,18.36-27.79l1,.36V420.9ZM705.34,141.24c-1,2.65-2.65,5.23-3,8-1.09,9-6.94,10.58-14.46,10.05a8.36,8.36,0,0,0-1.8.08c-5.23.82-10.45,1.67-17,2.71,5.43,6.79,10.07,12.39,14.46,18.17,1.92,2.52,4.66,5.4,4.7,8.15.09,6.1-1.3,12.22-2.08,18.33-.32,2.46-.65,4.92-1.06,8,8.22-4.16,15.77-7.84,23.18-11.79,3.45-1.85,6.38-1.58,9.73.33,6.29,3.56,12.77,6.8,19.23,10a24.61,24.61,0,0,0,4.72,1.21c-2.1-8.55-4.11-16.27-5.83-24.05-.34-1.54-.2-3.79.71-4.9,3-3.69,6.49-7,9.7-10.47,3.72-4.06,7.36-8.21,11.22-12.53-9.41-1.27-17.9-2.37-26.37-3.61-1.57-.23-4-.55-4.44-1.55-2.48-5.28-4.47-10.78-6.63-16.21,5.59.86,11.15,2.05,16.78,2.51a91,91,0,0,1,25.37,5.94c3.08,1.18,6.32,1.93,9.44,3,9.3,3.28,18.92,5.91,27.75,10.17a214.07,214.07,0,0,1,27.51,16.38c10.35,7.06,21.06,14,29.89,22.73,7.8,7.73,13.28,17.81,19.68,26.93,4.6,6.57,8.2,14.06,13.71,19.72,10.63,10.91,15.94,24.13,19.15,38.42,3.17,14.06,5,28.44,8.5,42.42,3.7,14.8,5.93,29.47,3.2,44.65-1.88,10.51-3.54,21.06-5.3,31.59-1.56,9.31-3.2,18.52-7.57,27.14-4.77,9.41-8,19.57-14.3,28.26-3.59,4.94-6.28,10.53-9.66,15.64S877.4,487,873.59,492c-6.32,8.22-12.29,16.81-19.42,24.28-7.6,8-16.28,14.93-24.68,22.11-6.72,5.72-13.68,11.15-20.61,16.62-6.59,5.2-6.85,6.33-2.45,13.3.31.5.61,1,.9,1.51l10.56,18.31c2.83,4.91,5.59,9.87,8.53,14.72,1.16,1.9,2.65,3.72,5.34,2.09,6-3.62,12.2-6.94,17.94-10.92,7.75-5.38,15.1-11.33,22.69-16.94,8-6,16.18-11.74,24.2-17.69,5.23-3.89,10.83-7.47,15.35-12.09,4.09-4.17,7.11-9.45,10.31-14.42,3.82-6,7.19-12.19,11-18.14,6.18-9.68,12.4-19.33,18.89-28.8,6.86-10,13.62-19.83,15.8-32.31,3.91-22.38,8.7-44.61,13-66.94,2.41-12.63,4.18-25.43,1.7-38.2a322.34,322.34,0,0,1-6-56.6,18.16,18.16,0,0,0-1-6.18c-5.75-14.77-11.39-29.6-17.59-44.18a215.19,215.19,0,0,0-11.92-23.33,236.92,236.92,0,0,0-13.24-20c-3.6-5-7.82-9.52-11.74-14.28-5.76-7-10.63-15.07-17.43-20.86-9.68-8.24-20.72-14.89-31.26-22.09-5.15-3.53-10.48-6.77-15.73-10.15-9.79-6.31-19.27-13.16-29.44-18.79a151,151,0,0,0-42.8-15.59c-13.5-2.8-26.48-7.87-40.53-8.48-8-.35-15.95-2.64-24-2.89a285.2,285.2,0,0,0-32.42.89A206.44,206.44,0,0,0,660,90.23c-8.2,1.82-16.16,4.68-24.19,7.19-10.56,3.3-21.17,6.49-31.62,10.12-16.31,5.65-29.55,16.65-43.8,25.84-9.47,6.11-18.63,12.71-27.93,19.09-7.91,5.44-15.48,11.11-22.22,18.19a239.52,239.52,0,0,0-31.62,40.73c-6.77,11.14-13,22.58-17.14,35.07-2.22,6.74-5,13.3-7.37,20-1.73,4.77-2.64,10-5.12,14.31-4.72,8.25-5.67,17.1-6.12,26.23-.56,11.6-.63,23.28-2.22,34.74-1.69,12.2-2.74,24.31-1.06,36.49,1.63,11.79,3.78,23.51,5.65,35.27.76,4.74,1.18,9.55,2.09,14.26,1.11,5.76,2.56,11.46,3.87,17.19,1.45,6.29,1.84,13.11,4.6,18.77a152,152,0,0,0,15.43,24.66c9.8,12.94,17.32,27.16,25.28,41.17a70.86,70.86,0,0,0,11.19,15.35c6.56,6.53,13.45,13.15,21.32,17.84,10.11,6,18.48,13.81,27.07,21.5,6.86,6.15,13.28,12.83,20.46,18.57,6.38,5.1,15.13,6.64,18.72-4.72.94-3,2-5.95,3.12-8.84,4.55-11.23,9.18-22.43,13.77-33.64,1-2.56.63-4.38-2.42-5a8.08,8.08,0,0,1-2.85-1.25c-8.87-6.13-17.81-12.15-26.51-18.51-5.46-4-11.31-7.37-15.51-13.2-3.28-4.56-8.77-7.46-12.54-11.75-6.22-7.07-12-14.56-17.68-22.09a113.54,113.54,0,0,1-7.48-11.92c-1.93-3.34-3.51-6.88-5.34-10.29-3.47-6.47-7.45-12.72-10.4-19.43a140.37,140.37,0,0,1-8.27-23,204.06,204.06,0,0,1-5.47-31.06c-1.72-20.07.55-40.07,2.91-60a157.59,157.59,0,0,1,3.07-19.5c1.92-7.76,4.63-15.34,7.18-22.93,1-2.91,2.42-5.65,3.67-8.46C518,269.38,521,261.37,525,253.82c4.9-9.36,10.27-18.52,16-27.42a178.55,178.55,0,0,1,13.47-17.69,69.32,69.32,0,0,1,9.78-9.44c8.13-6.52,15.93-13.72,24.88-18.89,14.19-8.19,29.19-15,43.89-22.29,3.61-1.79,7.25-3.77,11.1-4.77,11-2.87,22.19-5.41,33.35-7.84,4.81-1,9.75-1.52,14.64-2.25ZM555.78,453.58c4.3.25,8.94.6,13.58.77,20.14.74,37.83,7.24,51.76,22.29,2,2.14,3.35,4.88,4.83,7.44,6.14,10.71,12.11,21.51,18.35,32.16,4.1,7,7.44,14.68,15.21,18.76,8.6,4.52,17,9.42,25.81,13.55,5.2,2.44,10.84,4.78,16.46,5.32a123.09,123.09,0,0,0,51.88-6.11c3.52-1.2,6.7-3.33,10.12-4.85,14.74-6.57,19.76-18.44,20.57-32.56.37-6.34-6-13.44-12.17-13.85-3.15-.21-7.2-.72-8.06,4.76-.39,2.42-3.12,4.65-5.14,6.61-4.87,4.75-11.61,5.78-17.71,6.71-14.22,2.18-28.39,1.29-41.56-5.55-3.21-1.66-6.14-4.16-9.52-5.17-10.21-3-14.46-11.52-18.89-19.78-3.77-7-6.65-14.57-10.56-21.53a41.56,41.56,0,0,0-9-11.23c-7.79-6.6-15.94-12.83-24.31-18.69-10-7-20.9-12.18-33.67-10.56-9.68,1.23-19.32,2.78-29,4.35-4,.65-6.32,3.08-6.76,7.27C557.4,440.23,556.58,446.75,555.78,453.58Zm320.4-32.51c-1.86,3.79-2.81,7-4.74,9.43-6.28,7.89-15.31,10.7-24.79,11.2a305.54,305.54,0,0,1-34.77-.06c-6.57-.4-13.17-2.34-19.48-4.43s-12.1-5.41-18.27-7.8a46.26,46.26,0,0,0-34.8,0c-5,2-6.4,3.85-4.4,8.76,2.5,6.16,4.58,12.08,1.13,18.77,1.48.2,2.36.25,3.21.45,8.44,2,17.37,2.95,25.2,6.38,21,9.2,42.57,15.37,65.68,13.07,9.67-.95,19.68-2.28,28.58-5.84,6.93-2.77,13.54-8.34,18.23-14.29C885.73,445.63,882.27,433.57,876.18,421.07Zm-43.77-47.23c1,1.15,2.41,2.61,3.64,4.2,2.79,3.58,7.1,3.91,10.85,5.6,10.92,4.93,20.72,3.07,30.57-2.62,6.37-3.69,9.59-9.71,12.84-15.79,4.1-7.68,4.5-16.17,5.68-24.48l-1.26-.67-20.24,25.85c-2.41-10.37-4.67-20.18-6.94-30l-1.78.26c-.45,5.49-1.67,11.05-1.17,16.45.95,10.43-6,17.62-15.78,20C843.55,373.9,837.88,373.49,832.41,373.84ZM802.7,408.47c0,1.9,0,3.24,0,4.57-.09,8.67,8.26,16.07,16.78,13.91,7.72-2,15.56-4.22,21.51-10.32,4.53-4.64,10.39-6.47,16.77-6.53,3,0,6,.37,9,.57l.58-1.17c-2.72-1.88-5.29-5.05-8.19-5.41a231.81,231.81,0,0,0-26-1.2,14.8,14.8,0,0,0-8.09,2.14C818.27,409.8,810.93,410.14,802.7,408.47Zm-49.77,55.19c-5.69-.71-10.27-1.38-14.86-1.81-4.12-.39-6.84,1.75-8.55,5.37-3.71,7.88.75,20,8.64,23.61,9.58,4.34,19.32,2.34,29.93,1.2-5.45-3.8-10.88-6.37-14.62-10.49C749.21,476.83,749.14,470.54,752.93,463.66ZM613.08,591.53c2-6.06,3.81-11.73,5.7-17.38,3.2-9.52,8.54-17,18.73-20.08,3-.9,3.52-3.72,1.72-6.37-3.3-4.86-8.22-7.28-13.55-8.78-3.88-1.09-8-1.35-12-2-1.45,4.67,1.33,8.29,2.89,12.28.75,1.92,1.24,4.48.6,6.31-3.18,9-6.66,17.89-10.27,26.73-2.22,5.43-2.41,5.32,3,7.4A24.93,24.93,0,0,1,613.08,591.53Zm217-215.28c-.31-4.53-.81-9.95-1-15.39-.1-2.87-1.11-4.93-4.08-4.71-12.6.94-23.3,5.62-30.22,16.76-3.3,5.31-2.74,9.33,2,14.66,1.55-8.29,8-11.27,14.42-12.22S824.3,375.88,830.06,376.25ZM625.57,495.32c-.6-4.36-2.29-5.63-5.89-5.55-11.17.22-22.34.08-33.5,0-2.64,0-5.28-.42-8.8-.72v-30l-6.1.74c.3,4.18-.75,9,1.17,11.32,2.27,2.77,1.68,4.39.71,6.68-2.52,6-1.15,12-1.12,18.38h17.39c-1.77,5.92-3.4,11.39-5,16.86l1.33.63c1-1.29,2.27-2.44,2.91-3.89a103.86,103.86,0,0,0,4.19-10.93c.86-2.78,2.38-3.66,5.24-3.61C607.11,495.43,616.15,495.32,625.57,495.32Zm148.79-6.75-.5,1.54c3,1.43,5.92,3.79,9,4.1,8.22.83,16.54.84,24.82,1.06,6.32.16,12.65.24,19,.18,3.46,0,5.37,1.36,6.5,4.72a111.59,111.59,0,0,0,4.67,10.52l1.73-.64c-1-4.53-2-9.07-3.06-14.08h12.28V477.32l-4.17,1.09c-.27,4.18-.53,8.18-.81,12.45Zm40.25,103.79c-4.52-7.11-8.74-14-13.23-20.75-4.22-6.33-4.17-11.76.38-17.92a27,27,0,0,0,3.63-6.12c1.29-3.37-.06-4.84-3.56-5.22-9.64-1-15.79,4.54-21.37,11.12-2.49,2.93-1.7,5,2,6a26.62,26.62,0,0,0,3.59.37c8.06.94,12.17,5.58,14,13.62,1.77,7.62,4.74,15,7.2,22.49Zm24-113L760,481.12l-.27,2.29c3.17.9,6.33,2.56,9.51,2.6,21.56.25,43.13.16,64.69.16,1.46,0,2.92-.17,4.66-.28ZM818,377.75c-13.47-.54-23,12.33-17.62,23.79,1,2.17,5.36,3.49,8.32,3.82s6-1.1,8.92-1.88c.26-.07.36-1.09.37-1.66C818,393.89,818,386,818,377.75ZM545.2,464.56c-.77,2.5-2,5-2.28,7.66-.74,6,1.8,10.91,5.78,15.45,3.56,4.05,6.56,5.14,11.21,2.59,5-2.74,8.17-6.77,8.79-11.92ZM855.61,226.81l1-.86c-.93-1.12-1.63-2.68-2.82-3.3-5.65-2.9-11.4-5.62-17.18-8.26-7.94-3.62-15.94-7.09-23.89-10.68-4.69-2.12-9.31-4.41-14-6.51-8.22-3.69-16.49-7.28-24.74-10.92-6.69-3-13.34-6-20.08-8.84-1.17-.49-2.72-.07-4.09-.07l-.37,1.92ZM563.22,225c.21.56.43,1.12.65,1.68.83.06,1.81.44,2.48.13,10-4.54,20-9.16,29.93-13.78,11.16-5.16,22.26-10.45,33.48-15.5,12.63-5.68,25.38-11.11,38-16.75,1-.46,1.72-1.66,2.57-2.51-1.3-.24-2.83-1-3.86-.62-9.25,3.81-18.47,7.71-27.58,11.84-7.52,3.41-14.82,7.3-22.32,10.77-9.85,4.55-19.78,8.94-29.69,13.35-3.89,1.73-7.88,3.2-11.71,5C571.14,220.65,567.21,222.91,563.22,225ZM588,460.22h-6.58c.42,7.94.86,15.56,1.21,23.19.14,2.82,2,2.84,4.07,2.84,9.48,0,18.95,0,28.43,0h6.32c-3.34-5.91-3.34-5.88-9.14-6.17-6.75-.34-13.5-.84-20.26-1.06-3-.1-4.27-1.13-4.11-4.31C588.18,470,588,465.18,588,460.22Zm198.62,16.14c-11-6.58-21.94-7.31-33.35-3.85-.35,4.56.07,5.12,3.81,5Zm-194,.28h22.17c-1.37-1.57-2.24-3.54-3.45-3.77-4.59-.87-9.3-1.19-13.92-1.71-1.52-3.14,2.4-9.13-5.52-9.36C592.1,466.58,592.32,471.16,592.59,476.64Zm230.78-74.92c4.29-.87,6.19-2.87,5.65-7.18a42,42,0,0,1,.09-9.9c.48-4.27-1.19-6.1-5.74-5.93ZM622.67,174.53c14.9-.12,29.82,0,44.56-2.83C652.27,171,637.3,170,622.67,174.53Zm133.66-4.09,0,2,43.37,2.3.09-1.95C785.41,170.24,770.85,170.65,756.33,170.44ZM845.12,438.8l1.11.8c1.15-.84,3.25-1.65,3.28-2.53.26-7.65.15-15.31.15-23l-1.43-.11C842.5,421.62,846.63,430.59,845.12,438.8ZM407.67,332.07c0,2.74,3.22,6.17,5.88,5.91,3.19-.31,5.28-2.15,5.47-5.48.14-2.3-3.85-5.79-6.34-5.7C409.32,326.91,407.73,328.8,407.67,332.07Zm230-258.54c-.18-3.32-.7-5.82-4.47-5.9s-5.8,1.8-6.06,5.67c-.2,3,2.39,6.12,5.35,6C636.39,79.18,636.86,76,637.68,73.53ZM1010.56,335c2.46-.21,4.54-1.74,4.66-5.16.08-2.27-4.16-6.12-6.52-5.28a9.87,9.87,0,0,0-5.43,4.72C1002.24,331.77,1006.23,334.93,1010.56,335ZM876.12,607.84c-2.65-.1-6.57,3.23-5.7,5.54s3.07,5.13,5.14,5.56c3,.6,5.6-1.76,6-5.19C882,610.85,879.09,608,876.12,607.84ZM817.89,76.72c-2.85,0-6.14,3-6,5.9.18,3.15,1.85,5.39,5.2,5.73,2.88.3,5.65-3.14,5.32-6.89C822.22,78.9,821.28,76.5,817.89,76.72Zm93.7,54.42c-2.78,3.18-5.5,5-6.15,7.36-.76,2.79,1.31,6.29,4.46,5.79a9.73,9.73,0,0,0,6.41-5.36C916.86,137.45,913.85,134.65,911.59,131.14ZM742.53,57.76c-4.07.77-6.9,3.53-6.89,6.8,0,3.48,2.88,5.3,5.26,4.6a11.07,11.07,0,0,0,6.17-5.73C747.52,62.41,744.16,59.7,742.53,57.76ZM922.06,567.85c-.71,1.13-2.91,3.08-2.79,4.87.16,2.6.36,6.35,4.54,6.58a5.69,5.69,0,0,0,5.71-5.7C929.5,570.07,927.14,567.73,922.06,567.85ZM992,473.76l5.43-5.09c-1.8-1.92-3.28-4.83-5.48-5.52-3.33-1.06-6.05,1.88-6.22,5.21C985.54,471.89,987.52,473.16,992,473.76Zm-41.62,79.82c-.63-3,2-6.6-2.56-8.33-2.77-1-5.35-1.62-7,1.51-.76,1.48-1.71,3.78-1.09,4.89C942.15,555.94,946.08,555,950.37,553.58ZM533.28,114c-1.66,2.09-3.93,4-4.82,6.33s3.52,6.19,6.11,5.32c2-.67,4.46-2.7,4.89-4.55C540.24,117.67,537.28,114.72,533.28,114Zm-64,430.31c3-.7,6.32-1,6.3-5.11,0-3.48-2.26-5.13-5.47-5.35a5.92,5.92,0,0,0-6.2,5.41C463.73,543.12,466.5,543.62,469.23,544.3Zm-16.85-26.09c2.21-1.15,5.91-.71,6-4.94.07-3.94-2.88-5.14-5.95-5.26s-6.15,1.07-6.2,5C446.17,516.69,449.11,517.41,452.38,518.21Zm2.4,8.22c0,3.5,3.28,7.61,5.73,6.57,2.16-.92,5.15-4,4.84-5.6-.43-2.18-3.34-4.82-5.65-5.39C457.63,521.5,454.13,522.72,454.78,526.43ZM826.29,88c-.06,2.28,2.92,5.58,5.18,5.74,2.79.19,7.21-3.66,6.33-6.24a8.47,8.47,0,0,0-5-4.47C830,82.19,826.37,85.4,826.29,88Zm126.4,92c-2.48.23-5.53,1-5.79,5.12s3.33,4.55,5.79,4.64,6-.4,6.51-4.15C959.6,182.52,956.94,180.05,952.69,180ZM695.16,68.54c2.11-.81,5.49-.43,5.22-4.76-.23-3.8-2.74-5.43-5.78-5.61s-5.68,1.16-5.8,4.85C688.71,65.81,691.81,68.6,695.16,68.54ZM436.87,248.24c2.4-2.41,6.79-3.39,5.1-7.57-.87-2.15-3.41-4.07-5.65-5-.89-.37-3.68,1.93-4.45,3.55C429.55,244.16,434.71,245.21,436.87,248.24Zm559.48,25.85c3.71.11,5-2.32,5.33-5.4.25-2.47-3.65-6-6.16-5.05-2,.73-4.43,2.74-5,4.68C989.6,271.38,992.82,274.1,996.35,274.09Zm-553.1-51.67c-3.82,0-5.17,2-5.41,4.77s3.1,6,6.34,5.56c2.75-.39,5.55-1.65,5.16-5.31C448.92,223.49,445.7,223,443.25,222.42Zm572.82,171.35c-.52-3.51-3.81-6.86-6.36-6.92s-6.66,3.28-6.62,5.54c0,3.65,3.11,5,5.65,4.86S1013.63,395,1016.07,393.77ZM596.28,636.18c.06-3.41-2-4.79-5-5-2.46-.21-7.52,3.9-6.65,5.7a10.67,10.67,0,0,0,5.42,4.95C592.62,642.74,596.22,639,596.28,636.18ZM668.6,65.79c0-3.44-2.28-4.71-5.18-5-2.56-.27-6,3.31-5.18,6.14a8.65,8.65,0,0,0,4.7,5C665.54,72.91,668.54,69.23,668.6,65.79ZM413.05,373.88c-4.09-.47-5.91,1.77-6.19,5.32a4.83,4.83,0,0,0,5.26,5.11c2.27-.4,5.17-3.19,5.78-5.47C418.58,376.3,417,373.1,413.05,373.88Zm15.7,65.62c-2-1.34-4.22-3.95-6-3.69-2.2.32-4.06,3-6.07,4.7,1.6,1.89,2.87,4.77,4.88,5.44C424.48,446.94,428,443.4,428.75,439.5Zm76.83,135.2c.78-4.34-3.46-4.77-5.37-4.66-2.21.12-5.95.73-6.14,4.62a5.45,5.45,0,0,0,5.68,5.72C503,580.06,506.13,579.23,505.58,574.7Zm430.5-19.21-2.15-.18c-1.45,1.82-3.7,3.46-4.17,5.51-.85,3.66,2.26,7.52,5.17,6.62,2.11-.66,5-3.28,5-5.06C940,560.1,937.49,557.79,936.08,555.49ZM414.82,401c1.5-1.91,3.63-3.61,4.34-5.78.81-2.5-3-5.74-6.33-5.48-2.7.21-5.25,1.17-5.14,4.79C407.78,397.15,411,400.16,414.82,401ZM970,206.24c-3.37-.29-5.38,2.23-4.9,5.37.3,2,2.87,4.71,4.82,5.08a5,5,0,0,0,6.16-4.94C976.07,208.69,974.33,206.1,970,206.24ZM473.77,553.81c1,.85,2.5,3,4.48,3.6,2.74.86,6.81-2.72,6.12-5.51a9.35,9.35,0,0,0-4.68-5.48C477.05,545.23,474.27,548.39,473.77,553.81Zm428.88,46.35c1.34-1.72,3.65-3.36,3.82-5.19.32-3.28-1.62-5.43-5.48-5.52s-5.67,1.67-5.72,5.23C895.21,599,898.73,598.81,902.65,600.16ZM548.41,619.42c3.85,0,6.73-2.41,5.91-5.72-.5-2-3.71-5.14-4.44-4.83-2.54,1.09-5.7,3.12-6.4,5.45A4.28,4.28,0,0,0,548.41,619.42Zm-37.07-28.86c3-.38,6-.87,5.88-4.77-.08-3.24-1.48-5.5-5.17-5.32-3.35.16-6,1.58-6.26,5.14S508.33,590.27,511.34,590.56ZM640.74,653c-.56-4.67-2.16-6.73-5.57-6.88-2.52-.12-6.33,3.75-5.47,6.29.66,1.93,3.37,4.69,4.81,4.49C636.92,656.59,639,654.19,640.74,653ZM409.12,357.81c-.8,1.48-2.78,3.54-2.89,5.7-.18,3.66,3.16,5.28,6.1,4.83,1.9-.3,4.26-2.7,4.9-4.66C418.05,361.16,413.73,357.75,409.12,357.81Zm597.45,81.35c.33-4.39-2.57-5.31-6-5.48-3.09-.15-5.46,1.22-5.4,4.51.06,3.82,3.38,5.49,6.34,5.71C1003.78,444.06,1007,442.9,1006.57,439.16Zm-1.57-135c3.27.47,4.5-2.32,4.58-5.15.1-3.35-2-5.62-5.62-5.68s-5.55,2.19-5.35,5.3S1000.74,304.09,1005,304.19ZM769.4,655.28c-.07,3.1,2.89,6.33,6,5.46,2.1-.59,4.32-2.92,5.24-5s-2.87-5.28-6-5.17C771.63,650.66,769.44,651.81,769.4,655.28ZM430.05,261.59c4.25.1,7.11-2.28,7.14-5.47a4.47,4.47,0,0,0-5.22-4.77c-2.23.36-5.24,2.53-5.86,4.53C425.22,258.75,427.52,261.06,430.05,261.59Zm570.06,27.12c4.14-.09,6.46-2.07,6.39-4.92s-3.32-5.5-6.67-5.18c-2.88.28-5.09,1.5-5,5C994.86,287.6,997.68,288.27,1000.11,288.71ZM610.43,78.43c3.31,2.32,5.13,4.47,7.28,4.89,2.86.56,5.38-2.93,5.13-6.12-.27-3.44-2.25-5.79-5.54-4.83C615.11,73,613.49,75.62,610.43,78.43Zm-16,12.17c-.57-3.82-4-7.2-7.15-7.1s-4.51,2.41-4.51,5.11c0,3.43,2.34,6,5.52,5.82C590.39,94.34,592.39,92,594.43,90.6ZM1012.1,312.81c.21-2.27-1.61-3.23-5-3.4-4.12-.2-5.47,2.51-5.51,5.37,0,2.58,1,6.13,4.82,5.58C1009.62,319.9,1012,317.86,1012.1,312.81Zm-263,347.35c.25-3-2.17-6-4.84-6.17s-5.45,2.79-5.78,6.34,2.12,4.61,4.65,4.85C746.65,665.53,748.55,663.28,749.14,660.16Zm-281-467.56c3.07-.08,5.11-1.44,5.47-4.65.29-2.66-3.09-6.92-5.51-6.76-3.08.19-4.88,2-5.11,5.13C462.74,189.81,465,192.5,468.14,192.6ZM437.56,470.77a5.2,5.2,0,0,0-5.05-5.15c-2.78-.17-6.85,3-6,5.2s2.8,4.69,4.79,5.28C434.42,477,437.51,473.83,437.56,470.77ZM778.19,71.28c.32-5.22-2.34-7-5.23-7.66-3.11-.72-5,1.6-5.58,4.51s2.43,6.32,5.75,6C775.12,74,777,72,778.19,71.28ZM647.89,661.11c5.27.13,7.24-2.63,7.38-5.47.09-1.77-2.27-4.34-4.17-5.32-2.2-1.14-7,2.65-6.53,5.28C644.94,657.8,647,659.72,647.89,661.11Zm49.78,5.47c3,0,4.21-2.62,4.08-5.67s-1.32-5.7-5.19-5.39c-3.49.28-5.26,2.47-5,5.71C691.76,664.23,693.16,666.77,697.67,666.58Zm30.61-10c-4.23,0-5.43,2.13-5.74,4.84s3.26,6.32,5.83,5.49a9.28,9.28,0,0,0,5.25-5C734.57,659.27,730.87,656.51,728.28,656.55ZM944.51,178.24l5-5.1c-1.86-1.81-3.46-4.61-5.65-5.18a4.52,4.52,0,0,0-5.8,4.56C938,175.74,939.28,178,944.51,178.24ZM420.88,291.43c4.37.06,6-1.87,6.34-4.91.27-2.34-3.94-6.55-6.29-5.7-2,.71-4.42,3.11-4.61,5A5.25,5.25,0,0,0,420.88,291.43ZM565.54,104c-.33-3.42-1-6.43-5.07-6.31-3.41.1-5,2.37-5.06,5.62-.07,3.09,1.51,5.44,4.55,5.63S565.2,107.12,565.54,104ZM418,421c-3.52-.66-5.4,1-5.4,4.59,0,4.09,3.05,4.8,6.21,4.88,2.87.07,5.12-1.18,5.14-4.42C424,422.3,421.88,420.58,418,421ZM800,647.42c-.56,3.39,1.34,5.11,4.74,5.22,4.09.14,4.88-3,5-6,.09-2.89-1-5.48-4.58-5.36S799.8,643.49,800,647.42Zm-200.25-6.9c-.11,3.74,3.27,7.52,5.91,6.64,2-.66,4.47-3,4.69-4.83.37-3.12-1.65-5.59-5.42-5.71C601.58,636.5,600,638.13,599.77,640.52ZM448.65,494.36c-2.9.84-6.06,1.07-8.17,2.69-1,.74-.48,4.53.51,6.3.74,1.33,3.71,2.68,5,2.21C450.72,503.84,450.2,499.82,448.65,494.36ZM871.8,411.47l1.57-1.07c-4.12-6.7-8.13-13.48-12.48-20-.64-1-2.89-.85-4.39-1.23l-1.18,1.71Zm130.52,40.93c-1.58-1.07-3.7-3.51-6.07-3.77-1.47-.16-5,3.7-4.68,4.45,1.13,2.54,3.24,5.76,5.59,6.37C1000.06,460.21,1002.05,457.27,1002.32,452.4ZM885.71,124c3.6,0,6.42-.78,6.69-4.69s-2.46-5-5.48-5c-3.2-.07-6,1.09-5.89,5C881.1,122.43,882.48,124.43,885.71,124ZM833.87,398.78h5.29c1-11.47,1.39-14-5-15.54-.11,1-.29,2-.3,3C833.85,390.27,833.87,394.27,833.87,398.78Zm122.77-199c1.08.79,2.85,3.14,4.72,3.24,2.65.13,6.27-.16,6.28-4.59,0-3.48-1.77-5.29-5.06-5.62S956.81,195,956.64,199.79Zm-530,251.08c-4-.35-5,2.21-5.27,5.55-.32,3.7,2.19,4.63,5,5s5.55-2.53,5.43-5.71S430.1,450.64,426.6,450.87Zm550,60.39c1.22-4.88-2.72-4.72-5.74-5.07s-4.87,1.56-4.69,4.28c.19,2.93,1,5.89,5.33,5.74C974.87,516.1,977.26,515.64,976.58,511.26Zm39.11-165.5c0-3.82-2.64-6.86-5.75-5.89-2.06.64-4.08,3.2-5,5.37s3.2,5.12,6.59,5.15S1016,348.44,1015.69,345.76ZM475.74,180.13c5.47-.34,6.81-3.12,7.23-6.44.45-3.55-2.43-4.16-4.93-4.53-2.84-.41-6.43,2.83-5.75,5.49C472.86,176.86,474.8,178.71,475.74,180.13Zm403.07-67.92c-.76-4.31-1.09-7.43-5.17-7.07-3,.27-5.56,1.15-5.56,5.08s2.44,5.6,5.69,5.2C875.74,115.17,877.47,113.12,878.81,112.21ZM914,589.51c2,0,5.11-3,5.14-6.08,0-3.43-2.87-4-5.27-4.45-2.82-.51-6.2,2.73-5.93,5.48C908.24,587.41,909.62,589.6,914,589.51ZM717.6,660.84c.51-3.3-1.86-4.51-4.75-4.87s-5.19,2.64-5.15,6.53c0,2.76,1.38,4.56,4.3,4.71C715.49,667.39,717.63,665,717.6,660.84Zm171-62.24c-3.73-.38-5.15,1.84-5.11,4.83s1.29,6,4.66,5.83c2.85-.14,6.18-1.37,5.93-5.37C893.84,600.59,892.6,597.9,888.57,598.6Zm-26.79,17.18c-4.11-.55-4.61,2.4-4.8,5.31-.21,3.26,2.8,7,5,5.94a9.4,9.4,0,0,0,4.79-5.77C867.33,618.38,866.12,615.19,861.78,615.78ZM411.46,300.24l0,2.06c2.26,1.49,4.42,3.88,6.8,4.14,1.45.16,4-2.73,4.69-4.73.84-2.47-3.52-6.86-5.82-6S413.34,298.67,411.46,300.24ZM938.73,160.88c-.7-2.55-1-5.77-4.93-6.19-3.5-.36-5.1,1.8-5.19,4.81s.25,6.21,4.49,6.39C936.35,166,938.13,164.43,938.73,160.88ZM789.49,645.67c-3.51.31-4.64,2.92-4.64,6.22s2.08,4.55,5,4.65,5.73-3.06,5.42-6C794.9,647.38,793.1,645.67,789.49,645.67ZM412.79,353a4.92,4.92,0,0,0,4.94-5.32c0-3.31-2.24-4.7-5.34-4.78s-5.71.75-5.66,4.61C406.78,351.13,408.72,352.91,412.79,353ZM619.07,653.12c3,0,6.67-3.42,5.82-5.83-.7-2-2.77-4.32-4.7-4.88-2.75-.79-5.9,2.92-5.92,5.9C614.25,651.9,616.54,652.86,619.07,653.12Zm-57.14-25.61c4.22.47,5.55-1.84,5.42-5.39-.11-2.83-.71-5.47-4.39-5.52-2.72,0-6.16,3.45-5.77,6.2S558.13,628.38,561.93,627.51Zm-38.7-491.18c1.3-2,4.07-4.51,3.59-5.86-.91-2.53-3.7-4.37-5.71-6.5-1.61,1.87-3.94,3.51-4.63,5.68C515.67,132.18,519.48,135.67,523.23,136.33Zm18.45-24.79c0,3.21,2.76,6.35,5.59,5.41a7.62,7.62,0,0,0,4.32-5.07c.41-2.68-.59-5.84-4.4-6.09C544.07,105.59,541.69,108.17,541.68,111.54ZM684,61.88c-1.2-.79-2.94-2.66-5-3.11-3-.66-6.54,3.31-5.53,6.52a7.28,7.28,0,0,0,5.24,4.11C682.17,69.65,683.79,66.86,684,61.88ZM983.8,244.34c4.5,0,5.94-2.13,6.23-5.12.24-2.6-3.15-6.08-5.78-5.73s-5.36,1.59-5,5.12C979.64,241.87,981.15,244.27,983.8,244.34Zm-60.93-99.68c-3.79-.13-5.86,1.5-6,5.22-.13,3.38,2.46,4.73,4.92,4.53,2.69-.22,6.49-.62,6.4-4.7C928.11,146.59,926.4,144.32,922.87,144.66ZM439.59,479.8c-4.53.43-7.32,1.43-7.23,5.07.08,3.3,2.25,5.05,5.64,5.17,3.56.12,5.82-2.06,5.49-5.08C443.26,482.91,440.65,481.12,439.59,479.8Zm540.55,2.44c-.23,4,2.86,5.56,5.62,5.62,1.72,0,4.34-2.42,5.06-4.33,1-2.59-2.74-6.35-5.54-6.29C982.08,477.31,980.35,479,980.14,482.24Zm-560-211.59c.07,3.76,2.9,5.46,5.86,5.23,1.8-.15,5.08-3.57,4.77-4.3-1-2.43-3-5.41-5.25-6.13C422.33,264.42,420.54,267.24,420.17,270.65ZM840.63,94.73c.18,3.41,2.26,5.72,5,5.15,2.29-.46,5.26-2.77,5.91-4.88.94-3-1.62-5.53-4.88-5.55S841.2,91.43,840.63,94.73Zm-114-27c3.14.42,5.38-.88,5.32-4.6s-2.3-4.7-5.75-4.66-5.76,1-5.67,4.73S722.83,68.23,726.61,67.76ZM457.48,206.49c4.46-.39,7.42-3.08,6.94-7-.21-1.76-2.55-4.05-4.41-4.66-3-1-5.94,2.09-5.63,6.07C454.54,202.84,456.4,204.64,457.48,206.49ZM489,168.37a4.56,4.56,0,0,0,4.28-5.3c-.29-2.89-1.9-5.85-5.71-5.86-3.27,0-4.36,2.4-4.66,5A5.79,5.79,0,0,0,489,168.37ZM648.66,74.83c4,.24,4.84-2.73,5-5.25.18-3.61-2.57-4.93-5.9-5.18-3.62-.27-4.32,2.27-4.33,4.85C643.39,72.63,645.05,74.92,648.66,74.83ZM983.89,497.19c-.46-3-1.49-5.65-5.14-5.5-3.37.13-5.1,2.41-5.13,5.59s1.75,5.68,5.06,5.62S983.62,500.5,983.89,497.19ZM820.32,636.51c-3.64-.56-5.35,1.29-5.53,4.74-.16,3.07,1,5.38,4.45,5.41s5.92-1.26,5.94-5.15C825.19,638.35,823.92,636.26,820.32,636.51ZM801.1,83c3.9-.61,7.18-3.34,7.28-6,.14-3.6-2.18-5.09-5.26-5.57-2.24-.35-6.19,3.43-5.61,5.82C798,79.34,799.85,81.11,801.1,83ZM607.92,81.72c-1.34-1.08-3.12-3.68-5-3.79-2.56-.14-5.71,1.29-5.6,5,.09,3,.76,5.48,4.75,5.65S607.08,86.31,607.92,81.72Zm156.72,575.7c.6-4.17-2.6-4.33-5.11-4.62-3.15-.38-5.88,2.78-5.69,6.09s2.32,4.07,5.21,4.07C762.89,663,765.15,661.55,764.64,657.42Zm-82.92-3.09c-2.71,0-6.43,3.79-5.62,6.6.54,1.86,3.74,4.64,4.9,4.28,2.25-.71,5-3.05,5.54-5.23C687.34,656.92,684.7,654.93,681.72,654.33ZM410.37,408.58c.09,5.55,2.74,7.21,5.9,6.68,1.69-.28,3.83-2.7,4.29-4.53.79-3.17-2.68-6.44-6.14-5.68C412.57,405.46,411.16,407.84,410.37,408.58Zm567.1-176.66c2.75-2.76,5.23-4.2,6-6.27,1-2.63-2.47-5.72-5.56-5.73-3.47,0-5.82,2.07-5.49,5.19C972.62,227.13,975.12,228.91,977.47,231.92ZM489.05,568.61c4.08.65,5.42-1.76,5.49-5.24.07-3.06-1.45-4.91-4.68-4.69-2.95.2-5.9.82-5.73,4.68C484.26,566.3,484.78,569.32,489.05,568.61ZM1009.26,423.7c-.33-3.12-1.35-5.61-4.84-5.5-3.28.1-5.27,1.82-5.33,5.39s1.67,5.53,5,5.64C1007.8,429.34,1008.79,426.6,1009.26,423.7Zm-46.08,95.18c-3.48-.22-4.65,2.15-4.56,4.84.09,3,.89,6.26,4.82,6.47,3.45.17,4.86-2.45,4.74-5.29S967.44,518.68,963.18,518.88ZM839.17,439v-15.9c-8.32,3.24-5.14,10-5.68,15.9ZM575.63,624.39c-3.27.08-4.83,2-5,5-.12,2.7,3.4,6,6.36,5.19a7.7,7.7,0,0,0,4.48-4.81C582.3,626.75,579.28,624.38,575.63,624.39Zm440.11-246.67c0-3.94-2.17-6.43-5.41-6.37-3.06,0-4.62,1.94-4.68,4.93-.07,3.53,2.41,5.87,6,5.89S1016,380.13,1015.74,377.72ZM528.22,596c.21-3.19-.91-5.49-4.63-5.65s-5.22,2.3-5.11,5.37,1.71,5.59,5.15,5.64C526.9,601.37,528.55,599.47,528.22,596Zm142.24,63c.12-5.23-1.25-4.93-6.39-5.51-3.17-.35-4,2.34-4,4.82,0,3.63,2.3,5.36,5.75,5.19C668.7,663.3,671.3,662.47,670.46,658.94ZM788,67.56c-4.3.08-5.3,1.33-5.27,5.75,0,3.25,2.06,5.84,4.63,4.92,2.33-.83,4.66-4,5.32-6.57C793.41,68.69,790.74,67.27,788,67.56Zm-209.07,28c.75-3.43-1.49-5.1-4.62-5.21-3.52-.12-5.45,2.08-5.51,5.69s2.06,5.37,5.31,5.27S579.38,99.54,578.9,95.56Zm-80,49.93c-3.72.15-5.23,1.87-5.26,5.41s1.23,5.81,5,6c3.35.18,4.73-2.53,4.52-4.9C502.86,149.46,503,145.67,498.88,145.49Zm258.83-74.1c2.06-.28,4.08-1.9,4.32-5.6.23-3.5-1.53-5.13-4.67-5.27-3.85-.16-5.33,2.6-5.4,5.8C751.9,68.91,752.84,71.47,757.71,71.39Zm251.18,331.74c-4.43-.11-6.31,2-6.55,6.11-.22,3.78,2.66,3.91,5,4.18,3.51.39,5.37-2,5.32-5.06C1012.65,405.84,1011.85,402.91,1008.89,403.13ZM834.4,630.37c-3.55,0-4.63,2-4.71,5.21-.08,3.73,1.79,5.2,5.24,5.06,3.19-.13,5.13-1.74,5-5.08S837.72,630.51,834.4,630.37Zm125.05-92.83c.61-3.92-1.64-5.13-5-5.27-3.08-.13-5.11,1.27-4.84,4.45.25,2.91.52,6,5,5.87C958.31,542.45,960.09,541.28,959.45,537.54ZM420.24,316.87a5.11,5.11,0,0,0-6.07-5.19c-1.59.21-3.92,2.95-4,4.65a5,5,0,0,0,5.33,5.62C418.85,322,420.08,319.91,420.24,316.87ZM985.6,253.52c-.39,3.68,1.47,5.16,5,5.28,3.33.11,5.16-1.41,5.14-4.67s-1.47-5.57-5.4-5.53C986.82,248.64,985.36,250.18,985.6,253.52Zm-449.74,357c3.73.37,5.19-1.75,5.2-5.37,0-3.37-1.62-5.1-5-4.94s-5.3,2.16-5.19,5.54C531,608.58,531.83,611.18,535.86,610.5ZM514.69,141c-.05-4.59-1.87-6.86-5.48-6-1.79.43-4.17,3-4.26,4.69-.14,2.67.51,6.28,4.8,6C512.83,145.53,515.54,144.73,514.69,141ZM853.54,628.6c.4-3.81-2-5.35-5.13-5.35s-4.88,2.15-4.85,5.35c0,2.81,1.12,5.42,4.27,5.12C850.59,633.46,854.23,633.1,853.54,628.6Zm-138-567.37c-2-3.33-4.84-5-8.13-2.6-1.41,1-2.33,3.62-2.29,5.46,0,1.23,2,3,3.41,3.49C713.84,69.19,714.31,64.75,715.56,61.23Zm290.07,295.55c.76,3.47.76,6.67,2.24,8.86.66,1,5.53.79,6.32-.36,1.45-2.1,1.29-5.31,1.89-8.5ZM450.85,209.08c-3.62-.67-5.15.46-5.25,4.45-.12,4.6,2.56,4.52,5.69,4.8,3.65.33,5.24-2,5.11-4.74S454.74,208,450.85,209.08Zm409-111.6c-3.41-.53-4.65,1.28-4.69,4.34a5.5,5.5,0,0,0,5.56,5.78c3.26-.17,4.5-2.32,4.33-5.17C864.92,99.35,863.86,96.73,859.9,97.48Zm34.37,30.75c-.64,3.88,1.46,5.43,4.77,5.51,3.84.1,4.42-2.54,4.57-5.74s-1-4.66-4.33-4.5S893.48,124.2,894.27,128.23Zm17.58,244.6c.29-3-9-14.21-13.41-16.09C896.86,360.4,905.76,371.08,911.85,372.83Zm-272,172.58c5.53-2.38,8.32-18.08,4.88-20.77C643.13,531.3,641.56,538,639.82,545.41ZM846.65,387.56l-1.11.88c0,3.11-.07,6.22.05,9.32a2.69,2.69,0,0,0,1.15,2.06,3.28,3.28,0,0,0,2.42-.31,46.33,46.33,0,0,0,.62-9.16C849.71,389.35,847.75,388.48,846.65,387.56Zm-18.73,51.31V430l-4.87.29v8.54ZM780.65,534c-3.92,3.92-3.37,7.14,1.66,11.34Z" transform="translate(-381.28 -33.99)" fill="#f1c62a"/><path d="M705.34,141.24l-13.25,2c-4.89.73-9.83,1.2-14.64,2.25-11.16,2.43-22.3,5-33.35,7.84-3.85,1-7.49,3-11.1,4.77-14.7,7.3-29.7,14.1-43.89,22.29-9,5.17-16.75,12.37-24.88,18.89a69.32,69.32,0,0,0-9.78,9.44A178.55,178.55,0,0,0,541,226.4c-5.71,8.9-11.08,18.06-16,27.42-4,7.55-7,15.56-10.47,23.37-1.25,2.81-2.7,5.55-3.67,8.46-2.55,7.59-5.26,15.17-7.18,22.93a157.59,157.59,0,0,0-3.07,19.5c-2.36,19.94-4.63,39.94-2.91,60a204.06,204.06,0,0,0,5.47,31.06,140.37,140.37,0,0,0,8.27,23c2.95,6.71,6.93,13,10.4,19.43,1.83,3.41,3.41,7,5.34,10.29a113.54,113.54,0,0,0,7.48,11.92c5.68,7.53,11.46,15,17.68,22.09,3.77,4.29,9.26,7.19,12.54,11.75,4.2,5.83,10,9.2,15.51,13.2,8.7,6.36,17.64,12.38,26.51,18.51a8.08,8.08,0,0,0,2.85,1.25c3,.66,3.46,2.48,2.42,5C607.58,566.79,603,578,598.4,589.22c-1.17,2.89-2.18,5.86-3.12,8.84-3.59,11.36-12.34,9.82-18.72,4.72-7.18-5.74-13.6-12.42-20.46-18.57-8.59-7.69-17-15.49-27.07-21.5-7.87-4.69-14.76-11.31-21.32-17.84a70.86,70.86,0,0,1-11.19-15.35c-8-14-15.48-28.23-25.28-41.17a152,152,0,0,1-15.43-24.66c-2.76-5.66-3.15-12.48-4.6-18.77-1.31-5.73-2.76-11.43-3.87-17.19-.91-4.71-1.33-9.52-2.09-14.26-1.87-11.76-4-23.48-5.65-35.27-1.68-12.18-.63-24.29,1.06-36.49,1.59-11.46,1.66-23.14,2.22-34.74.45-9.13,1.4-18,6.12-26.23,2.48-4.33,3.39-9.54,5.12-14.31,2.41-6.67,5.15-13.23,7.37-20,4.11-12.49,10.37-23.93,17.14-35.07a239.52,239.52,0,0,1,31.62-40.73c6.74-7.08,14.31-12.75,22.22-18.19,9.3-6.38,18.46-13,27.93-19.09,14.25-9.19,27.49-20.19,43.8-25.84,10.45-3.63,21.06-6.82,31.62-10.12,8-2.51,16-5.37,24.19-7.19a206.44,206.44,0,0,1,27.52-4.32A285.2,285.2,0,0,1,720,85c8,.25,15.95,2.54,24,2.89,14.05.61,27,5.68,40.53,8.48A151,151,0,0,1,827.24,112c10.17,5.63,19.65,12.48,29.44,18.79,5.25,3.38,10.58,6.62,15.73,10.15C883,148.12,894,154.77,903.67,163c6.8,5.79,11.67,13.84,17.43,20.86,3.92,4.76,8.14,9.3,11.74,14.28a236.92,236.92,0,0,1,13.24,20A215.19,215.19,0,0,1,958,241.53c6.2,14.58,11.84,29.41,17.59,44.18a18.16,18.16,0,0,1,1,6.18,322.34,322.34,0,0,0,6,56.6c2.48,12.77.71,25.57-1.7,38.2-4.27,22.33-9.06,44.56-13,66.94-2.18,12.48-8.94,22.3-15.8,32.31-6.49,9.47-12.71,19.12-18.89,28.8-3.81,6-7.18,12.19-11,18.14-3.2,5-6.22,10.25-10.31,14.42-4.52,4.62-10.12,8.2-15.35,12.09-8,6-16.17,11.74-24.2,17.69-7.59,5.61-14.94,11.56-22.69,16.94-5.74,4-11.94,7.3-17.94,10.92-2.69,1.63-4.18-.19-5.34-2.09-2.94-4.85-5.7-9.81-8.53-14.72l-10.56-18.31c-.29-.51-.59-1-.9-1.51-4.4-7-4.14-8.1,2.45-13.3,6.93-5.47,13.89-10.9,20.61-16.62,8.4-7.18,17.08-14.15,24.68-22.11,7.13-7.47,13.1-16.06,19.42-24.28q5.71-7.44,10.91-15.27c3.38-5.11,6.07-10.7,9.66-15.64,6.32-8.69,9.53-18.85,14.3-28.26,4.37-8.62,6-17.83,7.57-27.14,1.76-10.53,3.42-21.08,5.3-31.59,2.73-15.18.5-29.85-3.2-44.65-3.48-14-5.33-28.36-8.5-42.42-3.21-14.29-8.52-27.51-19.15-38.42-5.51-5.66-9.11-13.15-13.71-19.72-6.4-9.12-11.88-19.2-19.68-26.93-8.83-8.73-19.54-15.67-29.89-22.73a214.07,214.07,0,0,0-27.51-16.38c-8.83-4.26-18.45-6.89-27.75-10.17-3.12-1.1-6.36-1.85-9.44-3a91,91,0,0,0-25.37-5.94c-5.63-.46-11.19-1.65-16.78-2.51l-7.13-15.32ZM909.28,465.37l19.82,11.47-27.86,2.33c-.91,1.56-2.67,4.59-4,6.84l28.56,17,3.73-6.4L913,486.63l.3-1.24c7.64.63,15.08-2.87,23.35-1.05l4.76-8.95L913,458.86ZM453.88,333l32.2,5.56c.38-2.45.79-5.2,1.24-8.21a48.62,48.62,0,0,1-21.44-3.63c8.36-3,15-9.46,24.15-11.15.42-2.55,1-5.9,1.4-8.39l-32.9-5.31c-.12,2.05-.29,5-.41,7.08l20.06,3.94-23.26,10.9C454.65,326.21,454.23,329.92,453.88,333ZM934.29,442.88c.2,1.58.39,2.59.46,3.61.33,4.13,2.91,6.29,6.5,7.66a7.46,7.46,0,0,0,9.08-3c4.94-7.17,7.51-15.42,9.51-23.78l-31.2-10.52c-.91,2.43-2.09,5.57-2.9,7.75l14,4.51c-2,2.67-3.08,5.86-4.77,6.2-4.44.9-8.66,4.82-13.79,1.61q-1.3,5.1-2.57,10ZM564.9,186.4l7.65-5.63-15.25-4.11c.52-2.45,1.51-4.41,1.19-6.14-.52-2.9-1.08-6.67-3.06-8.22-3.76-2.94-11.26-.82-14.66,2.89-1.82,2-3.91,3.72-5.92,5.53-2.86,2.58-5.76,5.13-8.25,7.34,9.14,6.93,15.21,15.85,22.66,23.83l7.48-6.22c-1.11-.2-2.08-.07-2.49-.49-2.62-2.69-5.12-5.51-7.47-8.08,2-3.77,4.28-6.43,8.91-4.27C558.89,184.32,562.28,185.4,564.9,186.4ZM532.41,496.58c-3.1,2.2-6,4.2-8.85,6.3-2.52,1.87-4.3,1.2-6-1.22-1.81-2.59-4.05-4.89-5.7-7.56a3.74,3.74,0,0,1,.54-3.59c2.77-2.15,6-3.74,8.75-5.85.81-.61,1.53-2.64,1.12-3.33a35.26,35.26,0,0,0-3.92-5l-26.81,19c1.36,2.26,3.16,5.22,4.44,7.35,3.3-2.62,6.1-5,9.11-7.09.55-.38,2.35.21,3,.9a52.93,52.93,0,0,1,6,7.75c.76,1.26,1.14,4.05.43,4.66-2.83,2.42-6.16,4.26-9.39,6.37l4.92,7,27.06-19.51Zm400.75-107c-.68,10.78,7.09,17.55,16.63,17.83,10.32.3,17.53-7.79,17.9-19.05a17.63,17.63,0,0,0-17.42-18.18C940.83,370,932.57,378.86,933.16,389.54Zm-163.22-259c-1.09,10.52,10.56,17.66,20.34,17.8s16.68-8.52,16.78-17.5c.08-7.28-7.33-17.11-20.64-17.11A16.15,16.15,0,0,0,769.94,130.54Zm-247.5,105,19.06-24.62-5.16-3.34-12.53,17.29-6.8-5.54L524.82,209l-4.52-3.58-8.17,10.66-6.17-5,12.54-15.91-5-3.51-18.69,25.35C499.33,215.9,520,230.11,522.44,235.55Zm70.21-103.19-1.14-1.1c-6,3.23-12.09,6.31-18,9.74-3.76,2.19-5.81,7.95-4.48,11.22,1.6,3.95,5.74,5.59,11.1,4.29,1.44-.35,2.82-1,4.26-1.38,3.3-.88,6.58-1.86,9.93-2.43,1.26-.21,3.36.25,3.88,1.12s0,2.85-.6,4.08c-2.16,4.46-11.11,7.66-17.26,6.38v8.46c1.14-.72,1.86-1.57,2.58-1.57,7.3,0,12.67-3.81,17.85-8.4,3.84-3.42,6.13-10.34,4.17-14.36-1.59-3.25-6.39-4.39-12.23-2.79-1.72.47-3.34,1.34-5,1.87-3.56,1.1-7.16,2.09-10.74,3.12l-1.39-1.88c1.31-2.21,2.12-5.52,4-6.38,3.54-1.58,7.72-1.72,12.21-2.57C592,137.94,592.33,135.15,592.65,132.36Zm-98.48,307.3c3.17,6.89,6.07,13.22,9.07,19.75l-8.32,3.6-4.74-12.63-6.06,2.77,6.13,12.28c-1.89.91-3.31,1.9-4.86,2.2-1,.19-2.81-.32-3.2-1.06-2.58-5-4.88-10.23-7.54-15.94l-5.31,1.43c2.24,5,4.24,9.6,6.31,14.14s4.24,9.15,6,12.89c9.47-6.08,19.3-10.16,30-14-3.93-9.12-7.77-18-11.69-27.12ZM453.6,385.81c6.92-.32,13.3-.64,19.67-.9,7.92-.32,11.2-2.75,12.33-10.51a43.15,43.15,0,0,0-.3-12.93c-1-6.26-5.18-9.34-11.65-9.29-4.82,0-9.65.47-14.47.52a59.31,59.31,0,0,1-7-.74c.19,3,.4,6.38.58,9.34a26.37,26.37,0,0,1,4.74-1.31c4.82-.32,9.65-.49,14.48-.61,6-.14,9,2.73,9.17,8.56s-2.79,9-8.56,9.28c-5,.22-10,.29-14.94.18-1.46,0-2.9-.94-4.5-1.49C453.28,379.23,453.45,382.68,453.6,385.81Zm435.15,160a242.68,242.68,0,0,1-12.68-33.6L868.79,519c4.82,1.65,5.79,6.12,2.3,9.42-1.2,1.13-2.45,2.23-3.66,3.36-2.09,2-4,3.51-7.27,1.72-4.81-2.67-8.06,0-10.68,3.39l32.65,14.88Zm26.51-279.11c8-10.13,14.2-20.14,23.19-28.46l-4.85-7.51-35.15,4.36,4.35,7.58c2.78-2.93,7.65-3.48,8.9-1.14,1.86,3.51,3.51,7.14,5.38,11l-4.19,6.71-1.73-1.36C912.44,260.64,913.73,263.41,915.26,266.71ZM500.62,253.13l-.74,1.28c-7.72-2.44-16.07.69-24-2.45-1,2.19-2.31,5.25-3.59,8.19,10.77.53,21.27,1,31.76,1.67,1,.06,1.85,1.37,2.88,2.19a75.94,75.94,0,0,0,3.61-7.22,4,4,0,0,0-.55-3.42c-4.43-4.91-9.13-9.59-13.6-14.47-3.09-3.38-6-7-9.25-10.87l-3,7.33Zm396.57-25.31,1.37-1c.28-2.87.57-5.74.87-8.77-5.82,1.31-9.41-.25-12-5.6-2.74-5.68-1.92-8.2,3.84-14.15,2.64-2.72,8.73-3.13,12.28-1.09a11.2,11.2,0,0,1,5.59,12.89l7.08-1.1c-1.35-9.25-6.36-15.49-14.19-19.3-5.07-2.46-9.82-1-14.69,1.89-8.19,4.9-10.69,19-3.69,25.51C887.85,221,892.66,224.28,897.19,227.82Zm37.46,116.67c2.54-4.9,6.44-3.56,9.78-4.05,2.29-.34,4.09-.16,4.34,3,.29,3.7,1.07,7.37,1.69,11.35l5.27-.55c-.47-5-.89-9.63-1.35-14.54l7.92-.42c.39,7.06.75,13.54,1.12,20.27l5.33-.65c-.51-10-1-19.53-1.45-28.35-11,1.15-22,2.93-33.43,2.05C934.06,335.57,934.32,339.46,934.65,344.49Zm-96-193.56c-3-1.62-5.4-2.86-7.76-4.17-3.27-1.81-6.31-3.68-1.58-7.29.53-.4.72-1.25,1.14-2l17.06,9.46,2.71-5-25.84-14.11c-.25,2-.09,3.24-.59,4.16Q818,142.57,812,153a30.8,30.8,0,0,1-3.51,4l7.91,4.76c2.49-4.37,4.77-8.39,7.16-12.6l12.51,6.85ZM676.9,103.57l5.64,7.09c1.83,2.32,3.72,4.61,5.48,7,1.28,1.72,3.1,3.44,3.44,5.38.69,4,.54,8.14.74,12.14h10.28c-3.13-4-2.64-16.15.59-20,3.45-4.15,5.89-9.16,9.07-14.27l-10.8.78c1.6,6.22-4.5,8.5-5.21,14.25l-9.82-13.08Zm-156.18,431,24.68,23.7,4.38-4.75c-2.86-2.2-5.56-3.85-7.66-6.09-.85-.9-1.09-3.66-.35-4.55,5.23-6.37,10.78-12.48,16.23-18.68l1.32,1.11-6.23-5.87c-6,7.4-12.62,13.67-19.06,20.28l-8.67-9.33ZM645.27,114.93c2.4,9.62,4.52,18.11,6.71,26.9l8.44-1.17c-2.52-8.92-5-17.58-7.6-26.84l13-2.77c-.21-.88-.44-2.06-.79-3.2s-.82-2.13-1.15-3l-32.63,8.67c.44,1.92.94,4.14,1.33,5.82Zm288.35,185.2c-2.36-6.74-4.56-13-6.86-19.57,9.11-2.74,16.87-7.82,26.7-7.18-1.19-3.57-2.43-7.32-3.26-9.84l-31.27,11.38,8.9,26.45ZM913.47,518.82l-26.16-21.17c-2.13,3-4.14,5.8-6.71,9.38,5.52-1.47,25,14,26,20.2ZM499,284.08c-11.83-1-21.68-5.82-31.75-9.84-1,2.89-2.12,6.25-3.33,9.8,4.85-1.14,29.62,7.4,31.08,11Zm463.8,21.28-33.18,5.71c.35,1.76.91,4.62,1.59,8.07,9.36-1.74,18.18-3.45,27-5a39.94,39.94,0,0,1,6.48-.05C964.06,311.32,963.3,307.84,962.76,305.36Zm-344-186.88L609,122.77c4.06,10.08,8.1,20.1,12.37,30.67l10.19-3.7C626.38,148,616.21,123.07,618.71,118.48ZM571.6,565.72c2.11-2.88,4.49-4.78,4.19-6.05a6.82,6.82,0,0,0-4.46-4.29c-2.89-.48-4.85,1.77-4.06,4.8C567.69,561.79,569.45,563.06,571.6,565.72ZM741.35,123.93c2.47.52,3.88-1.55,3.54-3.83-.28-1.88-2.21-3.52-3.4-5.26-1.62,1.43-4.11,2.6-4.66,4.37C736.05,121.69,737.74,123.72,741.35,123.93Zm124.29,44.52c-1.76,2.64-3.86,4.42-3.57,5.66.4,1.76,2.56,3.11,4,4.63,1.5-1.61,3.77-3.05,4.19-4.91C870.48,172.71,867.86,170.93,865.64,168.45ZM482.15,410.64c-3-1.92-4.89-4.09-6.33-3.81s-2.67,2.87-4,4.45c1.5,1.19,3,3.25,4.51,3.32S479.37,412.65,482.15,410.64ZM838.9,556.43c-1.62,2.4-3.72,4.15-3.47,5.46.31,1.67,2.53,3,3.93,4.43,1.39-1.63,3.49-3.1,3.91-5C843.5,560.32,841,558.65,838.9,556.43Z" transform="translate(-381.28 -33.99)" fill="#03447e"/><path d="M687.6,633.1c-14.72.37-29.09-2-43.44-5.05a75.61,75.61,0,0,1-22.71-8.31c-5.93-3.44-8.16-10.4-6.64-15,2.56-7.87,5-15.78,7.64-23.64,1.5-4.49,3.13-8.94,4.93-13.32,1.51-3.66,4.66-4.83,8.2-3.72,6.19,1.93,12.22,4.39,18.37,6.46,6.4,2.14,12.92,3.91,19.28,6.12,19.57,6.8,39.58,7.66,59.74,4,11.65-2.11,23.12-5.23,34.62-8.08,7.62-1.89,15.16-4.1,23.4-6.34,2,5.5,4.22,11.05,6,16.72,2.54,7.88,5.08,15.64,11,21.87,2.39,2.52,1.42,5.21-1.17,7.38-7.21,6.06-15.83,9.62-24.57,12.27-11.09,3.36-22.56,5.53-33.95,7.8-4.39.87-9,.62-13.51.87Zm-56.1-51.75-.44-.58-.18.36.58.27c-.75,2.72-1.36,5.49-2.29,8.15-2,5.89-4.25,11.72-6.37,17.52l6.22,3,8.91-27.15Zm103.57,39.93-2.53-18.79,19.69,16.18-.49,1,6.61-1c-1.21-9.94-2.33-19.08-3.48-28.44l-6.06,1c.89,5.77,1.75,11.32,2.6,16.87l-1.12.67-17.86-14.55.58-.87-7.36,1.21c.94,9.41,1.84,18.36,2.77,27.64Zm-95.65-8,6.2,1.59c.92-3.8,1.76-7.26,2.58-10.66,7.08.47,10.81,4.55,11.15,11.46a4,4,0,0,0,2,2.89c1.85.7,3.94.75,6.43,1.14-2-4.62-3.73-8.55-5.47-12.53,7.7-2.17,8.87-3.4,8.84-9.08,0-4.4-2.38-7.07-6.53-8-6.68-1.43-13.41-2.62-19.08-3.72C643.49,595.38,641.5,604.11,639.42,613.26Zm144-18.93-12.81,4c-.46-2.37-.85-4.38-1.35-6.94l19.27-4.38-1.57-5.74-25.1,8.21,7.37,26.37,25.8-6.79c-.63-1.8-1.4-4-1.81-5.2l-19.08,4.94c-.55-2.35-1-4.2-1.59-6.75l12.36-3ZM674.81,592.2l10.29,29,6.33.65c2.31-4.65,4.38-9.21,6.8-13.57s5.17-8.44,8-13.07l-9.18-.85c1.81,2.55-4.8,15.42-8.62,17.87-2.2-6.25-4.4-12.51-6.77-19.23ZM710.53,622h7.22V594.89h-7.22Z" transform="translate(-381.28 -33.99)" fill="#05457e"/><path d="M613.08,591.53a24.93,24.93,0,0,0-3.23-1.87c-5.37-2.08-5.18-2-3-7.4,3.61-8.84,7.09-17.73,10.27-26.73.64-1.83.15-4.39-.6-6.31-1.56-4-4.34-7.61-2.89-12.28,4,.63,8.13.89,12,2,5.33,1.5,10.25,3.92,13.55,8.78,1.8,2.65,1.29,5.47-1.72,6.37-10.19,3.09-15.53,10.56-18.73,20.08C616.89,579.8,615.06,585.47,613.08,591.53Z" transform="translate(-381.28 -33.99)" fill="#05457e"/><path d="M814.61,592.36l-7.3,3.56c-2.46-7.53-5.43-14.87-7.2-22.49-1.87-8-6-12.68-14-13.62a26.62,26.62,0,0,1-3.59-.37c-3.72-1-4.51-3-2-6,5.58-6.58,11.73-12.14,21.37-11.12,3.5.38,4.85,1.85,3.56,5.22a27,27,0,0,1-3.63,6.12c-4.55,6.16-4.6,11.59-.38,17.92C805.87,578.34,810.09,585.25,814.61,592.36Z" transform="translate(-381.28 -33.99)" fill="#05457e"/><path d="M909.28,465.37l3.71-6.51,28.41,16.53-4.76,8.95c-8.27-1.82-15.71,1.68-23.35,1.05l-.3,1.24,16.55,9.95-3.73,6.4-28.56-17c1.32-2.25,3.08-5.28,4-6.84l27.86-2.33Z" transform="translate(-381.28 -33.99)" fill="#fefefe"/><path d="M453.88,333c.35-3.08.77-6.79,1-9.21l23.26-10.9L458.12,309c.12-2.12.29-5,.41-7.08l32.9,5.31c-.42,2.49-1,5.84-1.4,8.39-9.19,1.69-15.79,8.13-24.15,11.15a48.62,48.62,0,0,0,21.44,3.63c-.45,3-.86,5.76-1.24,8.21Z" transform="translate(-381.28 -33.99)" fill="#fefefe"/><path d="M934.29,442.88l-15.69,4q1.26-4.87,2.57-10c5.13,3.21,9.35-.71,13.79-1.61,1.69-.34,2.82-3.53,4.77-6.2l-14-4.51c.81-2.18,2-5.32,2.9-7.75l31.2,10.52c-2,8.36-4.57,16.61-9.51,23.78a7.46,7.46,0,0,1-9.08,3c-3.59-1.37-6.17-3.53-6.5-7.66C934.68,445.47,934.49,444.46,934.29,442.88Zm9.65-12.78c-1.21,4-2.71,7.56-3.28,11.3-.23,1.56,1.24,3.66,2.49,5,.34.37,3.3-.71,4-1.8a32.43,32.43,0,0,0,3.74-8.68c.29-1.11-1-3-2.06-4S946.07,430.86,943.94,430.1Z" transform="translate(-381.28 -33.99)" fill="#ebecec"/><path d="M564.9,186.4c-2.62-1-6-2.08-9.21-3.57-4.63-2.16-6.89.5-8.91,4.27,2.35,2.57,4.85,5.39,7.47,8.08.41.42,1.38.29,2.49.49l-7.48,6.22c-7.45-8-13.52-16.9-22.66-23.83,2.49-2.21,5.39-4.76,8.25-7.34,2-1.81,4.1-3.55,5.92-5.53,3.4-3.71,10.9-5.83,14.66-2.89,2,1.55,2.54,5.32,3.06,8.22.32,1.73-.67,3.69-1.19,6.14l15.25,4.11ZM536.74,176c2.12,2.31,3.79,4.16,6,6.56,2.73-2.73,5.59-5.08,7.7-8,.89-1.22.19-3.59.2-5.44-1.87,0-4.13-.65-5.53.16C542.23,171,539.83,173.41,536.74,176Z" transform="translate(-381.28 -33.99)" fill="#fefefe"/><path d="M532.41,496.58l4.69,6.24L510,522.33l-4.92-7c3.23-2.11,6.56-4,9.39-6.37.71-.61.33-3.4-.43-4.66a52.93,52.93,0,0,0-6-7.75c-.61-.69-2.41-1.28-3-.9-3,2.08-5.81,4.47-9.11,7.09-1.28-2.13-3.08-5.09-4.44-7.35l26.81-19a35.26,35.26,0,0,1,3.92,5c.41.69-.31,2.72-1.12,3.33-2.8,2.11-6,3.7-8.75,5.85a3.74,3.74,0,0,0-.54,3.59c1.65,2.67,3.89,5,5.7,7.56,1.69,2.42,3.47,3.09,6,1.22C526.39,500.78,529.31,498.78,532.41,496.58Z" transform="translate(-381.28 -33.99)" fill="#ebecec"/><path d="M933.16,389.54c-.59-10.68,7.67-19.52,17.11-19.4a17.63,17.63,0,0,1,17.42,18.18c-.37,11.26-7.58,19.35-17.9,19.05C940.25,407.09,932.48,400.32,933.16,389.54Zm5.5-.43c0,6.43,4.87,10.49,12.49,10.53,6.42,0,10.17-3.54,10.36-10.86.18-6.75-4.87-11-12.49-11C944.24,377.78,937.47,382.56,938.66,389.11Z" transform="translate(-381.28 -33.99)" fill="#ebecec"/><path d="M769.94,130.54a16.15,16.15,0,0,1,16.48-16.81c13.31,0,20.72,9.83,20.64,17.11-.1,9-7,17.63-16.78,17.5S768.85,141.06,769.94,130.54Zm7.33,2c.07,5.14,5.21,10.16,10.54,10.29,6.14.15,12.15-6.73,12-13.72-.13-5-6-9.93-11.94-9.91C782.22,119.23,777.18,125.57,777.27,132.55Z" transform="translate(-381.28 -33.99)" fill="#fefefe"/><path d="M522.44,235.55c-2.47-5.44-23.11-19.65-27.66-18.48l18.69-25.35,5,3.51L506,211.14l6.17,5,8.17-10.66,4.52,3.58L517,219.34l6.8,5.54,12.53-17.29,5.16,3.34Z" transform="translate(-381.28 -33.99)" fill="#ebecec"/><path d="M592.65,132.36c-.32,2.79-.63,5.58-.84,7.42-4.49.85-8.67,1-12.21,2.57-1.92.86-2.73,4.17-4,6.38l1.39,1.88c3.58-1,7.18-2,10.74-3.12,1.71-.53,3.33-1.4,5-1.87,5.84-1.6,10.64-.46,12.23,2.79,2,4-.33,10.94-4.17,14.36-5.18,4.59-10.55,8.4-17.85,8.4-.72,0-1.44.85-2.58,1.57v-8.46c6.15,1.28,15.1-1.92,17.26-6.38.6-1.23,1.16-3.15.6-4.08s-2.62-1.33-3.88-1.12c-3.35.57-6.63,1.55-9.93,2.43-1.44.39-2.82,1-4.26,1.38-5.36,1.3-9.5-.34-11.1-4.29-1.33-3.27.72-9,4.48-11.22,5.88-3.43,12-6.51,18-9.74Z" transform="translate(-381.28 -33.99)" fill="#ebecec"/><path d="M494.17,439.66l5.77-1.68c3.92,9.08,7.76,18,11.69,27.12-10.71,3.83-20.54,7.91-30,14-1.73-3.74-3.89-8.3-6-12.89s-4.07-9.1-6.31-14.14l5.31-1.43c2.66,5.71,5,10.9,7.54,15.94.39.74,2.21,1.25,3.2,1.06,1.55-.3,3-1.29,4.86-2.2l-6.13-12.28,6.06-2.77L494.92,463l8.32-3.6C500.24,452.88,497.34,446.55,494.17,439.66Z" transform="translate(-381.28 -33.99)" fill="#ebecec"/><path d="M453.6,385.81c-.15-3.13-.32-6.58-.47-9.9,1.6.55,3,1.45,4.5,1.49,5,.11,10,0,14.94-.18,5.77-.25,8.7-3.53,8.56-9.28s-3.17-8.7-9.17-8.56c-4.83.12-9.66.29-14.48.61a26.37,26.37,0,0,0-4.74,1.31c-.18-3-.39-6.32-.58-9.34a59.31,59.31,0,0,0,7,.74c4.82-.05,9.65-.48,14.47-.52,6.47-.05,10.63,3,11.65,9.29a43.15,43.15,0,0,1,.3,12.93c-1.13,7.76-4.41,10.19-12.33,10.51C466.9,385.17,460.52,385.49,453.6,385.81Z" transform="translate(-381.28 -33.99)" fill="#ebecec"/><path d="M888.75,545.82l-6.62,5.94-32.65-14.88c2.62-3.34,5.87-6.06,10.68-3.39,3.22,1.79,5.18.26,7.27-1.72,1.21-1.13,2.46-2.23,3.66-3.36,3.49-3.3,2.52-7.77-2.3-9.42l7.28-6.77A242.68,242.68,0,0,0,888.75,545.82Zm-8.23-2.41-4.94-13-7.65,7Z" transform="translate(-381.28 -33.99)" fill="#fefefe"/><path d="M915.26,266.71c-1.53-3.3-2.82-6.07-4.1-8.84l1.73,1.36,4.19-6.71c-1.87-3.84-3.52-7.47-5.38-11-1.25-2.34-6.12-1.79-8.9,1.14l-4.35-7.58,35.15-4.36,4.85,7.51C929.46,246.57,923.21,256.58,915.26,266.71Zm14.48-29.65-14.35,2.36c1.91,3.08,3.44,5.53,5,8.09Z" transform="translate(-381.28 -33.99)" fill="#ebecec"/><path d="M500.62,253.13l-16.46-17.77,3-7.33c3.29,3.89,6.16,7.49,9.25,10.87,4.47,4.88,9.17,9.56,13.6,14.47a4,4,0,0,1,.55,3.42A75.94,75.94,0,0,1,507,264c-1-.82-1.91-2.13-2.88-2.19-10.49-.66-21-1.14-31.76-1.67,1.28-2.94,2.62-6,3.59-8.19,7.9,3.14,16.25,0,24,2.45Z" transform="translate(-381.28 -33.99)" fill="#fefefe"/><path d="M897.19,227.82c-4.53-3.54-9.34-6.78-13.53-10.69-7-6.54-4.5-20.61,3.69-25.51,4.87-2.92,9.62-4.35,14.69-1.89,7.83,3.81,12.84,10.05,14.19,19.3l-7.08,1.1a11.2,11.2,0,0,0-5.59-12.89c-3.55-2-9.64-1.63-12.28,1.09-5.76,5.95-6.58,8.47-3.84,14.15,2.58,5.35,6.17,6.91,12,5.6-.3,3-.59,5.9-.87,8.77Z" transform="translate(-381.28 -33.99)" fill="#ebecec"/><path d="M934.65,344.49c-.33-5-.59-8.92-.78-11.93,11.39.88,22.42-.9,33.43-2.05.45,8.82.94,18.31,1.45,28.35l-5.33.65c-.37-6.73-.73-13.21-1.12-20.27l-7.92.42c.46,4.91.88,9.52,1.35,14.54l-5.27.55c-.62-4-1.4-7.65-1.69-11.35-.25-3.12-2-3.3-4.34-3C941.09,340.93,937.19,339.59,934.65,344.49Z" transform="translate(-381.28 -33.99)" fill="#ebecec"/><path d="M838.66,150.93l-2.57,5.13-12.51-6.85c-2.39,4.21-4.67,8.23-7.16,12.6l-7.91-4.76a30.8,30.8,0,0,0,3.51-4q6-10.44,11.78-21c.5-.92.34-2.21.59-4.16l25.84,14.11-2.71,5-17.06-9.46c-.42.76-.61,1.61-1.14,2-4.73,3.61-1.69,5.48,1.58,7.29C833.26,148.07,835.65,149.31,838.66,150.93Z" transform="translate(-381.28 -33.99)" fill="#ebecec"/><path d="M676.9,103.57l9.41-.74,9.82,13.08c.71-5.75,6.81-8,5.21-14.25l10.8-.78C709,106,706.52,111,703.07,115.15c-3.23,3.86-3.72,16-.59,20H692.2c-.2-4-.05-8.14-.74-12.14-.34-1.94-2.16-3.66-3.44-5.38-1.76-2.37-3.65-4.66-5.48-7Z" transform="translate(-381.28 -33.99)" fill="#ebecec"/><path d="M520.72,534.52l4.64-4.18,8.67,9.33c6.44-6.61,13-12.88,19.06-20.28l6.23,5.87L558,524.15c-5.45,6.2-11,12.31-16.23,18.68-.74.89-.5,3.65.35,4.55,2.1,2.24,4.8,3.89,7.66,6.09l-4.38,4.75Z" transform="translate(-381.28 -33.99)" fill="#ebecec"/><path d="M645.27,114.93l-12.67,4.45c-.39-1.68-.89-3.9-1.33-5.82l32.63-8.67c.33.83.81,1.87,1.15,3s.58,2.32.79,3.2l-13,2.77c2.62,9.26,5.08,17.92,7.6,26.84L652,141.83C649.79,133,647.67,124.55,645.27,114.93Z" transform="translate(-381.28 -33.99)" fill="#ebecec"/><path d="M933.62,300.13l-5.79,1.24-8.9-26.45,31.27-11.38c.83,2.52,2.07,6.27,3.26,9.84-9.83-.64-17.59,4.44-26.7,7.18C929.06,287.11,931.26,293.39,933.62,300.13Z" transform="translate(-381.28 -33.99)" fill="#ebecec"/><path d="M913.47,518.82l-6.84,8.41c-1-6.17-20.51-21.67-26-20.2,2.57-3.58,4.58-6.39,6.71-9.38Z" transform="translate(-381.28 -33.99)" fill="#ebecec"/><path d="M499,284.08,495,295c-1.46-3.59-26.23-12.13-31.08-11,1.21-3.55,2.35-6.91,3.33-9.8C477.28,278.26,487.13,283.08,499,284.08Z" transform="translate(-381.28 -33.99)" fill="#ebecec"/><path d="M962.76,305.36c.54,2.48,1.3,6,1.92,8.76a39.94,39.94,0,0,0-6.48.05c-8.85,1.52-17.67,3.23-27,5-.68-3.45-1.24-6.31-1.59-8.07Z" transform="translate(-381.28 -33.99)" fill="#ebecec"/><path d="M618.71,118.48c-2.5,4.59,7.67,29.48,12.81,31.26l-10.19,3.7c-4.27-10.57-8.31-20.59-12.37-30.67Z" transform="translate(-381.28 -33.99)" fill="#ebecec"/><path d="M571.6,565.72c-2.15-2.66-3.91-3.93-4.33-5.54-.79-3,1.17-5.28,4.06-4.8a6.82,6.82,0,0,1,4.46,4.29C576.09,560.94,573.71,562.84,571.6,565.72Z" transform="translate(-381.28 -33.99)" fill="#ebecec"/><path d="M741.35,123.93c-3.61-.21-5.3-2.24-4.52-4.72.55-1.77,3-2.94,4.66-4.37,1.19,1.74,3.12,3.38,3.4,5.26C745.23,122.38,743.82,124.45,741.35,123.93Z" transform="translate(-381.28 -33.99)" fill="#ebecec"/><path d="M865.64,168.45c2.22,2.48,4.84,4.26,4.58,5.38-.42,1.86-2.69,3.3-4.19,4.91-1.4-1.52-3.56-2.87-4-4.63C861.78,172.87,863.88,171.09,865.64,168.45Z" transform="translate(-381.28 -33.99)" fill="#ebecec"/><path d="M482.15,410.64c-2.78,2-4.34,4-5.8,4s-3-2.13-4.51-3.32c1.31-1.58,2.43-4.16,4-4.45S479.16,408.72,482.15,410.64Z" transform="translate(-381.28 -33.99)" fill="#ebecec"/><path d="M838.9,556.43c2.06,2.22,4.6,3.89,4.37,4.94-.42,1.85-2.52,3.32-3.91,5-1.4-1.46-3.62-2.76-3.93-4.43C835.18,560.58,837.28,558.83,838.9,556.43Z" transform="translate(-381.28 -33.99)" fill="#ebecec"/><path d="M726.6,486.18c.91,4.27-1.49,6.68-5,7.78-6.59,2.05-13.22,3-19.27-1.83-2.31-1.84-2.33-3.69-.32-5.67,1.28-1.27,2.58-2.52,4-3.66,4.66-3.78,8.86-4,14.09-.75,2.22,1.38,4.42,2.8,6.62,4.2Z" transform="translate(-381.28 -33.99)" fill="#f1c62a"/><path d="M632,259.4q2.89,9.32,5.8,18.63L636,279.18c-.89-.86-1.77-1.74-2.69-2.59s-1.8-2.21-2.65-2.16-1.77,1.45-2.59,2.31-1.47,1.7-2.21,2.55c-.26-1.06-.92-2.19-.73-3.17.84-4.4,1.81-8.78,3-13.1.34-1.3,1.42-2.4,2.17-3.58Z" transform="translate(-381.28 -33.99)" fill="#f1c62a"/><path d="M620.77,409c4.06-5.06,21.94-4.27,26.12,1C637.74,411.51,629.28,409.84,620.77,409Z" transform="translate(-381.28 -33.99)" fill="#f1c62a"/><path d="M686.16,436.66c-3.2-.2-6.4-.35-9.6-.62-5.25-.43-10.5-.86-15.73-1.48-1.1-.14-2.09-1.13-3.14-1.72,1-.65,2-1.94,2.95-1.85,6.07.57,12.12,1.38,18.16,2.24,2.57.37,5.1,1,7.65,1.59C686.35,435.44,686.26,436.05,686.16,436.66Z" transform="translate(-381.28 -33.99)" fill="#f1c62a"/><path d="M679,413.33c-5.15-.72-10.29-1.58-15.46-2.12-3-.31-6,0-9-.21-.76-.05-1.46-1-2.19-1.54.62-.67,1.32-2,1.84-1.92,8.13,1.06,16.24,2.3,24.35,3.55.3,0,.52.61.77.94Z" transform="translate(-381.28 -33.99)" fill="#f1c62a"/><path d="M688.18,402.56c-8.08-1-15.19-1.81-22.27-2.77-.69-.09-1.27-1-1.9-1.57.69-.61,1.45-1.8,2.06-1.74,6.68.73,13.34,1.56,20,2.65C686.81,399.26,687.3,401.09,688.18,402.56Z" transform="translate(-381.28 -33.99)" fill="#f1c62a"/><path d="M619.11,314.6c2.67-.91,4.21-1.86,5.74-1.87,5.69,0,11.37.18,17,.46.81,0,1.59.93,2.38,1.43-.58.71-1.15,2-1.73,2-6.88,0-13.76-.09-20.63-.25C621.43,316.39,621,315.81,619.11,314.6Z" transform="translate(-381.28 -33.99)" fill="#f1c62a"/><path d="M695.46,449.6a83.16,83.16,0,0,0-9.12-2.26c-4.59-.61-9.26-.68-13.87-1.19-.94-.11-1.78-1.15-2.67-1.76.86-.62,1.81-1.89,2.56-1.78q10.88,1.54,21.68,3.56c.82.15,1.44,1.33,2.15,2C696,448.68,695.71,449.14,695.46,449.6Z" transform="translate(-381.28 -33.99)" fill="#f1c62a"/><path d="M666,421.73c7-3,26.46-.4,31.57,4.54Z" transform="translate(-381.28 -33.99)" fill="#f1c62a"/><path d="M698.78,459.49c-7.59,1.38-15-.23-22.39-1.85-.56-.13-1.09-1.25-1.24-2-.06-.28,1.08-1.2,1.58-1.13,7.44,1,14.87,2.18,22.29,3.3Z" transform="translate(-381.28 -33.99)" fill="#f1c62a"/><path d="M682.1,352.85a12.64,12.64,0,0,1-3.14-.05,20.22,20.22,0,0,1-3.41-1.59c1.06-.59,2.22-1.81,3.17-1.66,6.66,1,13.29,2.23,19.89,3.55.72.15,1.22,1.34,1.83,2-1,.27-2.11.95-3,.74-5.07-1.19-10.08-2.59-15.11-3.91Z" transform="translate(-381.28 -33.99)" fill="#f1c62a"/><path d="M631.41,300.82H655c-1.46,3.52-8.72,4.6-21.05,3.23-1.11-.13-2.11-1.29-3.15-2Z" transform="translate(-381.28 -33.99)" fill="#f1c62a"/><path d="M664.16,372.13a27.21,27.21,0,0,1,5.29-.42c5.38.6,10.75,1.37,16.09,2.27.89.15,1.6,1.3,2.4,2a17.05,17.05,0,0,1-2.71,1.48,4.4,4.4,0,0,1-2.25,0c-6.23-1.32-12.44-2.69-18.67-4.05Z" transform="translate(-381.28 -33.99)" fill="#f1c62a"/><path d="M645.79,395c-3.42,4.11-22.39,3.42-25.63,0Z" transform="translate(-381.28 -33.99)" fill="#f1c62a"/><path d="M739.65,267.65l-20.74,4.71C720.16,266.77,733.48,263.15,739.65,267.65Z" transform="translate(-381.28 -33.99)" fill="#f1c62a"/><path d="M699.29,392.59l-24.25-5C680.52,383.94,695.1,386.72,699.29,392.59Z" transform="translate(-381.28 -33.99)" fill="#f1c62a"/><path d="M620.57,360.48c7.8-2.79,15.62-.62,24.09-.48C642.57,362.93,625.57,363.16,620.57,360.48Z" transform="translate(-381.28 -33.99)" fill="#f1c62a"/><path d="M679.87,255.45c3.3.3,6.79,0,9.83,1.06,3.29,1.12,6.2,3.42,9.16,5.39.47.31.47,1.6.34,2.37,0,.24-1.39.56-1.94.34-5.47-2.15-10.9-4.4-16.32-6.67a5.48,5.48,0,0,1-1.27-1.11Z" transform="translate(-381.28 -33.99)" fill="#f1c62a"/><path d="M679.89,291.24a24.25,24.25,0,0,1,16.38,3.11,4,4,0,0,1,1,.92c.89,1.11,1.75,2.25,2.63,3.37a28.58,28.58,0,0,1-4.27-.69c-3.85-1.2-7.63-2.58-11.46-3.84-1.47-.49-3-.85-4.49-1.27Z" transform="translate(-381.28 -33.99)" fill="#f1c62a"/><path d="M720.24,356c4.74-5.13,16-5.33,19.49,0Z" transform="translate(-381.28 -33.99)" fill="#f1c62a"/><path d="M677.07,327.89c5.4-4.2,20.79-.27,23,5.06Z" transform="translate(-381.28 -33.99)" fill="#f1c62a"/><path d="M673.1,302c1.63-.44,3.39-1.52,4.85-1.19a117.38,117.38,0,0,1,12.15,3.75c.5.17,1.19,1.38,1,1.59-.43.63-1.35,1.51-1.87,1.38-5.29-1.24-10.54-2.66-15.8-4Z" transform="translate(-381.28 -33.99)" fill="#f1c62a"/><path d="M620.81,291.1c7-1.06,14.12-2.79,21.08.34C634.86,292.74,627.84,294,620.81,291.1Z" transform="translate(-381.28 -33.99)" fill="#f1c62a"/><path d="M677.38,363.43c3.64-4.27,16-2.84,20.47,2.56Z" transform="translate(-381.28 -33.99)" fill="#f1c62a"/><path d="M676.74,315.52c3.07-3.81,17.08-.58,22.67,5.85Z" transform="translate(-381.28 -33.99)" fill="#f1c62a"/><path d="M645.69,373.93H619.36c1.58-1.5,2.21-2.6,2.83-2.59,7.84.06,15.69.27,23.53.45Z" transform="translate(-381.28 -33.99)" fill="#f1c62a"/><path d="M737.45,278.87a23.28,23.28,0,0,1-4,1.71q-5.91,1.21-11.89,2.11a9,9,0,0,1-2.79-.47c.37-.85.59-2.34,1.13-2.46,4.92-1.1,9.89-2,14.87-2.82C735.31,276.85,736.05,277.84,737.45,278.87Z" transform="translate(-381.28 -33.99)" fill="#f1c62a"/><path d="M801.09,319.5c-1.26.5-2.51,1.42-3.77,1.42-4,0-8.05-.26-12.06-.57a7.38,7.38,0,0,1-2.44-1.2c.8-.68,1.58-1.93,2.4-2,5.15-.18,10.32-.09,15.48-.09Z" transform="translate(-381.28 -33.99)" fill="#f1c62a"/><path d="M719.54,379.73c7.62-6.14,12.72-6.36,17.62-1.68Z" transform="translate(-381.28 -33.99)" fill="#f1c62a"/><path d="M784.66,280.57a13.36,13.36,0,0,1,3.12-.83c3.74-.08,7.48-.12,11.2.12,1,.07,2,1.15,3,1.77-1,.55-2,1.56-3,1.58-4.74.05-9.48-.17-14.22-.29C784.7,282.13,784.68,281.35,784.66,280.57Z" transform="translate(-381.28 -33.99)" fill="#f1c62a"/><path d="M734.18,315.28c-5.13,4.26-11,1.17-16.47,3.75C720,313.66,729.37,311.71,734.18,315.28Z" transform="translate(-381.28 -33.99)" fill="#f1c62a"/><path d="M739.11,366.66l-19.77,2C721.6,364.44,733.81,363.16,739.11,366.66Z" transform="translate(-381.28 -33.99)" fill="#f1c62a"/><path d="M738.81,257.88a24.4,24.4,0,0,1-2.88,1.1c-4,.93-8,1.88-12.09,2.64a13.16,13.16,0,0,1-3.56-.28c.71-1,1.21-2.37,2.17-2.94C727.29,255.53,735.21,255.21,738.81,257.88Z" transform="translate(-381.28 -33.99)" fill="#f1c62a"/><path d="M643,338.25H620.76C622.77,335.11,638.14,334.63,643,338.25Z" transform="translate(-381.28 -33.99)" fill="#f1c62a"/><path d="M719.31,292.63c4.61-4.15,10.12-5,15.85-4.71.72,0,1.47,1.13,2,1.88.09.11-.81,1.39-1.32,1.44C730.35,291.78,724.83,292.19,719.31,292.63Z" transform="translate(-381.28 -33.99)" fill="#f1c62a"/><path d="M644.83,420.84H623.41l-.36-1.13c1.09-.49,2.23-1.47,3.26-1.37,6.19.64,12.75-1.35,18.68,1.32Z" transform="translate(-381.28 -33.99)" fill="#f1c62a"/><path d="M717.14,305.14c.93-1.42,1.49-3.26,2.32-3.39a105.55,105.55,0,0,1,12-1.06c.5,0,1.06,1.15,1.58,1.78-.7.54-1.37,1.5-2.13,1.58C726.66,304.5,722.35,304.75,717.14,305.14Z" transform="translate(-381.28 -33.99)" fill="#f1c62a"/><path d="M729.53,338.83l3.26,2.08c-.91.83-1.69,2.07-2.76,2.4a66.1,66.1,0,0,1-8.7,2c-.68.11-1.5-.59-2.26-.91.34-.75.5-1.93,1-2.16C723.13,341,726.25,340,729.53,338.83Z" transform="translate(-381.28 -33.99)" fill="#f1c62a"/><path d="M675.17,269.66c3-4,6.26-2.08,9-1.61,2.49.42,4.8,1.93,7.12,3.08a6.39,6.39,0,0,1-.53,1.84c-2.44-.43-4.85-1-7.26-1.52Z" transform="translate(-381.28 -33.99)" fill="#f1c62a"/><path d="M622.22,283.54c-.58-1.31-1.61-2.62-1.66-4-.2-5.86-.11-11.74-.14-17.6,0-6.25.12-6.38,7.31-5.37-5.82.07-5.65,3.69-5.49,7.65.27,6.31.18,12.64.24,19Z" transform="translate(-381.28 -33.99)" fill="#f6d769"/><path d="M719.62,391.34c4.39-3.58,11.46-4.75,16-2.85C734.27,391,723.49,393.1,719.62,391.34Z" transform="translate(-381.28 -33.99)" fill="#f1c62a"/><path d="M735.57,412l-17.46,2.63C721.53,409.78,730.6,408.2,735.57,412Z" transform="translate(-381.28 -33.99)" fill="#f1c62a"/><path d="M619.72,348.71c7.15-1.36,14.38-1.21,22.11-.81C640,350.42,624.72,351.15,619.72,348.71Z" transform="translate(-381.28 -33.99)" fill="#f1c62a"/><path d="M735.61,401.14l-18,2.64C720.16,398.63,729.06,397.16,735.61,401.14Z" transform="translate(-381.28 -33.99)" fill="#f1c62a"/><path d="M639.94,326.71c-6.34,0-12.12,0-17.9-.06a2,2,0,0,1-1.44-1.33c-.08-.49.67-1.62,1-1.6,5.9.45,11.79,1,17.68,1.59C639.35,325.32,639.4,325.56,639.94,326.71Z" transform="translate(-381.28 -33.99)" fill="#f1c62a"/><path d="M647,278.13c4.26-1.95,8.84-1,13.31-.65a17.57,17.57,0,0,1,.18,2.72H647Z" transform="translate(-381.28 -33.99)" fill="#f1c62a"/><path d="M645.6,257.72c4.86-5,13.92-5.94,17.3-1.94Z" transform="translate(-381.28 -33.99)" fill="#f1c62a"/><path d="M733.84,330.25c-5.11,1.14-9.8,3.19-15.57,2.3C722.68,327.93,730.53,326.83,733.84,330.25Z" transform="translate(-381.28 -33.99)" fill="#f1c62a"/><path d="M796.42,415.38c-2.19,3.4-8.88,3.75-10.72,1.93a2.16,2.16,0,0,1-.56-1.89c.38-.68,1.32-1.59,1.93-1.53C790.2,414.23,793.3,414.86,796.42,415.38Z" transform="translate(-381.28 -33.99)" fill="#f1c62a"/><path d="M672.41,269.56c-4.56,0-8.57.11-12.56-.12-.6,0-1.79-2.05-1.56-2.39C659.9,264.62,670.36,266.13,672.41,269.56Z" transform="translate(-381.28 -33.99)" fill="#f1c62a"/><path d="M657.39,386.84c2.26-5.46,8.46-5.21,12.53,0Z" transform="translate(-381.28 -33.99)" fill="#f1c62a"/><path d="M785.71,329.49l6.13,3.86c-1.41.73-2.88,2.15-4.2,2-2.1-.21-4.1-1.46-6.14-2.27Z" transform="translate(-381.28 -33.99)" fill="#f1c62a"/><path d="M659.89,326.84h-16c2.12-3.32,11.51-3.72,16-1.28Z" transform="translate(-381.28 -33.99)" fill="#f1c62a"/><path d="M753.52,306.9l-4.28-3.49c1.51-.9,3-2.53,4.52-2.5,1.68,0,3.32,1.57,5,2.45Z" transform="translate(-381.28 -33.99)" fill="#f1c62a"/><path d="M776.92,290.56h13C787.15,293.86,780.79,294.18,776.92,290.56Z" transform="translate(-381.28 -33.99)" fill="#f1c62a"/><path d="M687.23,413.29c6.55-1.06,9.6,0,12.95,5.66l-13.45-4.05Z" transform="translate(-381.28 -33.99)" fill="#f1c62a"/><path d="M776.06,258c3.8,0,6.89-.13,10,.09.74.05,1.54,1.15,2,1.95.14.24-.62,1.28-1.17,1.61C784.24,263.23,778.73,261.64,776.06,258Z" transform="translate(-381.28 -33.99)" fill="#f1c62a"/><path d="M793.62,347.49c-3.15,0-6.31.08-9.46-.09-.48,0-1.27-1.27-1.23-1.9s.8-1.83,1.39-1.93c3.4-.57,6.76-.57,9.37,2.09Z" transform="translate(-381.28 -33.99)" fill="#f1c62a"/><path d="M741.6,399.15c2.73.14,5.48.14,8.18.52.73.11,1.3,1.38,1.94,2.12-.74.6-1.44,1.65-2.22,1.71-3.16.23-6.46.45-8.31-2.72C741.32,400.24,741.46,399.7,741.6,399.15Z" transform="translate(-381.28 -33.99)" fill="#f1c62a"/><path d="M663.62,337.27c4.86-3,9.57-.29,14.34.36,0,.62-.06,1.24-.08,1.86l-14.32-.76Z" transform="translate(-381.28 -33.99)" fill="#f1c62a"/><path d="M699.14,287.08l-14.76-4.36C686.5,279.82,695.87,282.08,699.14,287.08Z" transform="translate(-381.28 -33.99)" fill="#f1c62a"/><path d="M651.11,384.48c-1.82,1.73-9,3-10.63,1.74a2.26,2.26,0,0,1-.73-1.86,2,2,0,0,1,1.37-1.35c3.31-.12,6.62-.06,9.93-.06Z" transform="translate(-381.28 -33.99)" fill="#f1c62a"/><path d="M700,342.85l-16.8-3.78.31-1.26C689.43,337.82,695.3,338,700,342.85Z" transform="translate(-381.28 -33.99)" fill="#f1c62a"/><path d="M771.49,260.13c-4.84,2.44-9.31,1.49-11.57-3.46l11.73,1.9Z" transform="translate(-381.28 -33.99)" fill="#f1c62a"/><path d="M745.24,317.72c-1.91-.12-2.8.08-3.37-.26a33.8,33.8,0,0,1-3.53-2.68,39.22,39.22,0,0,1,3.75-1.52,3.38,3.38,0,0,1,2.2,0,45.84,45.84,0,0,1,4.11,2.4Z" transform="translate(-381.28 -33.99)" fill="#f1c62a"/><path d="M801.88,269.37c-2,3.94-5.24,3.28-8.27,2.87-.42-.05-1.18-2.27-.81-2.78C794.47,267.14,799.43,267.15,801.88,269.37Z" transform="translate(-381.28 -33.99)" fill="#f1c62a"/><path d="M620.31,382.93h11.54c-.73,1.55-1.14,3.34-1.63,3.36C626.73,386.44,622.85,387.74,620.31,382.93Z" transform="translate(-381.28 -33.99)" fill="#f1c62a"/><path d="M778.47,274.3l-4.66-2.63c2-.93,3.88-2.34,5.93-2.59,1.21-.15,2.64,1.54,4,2.4Z" transform="translate(-381.28 -33.99)" fill="#f1c62a"/><path d="M674.51,292.29,661,291.37c3.68-3.14,9.85-3,13.83-.27Z" transform="translate(-381.28 -33.99)" fill="#f1c62a"/><path d="M665.07,362.55H652.34c.58-.85,1-2.21,1.7-2.39C657.57,359.24,661.22,358.48,665.07,362.55Z" transform="translate(-381.28 -33.99)" fill="#f1c62a"/><path d="M777.73,304c4.13-.36,8.26-.76,12.4-1,.23,0,.54,1.51.84,2.38H777.71C777.72,305,777.72,304.51,777.73,304Z" transform="translate(-381.28 -33.99)" fill="#f1c62a"/><path d="M666.28,352.86l-4.94-3c1.35-.72,2.72-2,4.07-2,1.65,0,3.28,1.14,4.93,1.79Z" transform="translate(-381.28 -33.99)" fill="#f1c62a"/><path d="M797.46,261.72l-3.78-2.88c1.66-.89,3.25-2.33,5-2.5,1.26-.13,2.69,1.39,4.05,2.18Z" transform="translate(-381.28 -33.99)" fill="#f1c62a"/><path d="M755.86,377.54c3.32-2.05,6.74-.53,10.09.31.39.09.86,1.32.69,1.82a2,2,0,0,1-1.67,1.05c-3.06-.43-6.09-1.06-9.13-1.62C755.85,378.58,755.86,378.06,755.86,377.54Z" transform="translate(-381.28 -33.99)" fill="#f1c62a"/><path d="M761.42,392.58c-2.08-.93-3.91-1.69-5.66-2.6-.17-.09.11-1.59.23-1.6a25.59,25.59,0,0,1,6.06,0c1.18.22,2.16,1.46,3.24,2.24Z" transform="translate(-381.28 -33.99)" fill="#f1c62a"/><path d="M764.29,283.59c-2.5-.4-4.69-.61-6.79-1.17a2.35,2.35,0,0,1-1.26-2c.07-.55,1.17-1.19,1.91-1.35C763.29,278,764.62,278.8,764.29,283.59Z" transform="translate(-381.28 -33.99)" fill="#f1c62a"/><path d="M756.1,292H743.87C745.27,288,750.86,287.93,756.1,292Z" transform="translate(-381.28 -33.99)" fill="#f1c62a"/><path d="M747.78,357.61l-4.12-3.45c1.11-.62,2.33-1.87,3.32-1.71,2,.31,3.86,1.39,5.79,2.16Z" transform="translate(-381.28 -33.99)" fill="#f1c62a"/><path d="M769.49,282.83c.83-1.31,1.33-3,2-3,3.4-.4,6.92-.61,9.47,3Z" transform="translate(-381.28 -33.99)" fill="#f1c62a"/><path d="M661.38,303.87c.12-5.3,4-2.89,6.18-3.29,2-.37,4.48-.46,3.6,3.29Z" transform="translate(-381.28 -33.99)" fill="#f1c62a"/><path d="M773.89,356.45c3.76-1.61,7.44-1.13,11.08.68,0,.42,0,.84,0,1.25H773.88Z" transform="translate(-381.28 -33.99)" fill="#f1c62a"/><path d="M750.75,343.25c3.31-3.27,6.7-2,11.27-.37C757.63,346,754.21,345.06,750.75,343.25Z" transform="translate(-381.28 -33.99)" fill="#f1c62a"/><path d="M661.22,398.25c-2.39.21-4.78.54-7.18.56a2.29,2.29,0,0,1-1.62-1.57c0-.62.86-1.87,1.32-1.86,2.53.09,5,.48,7.58.77Z" transform="translate(-381.28 -33.99)" fill="#f1c62a"/><path d="M774.41,388.42l4.74,3.8c-1,.58-2.18,1.82-3,1.62a35.43,35.43,0,0,1-6-2.56Z" transform="translate(-381.28 -33.99)" fill="#f1c62a"/><path d="M774.82,370.28c1.95-3.34,4.66-3.13,7.35-1.88.61.28,1,2.73.78,2.86C780.15,372.8,777.42,372.74,774.82,370.28Z" transform="translate(-381.28 -33.99)" fill="#f1c62a"/><path d="M661.56,315.06c3.22-2.56,6.48-2.21,9.77-.5C668.22,317.68,664.91,317,661.56,315.06Z" transform="translate(-381.28 -33.99)" fill="#f1c62a"/><path d="M738.94,388h10.18C746.79,392,742.46,391.91,738.94,388Z" transform="translate(-381.28 -33.99)" fill="#f1c62a"/><path d="M752.64,268.91c-2.83,2.33-5.69,1.95-8.58-1.41h8.57Z" transform="translate(-381.28 -33.99)" fill="#f1c62a"/><path d="M743.5,257c1.19-.59,3-2,3.45-1.62,2,1.65,6.37-1,7.1,4l-10-.71Z" transform="translate(-381.28 -33.99)" fill="#f1c62a"/><path d="M770.67,293.84l-10.71-1C765,289.13,768.26,289.42,770.67,293.84Z" transform="translate(-381.28 -33.99)" fill="#f1c62a"/><path d="M744.48,305.17a35.79,35.79,0,0,1-6-.14c-.49-.09-.67-1.9-1-2.92,1.56-.22,3.2-.8,4.68-.53,1,.19,1.88,1.54,2.81,2.37Z" transform="translate(-381.28 -33.99)" fill="#f1c62a"/><path d="M720.33,426.54a6.05,6.05,0,0,1,10.35-1.67Z" transform="translate(-381.28 -33.99)" fill="#f1c62a"/><path d="M766.17,344.92c.85-1.41,1-1.86,1.14-1.86,2.22,0,4.44.15,6.66.24a21.65,21.65,0,0,1-.51,2.57C771.18,345.69,768.91,345.33,766.17,344.92Z" transform="translate(-381.28 -33.99)" fill="#f1c62a"/><path d="M675.83,256.89c-2.41,0-4.75.12-7.06-.08-.64-.05-1.2-1-1.8-1.58.57-.58,1-1.46,1.73-1.71C672,252.33,675.11,253.7,675.83,256.89Z" transform="translate(-381.28 -33.99)" fill="#f1c62a"/><path d="M659.67,338.27H647.06C649.13,335.15,654.48,334.84,659.67,338.27Z" transform="translate(-381.28 -33.99)" fill="#f1c62a"/><path d="M762.71,318.79l-9.77-1.39C756,313.66,759.44,313.88,762.71,318.79Z" transform="translate(-381.28 -33.99)" fill="#f1c62a"/><path d="M699.25,407.84l-8.19-4.12.74-1.5a9.52,9.52,0,0,1,8.24,4Z" transform="translate(-381.28 -33.99)" fill="#f1c62a"/><path d="M752.34,329.67l9.46.54,0,1.45c-3,2.5-6.23.53-9.37.12C752.39,331.08,752.37,330.37,752.34,329.67Z" transform="translate(-381.28 -33.99)" fill="#f1c62a"/><path d="M664.21,278.41H675C673.17,281.23,668,281.47,664.21,278.41Z" transform="translate(-381.28 -33.99)" fill="#f1c62a"/><path d="M757.94,412l10.43.82C765.4,415.93,762.1,415.88,757.94,412Z" transform="translate(-381.28 -33.99)" fill="#f1c62a"/><path d="M750.79,281.71l-6.67-.67c.12-.94,0-2.54.42-2.71C747,277.38,749.44,277.11,750.79,281.71Z" transform="translate(-381.28 -33.99)" fill="#f1c62a"/><path d="M740.56,345.33l-3.9-3.05c1.33-.69,2.64-1.87,4-1.92,1,0,2.11,1.34,3.17,2.1Z" transform="translate(-381.28 -33.99)" fill="#f1c62a"/><path d="M647.47,351.57a18.39,18.39,0,0,1,.5-2.08c2.44-.37,4.88-.71,7.32-1.06a10.27,10.27,0,0,1,0,1.9C652.91,350.8,650.48,351.13,647.47,351.57Z" transform="translate(-381.28 -33.99)" fill="#f1c62a"/><path d="M772.32,412.46l7.49,1.87c-.34.83-.52,2.25-1,2.38C776.2,417.35,773.74,417.26,772.32,412.46Z" transform="translate(-381.28 -33.99)" fill="#f1c62a"/><path d="M767.63,404.79,757.55,404C760.88,400.89,764,401.1,767.63,404.79Z" transform="translate(-381.28 -33.99)" fill="#f1c62a"/><path d="M802.8,335.5c-2-.35-4.09-.66-6.1-1.14a10.53,10.53,0,0,1,.21-2.25c2.09.07,4.18.28,6.27.47C803.06,333.55,802.93,334.52,802.8,335.5Z" transform="translate(-381.28 -33.99)" fill="#f1c62a"/><path d="M771.78,306.28c-2.22-.26-4.44-.49-6.63-.88-.07,0,.13-1.53.2-2.35l6.73.84Z" transform="translate(-381.28 -33.99)" fill="#f1c62a"/><path d="M796,361.68c-2.06-.85-4.13-1.66-6.13-2.63a12.49,12.49,0,0,1,.63-2.13l6.52,2Z" transform="translate(-381.28 -33.99)" fill="#f1c62a"/><path d="M699.49,382.1c-2.35-.29-3.8-.21-5-.7a9.87,9.87,0,0,1-2.89-2.35c-.08-.07.59-1.29.85-1.26a9.79,9.79,0,0,1,3.72.8C697.12,379.11,697.78,380.25,699.49,382.1Z" transform="translate(-381.28 -33.99)" fill="#f1c62a"/><path d="M794.05,305.4c3.6-4.12,6.31-4.06,8.58,0Z" transform="translate(-381.28 -33.99)" fill="#f1c62a"/><path d="M651.74,371.8l8.23.59-.08,1.65h-8.3Z" transform="translate(-381.28 -33.99)" fill="#f1c62a"/><path d="M803.12,291.37l-7.49.67c0-.75-.11-1.5-.16-2.24l7.49-.56C803,290,803.07,290.66,803.12,291.37Z" transform="translate(-381.28 -33.99)" fill="#f1c62a"/><path d="M763.49,273.36l-3.4-2.54c1-.71,2.12-2.05,3.11-2,1.32.08,2.56,1.27,3.83,2Z" transform="translate(-381.28 -33.99)" fill="#f1c62a"/><path d="M769,356.4H758.34C760.73,353.06,764.33,353,769,356.4Z" transform="translate(-381.28 -33.99)" fill="#f1c62a"/><path d="M769.32,369.8,761,368.11c4.13-3.2,6.58-2.28,8.88-.16Z" transform="translate(-381.28 -33.99)" fill="#f1c62a"/><path d="M750.89,378c-.38.18-.8.55-1.15.49-1.92-.33-3.82-.78-5.73-1.18a11.4,11.4,0,0,1,.72-2.23c2.19.3,4.36.78,6.53,1.23Z" transform="translate(-381.28 -33.99)" fill="#f1c62a"/><path d="M648.68,314l7.82-.95C654.33,317.16,652.61,317.43,648.68,314Z" transform="translate(-381.28 -33.99)" fill="#f1c62a"/><path d="M689.89,436.13l7.62.78-.26,2.41-7.61-.9Z" transform="translate(-381.28 -33.99)" fill="#f1c62a"/><path d="M773.25,403.29l8.77,1.09-.28,1.65C778.52,407.27,775.65,406.55,773.25,403.29Z" transform="translate(-381.28 -33.99)" fill="#f1c62a"/><path d="M742.82,411.6c1-.73,2-2.12,3-2.06,1.57.11,3.09,1.14,4.62,1.78l-.47,1.23H743.3Z" transform="translate(-381.28 -33.99)" fill="#f1c62a"/><path d="M630.21,256.78c3.53-3.47,6.64-3.43,8.92,0Z" transform="translate(-381.28 -33.99)" fill="#faecb7"/><path d="M745.55,331.35h-7.88l0-1.32h7.77Z" transform="translate(-381.28 -33.99)" fill="#f1c62a"/><path d="M626.28,304.1c-2.88-.3-5.89,1.39-6-3.18C622.72,300.66,625.66,298.82,626.28,304.1Z" transform="translate(-381.28 -33.99)" fill="#f1c62a"/><path d="M622.48,283.23H626l-.05.83-3.68-.52S622.48,283.23,622.48,283.23Z" transform="translate(-381.28 -33.99)" fill="#f6d769"/><path d="M774,233.22l.52.59-.93-.17Z" transform="translate(-381.28 -33.99)" fill="#f1c62a"/><path d="M749.84,529.44c1,2.85,2.5,5.65,2.82,8.58.14,1.28-1.83,3.54-3.31,4.11-3.31,1.27-6.91,1.75-10.71,2.62-1.85-6.87-3.72-13.8-5.95-22,4.88-.54,9.56-1.68,14-1.17,1.27.14,2,5.12,3,7.88Zm-8.54,9.15,1.77.56c1.9-1.31,6-.31,4.87-4.55-.21-.77-3.75-1.25-5.4-.73C741.71,534.14,741.69,536.94,741.3,538.59Zm3.78-11.06-.18-1.44c-.94-.33-2.1-1.16-2.78-.87a19,19,0,0,0-3.73,2.76c.81.61,1.78,1.86,2.4,1.71A19.4,19.4,0,0,0,745.08,527.53Z" transform="translate(-381.28 -33.99)" fill="#f1c62a"/><path d="M697.57,544.45c-4.46.28-4-2.8-4.43-5.52-.26-1.67-1.29-3.23-2-4.84-.91,1.37-1.91,2.69-2.68,4.13a24.38,24.38,0,0,0-1.26,3.55l-3.59-.92,6.56-22.09c3.25,1.1,6.59,2,9.7,3.33,5.05,2.21,5.58,9,.36,12.25-3.75,2.3-3.73,4.62-2.86,7.93A12.1,12.1,0,0,1,697.57,544.45ZM692,529.3c2.79,1.29,5.37,2.72,7.16-.54.21-.37-2.19-2.8-3.71-3.36C692.18,524.2,692.3,526.9,692,529.3Z" transform="translate(-381.28 -33.99)" fill="#f1c62a"/><path d="M666.62,495.67l2.88,4.1-7,4.67L667,510.1l6.08-4.64,2.94,3.41-18.36,13.54c-.83-1.07-1.79-2.33-2.67-3.45,2.34-2,5-3.56,6.34-5.84.58-1-1.5-3.51-2.64-5.91a53,53,0,0,1-5.59,4c-1,.51-2.88.82-3.41.28-1.63-1.67-.81-3,1.16-4.11a81.39,81.39,0,0,0,8-5.36C661.45,500.05,663.87,497.92,666.62,495.67Z" transform="translate(-381.28 -33.99)" fill="#f1c62a"/><path d="M631.86,444.81l-3.09,5c-2-1.44-3.9-2.9-5.93-4.11-.71-.43-1.79-.24-2.7-.33.22,1,.09,2.46.72,2.94,2.36,1.81,3.74,3.53.9,6.23l-5.34-3c-2.82,2-2.41,3.53.31,5,1.84,1,3.55,2.18,5.57,3.44L620,464.44l-12.39-7.14,11.69-19.76Z" transform="translate(-381.28 -33.99)" fill="#f1c62a"/><path d="M771.32,526c3.6,5.28,3.51,5.3-2.49,7.53a65.9,65.9,0,0,0-7.6,4c-3.48-6.83-6.86-13.44-10.18-19.94l12.56-7,1.81,5-7.89,4.36c1.42,3.16,1.42,3.16,6.74.42.41,1,.84,1.91,1.22,2.87a5.19,5.19,0,0,1,.17,1.09c-.94,2-6.19,2-2.8,6.63C765.57,529.34,768.44,527.68,771.32,526Z" transform="translate(-381.28 -33.99)" fill="#f1c62a"/><path d="M686.69,523.22l-7.92-6c-3.35,3.64,1.61,4.39,2.18,6.57l-2,3.17c-2.38-.82-4.45-5-7.75-.36l8.26,6.2c-1,1.21-2.06,2.39-3.32,3.87l-11.51-7.93c4.55-6.19,9-12.24,13.42-18.29,3,2,6.08,3.86,9,6C690.08,518.61,687.75,520.72,686.69,523.22Z" transform="translate(-381.28 -33.99)" fill="#f1c62a"/><path d="M712.12,533.18l5.82.31c-.12,1.49-.22,2.77-.31,3.87-2,1.75-7.24-1.59-5.9,4.76l9,.43v5.27l-14.13-1.11c.79-7.43,1.55-14.69,2.33-22.14h13v5.65c-3.31,0-6.37,0-9.43.11A14.24,14.24,0,0,0,712.12,533.18Z" transform="translate(-381.28 -33.99)" fill="#f1c62a"/><path d="M642.53,492.18l14.88-7.13c-.46-1.43-1-3.19-1.72-5.31l4.66-2.11L667,492l-5,2.33c-.65-1.83-1.22-3.46-1.67-4.74-6.5-.43-10.64,8.25-17.49,4.53C642.73,493.48,642.63,492.83,642.53,492.18Z" transform="translate(-381.28 -33.99)" fill="#f1c62a"/><path d="M629.79,473l-3.46-3.46,1.3,1.17L637.82,457l-3.61-1.73c2.95-5.57,3.5-5.68,7-2.3,2.64,2.56,5.31,5.09,8.33,8l-4.07,3.83c-2.43-5.36-4.42-3.5-7.34-.48-2.75,2.84-6.5,4.71-9.82,7C628.78,471.87,629.29,472.43,629.79,473Z" transform="translate(-381.28 -33.99)" fill="#f1c62a"/><path d="M603.92,454.93l-14.37-5.09c2.68-6.82,5.39-13.73,8.1-20.65,3.35.05,3.58,1.81,2.61,4.46-1.53,4.13-2.92,8.31-4.33,12.38l9.39,4.19Z" transform="translate(-381.28 -33.99)" fill="#f1c62a"/><path d="M735.07,621.28l-6.65.94c-.93-9.28-1.83-18.23-2.77-27.64l7.36-1.21-.58.87,17.86,14.55,1.12-.67c-.85-5.55-1.71-11.1-2.6-16.87l6.06-1c1.15,9.36,2.27,18.5,3.48,28.44l-6.61,1,.49-1-19.69-16.18Z" transform="translate(-381.28 -33.99)" fill="#ebecec"/><path d="M639.42,613.26c2.08-9.15,4.07-17.88,6.12-26.87,5.67,1.1,12.4,2.29,19.08,3.72,4.15.89,6.5,3.56,6.53,8,0,5.68-1.14,6.91-8.84,9.08,1.74,4,3.46,7.91,5.47,12.53-2.49-.39-4.58-.44-6.43-1.14a4,4,0,0,1-2-2.89c-.34-6.91-4.07-11-11.15-11.46-.82,3.4-1.66,6.86-2.58,10.66Zm10.49-13.78a105,105,0,0,0,11.23,1.85c1.2.08,3-1.35,3.58-2.55.33-.7-1-2.79-2-3.39a23.17,23.17,0,0,0-6.3-2.18C649.43,591.63,649.37,591.73,649.91,599.48Z" transform="translate(-381.28 -33.99)" fill="#ebecec"/><path d="M783.38,594.33l1.49,4.76-12.36,3c.6,2.55,1,4.4,1.59,6.75l19.08-4.94c.41,1.19,1.18,3.4,1.81,5.2l-25.8,6.79-7.37-26.37,25.1-8.21,1.57,5.74-19.27,4.38c.5,2.56.89,4.57,1.35,6.94Z" transform="translate(-381.28 -33.99)" fill="#ebecec"/><path d="M674.81,592.2l6.88.78c2.37,6.72,4.57,13,6.77,19.23,3.82-2.45,10.43-15.32,8.62-17.87l9.18.85c-2.86,4.63-5.62,8.75-8,13.07s-4.49,8.92-6.8,13.57l-6.33-.65Z" transform="translate(-381.28 -33.99)" fill="#ebecec"/><path d="M631.5,581.35l6.43,1.58L629,610.08l-6.22-3c2.12-5.8,4.33-11.63,6.37-17.52.93-2.66,1.54-5.43,2.29-8.15Z" transform="translate(-381.28 -33.99)" fill="#ebecec"/><path d="M710.53,622V594.89h7.22V622Z" transform="translate(-381.28 -33.99)" fill="#fefefe"/><path d="M631.46,581.4l-.58-.27.18-.36.44.58Z" transform="translate(-381.28 -33.99)" fill="#ebecec"/><path d="M827.79,472.59l-4.9-.34c.26-3.07.49-5.86.77-9.28l-6.88-.32c-.24,2.94-.45,5.58-.69,8.61h-4.5c.43-7.31.85-14.33,1.29-21.78l4.12-.22c.15,2.79.29,5.28.43,8.06l6.58.77c.25-2.8.46-5.15.68-7.74h4.53C828.75,457.69,828.29,464.82,827.79,472.59Z" transform="translate(-381.28 -33.99)" fill="#f1c62a"/><path d="M797.87,455.92l7.38,2.37c-.86,3.2-1.66,6.19-2.45,9.17-8.86,2.14-13.12.53-14.93-5.64-1.2-4.09,1-12.13,4-14.54,4.09-3.29,10.16-2,14.1,3l-2.67,3.53c0-.45,0-.9.07-1.35-2.83-.46-6-1.94-8.35-1.05-1.77.68-3,4.25-3.37,6.7-.46,3.05,1.7,5.09,4.8,5.42,1.1.12,2.29-.7,3.44-1.08a15.91,15.91,0,0,1-2.07-2.38,26.1,26.1,0,0,1-1.41-3.54Z" transform="translate(-381.28 -33.99)" fill="#f1c62a"/><path d="M848.11,446.63c.38,2.23.62,3.68.91,5.39l-4.94,1.29c.88,5.42,1.75,10.81,2.67,16.52L842.24,471c-1-5.64-2-11-3-16.62l-5.31.31c-.18-1.58-.36-3.17-.58-5.09Z" transform="translate(-381.28 -33.99)" fill="#f1c62a"/><path d="M759.37,433.83h4.48c-1.33,5.55-2.65,11-4,16.55l9.73,2.88c-.44,2-.86,3.9-1.27,5.76l-14.6-4.11C755.61,447.85,757.48,440.87,759.37,433.83Z" transform="translate(-381.28 -33.99)" fill="#f1c62a"/><path d="M782.82,439.11c.46,1.45,1.64,3.13,1.27,4.31-2,6.2-4.37,12.28-6.56,18.27-4.54.29-4.32-2.2-3.42-4.55,1.65-4.31,3.65-8.49,5.47-12.75.69-1.63,1.3-3.3,1.94-4.95Z" transform="translate(-381.28 -33.99)" fill="#f1c62a"/><path d="M678.18,166.28l31.08,10.36c-6.45,10.16-12.59,19.82-18.73,29.47l-1,0a20.6,20.6,0,0,1,0-3.77c1-5.43,2.44-10.79,3-16.25.21-1.88-1.14-4.41-2.57-5.9-4.15-4.34-8.71-8.31-13.11-12.42Z" transform="translate(-381.28 -33.99)" fill="#f1c62a"/><path d="M747.33,164.33l-26.17,9.13.15.81,18.78-1.14c-1.74,6.15-5,8-11.88,6.71-2.8-.53-5.53-1.43-8.27-2.23-1.67-.48-3.3-1.09-5.15-1.71,2.41-4,4.62-8,7.07-11.74.65-1,2-2.24,3-2.22,7.44.17,14.88.63,22.33,1Z" transform="translate(-381.28 -33.99)" fill="#f1c62a"/><path d="M733.74,208.22c-5.3-2.58-11-4.56-15.71-8-2.34-1.7-3.31-5.91-3.93-9.16a43.59,43.59,0,0,1,0-13.21L734,208Z" transform="translate(-381.28 -33.99)" fill="#f1c62a"/><path d="M712,139.07v33l-1,.61a68.49,68.49,0,0,0-5.23-6.8c-5.85-6-1.22-11.45.69-16.94,1.22-3.5,3.21-6.74,4.85-10.09Z" transform="translate(-381.28 -33.99)" fill="#f1c62a"/><path d="M734,208l.52.48-.77-.24Z" transform="translate(-381.28 -33.99)" fill="#f1c62a"/><path d="M943.94,430.1c2.13.76,3.83.93,4.86,1.85s2.35,2.87,2.06,4a32.43,32.43,0,0,1-3.74,8.68c-.67,1.09-3.63,2.17-4,1.8-1.25-1.35-2.72-3.45-2.49-5C941.23,437.66,942.73,434.06,943.94,430.1Z" transform="translate(-381.28 -33.99)" fill="#05457e"/><path d="M536.74,176c3.09-2.55,5.49-5,8.36-6.69,1.4-.81,3.66-.16,5.53-.16,0,1.85.69,4.22-.2,5.44-2.11,2.89-5,5.24-7.7,8C540.53,180.12,538.86,178.27,536.74,176Z" transform="translate(-381.28 -33.99)" fill="#05457e"/><path d="M938.66,389.11c-1.19-6.55,5.58-11.33,10.36-11.33,7.62,0,12.67,4.25,12.49,11-.19,7.32-3.94,10.89-10.36,10.86C943.53,399.6,938.64,395.54,938.66,389.11Z" transform="translate(-381.28 -33.99)" fill="#05457e"/><path d="M777.27,132.55c-.09-7,5-13.32,10.58-13.34,5.91,0,11.81,4.88,11.94,9.91.17,7-5.84,13.87-12,13.72C782.48,142.71,777.34,137.69,777.27,132.55Z" transform="translate(-381.28 -33.99)" fill="#05457e"/><path d="M880.52,543.41l-12.59-6,7.65-7Z" transform="translate(-381.28 -33.99)" fill="#05457e"/><path d="M929.74,237.06l-9.33,10.45c-1.58-2.56-3.11-5-5-8.09Z" transform="translate(-381.28 -33.99)" fill="#05457e"/><path d="M741.3,538.59c.39-1.65.41-4.45,1.24-4.72,1.65-.52,5.19,0,5.4.73,1.16,4.24-3,3.24-4.87,4.55Z" transform="translate(-381.28 -33.99)" fill="#ebecec"/><path d="M745.08,527.53a19.4,19.4,0,0,1-4.29,2.16c-.62.15-1.59-1.1-2.4-1.71a19,19,0,0,1,3.73-2.76c.68-.29,1.84.54,2.78.87Z" transform="translate(-381.28 -33.99)" fill="#ebecec"/><path d="M692,529.3c.31-2.4.19-5.1,3.45-3.9,1.52.56,3.92,3,3.71,3.36C697.36,532,694.78,530.59,692,529.3Z" transform="translate(-381.28 -33.99)" fill="#ebecec"/><path d="M649.91,599.48c-.54-7.75-.48-7.85,6.48-6.27a23.17,23.17,0,0,1,6.3,2.18c1.06.6,2.36,2.69,2,3.39-.57,1.2-2.38,2.63-3.58,2.55A105,105,0,0,1,649.91,599.48Z" transform="translate(-381.28 -33.99)" fill="#05457e"/></svg>