<svg xmlns="http://www.w3.org/2000/svg" viewBox="0 0 436.47 430.35"><defs><style>.cls-1{fill:#68171d;}.cls-2{fill:#f4f3f3;}.cls-3{fill:#642b30;}.cls-4{fill:#7a3a3e;}.cls-5{fill:#632c30;}.cls-6{fill:#742b30;}.cls-7{fill:#67161c;}.cls-8{fill:#6c2127;}.cls-9{fill:#661d23;}.cls-10{fill:#632328;}.cls-11{fill:#ebdcde;}.cls-12{fill:#b77b81;}.cls-13{fill:#ede3e4;}.cls-14{fill:#f4eff0;}.cls-15{fill:#f3eff0;}.cls-16{fill:#f2edee;}.cls-17{fill:#f2efef;}.cls-18{fill:#ebdfe0;}.cls-19{fill:#f5f5f5;}.cls-20{fill:#6e3035;}.cls-21{fill:#68191f;}.cls-22{fill:#691b21;}.cls-23{fill:#691a20;}.cls-24{fill:#bda8ab;}.cls-25{fill:#e1dbdc;}.cls-26{fill:#692329;}.cls-27{fill:#f1e0e2;}</style></defs><title>warren-logo</title><g id="Layer_2" data-name="Layer 2"><g id="Layer_1-2" data-name="Layer 1"><path class="cls-1" d="M216.32,0C320.3.18,409,69.77,430.91,169.11c15.24,69-1,131.42-46.77,185.34-35.68,42-81.6,67-136.18,73.85-77,9.61-142.43-14.56-194.65-72.16C22.46,322.1,4.74,281.5.9,235.78c-6-71.84,18.29-132.4,71.82-180.67,35.15-31.71,77-49,124-54C203.81.38,211,.29,216.32,0ZM69.55,62.85v1l121,0,54,0H358.91c6.6,0,6.6,0,6.6,6.35q0,13.24,0,26.48v9l1,0V62.87h-122l-54,0Zm-1,48V257.61h.93V67.06h-.93ZM73,67.07c0,2.19,0,4,0,5.8-.1,13.83-.3,27.66-.28,41.48,0,48.33.34,96.65.23,145-.08,35.56,12.54,65.91,36.28,92,29.06,31.94,64.24,54.6,104.59,69.56a14.77,14.77,0,0,0,10.94,0,259.48,259.48,0,0,0,81.54-48.44c38.19-33.27,58.34-73.91,56.79-125.85-1.73-58.11-.5-116.31-.56-174.47V67.07Z"/><path class="cls-2" d="M73,67.07H362.51v5.06c.06,58.16-1.17,116.36.56,174.47,1.55,51.94-18.6,92.58-56.79,125.85a259.48,259.48,0,0,1-81.54,48.44,14.77,14.77,0,0,1-10.94,0c-40.35-15-75.53-37.62-104.59-69.56-23.74-26.1-36.36-56.45-36.28-92,.11-48.33-.18-96.65-.23-145,0-13.82.18-27.65.28-41.48C73,71.07,73,69.26,73,67.07ZM98.44,316a.82.82,0,0,0,.45.74c28.42,45.65,70.5,73.92,119.63,94.84V308.79H304c-2.9-14-2.9-14-15.47-15.4L287.49,283l-7.9,1.71-5.88-12.26-25.12-.63-7.15-7.9-.91-1.07-2.48-3-.6-.66-.15-.22-.81-1c-4.49-4-5.05-9.08-4.9-14.76.28-10.77,0-21.55-.07-32.33.19-1.79.52-3.57.53-5.36q.1-25.83.12-51.65l.46-1.66.63-1.3,1.43-4.44.61-1.56.27-1.92c.43-3.21.85-6.42,1.31-10,6.29-.78,11.76,2.21,17.31,4.68,10.28,4.57,20.9,7.85,32.18,8.34,6.7.29,13.43.05,20.28.05-10.23,28.07-20.69,56.77-31.27,85.77l36.24,25,34.86-25.56c-.62-1.91-1.06-3.51-1.64-5.06q-14.13-37.84-28.29-75.68c-1.7-4.53-4.65-8.93-.32-13.76.87-1,.72-3.27.38-4.8-.95-4.26-4.56-5.45-8.06-4.9-1.62.25-3.75,3.08-4,4.94-.39,3.16-1.87,3.72-4.49,4-8.65,1-16.41-2-24.05-5.35-12.64-5.58-25.21-12.14-39.27-12.12-8.59,0-13.55-3.31-17.19-10.24,0-4.8.06-9.6-.08-14.4-.17-5.4-.54-10.8-.82-16.19-1.94-.62-3.87-1.78-5.81-1.78q-61.62-.17-123.23,0c-1.68,0-3.36.75-5,1.15a1.24,1.24,0,0,1-.4.82,5.82,5.82,0,0,0-.68,1.81q.06,36.35.21,72.68-.06,48.15-.14,96.29l.11,1.65,0,3q.39,5.26.79,10.53a.65.65,0,0,1,.08.8l.61,4.17c.16,1.85.33,3.7.49,5.56l.81,5.47a.64.64,0,0,1,.1.79l.6,2.18.6,2.05a4.76,4.76,0,0,0-.26.89l.9,4.09a.77.77,0,0,1,.14.83l.71,2.16.35,1.7.91,3.28a2.05,2.05,0,0,0,.8.42l.2,2.49,1.06,3.07a3.12,3.12,0,0,0,.77.34L94.46,308a.77.77,0,0,0,.31.73l.84,1.9.72,1.28.09.23a.47.47,0,0,0,.19.49l1,2,.76,1.27Z"/><path class="cls-3" d="M244.49,62.87H366.54v42.78l-1,0v-9q0-13.23,0-26.48c0-6.35,0-6.35-6.6-6.35H244.49A7.69,7.69,0,0,0,244.49,62.87Z"/><path class="cls-4" d="M69.48,110.87V257.61h-.93V110.87h.93Z"/><path class="cls-5" d="M190.54,63.81l-121,0c0-.33,0-.66,0-1l121,0Q190.53,63.35,190.54,63.81Z"/><path class="cls-4" d="M190.54,63.81q0-.47,0-.93h54a7.69,7.69,0,0,1,0,1Z"/><path class="cls-6" d="M69.48,110.87h-.93V67.07h.93Z"/><path class="cls-6" d="M69.55,62.85c0,.34,0,.67,0,1C69.54,63.52,69.55,63.19,69.55,62.85Z"/><path class="cls-7" d="M91.56,300.73c-.07-.83-.13-1.66-.2-2.49-.25-.79-.49-1.59-.74-2.38l-1-1.32-.35-1.7.09-1.75-.77-3.23-.26-1.62-.55-1.37-.6-2.05c.05-.56.11-1.13.16-1.7l-.82-5.28-.85-1.47c-.16-1.85-.33-3.7-.49-5.55.05-1.23.1-2.47.16-3.7q-.44-5.64-.85-11.28a2.47,2.47,0,0,0-.79-.52l0-3c0-.55-.07-1.1-.11-1.65q.07-48.14.14-96.29a2.31,2.31,0,0,0,.79-.52,29.43,29.43,0,0,0,1-5.18q.09-30.93,0-61.86c0-6.93,0-6.92,7-6.93l102.26-.18,21.72,0a36.1,36.1,0,0,1,1,5.76c.1,8.42,0,16.84,0,25.26-1.75,2.41-3.39,4.92-5.33,7.18a4.26,4.26,0,0,1-3.25,1.45c-10.5-2.09-20.13,1-29.6,4.85-7.1,2.85-13.86,6.6-21.09,9-6.38,2.13-13.16,3.12-19.83,4.28-2.79.48-5-.38-5.27-4.15-.12-1.64-2.46-4.61-3.33-4.45-2.93.55-6.45,1.57-8.18,3.69-1.26,1.54-.08,5.11.09,7.77.14,2.15,1.11,4.53.48,6.39-8.71,25.83-17.4,51.68-26.64,77.32-2.51,7-1.46,12.8,2.69,18.13a35.29,35.29,0,0,0,9.84,8.92c14.42,8.29,34,5.41,45.7-6.37,5.78-5.8,8.38-12,5-20.65-6.25-15.92-11.4-32.28-17-48.47-3.22-9.36-6.37-18.75-9.86-29.05,13.14,4.78,25,2.8,36.8-1.61,6.84-2.58,13.63-5.31,20.55-7.66a109.91,109.91,0,0,1,11-2.58c.53,4.08.12,7.75,1.52,10.5,4.36,8.59,4.11,17.67,4.14,26.82.07,21.14-.58,42.34.63,63.42.82,14.14-1.72,25.77-13.62,34.3-.66.48-1,1.46-1.7,1.8-2.25,1.11-4.55,2.75-6.91,2.87-7.12.38-14.28.14-21.24.14-3.59,11.72-4.66,12.49-13.24,9.72-.09,1.17-.2,2.28-.25,3.39-.38,7.36-.38,7.28-7.59,7.59-1.48.06-3.82.51-4.25,1.47-2,4.3-3.35,8.84-5.25,14.11h6.62l79.44,0,0-.12V411.62c-49.13-20.92-91.21-49.19-119.63-94.84l-.45-.74-.07-.14-.76-1.27c-.34-.67-.67-1.33-1-2l.11-.31-.3-.18-.09-.23-.72-1.28-.84-1.9c.18-.35.08-.59-.31-.73-.36-1.28-.71-2.57-1.07-3.86-.27-.76-.54-1.52-.8-2.28Z"/><path class="cls-8" d="M219.57,108.32c3.64,6.93,8.6,10.25,17.19,10.24,14.06,0,26.63,6.54,39.27,12.12,7.64,3.37,15.4,6.32,24.05,5.35,2.62-.29,4.1-.85,4.49-4,.23-1.86,2.36-4.69,4-4.94,3.5-.55,7.11.64,8.06,4.9.34,1.53.49,3.83-.38,4.8-4.33,4.83-1.38,9.23.32,13.76q14.15,37.85,28.29,75.68c.58,1.55,1,3.15,1.64,5.06l-34.86,25.56-36.24-25c10.58-29,21-57.7,31.27-85.77-6.85,0-13.58.24-20.28-.05-11.28-.49-21.9-3.77-32.18-8.34-5.55-2.47-11-5.46-17.31-4.68-.46,3.55-.88,6.76-1.31,10l-2.91-1.11c1.08-6-1-11.06-4.72-15.69-2.69-3.38-5.2-6.9-7.8-10.36l-1.58-4.08-.07-2.92Zm93.28,46.23v72.82h26.4Zm-4.67,72.85V155.88l-.67-.12L282.45,227.4ZM285.72,232a13.45,13.45,0,0,0,1.42,1.71c5.58,4.18,11.14,8.38,16.78,12.47,7.77,5.65,7.8,5.6,15.45-.51,5.44-4.35,10.9-8.68,17.17-13.67Z"/><path class="cls-9" d="M232.66,141.85l2.91,1.11-.27,1.92-.61,1.56-1.43,4.44-.63,1.3-.46,1.66c-.63.89-1.81,1.78-1.81,2.68q0,24.58.2,49.18a29,29,0,0,0,1,5.15c.06,10.78.35,21.56.07,32.33-.15,5.68.41,10.78,4.9,14.76l.81,1,.15.22a1.33,1.33,0,0,0,.6.66c.83,1,1.65,2,2.48,3l.91,1.07q3.57,3.94,7.15,7.9l25.12.63,5.88,12.26c-.35.73-.71,1.45-1.07,2.17l-7.21-10-.79-.8-36.33-.39c.11-.61.21-1.23.31-1.84l5.77-1.2c3.08-.7,1.56-2,.45-3.29-4.09-4.82-8.14-9.66-12.2-14.5l-.84-2c-.06-11.28-.21-22.56-.15-33.84.09-14.75.34-29.5.52-44.25a.46.46,0,0,0,.19-.74q.25-11.11.5-22.21l.63-1.39a.39.39,0,0,1,.19-.59l.92-2.06,1.2-2.95.68-1.41Z"/><path class="cls-10" d="M278.52,286.83l1.07-2.17,7.9-1.71,1.06,10.44c12.57,1.4,12.57,1.4,15.47,15.4h-85.5l0,.12c.12-1.26.24-2.52.39-4.05h5.84q34.41,0,68.82,0a26.08,26.08,0,0,0,4.93-1c-.13-.67-.27-1.34-.4-2l-.54-1.17-.45-1.82-.56-1.08,0,0-12.08-1-.4-1c-.2-1-.4-2-.61-3l-.18-4-.82-.82Z"/><path class="cls-8" d="M194.77,77.7l-102.26.18c-7,0-7,0-7,6.93q0,30.93,0,61.86a29.43,29.43,0,0,1-1,5.18c0-2.66-.13-5.33-.14-8l-.18-66a1.24,1.24,0,0,0,.4-.82q52.16,0,104.32,0A55.28,55.28,0,0,1,194.77,77.7Z"/><path class="cls-11" d="M194.77,77.7a55.28,55.28,0,0,0-5.85-.62q-52.17-.06-104.32,0c1.67-.4,3.35-1.14,5-1.15q61.62-.09,123.23,0c1.94,0,3.87,1.16,5.81,1.78l-.18.13-2-.12Z"/><path class="cls-8" d="M231.52,210.85a29,29,0,0,1-1-5.15q-.23-24.58-.2-49.18c0-.9,1.18-1.79,1.81-2.68q0,25.82-.12,51.65C232,207.28,231.71,209.06,231.52,210.85Z"/><path class="cls-11" d="M84.2,77.88l.18,66c0,2.66.09,5.33.14,8a2.31,2.31,0,0,1-.79.52q-.12-36.35-.21-72.68A5.82,5.82,0,0,1,84.2,77.88Z"/><path class="cls-11" d="M219.57,108.32l-1.08.48,0,.11,0-31,.18-.13c.28,5.39.65,10.79.82,16.19C219.63,98.72,219.55,103.52,219.57,108.32Z"/><path class="cls-12" d="M273.71,272.4l-25.12-.63Z"/><path class="cls-8" d="M84.52,253.84q.42,5.64.85,11.28a8.81,8.81,0,0,1-.77-.47.65.65,0,0,0-.08-.8Z"/><path class="cls-11" d="M84.52,253.84v10q-.4-5.27-.79-10.53A2.47,2.47,0,0,1,84.52,253.84Z"/><path class="cls-8" d="M86.55,275.84q.4,2.64.82,5.28c-.26-.15-.51-.31-.76-.48a.64.64,0,0,0-.1-.79Z"/><path class="cls-11" d="M86.55,275.84c0,1.34,0,2.67,0,4l-.81-5.47Z"/><path class="cls-11" d="M84.6,264.65a8.81,8.81,0,0,0,.77.47c-.06,1.23-.11,2.47-.16,3.7Z"/><path class="cls-11" d="M88.36,286.24l.26,1.62-.17,2-.9-4.09A4.12,4.12,0,0,0,88.36,286.24Z"/><path class="cls-8" d="M88.45,289.85l.17-2c.26,1.08.51,2.15.77,3.23-.27-.13-.54-.26-.8-.41A.77.77,0,0,0,88.45,289.85Z"/><path class="cls-11" d="M91.56,300.73l1,1.13,0,1.94Z"/><path class="cls-11" d="M89.65,294.54l1,1.32-.06,2Z"/><path class="cls-11" d="M86.61,280.64c.25.17.5.33.76.48-.05.57-.11,1.14-.16,1.7Z"/><path class="cls-8" d="M90.56,297.82l.06-2c.25.79.49,1.59.74,2.38A2.05,2.05,0,0,1,90.56,297.82Z"/><path class="cls-11" d="M88.59,290.68c.26.15.53.28.8.41l-.09,1.75Z"/><path class="cls-8" d="M92.62,303.8l0-1.94c.26.76.53,1.52.8,2.28A3.12,3.12,0,0,1,92.62,303.8Z"/><path class="cls-8" d="M241.44,263.87l-.91-1.07Z"/><path class="cls-8" d="M238.05,259.78a1.33,1.33,0,0,1-.6-.66Z"/><path class="cls-8" d="M88.36,286.24a4.12,4.12,0,0,1-.81-.48,4.76,4.76,0,0,1,.26-.89Z"/><path class="cls-8" d="M234.69,146.44l.61-1.56Z"/><path class="cls-8" d="M232.63,152.18l.63-1.3Z"/><path class="cls-11" d="M83.59,248.66c0,.55.08,1.1.11,1.65C83.67,249.76,83.63,249.21,83.59,248.66Z"/><path class="cls-8" d="M237.3,258.9l-.81-1Z"/><path class="cls-11" d="M94.46,308c.39.14.49.38.31.73A.77.77,0,0,1,94.46,308Z"/><path class="cls-11" d="M95.61,310.63l.72,1.28Z"/><path class="cls-11" d="M96.42,312.14l.3.18-.11.31A.47.47,0,0,1,96.42,312.14Z"/><path class="cls-11" d="M97.61,314.63l.76,1.27Z"/><path class="cls-11" d="M98.44,316l.45.74A.82.82,0,0,1,98.44,316Z"/><path class="cls-13" d="M298.53,303.84a26.08,26.08,0,0,1-4.93,1q-34.41.09-68.82,0h-5.84c-.15,1.53-.27,2.79-.39,4.05l-79.44,0h-6.62c1.9-5.27,3.3-9.81,5.25-14.11.43-1,2.77-1.41,4.25-1.47,7.21-.31,7.21-.23,7.59-7.59,0-1.11.16-2.22.25-3.39,8.58,2.77,9.65,2,13.24-9.72,7,0,14.12.24,21.24-.14,2.36-.12,4.66-1.76,6.91-2.87.7-.34,1-1.32,1.7-1.8,11.9-8.53,14.44-20.16,13.62-34.3-1.21-21.08-.56-42.28-.63-63.42,0-9.15.22-18.23-4.14-26.82-1.4-2.75-1-6.42-1.52-10.5a109.91,109.91,0,0,0-11,2.58c-6.92,2.35-13.71,5.08-20.55,7.66C157,147.4,145,149.38,131.9,144.6c3.49,10.3,6.64,19.69,9.86,29.05,5.57,16.19,10.72,32.55,17,48.47,3.41,8.67.81,14.85-5,20.65-11.71,11.78-31.28,14.66-45.7,6.37a35.29,35.29,0,0,1-9.84-8.92c-4.15-5.33-5.2-11.15-2.69-18.13,9.24-25.64,17.93-51.49,26.64-77.32.63-1.86-.34-4.24-.48-6.39-.17-2.66-1.35-6.23-.09-7.77,1.73-2.12,5.25-3.14,8.18-3.69.87-.16,3.21,2.81,3.33,4.45.28,3.77,2.48,4.63,5.27,4.15,6.67-1.16,13.45-2.15,19.83-4.28,7.23-2.4,14-6.15,21.09-9,9.47-3.82,19.1-6.94,29.6-4.85a4.26,4.26,0,0,0,3.25-1.45c1.94-2.26,3.58-4.77,5.33-7.18l1.06.15,0-.11c0,1,0,2,.07,2.92s-.09,2.22-.13,3.33c-3.1,3.81-6.29,7.55-9.29,11.45-5,6.51-5.86,13.37-2.33,21A31.7,31.7,0,0,1,210,159.9c.38,25-.37,50,.69,74.92.6,13.85-1.64,25.45-13.21,34a4.83,4.83,0,0,0-.86,1.2l-1.67,2.06h22.64l1,.66.06,3.1c-16.15,0-32.3.05-48.45,0-2.62,0-4.14.39-5,3.31-1.55,5.05-4.76,8.74-10.71,8.91l-1.26,8.82a45.65,45.65,0,0,1-6.64-.05c-5.5-.84-6.89,2.19-6.9,7.09h78.9V275.78l1,0,1-.05,2,.35c-1,1.61-2.79,3.18-2.89,4.85-.35,6,.12,12-.23,18-.23,4.11,1.32,5,5.15,5C249.21,303.77,273.87,303.84,298.53,303.84Zm-199-77.92A13.52,13.52,0,0,0,103,227q10.11.15,20.22,0a8.77,8.77,0,0,0,2.71-1.05q.08-16,.17-32l-.21-1.13-.12-18.88V156.8c0-1,0-2-.08-3l-.19-1.68-.93,1.7Zm29.84-51.09v51.53h26.89c-8.73-24.48-17.29-48.47-26.23-73.56l-.79,4.1Q129.25,165.86,129.32,174.83ZM99,230.66c3.34,11.57,16.52,19.53,30.77,19,10.62-.39,24.19-8.24,26.47-19Z"/><path class="cls-8" d="M218.54,108.91l-1.06-.15c0-8.42.08-16.84,0-25.26a36.1,36.1,0,0,0-1-5.76l2,.12Q218.52,93.39,218.54,108.91Z"/><path class="cls-14" d="M232.66,141.85l-.3,1.57c-.23.47-.46.94-.68,1.41l-1.2,2.95-.92,2.06a.4.4,0,0,0-.19.6l-.63,1.38q-.26,11.1-.5,22.21a.47.47,0,0,0-.19.74c-.18,14.75-.43,29.5-.52,44.25-.06,11.28.09,22.56.15,33.84l.84,2c4.06,4.84,8.11,9.68,12.2,14.5,1.11,1.31,2.63,2.59-.45,3.29L218.44,272l-.05-.13q.09-46.68.16-93.36c0-9.81,0-19.61,0-29.29,11.81-5.94,12.54-15.48,2-22.43q-.18-5.52-.37-11c2.6,3.46,5.11,7,7.8,10.36C231.63,130.79,233.74,135.82,232.66,141.85Z"/><path class="cls-15" d="M312.85,154.55l26.4,72.82h-26.4Z"/><path class="cls-16" d="M308.18,227.4H282.45l25.06-71.64.67.12Z"/><path class="cls-17" d="M285.72,232h50.82c-6.27,5-11.73,9.32-17.17,13.67-7.65,6.11-7.68,6.16-15.45.51-5.64-4.09-11.2-8.29-16.78-12.47A13.45,13.45,0,0,1,285.72,232Z"/><path class="cls-18" d="M220.14,115.8q.2,5.51.37,11l-1.94,4c-4.31.28-5.52,3.11-5.44,6.81.08,3.5,1.31,6.17,5.44,6.21l-1.11,4.56c-5.22-1.41-8.25-4.93-8.86-10.17-.55-4.78,1.73-8.87,6-10.48,4-1.52,4.06-4.1,4-7.25,0-1.83-.12-3.65-.18-5.47,0-1.11.08-2.22.13-3.33Z"/><path class="cls-19" d="M298.53,303.84c-24.66,0-49.32-.07-74,.08-3.83,0-5.38-.88-5.15-5,.35-6-.12-12,.23-18,.1-1.67,1.88-3.24,2.89-4.85l9.17-.4,1.54-.13.47.17.48-.07,36.33.38.79.8,7.21,10,4,1.2.82.82.18,4c.21,1,.41,2,.61,3l.4,1,12.08,1,0,0,.56,1.08.45,1.82.54,1.17C298.26,302.5,298.4,303.17,298.53,303.84Z"/><path class="cls-20" d="M233.24,275.57l-1.54.13c-1.85-3.62-9.09-4.12-12.19-.85,0,.32,0,.63,0,.95l-1,0,.1.09-.06-3.09a1,1,0,0,1-.08-.74l21.83.58-5.77,1.2Z"/><path class="cls-8" d="M229.56,149.84l.92-2.06C230.18,148.47,229.87,149.15,229.56,149.84Z"/><path class="cls-8" d="M228.52,254.83l-.84-2Z"/><path class="cls-8" d="M228.05,174.77a.47.47,0,0,1,.19-.74A.46.46,0,0,1,228.05,174.77Z"/><path class="cls-8" d="M231.68,144.83c.22-.47.45-.94.68-1.41C232.13,143.89,231.9,144.36,231.68,144.83Z"/><path class="cls-8" d="M228.74,151.82l.63-1.38Z"/><path class="cls-13" d="M271.31,276.85l-.79-.8Z"/><path class="cls-7" d="M233.24,275.57l1.26-1.75c-.1.61-.2,1.23-.31,1.84l-.48.08Z"/><path class="cls-13" d="M296.6,297.78l-12.08-1Z"/><path class="cls-13" d="M284.12,295.8c-.2-1-.4-2-.61-3C283.72,293.83,283.92,294.81,284.12,295.8Z"/><path class="cls-13" d="M297.14,298.83l-.56-1.08Z"/><path class="cls-13" d="M283.33,288.85l-.82-.82Z"/><path class="cls-13" d="M298.13,301.82l-.54-1.17Z"/><path class="cls-1" d="M218.48,275.78v28.14h-78.9c0-4.9,1.4-7.93,6.9-7.09a45.65,45.65,0,0,0,6.64.05l1.26-8.82c6-.17,9.16-3.86,10.71-8.91.9-2.92,2.42-3.33,5-3.31,16.15.09,32.3,0,48.45,0Z"/><path class="cls-21" d="M218.43,115.05c.06,1.82.15,3.64.18,5.47,0,3.15,0,5.73-4,7.25-4.27,1.61-6.55,5.7-6,10.48.61,5.24,3.64,8.76,8.86,10.17l.09,123.4,0,.07c-5.64,0-11.28.05-16.91-.16-1.35-.06-2.67-1.09-4-1.67a4.83,4.83,0,0,1,.86-1.2c11.57-8.59,13.81-20.19,13.21-34-1.06-24.94-.31-49.94-.69-74.92a31.7,31.7,0,0,0-3.16-12.36c-3.53-7.67-2.67-14.53,2.33-21C212.14,122.6,215.33,118.86,218.43,115.05Z"/><path class="cls-22" d="M129.19,156.9l.79-4.1c8.94,25.09,17.5,49.08,26.23,73.56H129.32V174.83Q129.26,165.86,129.19,156.9Z"/><path class="cls-23" d="M125.64,153.84l.08,3v17.09l.12,18.88.21,1.13q-.09,16-.17,32H99.48l25-72.06Z"/><path class="cls-21" d="M99,230.66h57.24c-2.28,10.76-15.85,18.61-26.47,19C115.47,250.19,102.29,242.23,99,230.66Z"/><path class="cls-7" d="M219.51,274.85c3.1-3.27,10.34-2.77,12.19.85l-9.17.4-2-.35Z"/><path class="cls-24" d="M99.48,225.92h26.4a8.77,8.77,0,0,1-2.71,1.05q-10.11.14-20.22,0A13.52,13.52,0,0,1,99.48,225.92Z"/><path class="cls-20" d="M196.59,270.06c1.34.58,2.66,1.61,4,1.67,5.63.21,11.27.13,16.91.16l.05.23H194.92Z"/><path class="cls-25" d="M129.19,156.9q.06,9,.13,17.93Q129.26,165.86,129.19,156.9Z"/><path class="cls-24" d="M125.72,173.89v0Z"/><path class="cls-24" d="M125.64,153.84l-1.12,0,.93-1.7Z"/><path class="cls-9" d="M219.51,274.85l1,.9-1,.05C219.51,275.48,219.51,275.17,219.51,274.85Z"/><path class="cls-24" d="M126.05,193.9l-.21-1.13Z"/><path class="cls-7" d="M217.56,272.12l-.05-.23,0-.07.42.1h.42l.05.13a1,1,0,0,0,.08.74Z"/><path class="cls-20" d="M218.39,271.91H218l-.42-.1-.09-123.4,1.11-4.56-.1,0c6-3.62,6-9.29,0-13.09l.1,0,1.94-4c10.58,7,9.85,16.49-2,22.43,0,9.68,0,19.48,0,29.29Q218.48,225.23,218.39,271.91Z"/><path class="cls-26" d="M218.57,143.86c-4.13,0-5.36-2.71-5.44-6.21-.08-3.7,1.13-6.53,5.44-6.81l-.1,0v13.09Z"/><path class="cls-27" d="M218.47,143.89V130.8C224.47,134.6,224.47,140.27,218.47,143.89Z"/></g></g></svg>